<?xml version="1.0" standalone="no"?>
<!DOCTYPE svg PUBLIC "-//W3C//DTD SVG 20010904//EN"
 "http://www.w3.org/TR/2001/REC-SVG-20010904/DTD/svg10.dtd">
<svg version="1.0" xmlns="http://www.w3.org/2000/svg"
 width="300.000000pt" height="32.000000pt" viewBox="0 0 300.000000 32.000000"
 preserveAspectRatio="xMidYMid meet">
<metadata>
Created by potrace 1.10, written by Peter Selinger 2001-2011
</metadata>
<g transform="translate(0.000000,32.000000) scale(0.100000,-0.100000)"
fill="#ebebeb" stroke="none">
<path d="M2068 313 l-88 -4 0 -144 0 -145 71 0 c39 0 80 -5 92 -11 21 -11 21
-11 4 7 -13 14 -34 19 -80 21 l-62 1 1 59 0 58 42 3 c23 2 42 7 42 13 0 5 -19
8 -42 7 l-42 -3 -1 55 0 55 67 5 c37 3 73 11 80 18 6 6 10 11 8 10 -3 -1 -44
-4 -92 -5z"/>
<path d="M2633 313 c-71 -2 -123 -8 -123 -13 0 -6 25 -10 55 -10 l55 0 0 -135
c0 -83 4 -135 10 -135 6 0 10 52 10 135 l0 135 43 0 c24 0 52 7 63 15 10 8 17
14 14 13 -3 -1 -60 -4 -127 -5z"/>
<path d="M2913 313 l-83 -4 0 -144 0 -145 63 0 c34 0 73 -3 87 -5 22 -5 21 -3
-5 9 -16 9 -51 15 -77 16 l-48 0 0 60 0 60 46 0 c29 0 43 4 39 11 -4 6 -22 8
-46 4 l-39 -7 0 61 0 61 64 0 c44 0 67 5 76 15 7 8 11 14 9 13 -2 -1 -41 -4
-86 -5z"/>
<path d="M52 160 c-28 -84 -46 -150 -39 -147 6 2 17 21 23 43 11 39 11 39 67
42 48 3 56 0 62 -17 8 -27 44 -71 57 -71 7 0 2 10 -9 23 -12 12 -40 78 -63
147 -23 69 -43 126 -45 128 -2 2 -26 -65 -53 -148z m77 26 c11 -33 18 -62 15
-65 -5 -5 -76 -2 -81 3 -2 2 4 25 13 52 9 27 18 55 20 63 6 19 9 14 33 -53z"/>
<path d="M653 303 c-71 -2 -113 -8 -113 -14 0 -7 19 -10 50 -7 l50 3 0 -137
c0 -86 4 -138 10 -138 13 0 14 5 14 148 l1 124 48 3 c27 1 54 8 60 14 6 6 7
10 2 9 -6 -1 -61 -4 -122 -5z"/>
<path d="M928 303 l-78 -4 0 -144 0 -144 90 -3 c74 -2 87 -1 73 10 -9 6 -45
12 -80 12 l-63 0 0 66 0 66 45 -4 c26 -2 45 1 45 7 0 6 -19 9 -45 7 l-45 -4 0
55 0 55 65 4 c36 2 70 9 77 16 7 7 8 11 3 10 -6 -1 -45 -4 -87 -5z"/>
<path d="M1254 173 c-55 -157 -46 -159 -106 24 -18 56 -37 101 -41 100 -13 -4
-12 -7 35 -147 36 -111 45 -130 63 -130 17 0 27 20 65 132 55 162 54 158 42
158 -5 0 -31 -62 -58 -137z"/>
<path d="M1410 165 c0 -90 4 -145 10 -145 6 0 10 55 10 145 0 90 -4 145 -10
145 -6 0 -10 -55 -10 -145z"/>
<path d="M1690 183 c-23 -71 -46 -131 -50 -136 -3 -4 -26 51 -51 123 -24 71
-47 130 -51 130 -15 0 -8 -28 36 -151 35 -99 48 -125 64 -127 17 -3 26 14 66
135 49 147 50 153 38 153 -4 0 -28 -57 -52 -127z"/>
<path d="M1840 165 c0 -90 4 -145 10 -145 6 0 10 55 10 145 0 90 -4 145 -10
145 -6 0 -10 -55 -10 -145z"/>
<path d="M2240 165 c0 -182 18 -197 22 -19 l3 126 65 -93 c35 -52 77 -112 92
-133 l28 -39 0 152 c0 114 -3 152 -12 149 -8 -3 -12 -38 -11 -116 0 -62 -2
-112 -6 -111 -3 0 -40 52 -81 114 -41 63 -81 115 -87 115 -10 0 -13 -36 -13
-145z"/>
<path d="M290 155 c0 -90 4 -145 10 -145 6 0 10 30 10 70 0 90 13 91 76 5 26
-36 48 -65 48 -65 1 0 16 -4 34 -9 17 -5 32 -6 32 -1 0 5 -10 10 -22 12 -13 2
-43 28 -70 63 l-48 59 46 12 c25 6 50 17 54 24 13 21 5 101 -11 111 -8 5 -47
9 -86 9 l-73 0 0 -145z m152 111 c13 -19 9 -64 -8 -80 -10 -11 -34 -16 -70
-16 l-54 0 0 53 c0 30 3 57 7 60 10 10 117 -4 125 -17z"/>
</g>
</svg>
