<?xml version="1.0" standalone="no"?>
<!DOCTYPE svg PUBLIC "-//W3C//DTD SVG 20010904//EN"
 "http://www.w3.org/TR/2001/REC-SVG-20010904/DTD/svg10.dtd">
<svg version="1.0" xmlns="http://www.w3.org/2000/svg"
 width="300.000000pt" height="55.000000pt" viewBox="0 0 300.000000 55.000000"
 preserveAspectRatio="xMidYMid meet">
<metadata>
Created by potrace 1.10, written by Peter Selinger 2001-2011
</metadata>
<g transform="translate(0.000000,55.000000) scale(0.100000,-0.100000)"
fill="#52633b" stroke="none">
<path d="M8 533 c-2 -5 -1 -66 2 -138 3 -72 2 -155 -1 -185 -4 -35 -2 -58 5
-62 7 -5 12 12 14 52 4 77 21 78 80 6 36 -46 82 -78 82 -58 0 7 -82 106 -92
110 -15 7 -8 17 23 31 30 13 74 69 63 80 -3 3 -10 -2 -15 -11 -13 -23 -90 -68
-117 -68 -21 0 -22 4 -22 125 0 71 -4 125 -9 125 -6 0 -11 -3 -13 -7z"/>
<path d="M1597 513 c-4 -3 -7 -91 -7 -195 0 -175 1 -189 18 -187 9 2 34 0 55
-5 23 -4 52 -3 72 4 28 9 37 19 45 49 13 50 3 99 -25 117 -12 8 -47 23 -76 33
l-54 19 -3 86 c-3 80 -8 97 -25 79z m10 -35 c-3 -8 -6 -5 -6 6 -1 11 2 17 5
13 3 -3 4 -12 1 -19z m0 -50 c-3 -8 -6 -5 -6 6 -1 11 2 17 5 13 3 -3 4 -12 1
-19z m86 -132 c42 -20 66 -27 63 -19 -3 8 -1 11 4 8 6 -3 8 -16 6 -28 -14 -66
-15 -88 -6 -82 6 3 10 1 10 -5 0 -7 -6 -10 -13 -7 -7 3 -21 -1 -32 -9 -20 -15
-62 -18 -89 -8 -13 5 -16 24 -18 93 l-2 86 -6 -95 -6 -95 -2 125 c-1 105 1
121 11 97 8 -20 32 -37 80 -61z"/>
<path d="M2774 464 c-37 -34 -41 -41 -19 -29 47 26 88 62 78 68 -5 3 -32 -14
-59 -39z"/>
<path d="M2965 471 c-8 -15 3 -31 21 -31 9 0 14 7 12 17 -4 20 -24 28 -33 14z"/>
<path d="M857 375 c-15 -11 -17 -27 -15 -120 3 -94 5 -108 21 -111 15 -2 17 8
17 87 l0 89 38 15 c77 33 76 33 82 -85 4 -84 8 -105 20 -105 12 0 16 19 20 89
l5 88 45 18 c25 10 50 15 57 13 9 -4 13 -35 13 -110 0 -91 2 -104 16 -101 14
3 16 18 15 108 -3 139 -11 148 -102 109 l-50 -22 -15 22 c-19 26 -44 27 -94 1
-49 -25 -48 -25 -52 4 -3 22 -5 23 -21 11z"/>
<path d="M1477 376 c-14 -11 -17 -29 -17 -93 l0 -79 -35 -17 c-20 -9 -47 -17
-60 -17 -25 0 -25 0 -25 100 0 93 -1 100 -20 100 -19 0 -20 -7 -20 -98 0 -68
4 -104 14 -117 14 -19 15 -19 67 -1 30 9 60 20 67 23 7 3 12 -3 12 -16 0 -12
6 -20 13 -18 8 1 13 37 17 122 3 66 5 121 5 122 0 1 -8 -4 -18 -11z"/>
<path d="M583 373 c-20 -14 -33 -62 -33 -124 0 -51 4 -64 26 -86 24 -24 30
-25 96 -21 44 4 74 11 79 19 12 19 11 180 -1 199 -10 16 -146 27 -167 13z
m142 -34 c12 -13 17 -127 6 -147 -10 -19 -20 -22 -71 -22 -48 0 -61 4 -70 19
-14 28 -13 134 3 150 12 12 119 12 132 0z"/>
<path d="M304 356 c-8 -9 0 -37 32 -111 28 -62 42 -107 38 -120 -11 -36 -54
-92 -81 -104 -14 -6 -23 -14 -20 -17 10 -10 74 26 94 54 10 15 44 88 74 162
30 74 56 138 57 142 2 4 -3 8 -11 8 -10 0 -29 -33 -53 -90 -20 -50 -38 -90
-39 -90 -2 0 -17 37 -35 83 -38 95 -41 100 -56 83z"/>
<path d="M1890 342 c-21 -17 -25 -30 -28 -95 -4 -71 -3 -77 23 -103 25 -25 30
-26 97 -21 39 3 73 9 77 12 10 11 7 193 -4 204 -5 5 -39 13 -75 17 -56 5 -68
4 -90 -14z m120 -17 c27 -4 32 -3 20 5 -13 10 -13 11 0 7 12 -3 15 -22 15 -89
0 -48 -3 -89 -6 -92 -4 -4 -28 -9 -55 -12 -40 -5 -54 -2 -74 14 -22 18 -25 28
-25 94 -1 40 0 75 1 78 3 7 74 4 124 -5z"/>
<path d="M2173 353 c-10 -3 -13 -36 -13 -117 0 -93 3 -113 15 -113 12 0 15 17
15 87 l0 88 52 22 c50 21 52 22 66 4 13 -17 14 -17 9 -1 -4 9 -2 17 4 17 6 0
9 -10 8 -22 -2 -13 1 -29 5 -37 6 -9 5 -12 -1 -8 -7 5 -11 -18 -11 -68 0 -58
3 -75 14 -75 11 0 14 21 14 98 0 137 -21 153 -127 98 -31 -15 -32 -15 -35 8
-2 13 -8 21 -15 19z m11 -38 c3 -8 1 -15 -4 -15 -6 0 -10 7 -10 15 0 8 2 15 4
15 2 0 6 -7 10 -15z m-7 -122 c-2 -21 -4 -6 -4 32 0 39 2 55 4 38 2 -18 2 -50
0 -70z"/>
<path d="M2457 342 c-18 -19 -22 -59 -9 -78 12 -18 127 -50 115 -32 -3 7 -1 8
6 4 7 -5 9 -16 5 -28 -4 -13 -2 -18 4 -14 6 3 4 -7 -4 -23 -20 -40 -47 -47
-94 -23 -46 22 -55 10 -10 -13 82 -42 151 8 121 88 -8 21 -21 27 -78 37 -37 7
-62 15 -55 17 6 3 12 16 12 29 0 30 37 47 89 39 27 -4 31 -3 16 4 -35 17 -100
13 -118 -7z"/>
<path d="M2759 350 c24 -4 50 -14 56 -24 10 -13 14 -14 19 -4 3 7 4 3 2 -9 -2
-13 0 -26 5 -29 5 -3 9 -13 9 -22 -1 -16 -2 -16 -14 1 -15 19 -31 16 -113 -25
-43 -22 -67 -68 -34 -68 14 0 14 -2 1 -10 -13 -9 -12 -12 4 -25 22 -17 37 -18
114 -9 l52 7 0 93 c0 88 -1 94 -26 113 -19 15 -40 21 -73 20 l-46 -2 44 -7z
m73 -148 l3 -58 -34 -3 c-19 -1 -37 -3 -40 -5 -16 -9 -50 16 -59 44 -6 17 -8
29 -4 26 4 -2 32 9 62 25 30 15 58 28 62 29 3 0 8 -26 10 -58z"/>
<path d="M2983 353 c-9 -3 -13 -37 -13 -119 0 -64 3 -113 8 -111 4 3 6 52 6
109 -1 56 3 109 8 116 11 13 10 13 -9 5z"/>
</g>
</svg>
