<?xml version="1.0" standalone="no"?>
<!DOCTYPE svg PUBLIC "-//W3C//DTD SVG 20010904//EN"
 "http://www.w3.org/TR/2001/REC-SVG-20010904/DTD/svg10.dtd">
<svg version="1.0" xmlns="http://www.w3.org/2000/svg"
 width="300.000000pt" height="300.000000pt" viewBox="0 0 300.000000 300.000000"
 preserveAspectRatio="xMidYMid meet">
<metadata>
Created by potrace 1.10, written by Peter Selinger 2001-2011
</metadata>
<g transform="translate(0.000000,300.000000) scale(0.100000,-0.100000)"
fill="#000000" stroke="none">
<path d="M1475 2207 c-14 -11 -33 -20 -43 -22 -9 -2 -19 -4 -22 -6 -8 -3 -23
-7 -39 -8 -7 0 -11 -7 -8 -15 4 -10 -5 -16 -31 -21 -20 -4 -47 -16 -60 -28
-13 -12 -24 -21 -25 -19 -4 7 -57 -18 -57 -26 0 -5 -11 -15 -25 -22 -14 -7
-25 -19 -25 -27 0 -7 -7 -13 -15 -13 -8 0 -15 -4 -15 -10 0 -5 -6 -10 -14 -10
-8 0 -18 -9 -21 -20 -4 -13 -15 -20 -30 -20 -13 0 -27 -4 -30 -10 -6 -10 8
-14 34 -10 20 3 83 46 81 56 -1 5 3 10 8 12 6 2 8 -6 5 -17 -3 -11 -12 -22
-22 -24 -9 -2 1 -4 21 -4 35 -1 59 19 38 32 -6 4 -10 -1 -10 -9 0 -9 -4 -16
-8 -16 -5 0 -8 12 -6 28 3 38 3 39 14 22 7 -11 10 -11 10 -2 0 7 5 10 10 7 6
-3 8 -20 5 -37 -5 -27 -4 -29 9 -18 9 7 13 16 10 21 -3 5 0 9 5 9 6 0 11 5 11
11 0 5 -4 8 -9 5 -4 -3 -17 4 -27 15 -15 16 -16 21 -4 19 31 -5 50 0 50 13 0
8 11 24 25 37 14 13 25 19 25 14 0 -5 4 -3 9 5 5 8 23 14 40 15 20 1 33 7 36
18 6 18 35 33 35 18 0 -6 -4 -10 -10 -10 -5 0 -10 -7 -10 -16 0 -21 -27 -47
-41 -38 -7 4 -10 2 -8 -5 3 -7 8 -12 12 -12 4 1 15 1 25 1 11 0 17 8 18 26 1
14 9 33 19 44 13 14 13 19 3 23 -7 3 -8 6 -2 6 6 1 17 -6 24 -14 18 -22 29
-18 22 7 -4 15 -2 19 7 13 7 -4 11 -18 8 -31 -2 -13 0 -21 4 -18 5 3 10 -5 10
-18 1 -16 3 -18 6 -6 2 9 0 33 -6 52 -9 35 -9 36 20 36 16 0 29 4 29 9 0 13
42 5 50 -9 4 -6 11 -10 16 -9 5 1 12 0 17 -1 4 -1 10 -3 15 -4 4 0 18 -11 32
-24 18 -16 21 -25 13 -33 -9 -9 -16 -3 -28 22 -8 20 -13 25 -11 12 3 -17 -4
-25 -30 -38 -34 -16 -48 -30 -18 -18 12 4 14 0 8 -22 -5 -21 -3 -26 6 -23 8 2
16 10 18 18 3 7 0 10 -7 6 -7 -5 -9 -1 -5 9 5 12 12 10 37 -15 17 -16 33 -27
36 -24 3 4 1 9 -5 11 -6 2 -9 14 -7 27 5 23 6 23 22 8 14 -13 15 -21 7 -31 -8
-11 -8 -13 1 -8 6 4 14 3 18 -3 13 -21 24 -10 15 15 -7 17 -6 25 1 25 8 0 8 4
0 14 -9 11 -9 16 0 22 8 5 9 3 4 -6 -5 -9 -4 -11 3 -6 15 9 61 -24 62 -44 0
-9 -5 -7 -16 8 -18 26 -30 28 -38 6 -3 -9 -2 -12 4 -9 6 4 19 -3 28 -16 15
-17 22 -20 38 -12 23 13 44 6 44 -13 0 -9 5 -12 10 -9 6 3 10 1 10 -5 0 -6 5
-8 12 -4 7 5 9 0 6 -14 -4 -13 0 -23 9 -26 8 -4 13 -13 10 -21 -4 -8 -1 -12 6
-9 7 2 13 -6 13 -21 1 -14 -2 -25 -7 -25 -4 0 -6 -7 -3 -15 4 -8 1 -15 -5 -15
-9 0 -14 20 -10 46 1 8 -23 24 -36 24 -5 0 -5 -4 2 -8 7 -4 11 -21 10 -37 -3
-29 16 -88 35 -112 7 -9 15 -7 31 8 l22 20 17 -22 c10 -11 18 -16 18 -11 0 6
-4 14 -10 17 -21 13 -10 26 13 14 16 -8 14 -4 -7 13 l-29 25 30 0 c26 0 30 -4
31 -28 0 -16 -4 -31 -9 -35 -11 -6 -3 -24 11 -24 5 0 7 7 4 15 -4 11 -2 13 9
9 10 -3 20 2 27 15 7 14 7 21 0 21 -5 0 -10 -4 -10 -10 0 -5 -5 -10 -12 -10
-9 0 -9 3 0 12 7 7 12 23 12 38 1 23 3 21 22 -15 14 -26 17 -40 9 -43 -6 -2
-11 -11 -11 -20 0 -13 4 -11 16 6 9 13 13 31 9 42 -4 11 -2 20 4 20 6 0 11 5
11 11 0 6 -7 9 -15 6 -8 -4 -17 -1 -21 5 -4 7 -3 8 4 4 7 -4 12 -2 12 3 0 6
-4 11 -9 11 -5 0 -13 9 -16 20 -3 11 -12 20 -19 20 -8 0 -19 7 -26 15 -7 8
-16 13 -20 10 -4 -3 -19 5 -32 18 -49 43 -78 67 -84 67 -4 0 -14 9 -23 19 -9
11 -26 21 -36 23 -11 1 -32 14 -47 27 -33 28 -75 51 -95 51 -9 0 -23 8 -32 19
-9 10 -32 22 -51 26 -19 4 -41 12 -49 19 -21 17 -78 13 -106 -7z m242 -81 c-3
-7 0 -19 6 -25 6 -6 8 -11 3 -11 -4 0 -13 6 -20 13 -14 13 -10 37 6 37 6 0 8
-6 5 -14z m-58 -15 c7 -5 12 -14 10 -20 -3 -7 -11 -3 -21 9 -18 21 -13 26 11
11z m-432 -67 c-3 -3 -12 -4 -19 -1 -8 3 -5 6 6 6 11 1 17 -2 13 -5z m764 -94
c13 -14 32 -31 42 -39 15 -12 17 -12 12 5 -4 12 0 9 9 -6 19 -31 22 -80 4 -62
-7 7 -23 12 -36 12 -24 0 -24 1 -8 25 9 14 12 25 6 25 -5 0 -10 -4 -10 -10 0
-5 -7 -10 -16 -10 -11 0 -14 -6 -9 -20 4 -12 2 -20 -6 -20 -8 0 -9 -3 0 -14 8
-10 8 -16 -1 -24 -25 -21 -39 -16 -53 16 -8 17 -10 32 -6 32 5 0 11 -9 14 -20
3 -11 13 -20 22 -20 9 0 15 6 12 13 -2 6 -10 11 -16 10 -6 -2 -11 4 -11 12 0
10 6 12 18 8 15 -6 15 -5 3 10 -12 15 -9 21 12 18 12 -2 8 16 -8 29 -12 10
-13 16 -4 26 9 11 8 14 0 14 -12 0 -41 24 -41 34 0 10 47 -20 71 -44z"/>
<path d="M1982 1921 c7 -11 16 -17 20 -14 10 5 -10 33 -23 33 -5 0 -4 -9 3
-19z"/>
<path d="M2038 1883 c7 -3 16 -2 19 1 4 3 -2 6 -13 5 -11 0 -14 -3 -6 -6z"/>
<path d="M1530 2170 c-7 -14 -7 -20 0 -20 5 0 10 -6 10 -12 -1 -7 -10 -2 -20
11 -12 13 -20 18 -20 10 1 -19 28 -54 36 -46 4 4 13 2 21 -4 18 -15 16 -4 -3
27 -13 19 -14 28 -5 37 8 8 11 5 11 -13 0 -23 0 -23 16 -4 15 18 15 18 9 -3
-5 -18 -3 -22 9 -17 22 8 20 20 -6 38 -30 21 -45 20 -58 -4z"/>
<path d="M1610 2175 c0 -5 5 -17 10 -25 5 -8 10 -10 10 -5 0 6 -5 17 -10 25
-5 8 -10 11 -10 5z"/>
<path d="M1440 2115 c33 -19 49 -19 24 0 -10 8 -26 14 -34 14 -9 0 -4 -6 10
-14z"/>
<path d="M1325 2100 c-3 -6 1 -7 9 -4 18 7 21 14 7 14 -6 0 -13 -4 -16 -10z"/>
<path d="M1413 2090 c-2 -18 0 -18 13 -6 17 18 18 26 1 26 -7 0 -13 -9 -14
-20z"/>
<path d="M1525 2090 c4 -6 11 -8 16 -5 14 9 11 15 -7 15 -8 0 -12 -5 -9 -10z"/>
<path d="M1461 2083 c0 -4 4 -17 9 -28 8 -19 9 -19 9 2 1 12 -3 25 -9 28 -5 3
-10 3 -9 -2z"/>
<path d="M1558 2068 c-2 -12 -9 -24 -17 -26 -9 -3 -12 0 -8 11 3 9 -1 17 -13
20 -17 4 -17 2 -7 -16 7 -12 17 -26 23 -32 17 -15 25 -45 12 -45 -6 0 -9 -3
-5 -6 7 -7 -15 -33 -24 -28 -4 2 -12 -3 -19 -11 -9 -10 -9 -15 -1 -15 6 0 11
5 11 11 0 5 4 8 8 5 5 -3 20 5 35 18 19 16 23 26 15 34 -8 8 -6 15 6 27 20 20
20 26 1 19 -19 -8 -19 0 -2 18 11 11 12 16 1 26 -10 9 -13 7 -16 -10z"/>
<path d="M1270 2065 c-10 -12 -10 -19 -2 -27 14 -14 17 -11 26 20 8 25 -5 29
-24 7z"/>
<path d="M1312 2059 c-16 -25 -13 -29 13 -18 11 4 15 8 8 8 -7 1 -10 8 -7 16
9 22 1 18 -14 -6z"/>
<path d="M1362 2051 c-10 -6 -8 -10 8 -14 12 -3 19 -10 15 -16 -4 -7 1 -8 16
-2 13 4 24 13 25 20 1 6 0 7 -3 1 -2 -5 -12 -10 -21 -10 -15 0 -15 2 -2 11 13
9 13 10 -2 6 -9 -3 -18 -2 -20 3 -2 5 -9 6 -16 1z"/>
<path d="M1638 2048 c7 -7 12 -20 12 -29 0 -10 10 -21 23 -25 30 -9 60 -42 51
-57 -4 -6 -4 -9 1 -5 13 12 44 -57 38 -83 -4 -18 -3 -21 6 -13 7 6 12 21 12
33 -1 11 -1 30 -2 41 0 11 -5 20 -10 20 -6 0 -7 -5 -3 -12 4 -7 3 -8 -4 -4 -6
4 -9 13 -5 21 3 8 0 15 -6 15 -15 0 -14 27 2 34 9 5 9 7 0 12 -7 3 -9 13 -6
22 3 9 3 14 -2 10 -4 -4 -15 -2 -24 5 -14 10 -14 10 -5 -3 18 -25 24 -49 13
-55 -5 -4 -14 7 -20 24 -6 17 -15 31 -20 31 -4 0 -5 -7 -2 -17 4 -11 3 -14 -6
-9 -7 5 -16 19 -21 32 -5 13 -15 24 -22 24 -9 0 -9 -3 0 -12z"/>
<path d="M1762 2038 c2 -15 8 -31 13 -35 4 -4 5 -3 1 4 -3 6 -2 14 3 17 5 3
11 -1 15 -9 6 -17 36 -21 36 -5 0 6 -5 10 -12 10 -6 0 -22 10 -36 22 l-23 23
3 -27z"/>
<path d="M1440 2028 c0 -7 4 -19 9 -27 7 -10 9 -7 8 12 -2 26 -17 39 -17 15z"/>
<path d="M1605 2030 c-3 -5 3 -10 15 -10 12 0 18 5 15 10 -3 6 -10 10 -15 10
-5 0 -12 -4 -15 -10z"/>
<path d="M1835 2030 c3 -5 11 -10 16 -10 6 0 7 5 4 10 -3 6 -11 10 -16 10 -6
0 -7 -4 -4 -10z"/>
<path d="M1316 2022 c-4 -7 -2 -12 3 -12 24 0 9 -19 -19 -25 -36 -8 -46 -21
-29 -41 6 -8 8 -18 4 -22 -4 -4 -10 -1 -12 5 -3 9 -11 8 -29 -3 -13 -9 -24
-12 -24 -8 0 5 -5 2 -10 -6 -7 -10 -12 -12 -17 -4 -15 21 -38 21 -55 0 l-17
-21 6 23 c3 13 1 22 -6 22 -7 0 -10 -4 -7 -8 7 -12 -23 -52 -39 -52 -8 0 -17
-5 -21 -11 -7 -12 36 -2 46 10 3 4 19 13 35 21 17 8 33 16 38 18 4 2 7 -1 7
-6 0 -5 -15 -17 -32 -26 -28 -13 -30 -16 -10 -16 12 0 22 5 22 12 0 6 3 8 6 5
4 -3 16 0 26 8 11 7 27 11 34 8 8 -3 14 0 14 6 0 6 7 11 15 11 17 0 20 -32 5
-60 -8 -15 -7 -18 3 -15 7 3 14 17 15 31 1 14 9 32 18 41 11 11 12 19 5 26
-13 13 -15 40 -2 33 5 -4 11 -2 13 3 5 13 48 24 48 12 0 -6 7 -11 16 -11 8 0
13 4 10 8 -2 4 6 8 19 8 13 0 22 -3 19 -7 -2 -4 3 -10 12 -13 13 -5 14 -9 4
-21 -9 -11 -9 -15 -1 -15 6 0 14 7 17 15 4 8 10 12 15 9 5 -3 6 -10 3 -16 -4
-6 1 -6 14 1 28 15 37 31 18 31 -9 0 -16 -5 -16 -10 0 -16 -49 23 -50 38 0 9
-7 11 -20 8 -11 -3 -29 -9 -40 -12 -11 -3 -20 -1 -20 5 0 6 5 11 11 11 5 0 7
5 4 10 -3 6 -11 10 -16 10 -6 0 -7 -4 -4 -10 3 -5 2 -10 -4 -10 -5 0 -11 5
-13 12 -3 9 -6 9 -12 0z"/>
<path d="M1244 1994 c-1 -13 2 -21 7 -18 11 6 12 31 2 37 -5 3 -9 -6 -9 -19z"/>
<path d="M1281 2011 c-8 -6 -9 -11 -3 -15 6 -3 14 -1 17 5 9 14 2 20 -14 10z"/>
<path d="M1473 1999 c1 -10 6 -18 11 -16 16 5 18 24 2 30 -10 4 -14 0 -13 -14z"/>
<path d="M1507 2000 c-3 -13 0 -20 8 -20 8 0 13 9 12 20 -1 11 -4 20 -8 20 -4
0 -9 -9 -12 -20z"/>
<path d="M1600 2000 c-12 -7 -10 -9 8 -7 12 0 22 5 22 9 0 11 -12 10 -30 -2z"/>
<path d="M1828 1988 c-17 -20 -16 -22 7 -44 23 -21 26 -62 4 -48 -5 3 -6 10
-3 16 4 7 2 8 -5 4 -6 -4 -9 -12 -6 -17 4 -5 2 -9 -4 -9 -18 0 -21 17 -6 30
14 11 14 15 -1 31 -9 10 -13 23 -9 28 10 16 -14 13 -31 -4 -14 -13 -14 -15 1
-15 10 0 13 -5 9 -12 -4 -6 -3 -8 4 -4 6 3 14 1 18 -5 3 -6 1 -15 -6 -19 -13
-8 -5 -50 11 -50 5 0 9 -7 9 -15 0 -8 11 -22 25 -31 14 -9 28 -27 31 -40 3
-13 10 -24 15 -24 13 0 -15 51 -40 74 -25 23 -27 46 -5 46 11 0 14 -6 10 -17
-5 -15 -4 -15 9 1 18 24 19 48 3 64 -7 7 -8 12 -2 12 5 1 -2 8 -16 16 l-25 15
25 -6 c14 -3 33 -9 43 -12 9 -3 17 0 17 6 0 5 -7 8 -16 4 -13 -5 -15 -2 -9 15
4 13 2 22 -4 22 -6 0 -11 -4 -11 -10 0 -5 -5 -10 -11 -10 -6 0 -9 7 -5 15 8
22 -6 18 -26 -7z"/>
<path d="M1618 1978 c-16 -5 -28 -14 -28 -19 0 -13 18 -11 22 2 6 19 48 -13
48 -36 1 -19 1 -19 11 -2 9 15 7 22 -11 34 -17 12 -19 17 -9 24 18 11 1 10
-33 -3z"/>
<path d="M1377 1957 c-14 -18 -19 -19 -26 -8 -7 11 -11 10 -20 -5 -11 -17 -11
-17 -6 4 4 13 2 22 -5 22 -6 0 -8 -4 -5 -10 3 -5 2 -10 -3 -10 -5 0 -8 -19 -6
-42 2 -24 1 -37 -3 -29 -3 9 -11 0 -19 -24 -7 -21 -11 -42 -8 -47 3 -5 0 -7
-7 -6 -6 2 -14 -3 -16 -10 -4 -11 -1 -12 16 -3 11 7 20 15 19 19 -2 12 19 57
33 69 8 6 29 10 46 9 18 -1 34 3 37 9 3 8 -10 11 -37 10 -52 -2 -63 3 -41 19
9 7 32 11 49 9 24 -2 35 1 39 14 6 15 5 16 -5 6 -18 -18 -34 -16 -19 2 7 9 11
17 9 20 -2 2 -12 -6 -22 -18z"/>
<path d="M1687 1956 c10 -13 19 -23 21 -21 7 6 -19 45 -29 45 -5 0 -2 -11 8
-24z"/>
<path d="M1225 1949 c-11 -17 1 -21 15 -4 8 9 8 15 2 15 -6 0 -14 -5 -17 -11z"/>
<path d="M1551 1931 c-21 -16 -22 -19 -7 -34 20 -20 20 -27 -1 -27 -13 0 -11
-6 12 -30 16 -16 31 -27 34 -24 3 3 1 8 -5 12 -15 10 -25 42 -13 42 6 0 16
-13 22 -30 6 -16 15 -30 19 -30 12 0 10 14 -4 28 -10 10 -10 15 2 22 9 6 16 6
18 0 2 -6 8 -8 13 -4 5 3 9 0 9 -6 0 -6 5 -8 11 -4 7 4 7 10 1 16 -6 6 -8 18
-5 27 4 13 2 13 -10 -2 -10 -12 -17 -14 -22 -8 -3 6 -3 11 2 11 4 0 0 5 -10
11 -14 8 -21 7 -31 -7 -13 -17 -14 -17 -24 2 -7 14 -6 22 4 32 8 7 14 9 14 3
0 -5 10 -11 23 -14 36 -10 41 -9 46 4 2 7 -1 9 -8 5 -6 -4 -11 0 -11 11 0 14
-2 15 -9 4 -6 -9 -13 -10 -28 -3 -14 8 -24 6 -42 -7z m58 -62 c-16 -10 -23 -4
-14 10 3 6 11 8 17 5 6 -4 5 -9 -3 -15z"/>
<path d="M1425 1910 c3 -5 11 -10 16 -10 6 0 7 5 4 10 -3 6 -11 10 -16 10 -6
0 -7 -4 -4 -10z"/>
<path d="M1458 1901 c-9 -11 -14 -22 -11 -25 4 -3 1 -6 -4 -6 -6 0 -14 6 -17
13 -5 10 -7 10 -12 0 -3 -7 -23 -13 -45 -13 -31 0 -39 -4 -39 -17 0 -12 3 -14
8 -7 4 7 23 11 42 10 26 -2 35 -6 34 -19 -1 -9 2 -14 7 -11 5 3 9 11 9 18 0 8
8 13 18 12 11 -1 16 5 14 17 -2 9 2 17 8 17 5 0 10 -5 10 -12 0 -6 3 -8 7 -5
3 4 12 2 20 -4 10 -9 13 -6 13 15 0 14 -5 26 -11 26 -5 0 -7 -4 -4 -10 10 -16
-7 -11 -19 5 -10 14 -13 13 -28 -4z"/>
<path d="M1685 1899 c4 -12 3 -19 -1 -16 -5 3 -9 -6 -9 -19 0 -28 0 -27 26
-14 10 6 19 18 19 26 0 8 5 12 10 9 15 -9 12 11 -4 24 -11 9 -14 9 -13 -1 1
-29 -3 -48 -11 -48 -5 0 -7 14 -4 30 3 19 0 30 -8 30 -7 0 -9 -8 -5 -21z"/>
<path d="M1008 1896 c-10 -7 -15 -15 -12 -19 3 -3 -8 -8 -25 -12 -22 -5 -31
-12 -31 -26 0 -10 5 -19 11 -19 8 0 8 -4 1 -12 -8 -10 -2 -13 26 -12 44 2 72
12 72 27 0 6 -3 7 -7 4 -3 -4 -13 -1 -21 5 -11 10 -17 8 -28 -7 -8 -10 -15
-17 -17 -14 -1 2 -8 11 -14 19 -10 13 -9 16 5 17 29 2 51 9 59 18 4 4 2 5 -4
1 -16 -9 -17 6 -1 22 17 17 6 23 -14 8z m12 -76 c0 -5 -5 -10 -11 -10 -5 0 -7
5 -4 10 3 6 8 10 11 10 2 0 4 -4 4 -10z"/>
<path d="M1047 1903 c-13 -12 -7 -25 6 -14 8 6 16 8 19 5 3 -3 9 -1 13 5 7 12
-27 15 -38 4z"/>
<path d="M1225 1870 c-4 -6 -24 -19 -46 -31 -22 -11 -37 -24 -34 -29 4 -6 1
-10 -5 -10 -6 0 -10 7 -8 16 2 10 -3 19 -10 21 -8 3 -10 -1 -6 -11 5 -13 2
-15 -12 -10 -11 4 -24 11 -29 15 -7 5 -11 1 -11 -10 0 -13 6 -16 25 -13 20 4
23 2 18 -12 -4 -10 -7 -20 -7 -22 0 -3 -9 0 -19 6 -17 9 -19 7 -16 -17 3 -28
-13 -63 -28 -63 -5 0 -7 7 -3 15 3 9 0 15 -8 15 -7 0 -18 10 -25 23 -6 12 -9
14 -7 5 7 -24 -11 -23 -23 1 -6 10 -9 20 -8 22 1 2 -9 -7 -24 -21 -18 -18 -24
-33 -22 -53 1 -15 -1 -26 -5 -23 -4 3 -13 -4 -20 -15 -10 -15 -10 -19 2 -19 8
0 16 7 20 15 3 8 12 12 21 9 13 -5 13 -9 -5 -24 -26 -23 -25 -34 5 -50 19 -10
24 -19 19 -34 -6 -19 -5 -19 10 -4 16 17 22 39 9 37 -20 -3 -27 2 -13 11 8 5
11 12 7 16 -3 4 -13 1 -21 -5 -9 -7 -17 -8 -20 -2 -3 5 14 22 39 38 25 15 45
32 45 36 0 12 -34 4 -46 -12 -9 -11 -13 -10 -28 4 -12 12 -14 21 -6 29 5 7 6
17 2 21 -4 5 1 5 10 2 9 -3 18 -1 20 4 2 6 21 -6 42 -25 37 -36 61 -38 61 -6
0 8 6 14 13 12 10 -2 10 2 2 17 -6 12 -6 22 -1 25 5 4 11 0 13 -6 3 -8 9 -4
17 10 6 12 19 22 28 22 14 0 14 -2 -3 -16 -10 -8 -13 -13 -6 -9 18 9 15 -6 -5
-22 -17 -14 -17 -14 -1 -9 21 6 34 -12 19 -27 -13 -13 -15 -30 -2 -22 12 7 41
-22 41 -41 0 -22 34 -13 36 9 1 12 1 13 -3 2 -2 -8 -9 -15 -14 -15 -6 0 -7 5
-4 11 4 6 -2 17 -14 25 -26 18 -27 33 -4 50 10 7 14 16 9 21 -5 4 -11 2 -13
-4 -11 -30 -24 -10 -19 29 5 41 29 73 47 62 5 -3 9 0 9 5 0 6 7 11 15 11 8 0
15 7 15 15 0 17 -6 19 -15 5z"/>
<path d="M1468 1844 c-30 -16 -37 -34 -13 -34 17 0 20 -16 5 -25 -5 -3 -10
-11 -10 -16 0 -6 7 -3 16 5 8 9 21 16 27 16 7 0 4 -7 -5 -14 -10 -7 -15 -15
-13 -18 3 -3 -1 -11 -10 -18 -12 -10 -16 -9 -21 4 -4 9 -17 16 -33 15 l-26 -1
28 -10 c15 -5 27 -14 27 -19 0 -6 -4 -8 -9 -4 -14 8 -34 -33 -28 -56 6 -24 -2
-24 -19 -1 -12 16 -14 16 -34 -6 -12 -13 -19 -26 -16 -29 3 -4 6 -3 6 2 0 4 7
2 15 -5 10 -9 15 -9 15 -1 0 6 5 11 11 11 5 0 7 -6 3 -12 -5 -10 -4 -10 6 -1
11 10 16 9 26 -5 8 -9 14 -25 14 -34 0 -10 4 -18 9 -18 5 0 8 16 6 35 -3 33
-2 35 18 29 19 -6 20 -5 8 9 -11 14 -10 19 3 32 20 20 20 26 1 19 -8 -4 -23
-23 -32 -43 -14 -27 -19 -32 -21 -17 -2 10 1 23 7 29 14 14 14 27 0 27 -5 0
-7 -4 -4 -10 3 -5 1 -10 -4 -10 -24 0 -9 27 24 43 19 9 35 21 35 27 0 7 6 8
19 0 13 -7 22 -7 26 0 3 5 -3 10 -15 10 -12 0 -18 4 -15 11 4 6 13 8 21 5 9
-4 14 2 14 17 0 18 -2 19 -10 7 -6 -10 -10 -11 -10 -2 0 6 -7 12 -15 12 -8 0
-15 5 -15 10 0 6 -8 10 -17 10 -17 1 -17 1 0 11 14 8 23 7 38 -6 15 -15 21
-16 34 -5 13 11 13 15 3 21 -19 13 -36 11 -18 -2 12 -8 11 -9 -5 -6 -11 2 -19
9 -17 15 3 15 3 15 -30 -4z m-93 -193 c-3 -6 -11 -11 -17 -11 -6 0 -6 6 2 15
14 17 26 13 15 -4z"/>
<path d="M1876 1851 c-4 -7 -5 -15 -2 -18 9 -9 19 4 14 18 -4 11 -6 11 -12 0z"/>
<path d="M1368 1837 c6 -7 7 -18 3 -26 -7 -11 -11 -9 -20 5 -11 17 -11 17 -6
-4 5 -16 3 -23 -7 -21 -24 3 -53 -2 -40 -8 6 -2 12 -12 12 -21 0 -15 -2 -15
-10 -2 -5 8 -10 10 -10 4 0 -6 -12 -17 -27 -25 -16 -8 -36 -23 -46 -34 -10
-11 -16 -15 -13 -8 4 6 1 15 -5 19 -7 4 -9 3 -5 -4 3 -5 0 -12 -6 -15 -7 -2
-1 -8 15 -12 33 -9 54 -40 32 -49 -8 -3 -15 -13 -15 -21 0 -12 -6 -15 -20 -10
-13 4 -20 2 -20 -6 0 -7 3 -9 7 -6 3 4 12 -1 20 -11 8 -9 12 -12 9 -6 -8 16
52 80 63 68 5 -5 11 -18 14 -29 3 -15 5 -13 6 8 0 16 5 26 11 22 6 -3 10 -1
10 5 0 7 -7 10 -15 7 -8 -4 -17 -2 -21 4 -4 6 -12 5 -22 -3 -14 -11 -15 -10
-9 5 4 10 7 21 7 23 0 3 9 0 19 -5 16 -9 19 -6 23 19 5 31 -6 41 -16 15 -3 -8
-12 -15 -21 -15 -8 0 -15 -7 -15 -16 0 -8 -4 -12 -10 -9 -16 10 -12 35 8 42 9
3 23 11 31 17 7 6 21 11 30 11 10 0 15 7 13 20 -2 15 4 20 23 21 14 1 25 -1
25 -5 0 -4 9 -7 20 -8 11 -1 20 3 20 8 0 6 -4 8 -8 5 -4 -2 -14 -1 -22 5 -12
7 -11 9 6 9 11 0 25 -5 31 -11 6 -6 17 -8 23 -4 16 10 -6 25 -37 25 -15 0 -21
5 -17 14 3 7 -2 16 -12 20 -13 5 -14 4 -6 -7z"/>
<path d="M1628 1815 c-8 -18 -17 -24 -30 -19 -14 4 -18 0 -18 -18 0 -18 2 -20
10 -8 8 12 10 12 15 -2 4 -10 13 -14 22 -11 12 5 12 7 2 14 -8 4 -10 11 -6 16
5 4 16 -2 25 -15 17 -22 17 -22 18 17 2 48 -21 63 -38 26z m27 -14 c-3 -6 -11
-8 -17 -5 -6 4 -5 9 3 15 16 10 23 4 14 -10z"/>
<path d="M1690 1830 c0 -5 5 -10 10 -10 6 0 10 5 10 10 0 6 -4 10 -10 10 -5 0
-10 -4 -10 -10z"/>
<path d="M1795 1796 c1 -23 5 -47 9 -54 4 -7 2 -12 -4 -12 -6 0 -15 10 -20 23
-8 21 -9 21 -9 -5 -1 -18 4 -28 14 -28 8 0 24 -20 35 -45 11 -25 23 -45 26
-45 3 0 2 5 -1 10 -3 6 -1 10 4 10 16 0 13 -29 -4 -46 -13 -14 -15 -13 -15 5
0 12 -5 20 -12 19 -6 -2 -14 5 -16 16 -3 13 0 16 9 11 8 -6 10 -4 4 4 -5 9
-10 10 -18 2 -17 -17 -27 -13 -27 9 0 11 7 20 15 20 8 0 15 5 15 11 0 6 -6 9
-13 6 -7 -3 -24 4 -38 15 -13 11 -18 17 -11 13 20 -10 14 8 -13 38 -31 32 -42
36 -21 6 8 -12 12 -27 9 -34 -2 -8 7 -21 21 -30 31 -20 34 -45 6 -45 -14 0
-18 -5 -13 -16 4 -11 8 -12 13 -4 4 7 13 9 19 6 17 -11 13 -26 -6 -26 -10 0 2
-14 30 -36 26 -20 47 -45 47 -55 0 -9 3 -26 6 -36 5 -16 4 -16 -10 1 -13 16
-16 17 -16 4 0 -24 23 -38 37 -23 6 7 9 16 6 19 -4 3 -1 6 5 6 7 0 12 -7 12
-17 0 -9 3 -14 6 -10 4 3 3 14 0 24 -4 10 -6 18 -4 18 2 0 -7 11 -19 24 -21
23 -21 24 -2 44 22 24 31 18 34 -20 3 -48 5 -53 16 -53 6 0 8 9 4 21 -5 15 -4
19 4 15 6 -4 11 -2 11 3 0 6 -3 11 -7 11 -16 0 -43 62 -38 88 4 23 4 24 -4 7
-9 -19 -10 -18 -11 5 -1 23 -2 23 -10 5 -5 -11 -9 -14 -9 -7 -1 6 0 14 2 16 1
2 -6 13 -16 23 -9 11 -14 23 -11 26 4 4 1 13 -6 22 -7 9 -10 18 -7 21 11 11
25 -6 32 -36 4 -17 16 -35 28 -42 12 -6 25 -16 29 -22 5 -8 8 -7 8 2 0 6 5 12
11 12 6 0 9 -7 5 -15 -3 -8 -1 -15 4 -15 6 0 10 -5 10 -10 0 -6 -6 -10 -12 -9
-25 3 -41 -1 -34 -8 12 -13 40 -9 53 7 15 18 17 34 4 26 -5 -4 -12 8 -16 25
-5 22 -10 28 -18 20 -13 -13 -30 -15 -22 -2 3 5 1 12 -5 16 -6 4 -7 11 -4 17
4 7 2 8 -5 4 -9 -6 -9 -11 0 -22 9 -11 8 -14 -5 -14 -17 0 -23 35 -7 44 5 3 7
15 4 27 -4 15 -9 17 -17 9 -8 -8 -7 -13 3 -19 8 -6 9 -11 3 -15 -6 -3 -13 3
-17 14 -3 11 -14 20 -23 21 -10 1 -7 4 7 8 l24 7 -25 16 -25 17 2 -43z m35
-212 c0 -2 -4 -4 -10 -4 -14 0 -50 42 -44 51 4 7 54 -37 54 -47z"/>
<path d="M2135 1830 c-6 -10 1 -14 18 -11 5 1 6 -3 2 -9 -3 -5 1 -13 9 -16 9
-3 16 -16 16 -28 0 -21 -1 -21 -18 2 -16 21 -20 22 -31 8 -9 -11 -11 -28 -7
-54 4 -20 7 -58 6 -84 -1 -30 3 -48 10 -48 7 0 9 9 5 23 -6 17 -5 19 5 11 14
-13 4 -58 -11 -49 -5 4 -9 1 -9 -4 0 -6 6 -11 14 -11 16 0 66 -45 66 -60 0 -5
-4 -10 -10 -10 -5 0 -10 6 -10 14 0 8 -4 17 -9 21 -6 3 -6 -6 -1 -24 5 -18 4
-33 -2 -39 -5 -5 -8 -18 -5 -28 4 -16 5 -16 6 3 0 12 5 25 11 28 6 4 8 -7 4
-27 -4 -28 -4 -30 6 -15 7 10 10 28 7 38 -4 13 -1 19 6 16 7 -3 11 -8 10 -13
-1 -5 16 -10 37 -11 31 -2 38 1 36 14 -2 9 -9 19 -16 21 -9 3 -11 -1 -6 -13 5
-14 4 -16 -7 -7 -8 7 -17 9 -20 5 -4 -3 -7 -1 -7 6 0 7 -4 10 -9 6 -6 -3 -13
10 -17 29 -4 25 -12 36 -27 38 -11 2 -22 9 -24 15 -3 9 3 8 24 -2 36 -19 43
-19 43 1 0 8 -4 13 -9 9 -12 -7 -34 32 -26 45 3 6 13 10 21 10 12 0 13 -4 3
-22 -6 -13 -8 -20 -4 -15 5 4 19 0 32 -8 13 -9 23 -11 23 -5 0 5 -4 10 -10 10
-5 0 -10 5 -10 10 0 28 -76 114 -92 104 -5 -4 0 -11 13 -18 12 -6 25 -18 27
-26 4 -11 -1 -10 -17 4 -11 11 -21 14 -21 8 0 -6 9 -16 21 -22 15 -8 17 -15
10 -24 -6 -6 -7 -23 -4 -36 4 -16 3 -21 -5 -16 -7 4 -12 18 -12 30 0 13 -6 29
-14 36 -9 7 -13 23 -11 41 2 16 -1 31 -6 34 -5 4 -9 11 -9 16 0 5 11 3 24 -6
24 -16 61 -11 49 8 -4 6 -1 7 6 2 7 -4 11 -16 8 -26 -3 -11 5 -29 19 -44 13
-14 24 -33 24 -41 0 -7 4 -14 10 -14 10 0 3 27 -13 48 -8 10 -7 16 2 22 9 5
10 10 2 14 -6 4 -11 2 -11 -5 0 -18 -13 -1 -17 21 -2 11 1 20 6 20 13 0 41
-41 35 -51 -11 -18 34 -79 58 -79 8 1 6 6 -6 15 -22 17 -49 65 -35 65 5 0 9
-4 9 -8 0 -5 9 -17 19 -29 24 -25 63 -104 55 -112 -3 -3 -9 1 -14 9 -8 13 -10
12 -10 -2 0 -9 6 -18 12 -20 17 -6 45 22 31 30 -14 10 -35 52 -26 52 10 0 53
-74 53 -91 0 -8 -5 -7 -17 2 -15 13 -15 12 -2 -8 8 -13 17 -23 22 -23 4 0 6 4
2 9 -9 15 36 25 49 11 8 -10 8 -11 -1 -6 -9 5 -13 0 -13 -13 0 -27 12 -27 28
-1 9 15 19 19 37 14 18 -4 25 -2 25 9 0 10 -8 13 -25 9 -16 -3 -33 2 -44 12
-13 11 -21 14 -26 7 -9 -15 -25 -14 -19 2 2 7 -5 22 -16 34 -11 12 -20 27 -20
33 0 5 -4 11 -10 11 -5 1 -14 2 -19 3 -5 0 -13 5 -18 10 -5 5 -2 6 5 1 10 -5
13 -2 10 11 -2 11 -10 18 -16 17 -7 -2 -12 2 -12 7 0 6 -10 15 -23 21 -13 6
-27 20 -32 32 -6 12 -19 23 -30 25 -18 3 -74 52 -60 52 2 0 -5 11 -17 25 -23
27 -33 31 -43 15z m33 -90 c4 0 13 5 20 12 17 17 22 6 7 -16 -13 -18 -16 -18
-39 -2 -17 11 -23 22 -19 33 5 14 8 13 14 -5 5 -12 12 -22 17 -22z"/>
<path d="M905 1811 c-3 -12 -13 -21 -21 -21 -8 0 -14 -6 -14 -12 0 -10 -3 -9
-9 1 -6 10 -11 5 -16 -20 -8 -38 -23 -55 -51 -61 -10 -2 -19 -10 -20 -18 -2
-29 -16 -70 -23 -65 -4 2 -6 18 -3 36 3 23 1 30 -7 24 -7 -4 -10 -14 -7 -22 4
-9 -5 -20 -24 -31 -16 -9 -30 -20 -30 -24 0 -4 -7 -5 -16 -1 -8 3 -25 -4 -40
-17 -13 -13 -24 -19 -24 -13 0 6 7 14 16 17 20 8 9 25 -14 23 -11 0 -18 -9
-18 -21 1 -14 -6 -22 -21 -24 -20 -3 -32 -20 -33 -47 0 -16 34 -14 49 3 12 12
11 13 -8 7 -13 -4 -21 -2 -21 5 0 6 4 9 9 6 5 -3 14 1 21 10 18 20 33 -2 19
-28 -6 -12 -6 -18 1 -18 5 0 10 7 10 15 0 8 6 15 14 15 8 0 17 4 20 9 4 5 -4
7 -16 3 -14 -3 -19 -2 -14 6 4 7 14 12 22 12 8 0 14 5 14 11 0 8 6 7 17 -2 9
-8 14 -9 11 -4 -4 6 9 20 27 32 27 18 34 19 39 8 5 -13 -5 -19 -26 -17 -3 1
-12 -6 -20 -15 -11 -14 -11 -16 2 -8 8 5 21 10 28 11 23 4 51 35 45 50 -3 8 0
14 7 14 6 0 8 -4 5 -10 -3 -5 -1 -10 5 -10 7 0 10 6 7 13 -6 18 12 49 25 41 6
-4 8 -3 5 3 -4 6 1 17 10 24 14 12 15 11 10 -6 -6 -16 -2 -20 19 -21 l26 -2
-23 21 c-14 13 -18 22 -11 25 7 2 12 10 12 18 0 8 7 14 15 14 8 0 15 5 15 11
0 5 5 7 10 4 6 -4 10 -3 9 2 -3 20 2 27 11 13 7 -11 9 -7 7 14 -3 35 -23 45
-32 17z"/>
<path d="M1306 1813 c-6 -14 -5 -15 5 -6 7 7 10 15 7 18 -3 3 -9 -2 -12 -12z"/>
<path d="M1720 1819 c0 -5 5 -9 10 -9 6 0 10 -7 10 -15 0 -9 9 -15 23 -14 17
1 18 2 4 6 -10 2 -16 12 -15 20 2 9 -5 17 -14 18 -10 2 -18 -1 -18 -6z"/>
<path d="M1188 1812 c-27 -5 -21 -22 7 -20 14 1 25 6 25 10 0 4 6 5 14 2 8 -3
17 0 21 6 6 10 -24 11 -67 2z"/>
<path d="M1554 1806 c1 -8 5 -18 8 -22 4 -3 5 1 4 10 -1 8 -5 18 -8 22 -4 3
-5 -1 -4 -10z"/>
<path d="M1890 1811 c0 -6 4 -13 10 -16 6 -3 7 1 4 9 -7 18 -14 21 -14 7z"/>
<path d="M1030 1780 c0 -5 5 -10 10 -10 6 0 10 5 10 10 0 6 -4 10 -10 10 -5 0
-10 -4 -10 -10z"/>
<path d="M1670 1788 c0 -4 7 -14 16 -23 15 -15 15 -17 -5 -22 -14 -4 -20 -11
-17 -20 3 -8 6 -17 6 -19 0 -3 5 -2 10 1 6 4 7 11 4 17 -4 7 -2 8 5 4 6 -4 9
-11 6 -15 -2 -5 7 -13 20 -19 15 -7 25 -8 25 -2 0 6 -7 10 -15 10 -8 0 -16 8
-17 18 0 9 -2 23 -2 29 -1 13 -36 52 -36 41z"/>
<path d="M1980 1787 c0 -4 7 -19 16 -32 15 -23 15 -25 0 -25 -10 0 -15 4 -12
9 3 5 -1 12 -10 15 -22 8 -21 9 -27 -16 -8 -30 1 -40 24 -27 23 12 41 3 20
-10 -10 -7 -9 -10 3 -14 11 -4 16 -1 16 10 0 14 2 14 20 -2 11 -10 20 -13 20
-8 0 6 -7 16 -15 23 -8 7 -15 19 -15 27 0 7 -9 23 -20 35 -11 12 -20 19 -20
15z m-17 -62 c-3 -9 -8 -14 -10 -11 -3 3 -2 9 2 15 9 16 15 13 8 -4z"/>
<path d="M1213 1765 c-7 -8 -13 -19 -13 -24 0 -17 28 -1 33 20 6 22 -3 24 -20
4z"/>
<path d="M1258 1766 c-19 -14 -23 -26 -10 -26 4 0 13 9 20 20 14 23 13 24 -10
6z"/>
<path d="M1546 1758 c4 -12 17 -31 30 -41 14 -10 21 -23 18 -28 -3 -6 -12 -5
-22 3 -12 10 -14 10 -8 1 4 -8 2 -13 -6 -13 -10 0 -9 -3 1 -9 11 -7 12 -13 4
-23 -11 -13 -13 -18 -13 -38 0 -6 -11 -8 -25 -4 -24 6 -65 -20 -52 -33 3 -3
13 2 22 11 21 20 35 21 35 1 0 -22 15 -18 29 8 11 21 11 21 8 1 -3 -15 4 -26
23 -38 31 -18 41 -20 39 -8 -3 19 2 23 16 12 9 -7 18 -10 22 -6 3 3 1 6 -5 6
-7 0 -12 5 -12 11 0 6 7 9 15 5 8 -3 15 -2 15 3 0 13 63 7 67 -5 2 -6 -7 -11
-19 -11 -42 -1 -48 -3 -48 -19 0 -8 -4 -12 -10 -9 -5 3 -10 2 -10 -4 0 -5 6
-12 13 -14 6 -3 2 -6 -10 -6 -13 -1 -23 4 -23 11 0 6 -3 8 -6 5 -4 -4 -2 -12
3 -19 6 -7 13 -22 16 -33 4 -19 5 -18 6 2 1 15 7 21 22 20 14 -1 19 -7 16 -19
-3 -10 -2 -18 1 -18 4 0 15 -11 24 -24 17 -23 17 -24 -2 -19 -12 3 -20 0 -20
-8 0 -7 3 -9 7 -6 3 4 15 -1 25 -10 18 -16 18 -16 12 0 -7 20 5 22 41 5 28
-12 33 -28 10 -28 -8 0 -15 -5 -15 -11 0 -5 4 -7 10 -4 6 4 7 -6 3 -27 -8 -44
-13 -48 -14 -12 0 25 -2 26 -8 9 -5 -11 -6 -24 -3 -29 2 -4 -2 -12 -9 -17 -10
-6 -11 -9 -1 -9 6 0 12 -4 12 -10 0 -5 -7 -7 -16 -3 -11 4 -14 13 -9 32 4 14
8 31 10 36 1 6 5 18 9 27 5 10 6 23 3 30 -3 7 -6 3 -6 -9 -1 -28 -17 -30 -31
-3 -6 11 -17 20 -24 20 -16 0 -29 27 -20 41 3 5 -2 9 -10 9 -9 0 -28 19 -43
43 -15 23 -29 44 -31 47 -2 2 -7 -2 -12 -10 -10 -16 -3 -33 10 -25 4 3 14 -8
22 -25 7 -16 17 -30 21 -30 5 0 5 -4 2 -10 -3 -5 0 -8 7 -5 15 6 41 -42 31
-59 -3 -6 0 -5 8 2 17 16 30 15 23 -2 -3 -7 3 -16 13 -20 15 -6 15 -8 3 -16
-10 -7 -11 -10 -2 -10 6 0 12 -7 12 -15 0 -8 -4 -15 -9 -15 -5 0 -8 -7 -7 -16
0 -9 -5 -19 -12 -21 -9 -4 -11 3 -7 24 3 15 2 22 -1 16 -9 -20 -24 -15 -18 5
5 13 4 14 -4 3 -10 -14 -28 2 -18 17 2 4 -4 8 -15 8 -24 0 -24 -2 6 -30 14
-13 25 -30 25 -37 0 -8 -14 0 -31 19 -16 17 -36 32 -43 32 -18 0 -39 -27 -32
-39 4 -5 2 -12 -3 -15 -5 -3 -11 2 -13 12 -6 20 4 54 15 53 28 -3 37 1 37 18
0 25 -18 37 -33 22 -9 -9 -8 -11 6 -6 20 8 23 -8 4 -23 -18 -15 -71 80 -54 97
8 8 6 15 -9 26 -13 10 -15 14 -5 15 11 0 11 4 -3 19 -9 10 -16 22 -15 27 6 34
-41 53 -63 27 -10 -13 -8 -15 12 -13 40 3 52 1 45 -10 -4 -6 -11 -8 -16 -5 -5
4 -9 2 -9 -3 0 -14 26 -33 33 -25 4 3 7 1 7 -5 0 -7 -6 -12 -12 -12 -7 0 -20
-5 -28 -10 -13 -8 -12 -12 7 -29 11 -11 24 -17 27 -14 3 4 6 -1 6 -10 0 -10 5
-17 11 -17 6 0 9 -6 6 -14 -3 -7 3 -21 14 -30 15 -13 17 -20 9 -35 -7 -13 -7
-28 0 -46 14 -36 13 -37 -10 -30 -11 3 -20 2 -20 -4 0 -15 14 -21 30 -11 15
10 45 -23 36 -39 -3 -5 1 -14 9 -21 17 -14 21 -35 5 -25 -5 3 -10 1 -10 -4 0
-6 5 -11 11 -11 6 0 8 -7 5 -16 -3 -8 -2 -12 4 -9 6 3 11 -4 11 -17 1 -16 3
-18 6 -6 2 9 0 32 -5 51 -5 19 -7 39 -3 44 8 13 44 13 53 -1 5 -7 8 -5 8 6 0
9 -6 18 -12 21 -10 3 -10 7 -1 18 9 11 7 14 -13 15 -13 1 -24 -2 -24 -8 0 -5
5 -6 10 -3 6 3 10 2 10 -3 0 -6 -7 -13 -16 -16 -20 -8 -24 -8 -23 2 5 29 -3
52 -18 53 -13 0 -14 2 -4 6 10 4 11 7 1 13 -15 10 -4 30 16 30 8 0 12 -5 9
-11 -4 -6 2 -19 14 -30 13 -12 21 -15 21 -7 0 9 3 9 12 0 7 -7 20 -12 29 -12
10 0 24 -6 31 -12 7 -7 24 -15 37 -16 20 -3 23 0 18 17 -3 14 0 21 10 21 8 0
11 5 7 12 -4 6 1 17 11 25 11 7 14 13 8 13 -6 0 -10 7 -9 15 4 27 15 27 22 0
7 -27 8 -27 21 -9 12 16 11 20 -9 30 -16 9 -23 22 -23 41 0 17 -5 27 -13 25
-7 -1 -20 11 -30 28 -9 16 -21 30 -26 30 -5 0 -3 -7 4 -15 20 -24 6 -28 -15
-4 -17 17 -17 22 -5 31 12 8 12 9 -2 4 -13 -4 -18 0 -18 14 0 11 -4 20 -8 20
-4 0 -8 9 -9 20 -2 22 12 27 20 8 4 -10 6 -10 6 0 2 28 21 9 27 -28 5 -32 11
-40 27 -40 11 0 29 -7 39 -17 10 -9 18 -11 18 -5 0 6 -9 17 -20 25 -11 8 -17
17 -12 22 4 4 -1 5 -11 2 -13 -5 -20 0 -28 20 -7 19 -7 29 0 31 5 2 7 10 4 19
-5 12 -3 14 8 8 12 -7 12 -6 1 7 -13 17 -100 29 -105 15 -3 -9 -76 15 -77 26
0 4 0 10 0 15 0 4 -5 0 -11 -8 -8 -11 -9 -9 -3 10 7 29 25 53 32 45 3 -2 -1
-12 -9 -22 -12 -15 -12 -16 4 -10 15 6 21 -2 19 -25 -1 -3 5 -9 13 -12 9 -3
15 1 15 9 0 8 -4 15 -10 15 -5 0 -10 4 -10 9 0 16 62 6 76 -13 20 -28 23 -16
7 23 -13 32 -15 33 -29 15 -9 -11 -13 -14 -9 -7 4 9 -4 11 -25 8 -25 -3 -29
-1 -21 9 6 7 8 16 4 19 -3 4 -1 7 5 7 5 0 13 -6 15 -12 4 -10 6 -10 6 -1 1 17
-19 27 -31 15 -14 -14 -71 25 -64 43 2 7 -2 16 -10 19 -12 5 -14 1 -8 -16z
m54 -179 c0 -11 -4 -17 -10 -14 -5 3 -10 13 -10 21 0 8 5 14 10 14 6 0 10 -9
10 -21z m35 1 c-3 -5 -10 -10 -16 -10 -5 0 -9 5 -9 10 0 6 7 10 16 10 8 0 12
-4 9 -10z m-131 -126 c20 -8 21 -21 1 -21 -8 0 -16 6 -19 14 -6 15 -4 15 18 7z
m136 -179 c11 -13 10 -14 -4 -9 -9 3 -16 10 -16 15 0 13 6 11 20 -6z m123 -34
c10 -1 9 -21 -1 -21 -5 0 -17 6 -28 14 -19 15 -19 15 1 11 11 -2 23 -4 28 -4z
m-166 -16 c9 -25 -4 -29 -17 -6 -7 15 -7 21 0 21 6 0 13 -7 17 -15z m13 -45
c0 -5 -5 -10 -11 -10 -5 0 -7 5 -4 10 3 6 8 10 11 10 2 0 4 -4 4 -10z"/>
<path d="M1910 1768 c0 -7 5 -20 10 -28 8 -12 10 -11 10 7 0 12 -4 25 -10 28
-5 3 -10 0 -10 -7z"/>
<path d="M1346 1756 c3 -7 -2 -21 -11 -30 -9 -9 -14 -16 -10 -16 3 0 1 -9 -5
-20 -6 -11 -7 -20 -2 -20 15 0 34 28 27 40 -3 5 2 10 12 10 15 0 16 2 3 10
-13 8 -12 10 4 10 15 0 16 3 6 15 -16 19 -31 20 -24 1z"/>
<path d="M1035 1750 c-3 -5 -1 -10 4 -10 6 0 11 5 11 10 0 6 -2 10 -4 10 -3 0
-8 -4 -11 -10z"/>
<path d="M2067 1753 c-13 -12 -7 -33 9 -33 9 0 23 -8 30 -17 7 -10 14 -13 14
-6 0 6 -7 18 -15 26 -8 8 -11 18 -7 23 4 5 -1 2 -11 -5 -15 -12 -17 -12 -11 3
6 17 2 21 -9 9z"/>
<path d="M2033 1739 c26 -63 52 -94 40 -49 -3 11 -9 20 -14 20 -5 0 -9 6 -9
14 0 8 -5 18 -12 22 -7 5 -9 2 -5 -7z"/>
<path d="M891 1724 c0 -11 3 -14 6 -6 3 7 2 16 -1 19 -3 4 -6 -2 -5 -13z"/>
<path d="M1610 1729 c0 -5 5 -7 10 -4 6 3 10 8 10 11 0 2 -4 4 -10 4 -5 0 -10
-5 -10 -11z"/>
<path d="M1376 1714 c-4 -10 -1 -14 6 -12 15 5 23 28 10 28 -5 0 -13 -7 -16
-16z"/>
<path d="M1485 1720 c-3 -5 -1 -10 4 -10 6 0 11 5 11 10 0 6 -2 10 -4 10 -3 0
-8 -4 -11 -10z"/>
<path d="M955 1709 c-4 -6 -4 -13 -1 -16 3 -4 6 -1 6 5 0 6 8 13 18 15 15 4
15 5 0 6 -9 0 -20 -4 -23 -10z"/>
<path d="M1105 1710 c3 -5 8 -10 11 -10 2 0 4 5 4 10 0 6 -5 10 -11 10 -5 0
-7 -4 -4 -10z"/>
<path d="M1513 1706 c-9 -11 -8 -15 8 -19 21 -6 34 7 24 23 -8 13 -18 12 -32
-4z"/>
<path d="M1080 1703 c0 -7 8 -17 18 -22 11 -7 13 -13 6 -18 -7 -5 -8 -16 -3
-28 6 -17 8 -17 8 -2 1 9 6 17 12 17 5 0 7 -4 4 -10 -6 -9 7 -14 27 -11 4 0 5
-5 2 -13 -3 -8 -14 -12 -25 -9 -14 4 -19 0 -20 -13 -2 -60 -6 -76 -19 -84 -35
-22 -40 -7 -7 21 13 10 17 18 9 19 -7 0 -10 5 -7 10 3 6 -1 10 -9 10 -18 0
-21 -16 -5 -25 6 -5 4 -11 -7 -19 -9 -7 -15 -17 -11 -22 8 -13 -20 -47 -32
-40 -5 4 -12 2 -16 -4 -3 -5 0 -10 7 -11 7 0 4 -4 -7 -9 -18 -8 -17 -9 8 -9
15 -1 27 -5 27 -11 0 -5 5 -10 10 -10 6 0 5 8 -2 20 -10 15 -10 22 0 32 9 9
12 8 12 -5 0 -21 5 -21 41 0 37 22 45 43 16 44 -12 0 -16 3 -9 6 6 2 10 9 6
14 -3 5 0 9 6 9 6 0 9 4 6 9 -3 5 1 11 9 15 8 3 15 13 15 23 0 14 5 12 25 -11
26 -30 28 -37 25 -73 -1 -13 3 -23 9 -23 6 0 9 13 7 28 -4 38 12 58 52 66 17
4 32 12 32 17 0 12 -7 11 -31 -1 -13 -7 -19 -7 -19 0 0 5 5 10 12 10 6 0 9 2
6 5 -11 11 -37 -8 -43 -32 l-6 -26 -29 28 c-23 22 -28 34 -23 53 5 21 3 24
-11 19 -14 -6 -16 -3 -11 14 5 15 4 19 -4 15 -6 -4 -22 5 -36 21 -13 15 -25
23 -25 16z m60 -110 c0 -5 -5 -15 -10 -23 -8 -12 -10 -11 -10 8 0 12 5 22 10
22 6 0 10 -3 10 -7z m-41 -124 c-23 -17 -39 -11 -39 16 0 6 5 3 10 -5 8 -13
10 -13 10 2 0 12 6 15 21 11 21 -6 21 -6 -2 -24z"/>
<path d="M1964 1670 c0 -13 4 -16 10 -10 7 7 7 13 0 20 -6 6 -10 3 -10 -10z"/>
<path d="M2020 1666 c0 -17 -6 -26 -16 -26 -8 0 -13 4 -10 9 4 5 -4 4 -17 -2
-16 -7 -23 -19 -22 -38 0 -15 3 -25 7 -22 5 2 8 -5 8 -16 0 -11 7 -26 15 -35
17 -17 20 -30 5 -21 -11 7 -14 -8 -3 -19 4 -3 13 4 20 16 7 13 12 17 13 11 0
-7 4 -13 9 -13 4 0 6 12 3 28 -3 15 -7 21 -10 14 -6 -19 -22 -3 -22 23 0 13
-5 27 -10 30 -7 4 -8 -3 -4 -22 4 -15 4 -25 0 -22 -4 4 -8 21 -11 38 -3 28 -1
31 15 26 13 -4 23 1 32 14 12 20 13 20 43 1 17 -10 35 -16 41 -12 14 10 12 51
-3 56 -7 3 -13 -1 -13 -9 0 -24 -17 -26 -44 -4 l-26 20 0 -25z"/>
<path d="M1070 1670 c0 -5 -6 -7 -13 -4 -8 3 -20 -3 -28 -12 -13 -16 -12 -16
8 -6 17 10 22 9 27 -4 5 -12 2 -15 -9 -10 -10 4 -14 2 -9 -5 4 -8 -1 -9 -16
-4 -16 5 -20 4 -15 -5 5 -7 19 -10 37 -6 24 5 29 3 24 -9 -3 -8 -2 -15 3 -15
17 0 19 13 5 35 -8 12 -12 30 -8 39 3 9 3 16 0 16 -3 0 -6 -4 -6 -10z"/>
<path d="M1486 1672 c-9 -15 6 -52 20 -52 8 0 14 5 14 11 0 5 -5 7 -11 3 -8
-5 -10 1 -7 20 5 25 -5 36 -16 18z"/>
<path d="M1530 1654 c0 -8 5 -12 10 -9 6 4 8 11 5 16 -9 14 -15 11 -15 -7z"/>
<path d="M830 1646 c0 -9 5 -16 10 -16 6 0 10 4 10 9 0 6 -4 13 -10 16 -5 3
-10 -1 -10 -9z"/>
<path d="M987 1653 c-4 -3 -7 -13 -7 -22 1 -13 3 -13 11 2 11 19 8 33 -4 20z"/>
<path d="M885 1621 c3 -11 2 -21 -3 -21 -6 0 -13 -8 -16 -17 -6 -15 -4 -15 14
2 22 20 26 40 9 51 -8 4 -9 0 -4 -15z"/>
<path d="M1680 1631 c0 -6 4 -13 10 -16 6 -3 7 1 4 9 -7 18 -14 21 -14 7z"/>
<path d="M2038 1635 c-12 -12 4 -35 24 -35 12 0 17 -4 12 -12 -4 -7 -3 -8 4
-4 18 11 14 35 -5 32 -10 -2 -20 3 -23 11 -3 8 -9 11 -12 8z"/>
<path d="M814 1621 c-11 -12 -1 -17 26 -13 17 2 30 7 30 11 0 7 -49 9 -56 2z"/>
<path d="M1255 1620 c-3 -5 -2 -10 4 -10 5 0 13 5 16 10 3 6 2 10 -4 10 -5 0
-13 -4 -16 -10z"/>
<path d="M1310 1620 c0 -5 5 -10 10 -10 6 0 10 -5 10 -11 0 -5 -4 -7 -10 -4
-5 3 -10 1 -10 -5 0 -7 10 -9 28 -5 16 3 41 1 55 -4 30 -12 34 -7 12 15 -12
12 -15 12 -15 2 0 -10 -3 -9 -10 2 -5 8 -10 12 -10 7 0 -4 -13 -1 -30 8 -17 9
-30 11 -30 5z"/>
<path d="M1455 1610 c-3 -5 -1 -10 4 -10 6 0 11 5 11 10 0 6 -2 10 -4 10 -3 0
-8 -4 -11 -10z"/>
<path d="M2014 1604 c3 -9 6 -20 6 -25 0 -4 7 -5 17 -2 12 5 14 3 8 -7 -6 -9
-4 -11 5 -5 10 6 10 11 -3 20 -10 7 -17 17 -17 24 0 6 -5 11 -11 11 -6 0 -8
-7 -5 -16z"/>
<path d="M2101 1603 c-1 -10 -2 -30 -2 -45 0 -20 -4 -25 -14 -21 -8 3 -15 10
-15 17 0 6 -5 4 -10 -4 -15 -23 -12 -29 10 -23 23 6 25 0 9 -29 -6 -11 -8 -22
-5 -25 3 -3 15 14 27 38 11 24 18 33 15 19 -3 -14 -6 -30 -6 -37 0 -7 -10 -22
-22 -33 -16 -15 -18 -19 -6 -15 13 5 15 2 11 -14 -3 -12 -9 -22 -14 -22 -5 -1
-13 -3 -19 -4 -5 -1 -15 -3 -21 -4 -5 0 -8 -5 -5 -10 3 -5 15 -7 26 -4 11 3
20 1 20 -5 0 -6 9 -8 20 -5 19 5 20 6 3 19 -10 8 -13 13 -6 14 7 0 10 7 7 15
-4 9 3 19 20 26 24 11 24 13 8 25 -9 7 -14 16 -10 20 5 4 17 -1 28 -11 17 -16
20 -16 15 -3 -4 9 -13 19 -21 22 -8 3 -14 10 -14 15 0 6 7 8 15 5 24 -10 17
10 -7 21 -18 8 -23 17 -21 43 2 33 -12 46 -16 15z"/>
<path d="M780 1595 c-8 -9 -8 -15 -2 -15 12 0 26 19 19 26 -2 2 -10 -2 -17
-11z"/>
<path d="M988 1581 c-3 -21 -1 -28 9 -24 7 3 13 0 13 -7 0 -6 5 -8 11 -4 8 5
7 9 -4 15 -9 6 -13 17 -10 29 3 11 1 20 -5 20 -5 0 -12 -13 -14 -29z"/>
<path d="M1910 1607 c0 -10 30 -62 30 -52 1 6 7 -1 15 -15 8 -15 14 -19 14
-10 1 8 -13 30 -29 49 -17 18 -30 31 -30 28z"/>
<path d="M809 1579 c-13 -10 -31 -16 -41 -13 -9 3 -20 -1 -24 -7 -5 -9 -2 -10
9 -6 12 4 17 1 17 -9 0 -10 -6 -14 -14 -11 -10 4 -14 0 -13 -12 2 -25 16 -18
51 24 27 32 56 50 41 25 -3 -5 -2 -10 3 -10 5 0 12 8 14 18 7 24 -13 24 -43 1z"/>
<path d="M910 1590 c0 -5 5 -10 11 -10 5 0 7 5 4 10 -3 6 -8 10 -11 10 -2 0
-4 -4 -4 -10z"/>
<path d="M1021 1584 c0 -11 3 -14 6 -6 3 7 2 16 -1 19 -3 4 -6 -2 -5 -13z"/>
<path d="M1041 1584 c0 -11 3 -14 6 -6 3 7 2 16 -1 19 -3 4 -6 -2 -5 -13z"/>
<path d="M2287 1584 c3 -8 9 -14 14 -14 5 0 9 -11 9 -25 0 -45 30 -26 36 22 2
20 0 22 -12 12 -8 -7 -14 -7 -14 -1 0 5 -9 12 -19 15 -14 3 -18 1 -14 -9z"/>
<path d="M885 1570 c-3 -5 1 -10 10 -10 9 0 13 5 10 10 -3 6 -8 10 -10 10 -2
0 -7 -4 -10 -10z"/>
<path d="M1350 1570 c0 -5 5 -10 11 -10 5 0 7 5 4 10 -3 6 -8 10 -11 10 -2 0
-4 -4 -4 -10z"/>
<path d="M1507 1573 c-4 -3 -3 -11 1 -17 5 -6 14 -30 22 -54 18 -57 36 -71 43
-35 4 20 0 33 -14 46 -11 10 -16 24 -13 30 4 7 4 9 0 5 -10 -8 -36 14 -29 25
5 9 -1 9 -10 0z m50 -95 c-3 -8 -6 -5 -6 6 -1 11 2 17 5 13 3 -3 4 -12 1 -19z"/>
<path d="M920 1555 c0 -8 4 -15 8 -15 5 0 9 7 9 15 0 8 -4 15 -9 15 -4 0 -8
-7 -8 -15z"/>
<path d="M1307 1563 c-13 -13 -7 -25 7 -14 12 10 17 8 26 -10 11 -19 10 -21
-4 -16 -9 4 -16 2 -16 -3 0 -5 8 -11 18 -13 15 -4 15 -5 1 -6 -21 -1 -30 -23
-18 -42 7 -11 9 -9 9 9 0 12 6 22 15 22 19 0 15 51 -5 67 -17 14 -24 16 -33 6z"/>
<path d="M1385 1556 c-6 -6 -10 -18 -9 -26 0 -8 2 -23 2 -33 1 -11 7 -15 14
-11 7 4 8 3 4 -4 -4 -7 -16 -12 -27 -12 -10 0 -19 -5 -19 -11 0 -5 5 -7 11 -3
8 4 9 0 4 -15 -5 -16 -3 -20 9 -15 9 3 16 15 16 25 0 10 5 19 10 19 14 0 13
-8 -7 -41 -15 -25 -15 -31 -4 -38 7 -5 10 -14 7 -20 -4 -6 -2 -11 3 -11 14 0
14 37 0 46 -7 4 -8 9 -1 13 20 12 24 57 7 74 -9 9 -13 22 -9 28 5 8 2 9 -7 4
-11 -6 -12 -5 -2 5 7 8 14 12 15 9 32 -51 38 -70 29 -88 -8 -15 -7 -20 5 -25
13 -5 15 -2 11 14 -3 13 0 23 9 27 8 3 14 10 14 15 0 6 -7 7 -16 4 -12 -5 -15
-2 -10 9 3 9 -1 18 -9 21 -8 4 -15 12 -15 19 0 20 -23 35 -35 21z"/>
<path d="M2240 1562 c0 -10 29 -26 41 -24 4 1 10 -10 13 -23 4 -15 13 -25 24
-25 16 1 16 2 1 13 -9 7 -18 21 -20 32 -3 11 -11 20 -19 20 -8 0 -21 4 -27 8
-7 5 -13 4 -13 -1z"/>
<path d="M690 1546 c-34 -15 -80 -57 -80 -72 0 -8 -7 -11 -17 -8 -15 5 -15 4
-3 -4 12 -9 12 -13 -3 -30 -19 -21 -22 -32 -8 -32 5 0 11 9 14 21 4 14 10 18
18 13 8 -5 11 -2 7 7 -10 25 10 62 29 55 10 -4 14 -4 11 0 -4 3 -2 12 5 18 17
17 47 27 47 16 0 -6 -4 -10 -10 -10 -5 0 -10 -5 -10 -12 0 -8 6 -7 16 4 9 8
14 22 12 30 -2 12 -8 13 -28 4z"/>
<path d="M1280 1544 c0 -13 -3 -14 -14 -5 -10 9 -16 8 -26 -4 -9 -10 -9 -15
-1 -15 6 0 11 5 11 11 0 5 5 7 10 4 6 -3 10 -16 10 -28 0 -16 -3 -18 -12 -9
-16 16 -28 15 -28 -3 0 -8 5 -15 10 -15 6 0 10 -6 10 -14 0 -8 4 -18 10 -21 6
-4 9 4 7 17 -2 18 2 23 21 21 12 -2 22 2 22 7 0 6 -7 10 -15 10 -11 0 -13 8
-8 30 3 17 3 30 -1 30 -3 0 -6 -7 -6 -16z"/>
<path d="M1560 1546 c0 -8 5 -18 10 -21 6 -3 10 1 10 9 0 8 -4 18 -10 21 -5 3
-10 -1 -10 -9z"/>
<path d="M1780 1539 c-15 -28 -4 -37 18 -14 9 10 11 15 5 11 -7 -4 -13 -3 -13
3 0 5 6 12 13 14 9 4 9 6 0 6 -7 1 -17 -8 -23 -20z"/>
<path d="M470 1539 c0 -3 11 -9 25 -11 13 -3 22 -2 20 3 -3 4 1 9 7 11 7 3 -2
5 -19 5 -18 0 -33 -4 -33 -8z"/>
<path d="M890 1538 c0 -7 10 -14 21 -15 12 -1 20 -1 18 0 -2 2 -12 9 -21 16
-15 11 -18 11 -18 -1z"/>
<path d="M1160 1540 c0 -6 -5 -8 -12 -4 -8 5 -9 2 -4 -12 4 -10 9 -24 10 -31
1 -7 6 -16 10 -20 5 -4 6 5 2 21 -5 18 -3 32 4 36 9 5 9 9 1 14 -6 4 -11 2
-11 -4z"/>
<path d="M838 1522 c-30 -18 -38 -35 -13 -26 8 4 15 10 15 16 0 5 9 7 20 3 15
-5 18 -3 14 9 -3 9 -7 16 -8 16 0 0 -13 -8 -28 -18z"/>
<path d="M963 1533 c-8 -3 -13 -20 -12 -41 1 -22 3 -29 6 -17 3 11 10 23 15
26 14 9 6 37 -9 32z"/>
<path d="M990 1535 c0 -2 11 -10 23 -18 19 -12 24 -12 24 -2 0 7 -11 15 -24
18 -12 2 -23 3 -23 2z"/>
<path d="M1908 1519 c-26 -27 -22 -45 11 -65 32 -19 31 -31 -2 -43 -21 -8 -48
11 -60 40 -4 10 -6 10 -6 -2 -1 -9 -7 -19 -14 -22 -9 -3 -12 -16 -9 -36 2 -17
8 -29 12 -26 4 2 5 15 3 29 -3 13 1 27 7 31 9 5 10 1 5 -16 -4 -17 -3 -20 3
-10 8 11 12 10 21 -5 9 -13 14 -15 17 -6 3 6 9 12 14 12 16 0 40 -31 33 -43
-4 -7 -9 -4 -14 9 -6 14 -8 9 -8 -18 -1 -21 3 -38 8 -38 16 0 22 18 9 23 -8 3
-6 6 5 6 20 1 22 14 6 43 -6 12 -7 23 -2 27 17 12 -1 61 -22 61 -19 0 -29 20
-16 33 7 7 12 5 17 -7 5 -14 9 -15 15 -5 12 20 21 5 26 -46 5 -44 15 -56 28
-35 4 6 15 8 25 5 10 -3 21 -1 25 5 3 6 10 8 15 5 4 -3 6 4 3 15 -3 11 -9 23
-14 26 -13 8 -11 24 2 22 6 -2 14 3 16 10 4 11 1 12 -13 4 -11 -5 -25 -7 -31
-5 -7 3 -13 -3 -13 -12 0 -26 -33 -13 -51 19 -20 37 -29 40 -51 15z m142 -75
c0 -3 -7 -1 -15 6 -8 7 -15 17 -15 22 0 5 7 3 15 -6 8 -8 15 -18 15 -22z m-50
-10 c0 -8 -4 -14 -10 -14 -5 0 -10 9 -10 21 0 11 5 17 10 14 6 -3 10 -13 10
-21z m35 -4 c3 -5 2 -10 -4 -10 -5 0 -13 5 -16 10 -3 6 -2 10 4 10 5 0 13 -4
16 -10z"/>
<path d="M782 1510 c-14 -23 -8 -40 14 -40 8 0 14 -5 14 -12 0 -9 3 -9 12 0
25 25 39 14 32 -24 -5 -26 -3 -35 4 -30 6 4 9 13 5 21 -3 8 -1 15 5 15 5 0 9
7 8 16 0 9 4 19 10 21 7 2 11 -4 10 -14 -1 -13 5 -17 19 -15 16 3 18 1 8 -9
-21 -21 -15 -34 6 -15 15 13 20 14 24 4 4 -8 6 -7 6 5 1 9 -6 17 -14 17 -8 0
-15 4 -15 10 0 5 -7 7 -15 3 -9 -3 -15 -2 -14 3 5 27 -2 33 -26 24 -14 -5 -25
-7 -25 -4 0 2 -9 0 -20 -6 -15 -8 -20 -8 -20 1 0 6 -7 9 -15 5 -8 -3 -15 -1
-15 3 0 5 5 11 12 13 6 2 9 9 7 16 -3 8 -9 5 -17 -8z"/>
<path d="M2230 1523 c0 -5 4 -14 8 -21 9 -13 42 -6 42 9 0 4 -7 6 -15 3 -8 -4
-15 -1 -15 5 0 6 -4 11 -10 11 -5 0 -10 -3 -10 -7z"/>
<path d="M469 1509 c-12 -8 -6 -13 13 -10 4 0 5 -5 2 -12 -4 -10 3 -12 27 -9
31 5 30 8 -12 32 -9 5 -21 5 -30 -1z"/>
<path d="M993 1495 c-3 -9 -3 -18 -1 -21 3 -3 8 4 11 16 6 23 -1 27 -10 5z"/>
<path d="M2344 1495 c-3 -8 -1 -29 5 -46 11 -33 6 -54 -11 -43 -5 3 -8 15 -5
25 3 11 1 16 -5 13 -6 -4 -8 2 -4 17 6 22 6 23 -5 4 -6 -11 -18 -25 -26 -32
-13 -10 -12 -13 11 -19 14 -3 26 -13 26 -21 0 -8 5 -11 12 -7 6 4 8 3 4 -4 -6
-10 43 -57 51 -49 2 2 5 23 8 46 2 28 0 41 -9 41 -6 0 -12 -9 -12 -20 0 -11 5
-20 10 -20 6 0 5 -5 -2 -12 -9 -9 -15 -9 -23 -1 -14 14 -2 76 14 66 6 -4 1 7
-11 24 -24 34 -28 48 -10 37 7 -4 8 -3 4 4 -10 16 -15 15 -22 -3z"/>
<path d="M410 1486 c0 -8 5 -18 10 -21 6 -3 10 3 10 14 0 12 -4 21 -10 21 -5
0 -10 -6 -10 -14z"/>
<path d="M920 1489 c0 -5 5 -7 10 -4 6 3 10 8 10 11 0 2 -4 4 -10 4 -5 0 -10
-5 -10 -11z"/>
<path d="M2380 1494 c0 -6 7 -17 15 -24 8 -6 13 -17 12 -22 -1 -6 4 -13 11
-15 11 -4 12 -1 4 13 -18 33 -41 59 -42 48z"/>
<path d="M542 1474 c-7 -8 -21 -14 -32 -14 -13 0 -18 -5 -14 -15 4 -8 10 -15
16 -15 5 0 7 4 4 9 -3 5 1 12 10 15 29 11 36 7 30 -19 -7 -29 -1 -33 12 -7 5
10 4 25 -2 38 -10 18 -14 19 -24 8z"/>
<path d="M666 1474 c-3 -9 -3 -20 0 -26 3 -5 -3 -18 -15 -29 -12 -11 -21 -24
-21 -29 0 -16 18 -11 29 8 6 10 11 12 11 4 0 -7 5 -10 11 -6 8 4 7 9 -2 14
-10 7 -10 11 1 24 7 9 10 19 7 23 -4 3 -2 12 4 20 9 10 8 13 -4 13 -8 0 -18
-7 -21 -16z"/>
<path d="M745 1480 c-3 -5 -1 -10 4 -10 6 0 11 5 11 10 0 6 -2 10 -4 10 -3 0
-8 -4 -11 -10z"/>
<path d="M970 1470 c0 -11 4 -20 9 -20 5 0 7 9 4 20 -3 11 -7 20 -9 20 -2 0
-4 -9 -4 -20z"/>
<path d="M2545 1480 c-3 -5 1 -10 9 -10 9 0 16 5 16 10 0 6 -4 10 -9 10 -6 0
-13 -4 -16 -10z"/>
<path d="M444 1468 c-4 -6 1 -17 11 -25 11 -7 14 -13 8 -13 -7 0 -13 -6 -16
-12 -2 -7 -3 -5 -2 5 2 12 -4 17 -22 17 -18 0 -24 -4 -20 -14 4 -10 1 -13 -9
-9 -7 3 -14 9 -14 14 0 18 -21 8 -29 -13 -14 -38 -1 -54 21 -27 19 23 20 23
15 2 -3 -15 -1 -20 9 -16 8 3 11 10 7 16 -4 6 -1 7 8 1 8 -5 22 -7 32 -6 9 2
17 -2 17 -8 0 -6 -5 -8 -12 -4 -8 5 -9 2 -5 -9 6 -15 -3 -22 -25 -18 -5 0 -8
-4 -8 -10 0 -7 9 -9 24 -5 14 3 26 1 28 -5 2 -7 10 -4 18 7 14 16 13 17 -2 11
-30 -11 -21 20 10 31 44 18 54 18 57 -1 2 -13 -1 -17 -11 -13 -8 3 -14 1 -14
-4 0 -6 6 -10 13 -10 8 0 9 -3 1 -8 -11 -7 -34 -46 -34 -57 0 -4 11 7 25 23
14 17 25 35 25 41 0 6 9 10 19 8 11 -1 20 3 20 8 0 6 -9 9 -19 8 -13 -2 -17 2
-14 11 8 20 -29 29 -60 15 -29 -14 -50 -3 -24 12 14 8 14 14 5 39 -12 32 -21
37 -33 18z"/>
<path d="M709 1460 c-1 -11 -2 -26 -3 -32 -1 -7 3 -16 9 -20 6 -5 6 -8 -2 -8
-7 0 -13 -5 -13 -12 0 -16 38 20 45 43 8 25 24 24 22 -1 -1 -11 -5 -20 -10
-20 -4 0 -7 -9 -5 -20 2 -10 -6 -26 -17 -35 -11 -9 -14 -14 -7 -10 6 3 12 1
12 -4 0 -6 -4 -11 -8 -11 -5 0 -9 -7 -9 -15 0 -8 4 -15 9 -15 4 0 8 8 8 18 0
13 2 14 9 3 6 -9 11 -10 15 -2 4 6 2 11 -3 11 -6 0 -11 7 -11 15 0 8 7 15 15
15 8 0 15 5 15 10 0 6 -5 10 -11 10 -8 0 -7 6 2 16 12 15 14 14 20 -7 6 -21 7
-20 8 8 1 26 -2 31 -15 26 -14 -5 -15 -3 -4 16 10 21 9 22 -11 19 -13 -2 -29
-13 -35 -26 -8 -17 -13 -19 -17 -9 -3 8 -1 20 4 28 12 19 11 29 -1 29 -5 0
-11 -9 -11 -20z"/>
<path d="M1180 1465 c0 -11 -7 -14 -24 -11 -19 3 -25 -1 -28 -18 -5 -26 0 -46
13 -46 4 0 5 7 2 17 -4 11 -3 14 5 9 8 -5 10 -2 6 8 -4 11 0 16 11 16 16 0 16
-9 -3 -58 -2 -7 1 -12 9 -10 7 2 13 -3 14 -10 0 -8 8 -19 18 -26 13 -11 14
-15 5 -23 -28 -22 -38 -24 -32 -9 3 9 11 13 18 9 6 -3 6 -1 -1 8 -10 10 -16
10 -25 1 -10 -10 -8 -19 6 -44 17 -28 17 -31 3 -25 -10 4 -17 1 -17 -6 0 -7
-5 -4 -11 6 -14 25 -27 21 -25 -8 1 -29 7 -30 47 -10 16 9 34 13 39 10 5 -3
12 0 16 6 4 8 9 7 15 -2 4 -7 11 -10 16 -6 4 5 2 12 -6 16 -10 6 -9 10 4 15
25 9 27 8 20 -13 -5 -16 -2 -18 15 -14 20 5 20 6 3 26 -18 19 -17 19 5 13 13
-5 22 -3 22 3 0 6 -10 11 -22 12 l-23 0 23 11 c21 11 32 48 13 48 -15 0 -24
-20 -9 -21 7 0 3 -5 -10 -11 -13 -7 -21 -17 -18 -25 3 -7 -1 -13 -8 -13 -7 0
-19 -7 -26 -15 -7 -8 -20 -15 -30 -15 -10 0 -20 7 -24 15 -3 9 0 15 8 15 8 0
17 -6 19 -12 3 -7 6 -3 6 9 1 12 8 28 16 37 9 9 11 17 5 21 -5 3 -10 0 -10 -7
0 -9 -3 -9 -10 2 -5 8 -10 11 -10 5 -1 -5 -6 1 -12 15 -6 14 -10 46 -9 73 2
26 0 47 -3 47 -3 0 -6 -7 -6 -15z"/>
<path d="M1585 1470 c-10 -16 4 -47 20 -47 8 0 15 6 15 14 0 7 -7 13 -15 13
-9 0 -12 6 -9 15 7 17 -1 20 -11 5z"/>
<path d="M1671 1464 c0 -11 3 -14 6 -6 3 7 2 16 -1 19 -3 4 -6 -2 -5 -13z"/>
<path d="M2502 1458 c7 -13 19 -31 27 -40 10 -13 11 -18 2 -18 -6 0 -14 7 -17
15 -4 8 -11 12 -16 9 -6 -4 -8 2 -3 15 7 22 -10 30 -19 9 -3 -9 -9 -7 -20 6
-20 24 -31 15 -17 -12 14 -27 14 -32 -2 -32 -9 0 -12 -10 -9 -31 4 -25 2 -30
-9 -24 -8 5 -5 -5 7 -26 22 -37 21 -69 -2 -69 -8 0 -14 -4 -14 -8 0 -10 46
-10 56 1 4 4 12 7 18 7 6 0 5 -5 -2 -12 -7 -7 -12 -18 -12 -26 0 -11 3 -11 15
2 8 8 15 20 15 26 0 6 5 8 11 5 6 -4 8 -10 5 -13 -3 -3 -2 -10 4 -16 5 -7 5
-18 0 -26 -8 -12 -10 -12 -15 3 -6 14 -9 14 -21 2 -8 -7 -14 -18 -14 -23 0 -4
-11 -19 -24 -31 l-23 -22 -6 23 c-4 12 -9 20 -12 16 -3 -3 0 -17 6 -32 9 -19
15 -23 21 -14 6 10 10 10 17 -1 7 -11 10 -11 15 0 3 8 4 5 3 -6 -2 -13 -9 -19
-22 -17 -18 2 -18 1 -4 -10 8 -7 18 -21 22 -30 3 -10 13 -18 21 -18 10 0 13
-10 11 -35 -1 -19 -4 -38 -7 -40 -7 -8 -38 5 -38 16 0 4 6 6 13 3 8 -3 13 4
13 20 0 14 -3 24 -7 23 -3 -1 -16 9 -27 23 -12 14 -21 19 -22 13 0 -7 5 -13
10 -13 6 0 10 -7 10 -17 0 -14 -3 -14 -22 3 -23 19 -23 19 -6 -1 35 -42 44
-97 10 -63 -9 9 -12 9 -12 1 0 -7 9 -15 20 -18 11 -3 20 -11 20 -17 0 -5 15
-24 33 -41 17 -17 26 -27 20 -23 -8 4 -13 2 -13 -4 0 -7 7 -9 16 -6 9 3 29 6
45 6 27 0 30 3 23 22 -6 19 -4 21 7 12 19 -15 53 -3 57 19 2 15 -2 17 -25 12
-21 -5 -25 -4 -13 4 12 9 10 11 -11 11 -20 0 -28 -6 -33 -25 -4 -14 -4 -30 -1
-35 8 -13 2 -12 -26 3 -46 23 -73 47 -65 54 5 5 11 2 13 -5 3 -6 10 -9 15 -6
6 4 8 2 5 -3 -4 -6 0 -14 9 -17 15 -6 14 4 -3 52 -3 6 0 12 6 12 7 0 9 10 5
28 l-7 27 21 -25 c18 -21 21 -22 22 -7 0 9 -4 17 -10 17 -5 0 -10 7 -10 15 0
8 -5 15 -11 15 -8 0 -7 6 2 16 12 15 10 16 -20 9 -29 -6 -33 -5 -28 10 4 9 7
21 7 26 0 6 4 8 10 4 5 -3 6 -13 3 -23 -6 -15 -5 -15 10 -3 16 13 16 15 1 26
-14 9 -14 16 -5 33 15 28 17 28 16 -5 0 -18 6 -29 18 -31 21 -4 23 24 2 44
-20 21 -19 31 6 37 17 5 20 2 16 -14 -6 -23 2 -24 29 -5 16 12 21 12 34 1 9
-8 21 -11 29 -6 9 6 6 10 -13 15 -14 3 -25 10 -25 14 4 21 -2 42 -10 38 -5 -3
-7 -14 -4 -25 3 -11 -2 -21 -12 -25 -11 -4 -15 -2 -12 6 2 7 -10 19 -27 27
-19 8 -26 15 -18 18 10 4 9 9 -4 24 -21 23 -8 25 17 3 16 -15 17 -14 12 5 -8
31 -24 37 -42 15 -23 -28 -48 -26 -48 2 0 25 12 33 19 12 3 -9 6 -9 12 0 4 8
-1 16 -16 21 -13 6 -17 10 -10 10 15 1 6 21 -9 21 -6 0 -8 -4 -4 -9 3 -5 1
-12 -4 -15 -17 -11 -22 12 -5 28 8 9 11 16 5 16 -6 0 -11 5 -11 11 0 5 5 7 12
3 6 -4 8 -3 5 4 -8 12 2 42 14 42 4 0 6 -6 3 -14 -4 -11 1 -13 18 -10 13 2 18
2 11 -2 -7 -3 -9 -12 -6 -20 4 -10 0 -12 -10 -8 -14 5 -14 2 -4 -25 6 -17 15
-31 19 -31 12 0 10 18 -3 26 -8 5 -7 10 4 16 9 5 14 15 11 22 -3 9 1 13 13 13
10 -1 17 4 15 11 -1 8 5 12 15 10 10 -2 18 -9 18 -15 0 -7 6 -18 13 -25 11
-11 12 -10 7 3 -4 10 0 16 10 16 8 0 15 -9 15 -19 0 -10 -4 -18 -10 -18 -13 0
-13 -27 0 -35 6 -4 7 1 3 12 -9 27 11 3 25 -29 10 -24 9 -28 -9 -33 -21 -7
-21 -26 -1 -33 8 -2 10 2 6 13 -5 13 -2 16 17 13 16 -2 23 2 21 10 -1 8 2 11
7 8 5 -4 12 -2 16 4 3 5 1 11 -4 11 -6 1 -15 2 -20 3 -14 2 -54 56 -42 56 6 0
16 -9 23 -20 17 -27 30 -25 26 3 -2 12 -10 22 -18 22 -9 0 -14 8 -12 18 2 9
-2 17 -8 17 -6 0 -9 4 -6 9 3 4 -6 13 -19 19 -14 7 -25 17 -25 24 -1 8 -7 5
-15 -6 -8 -11 -15 -15 -15 -10 0 9 -51 44 -64 44 -3 0 -1 -10 6 -22z m43 -18
c3 -6 -1 -7 -9 -4 -18 7 -21 14 -7 14 6 0 13 -4 16 -10z m65 -26 c0 -2 -7 -4
-15 -4 -8 0 -15 4 -15 10 0 5 7 7 15 4 8 -4 15 -8 15 -10z m-106 -242 c-6 -4
-13 -13 -16 -21 -2 -8 -11 -15 -20 -17 -11 -1 -15 3 -11 12 3 8 9 14 13 14 5
0 12 9 15 21 5 16 10 18 18 10 9 -9 9 -14 1 -19z m31 -32 c3 -5 1 -10 -4 -10
-6 0 -11 5 -11 10 0 6 2 10 4 10 3 0 8 -4 11 -10z m-75 -130 c0 -5 -4 -10 -10
-10 -5 0 -10 5 -10 10 0 6 5 10 10 10 6 0 10 -4 10 -10z"/>
<path d="M640 1455 c0 -8 4 -15 10 -15 5 0 7 7 4 15 -4 8 -8 15 -10 15 -2 0
-4 -7 -4 -15z"/>
<path d="M1282 1460 c3 -8 2 -23 -1 -33 -6 -17 -9 -17 -32 5 -28 26 -49 26
-49 1 0 -13 3 -13 15 -3 13 11 15 8 13 -14 -1 -14 -6 -26 -10 -26 -4 0 -8 -7
-8 -15 0 -8 5 -15 10 -15 6 0 10 7 10 15 0 8 5 15 11 15 6 0 9 -7 5 -15 -3 -8
-1 -15 4 -15 17 0 20 18 5 30 -22 18 -18 32 5 20 11 -6 19 -14 19 -18 -5 -29
3 -34 17 -13 l16 23 12 -23 c10 -19 35 -25 29 -6 -4 11 15 8 20 -3 3 -6 4 -5
3 2 -2 7 -11 12 -22 11 -10 -1 -23 6 -29 14 -7 9 -17 13 -23 9 -15 -9 -15 -1
-2 24 7 13 5 21 -7 31 -14 12 -16 12 -11 -1z"/>
<path d="M1870 1457 c0 -7 11 -19 25 -25 21 -10 25 -9 25 4 0 8 -4 13 -9 9 -5
-3 -17 2 -25 11 -13 12 -16 13 -16 1z"/>
<path d="M1787 1440 c10 -11 19 -20 21 -20 1 0 -2 9 -8 20 -6 11 -15 20 -20
20 -6 0 -2 -9 7 -20z"/>
<path d="M820 1439 c-12 -8 -12 -12 -2 -16 9 -3 10 -9 2 -18 -8 -9 -7 -14 2
-18 9 -3 13 6 14 29 1 19 1 34 0 34 0 0 -8 -5 -16 -11z"/>
<path d="M2123 1442 c-8 -5 -7 -17 5 -42 14 -33 16 -34 20 -11 2 13 -2 27 -8
31 -9 6 -9 9 1 12 8 3 9 7 3 11 -5 3 -15 3 -21 -1z"/>
<path d="M1316 1431 c-3 -5 1 -12 10 -15 20 -8 29 -1 19 13 -8 13 -22 14 -29
2z"/>
<path d="M2222 1432 c-10 -7 -8 -19 8 -55 12 -26 23 -47 24 -47 2 0 4 15 3 34
0 19 -4 34 -8 33 -4 -1 -7 1 -8 6 -5 36 16 37 25 2 4 -14 9 -24 12 -21 3 3 11
1 18 -5 7 -5 15 -6 18 -1 3 5 -6 15 -19 22 -14 7 -25 19 -25 27 0 14 -28 17
-48 5z"/>
<path d="M890 1419 c0 -6 -10 -19 -22 -30 -17 -14 -18 -17 -5 -13 9 3 17 2 17
-4 0 -5 -11 -13 -25 -16 -15 -4 -23 -11 -19 -17 4 -6 9 -7 13 -3 3 5 19 16 35
24 23 12 30 12 33 3 6 -18 20 -16 27 2 3 9 1 15 -7 14 -38 -5 -47 1 -41 26 3
14 3 25 0 25 -3 0 -6 -5 -6 -11z"/>
<path d="M1540 1421 c0 -5 9 -13 20 -16 11 -3 20 -11 20 -16 0 -5 9 -9 20 -9
11 0 20 -4 20 -9 0 -5 11 -4 24 2 14 7 21 17 18 25 -4 11 -6 11 -14 0 -8 -11
-10 -11 -15 1 -4 11 -7 11 -13 1 -6 -10 -12 -10 -25 3 -9 10 -21 15 -26 12 -5
-4 -9 -1 -9 4 0 6 -4 11 -10 11 -5 0 -10 -4 -10 -9z"/>
<path d="M606 1404 c-7 -18 19 -60 28 -46 3 5 -1 15 -9 22 -7 6 -11 18 -8 26
3 8 3 14 0 14 -3 0 -8 -7 -11 -16z"/>
<path d="M955 1409 c-16 -6 -17 -8 -3 -8 9 -1 21 -9 27 -18 5 -10 13 -15 16
-11 4 4 1 15 -6 26 -10 14 -20 17 -34 11z"/>
<path d="M1000 1411 c0 -5 7 -11 15 -15 28 -10 40 -76 14 -76 -5 0 -6 15 -3
33 3 18 2 27 -3 21 -4 -6 -17 -16 -28 -23 -19 -11 -19 -12 3 -6 22 6 23 5 13
-14 -10 -17 -9 -21 4 -21 9 0 24 4 34 10 16 8 17 14 7 44 -9 31 -56 70 -56 47z"/>
<path d="M1073 1407 c2 -6 8 -12 13 -12 5 0 15 -4 23 -9 9 -6 12 -5 9 4 -2 7
-14 17 -27 22 -16 6 -22 5 -18 -5z"/>
<path d="M1464 1413 c4 -7 3 -13 -1 -13 -5 0 -13 -8 -19 -17 -10 -16 -7 -18
20 -18 34 1 37 18 9 45 -9 8 -13 9 -9 3z"/>
<path d="M2000 1390 c0 -5 4 -10 10 -10 5 0 7 -7 3 -15 -6 -17 -18 -11 -18 8
0 5 -5 12 -12 14 -7 3 -11 -4 -10 -16 0 -11 5 -17 10 -14 5 3 6 -4 3 -15 -4
-11 -2 -23 3 -27 7 -4 8 1 4 12 -3 10 -3 15 2 11 4 -4 14 -3 20 2 9 8 15 3 20
-17 3 -15 12 -31 18 -35 8 -5 7 -11 -2 -22 -9 -11 -10 -20 -1 -35 13 -26 2
-28 -16 -3 -13 16 -14 16 -8 0 3 -10 1 -18 -5 -18 -6 0 -11 -9 -11 -21 0 -12
5 -19 13 -16 6 2 10 12 9 22 -3 15 -1 17 11 7 7 -6 17 -8 22 -4 4 4 5 0 1 -8
-3 -8 -9 -23 -12 -32 -7 -20 -29 -24 -39 -8 -3 6 -15 10 -27 10 -16 0 -18 3
-9 13 12 15 -3 37 -26 37 -17 0 -17 17 0 23 7 4 6 6 -4 6 -9 1 -20 8 -23 17
-3 8 -2 12 4 9 6 -3 10 -2 10 3 0 5 -11 10 -25 10 l-25 0 20 -28 c11 -15 17
-30 13 -34 -3 -3 -1 -6 5 -6 6 0 9 -8 6 -17 -5 -14 -4 -15 4 -4 5 7 15 10 22
6 9 -5 4 -14 -15 -31 -34 -29 -38 -30 -30 -4 5 14 2 20 -9 20 -14 0 -20 11
-17 32 0 4 -10 3 -23 -2 -13 -5 -28 -6 -32 -2 -5 4 -2 -1 5 -10 8 -11 9 -18 3
-18 -13 0 -26 20 -27 39 0 8 -6 16 -14 19 -8 3 -11 0 -7 -6 3 -6 1 -14 -5 -17
-5 -4 -8 -13 -5 -21 3 -8 1 -14 -4 -14 -6 0 -10 5 -10 10 0 6 -13 10 -30 10
-16 0 -30 4 -30 10 0 5 -7 7 -17 3 -14 -5 -13 -8 5 -14 12 -5 22 -14 22 -21 0
-9 3 -8 10 2 11 17 40 4 49 -21 4 -12 2 -12 -13 0 -15 12 -16 12 -9 -5 6 -17
5 -18 -12 -4 -15 13 -17 13 -14 1 8 -23 26 -24 48 -2 l21 21 0 -21 c0 -23 21
-22 28 2 3 11 2 12 -6 1 -7 -11 -11 -8 -14 12 -6 30 -1 32 24 9 12 -10 18 -12
18 -4 0 7 4 9 10 6 6 -4 7 1 3 11 -4 12 -3 15 5 10 7 -4 12 -14 12 -22 0 -9 5
-12 11 -8 7 4 9 0 5 -13 -8 -25 32 -29 51 -5 11 15 14 15 22 2 6 -8 13 -11 17
-7 4 4 18 0 30 -8 13 -8 25 -11 28 -6 8 13 56 0 57 -15 1 -8 3 -18 4 -24 1 -5
3 -14 4 -20 2 -14 29 -12 34 3 2 6 -5 18 -17 25 -19 12 -18 13 17 9 21 -2 37
2 38 8 0 5 4 1 9 -10 9 -22 14 -8 10 33 -2 30 23 28 49 -4 16 -21 18 -30 10
-40 -17 -20 -29 -17 -29 7 0 11 5 17 10 14 16 -10 12 5 -7 23 -16 16 -16 16
-10 0 3 -10 2 -20 -2 -23 -5 -2 -11 -14 -14 -25 -3 -11 -2 -18 3 -15 4 3 10
-4 13 -15 3 -11 1 -22 -4 -25 -14 -9 -49 19 -50 40 0 18 -1 17 -10 -4 -9 -24
-36 -50 -51 -51 -5 0 -8 11 -8 25 0 14 -4 25 -9 25 -13 0 -8 -67 6 -81 10 -10
14 -7 22 13 13 33 42 44 55 21 6 -10 11 -20 11 -23 0 -3 6 -15 13 -27 10 -19
10 -24 -6 -32 -14 -7 -21 -5 -31 11 -11 18 -11 20 2 15 12 -5 13 -1 4 24 -13
34 -23 37 -30 9 -3 -11 -1 -20 3 -20 5 0 7 -13 5 -29 -3 -22 0 -29 10 -25 17
7 14 -21 -4 -39 -10 -9 -12 -9 -9 1 2 8 -7 21 -19 29 -16 10 -23 12 -23 4 0
-7 -4 -9 -10 -6 -5 3 -10 1 -10 -4 0 -6 10 -10 21 -8 12 1 24 -4 26 -11 3 -8
-1 -10 -13 -5 -12 4 -15 3 -10 -5 4 -7 16 -12 27 -12 10 0 18 -3 17 -7 0 -5 2
-16 7 -26 6 -16 10 -14 30 15 22 32 22 33 4 46 -11 7 -17 18 -14 23 9 14 25
11 25 -6 0 -8 5 -15 11 -15 6 0 9 7 5 15 -3 8 -1 15 4 15 6 0 10 -4 10 -10 0
-19 16 -10 17 11 1 12 -3 19 -10 16 -10 -3 -61 82 -53 90 1 2 15 -10 29 -27
15 -16 23 -30 17 -30 -5 0 -10 -4 -10 -10 0 -12 27 -13 34 -1 3 5 -4 20 -15
35 l-21 26 24 -4 c15 -2 22 -9 20 -20 -2 -9 4 -19 13 -22 19 -8 20 -24 1 -24
-12 0 -12 -4 0 -30 17 -34 31 -38 37 -12 3 15 5 15 11 -3 4 -11 12 -28 17 -39
7 -13 7 -16 0 -11 -6 3 -11 2 -11 -4 0 -6 9 -15 21 -21 12 -7 18 -18 15 -26
-6 -16 12 -18 34 -4 11 7 9 11 -13 19 -15 6 -27 15 -27 21 0 12 16 14 23 3 2
-5 2 -2 1 5 -2 6 3 12 11 12 19 0 19 19 0 44 -16 22 -20 10 -5 -14 12 -19 -8
-32 -32 -19 -10 5 -18 20 -17 32 l0 22 11 -22 c6 -13 15 -23 19 -23 5 0 1 16
-9 35 -11 23 -24 34 -37 34 -17 -1 -17 -2 -2 -6 9 -2 17 -9 17 -15 0 -5 -6 -8
-14 -5 -7 3 -19 0 -25 -6 -8 -8 -11 -6 -11 9 0 11 5 25 11 31 13 13 4 33 -17
33 -8 0 -13 3 -13 8 1 4 1 18 0 32 -2 24 -2 24 -16 6 -17 -23 -20 -4 -4 25 13
26 39 8 32 -21 -3 -12 0 -20 6 -20 7 0 9 -6 5 -12 -4 -7 -3 -9 1 -5 5 4 15 -3
22 -15 l13 -23 -4 24 c-1 14 -8 27 -14 29 -7 2 -12 17 -12 33 0 18 -5 28 -12
27 -7 -2 -12 3 -10 10 1 7 -5 26 -13 42 -12 23 -22 30 -45 30 -29 0 -35 8 -31
39 2 11 0 11 -12 0 -8 -8 -12 -18 -9 -23 3 -5 -3 -6 -14 -3 -13 5 -10 0 9 -16
36 -30 35 -40 -3 -19 -28 16 -42 52 -20 52 5 0 6 8 3 18 -6 15 -5 16 12 2 17
-14 18 -14 6 8 -6 12 -16 22 -21 22 -5 0 -7 7 -4 15 8 20 22 19 27 -2 2 -10 4
7 4 37 -1 30 -3 47 -5 37 -2 -9 -8 -14 -14 -11 -7 4 -8 -2 -3 -17 7 -21 6 -22
-9 -10 -10 9 -16 10 -16 2 0 -6 5 -11 11 -11 8 0 7 -5 -2 -16 -14 -17 -20 -56
-7 -48 4 3 8 -2 8 -10 0 -9 -7 -16 -15 -16 -10 0 -15 10 -15 28 0 15 -5 34
-11 42 -9 13 -10 13 -6 -2 3 -9 1 -19 -6 -22 -9 -3 -8 -7 3 -15 10 -7 11 -14
5 -20 -7 -7 -14 -2 -22 15 -7 15 -7 24 -1 24 6 0 8 11 6 24 -7 33 20 43 32 13
8 -20 9 -20 9 -2 1 11 8 34 17 50 9 18 10 25 3 18 -7 -7 -17 -13 -21 -13 -4 0
-7 6 -5 13 1 6 -4 11 -12 9 -8 -2 -18 3 -22 10 -6 8 -8 2 -8 -17 0 -16 3 -24
6 -17 4 10 8 10 19 1 8 -6 14 -17 14 -23 0 -6 -5 -4 -10 4 -7 11 -10 11 -10 2
0 -7 -4 -10 -10 -7 -5 3 -10 0 -10 -7 0 -8 -5 -6 -11 5 -6 10 -8 25 -5 34 4 9
-2 24 -13 35 -23 20 -31 23 -31 8z m97 -203 c-3 -8 -1 -20 4 -28 6 -10 9 -8
10 11 l1 25 10 -27 c6 -17 17 -28 29 -28 10 0 19 -5 19 -11 0 -16 -59 -3 -83
18 -11 10 -17 12 -13 6 4 -7 2 -13 -4 -13 -7 0 -9 6 -6 13 3 6 9 20 12 30 4 9
11 17 16 17 6 0 8 -6 5 -13z m82 -304 c0 -5 -4 -17 -9 -28 -8 -18 -9 -17 -9 8
-1 15 4 27 9 27 6 0 10 -3 9 -7z"/>
<path d="M2163 1386 c1 -11 9 -21 17 -23 10 -3 11 -2 4 4 -6 4 -14 15 -17 23
-5 11 -6 9 -4 -4z"/>
<path d="M2180 1395 c0 -3 11 -18 25 -33 14 -15 25 -22 25 -16 0 5 -9 20 -20
32 -21 22 -30 27 -30 17z"/>
<path d="M2550 1379 c0 -5 -5 -7 -12 -3 -8 5 -9 2 -5 -9 4 -11 1 -17 -7 -17
-10 0 -12 -7 -8 -22 5 -19 6 -19 11 -5 5 13 11 6 26 -28 23 -51 31 -55 47 -20
9 20 8 28 -4 42 -9 10 -13 23 -11 30 2 6 -1 15 -8 19 -8 4 -9 3 -5 -4 4 -7 2
-12 -4 -12 -8 0 -8 -6 0 -21 13 -24 4 -41 -11 -19 -5 8 -7 30 -4 48 3 17 3 32
0 32 -3 0 -5 -5 -5 -11z m46 -96 c-10 -10 -19 5 -10 18 6 11 8 11 12 0 2 -7 1
-15 -2 -18z"/>
<path d="M300 1369 c0 -5 5 -7 10 -4 6 3 10 8 10 11 0 2 -4 4 -10 4 -5 0 -10
-5 -10 -11z"/>
<path d="M1066 1365 c4 -8 8 -15 10 -15 2 0 4 7 4 15 0 8 -4 15 -10 15 -5 0
-7 -7 -4 -15z"/>
<path d="M1874 1358 c14 -22 15 -28 3 -39 -7 -8 -16 -29 -20 -47 -6 -29 -5
-31 8 -18 8 8 15 24 15 37 0 18 2 19 15 9 23 -19 30 -4 11 24 -18 29 -21 40
-6 31 6 -3 10 -1 10 4 0 6 -4 11 -9 11 -5 0 -17 3 -26 7 -16 6 -16 5 -1 -19z"/>
<path d="M365 1363 c-52 -7 -59 -11 -45 -29 9 -10 15 -11 20 -4 8 14 50 22 50
9 0 -8 -6 -10 -25 -9 -14 1 -34 -30 -29 -44 4 -11 0 -16 -12 -16 -26 0 -8 -13
21 -15 14 0 25 3 25 8 0 5 7 7 15 4 8 -4 17 -2 20 3 4 6 11 10 16 10 6 0 7 -4
4 -10 -3 -5 3 -10 15 -10 12 0 18 5 15 10 -3 6 -3 10 2 10 4 0 17 12 27 27
l19 26 -31 -23 c-31 -23 -107 -41 -86 -20 6 6 21 12 34 15 12 2 25 7 29 11 3
4 -1 5 -10 2 -9 -4 -22 -2 -30 3 -11 7 -12 12 -1 29 10 16 10 20 0 19 -7 -1
-26 -4 -43 -6z m20 -63 c-20 -22 -31 -20 -22 5 4 8 14 15 23 15 16 0 16 -2 -1
-20z"/>
<path d="M670 1363 c-21 -9 -43 -33 -36 -40 3 -4 13 2 21 13 15 19 15 19 27
-1 17 -29 19 -65 4 -65 -8 0 -12 10 -11 25 2 14 0 25 -3 25 -10 -1 -34 -21
-51 -42 -11 -15 -11 -18 2 -18 8 0 17 9 20 20 3 11 10 20 16 20 8 0 9 -6 1
-19 -5 -11 -10 -29 -10 -40 0 -12 -4 -21 -8 -21 -4 0 -9 -17 -9 -37 -1 -29 1
-33 8 -20 6 9 15 17 21 17 6 0 3 -9 -7 -20 -22 -25 -32 -25 -38 -2 -4 16 -4
16 -12 -1 -4 -10 -2 -23 5 -32 15 -18 34 -20 24 -3 -5 7 -2 9 8 6 22 -9 43 54
27 80 -17 27 -4 55 21 47 13 -4 22 -1 26 9 3 9 11 13 17 9 6 -3 7 -1 3 6 -4 6
-12 9 -17 6 -8 -5 -14 24 -10 48 0 4 -3 7 -9 7 -5 0 -7 7 -4 15 6 16 0 18 -26
8z"/>
<path d="M810 1360 c0 -5 7 -7 15 -4 8 4 15 8 15 10 0 2 -7 4 -15 4 -8 0 -15
-4 -15 -10z"/>
<path d="M1103 1350 c-3 -11 -9 -17 -14 -14 -5 3 -9 0 -9 -5 0 -17 18 -13 29
7 8 13 12 14 22 5 10 -10 9 -16 -7 -28 -10 -8 -25 -12 -32 -10 -7 3 -10 0 -7
-5 3 -6 -1 -10 -10 -10 -10 0 -13 5 -9 13 4 6 -1 4 -12 -5 -16 -14 -23 -15
-32 -6 -9 9 -12 9 -12 1 0 -19 20 -26 37 -12 14 12 15 10 9 -21 -3 -19 -3 -28
1 -20 3 8 15 23 26 35 17 17 19 17 14 3 -10 -28 2 -21 13 7 11 28 33 34 28 9
-2 -10 3 -19 10 -21 9 -4 10 1 3 20 -7 19 -6 28 4 37 12 10 12 14 0 26 -20 20
-46 17 -52 -6z"/>
<path d="M1650 1361 c0 -5 -6 -11 -12 -14 -7 -2 -5 -3 5 -1 25 4 48 -6 41 -17
-3 -5 2 -9 10 -9 9 0 16 7 16 15 0 8 -9 15 -20 15 -11 0 -20 5 -20 10 0 6 -4
10 -10 10 -5 0 -10 -4 -10 -9z"/>
<path d="M2280 1352 c0 -10 -5 -23 -10 -30 -6 -6 -7 -10 -4 -8 9 6 44 -26 44
-41 0 -6 -4 -15 -10 -18 -14 -9 -52 15 -47 29 3 7 2 18 -3 25 -5 9 -9 2 -12
-18 -2 -17 -1 -31 4 -31 4 0 8 -7 8 -16 0 -14 2 -15 17 -3 15 12 16 12 10 -4
-4 -11 -1 -20 8 -23 8 -4 13 -10 10 -14 -3 -4 2 -10 9 -13 10 -4 13 -15 10
-32 -3 -15 -1 -24 4 -21 4 2 13 -8 19 -25 7 -17 7 -29 2 -29 -5 0 -13 8 -16
18 -4 9 -13 23 -20 30 -7 7 -13 21 -13 30 -1 28 -34 64 -52 57 -9 -4 -14 -13
-11 -21 4 -10 9 -11 18 -4 8 7 15 2 25 -18 7 -15 16 -34 21 -42 5 -8 13 -25
18 -36 10 -23 41 -40 41 -23 0 6 5 7 10 4 16 -10 12 11 -5 25 -17 14 -20 70
-4 70 6 0 8 -7 5 -15 -3 -9 1 -18 9 -21 7 -3 11 -12 8 -20 -3 -10 0 -12 10 -9
11 5 13 0 10 -22 -4 -22 -2 -25 6 -13 16 22 13 46 -6 66 -9 9 -18 25 -18 36
-1 10 -12 26 -24 35 -15 10 -21 22 -18 34 3 11 1 19 -5 19 -5 0 -7 4 -4 9 4 5
2 21 -4 35 -5 14 -5 28 0 31 4 3 10 0 12 -7 2 -6 9 -8 16 -4 8 5 5 13 -8 26
-11 11 -21 20 -23 20 -4 0 -7 -22 -8 -53 0 -9 -5 -15 -10 -11 -6 3 -7 19 -4
35 4 18 3 29 -4 29 -6 0 -11 -8 -11 -18z m43 -127 c2 -17 9 -30 15 -30 6 0 16
-6 22 -12 7 -10 7 -10 -2 -3 -7 6 -15 5 -22 -3 -6 -7 -10 -10 -9 -8 1 2 -6 16
-16 30 -14 20 -17 31 -9 45 12 22 16 19 21 -19z"/>
<path d="M1850 1350 c0 -5 5 -10 11 -10 5 0 7 5 4 10 -3 6 -8 10 -11 10 -2 0
-4 -4 -4 -10z"/>
<path d="M596 1335 c-3 -9 0 -15 9 -15 16 0 20 16 6 24 -5 3 -11 -1 -15 -9z"/>
<path d="M769 1336 c12 -14 5 -46 -10 -46 -5 0 -9 -7 -9 -15 0 -8 -5 -15 -10
-15 -6 0 -15 -11 -20 -25 -5 -14 -14 -25 -20 -25 -7 0 -9 -8 -5 -20 3 -10 -2
-34 -11 -52 l-17 -33 25 25 c25 25 46 66 29 55 -5 -3 -12 -1 -15 4 -7 11 22
36 31 27 12 -12 13 -48 2 -62 -8 -10 -8 -14 -1 -14 6 0 9 -7 6 -15 -4 -8 -2
-15 4 -15 5 0 12 7 16 15 3 8 1 15 -5 15 -20 0 -3 23 18 25 22 2 63 35 43 35
-7 0 -10 8 -7 20 8 32 -1 23 -19 -17 -9 -21 -18 -32 -21 -25 -3 7 0 19 7 26 8
10 8 16 0 21 -7 5 -8 11 -1 19 6 7 6 17 1 26 -10 16 -3 33 11 25 12 -8 7 38
-6 47 -17 13 -28 9 -16 -6z m1 -86 c0 -5 -6 -10 -12 -10 -9 0 -8 -3 2 -10 8
-5 11 -12 8 -15 -4 -4 -13 -1 -21 6 -10 10 -11 17 -3 26 13 15 26 17 26 3z"/>
<path d="M887 1336 c-8 -8 -17 -12 -21 -9 -3 4 -6 -1 -6 -10 0 -9 5 -19 10
-22 6 -3 10 -1 10 5 0 6 5 8 12 4 8 -5 9 -2 5 9 -10 27 7 27 20 1 6 -13 8 -24
3 -24 -4 0 -11 -7 -14 -15 -4 -11 3 -20 22 -28 15 -6 31 -16 35 -22 5 -6 7 -3
4 7 -4 10 1 18 14 21 10 3 19 11 19 17 0 10 -3 10 -15 0 -12 -10 -15 -9 -15 4
0 10 5 27 11 39 12 22 12 22 -9 3 -23 -20 -52 -16 -52 8 0 22 -17 28 -33 12z
m70 -66 c-1 -11 -4 -20 -8 -20 -11 0 -29 27 -22 33 14 14 32 6 30 -13z"/>
<path d="M956 1338 c5 -8 2 -9 -9 -5 -10 3 -17 2 -17 -4 0 -14 32 -7 38 9 2 6
-1 12 -8 12 -6 0 -8 -5 -4 -12z"/>
<path d="M1370 1342 c0 -8 10 -16 21 -19 20 -6 20 -7 6 -18 -21 -15 -35 -75
-17 -75 7 0 10 7 7 14 -4 9 2 18 15 22 16 5 18 8 7 15 -7 4 -10 11 -6 15 4 4
13 2 19 -4 9 -9 9 -18 0 -36 -12 -26 -1 -43 18 -31 6 3 10 0 10 -8 0 -8 10
-17 23 -21 35 -9 38 -7 25 13 -6 10 -17 17 -24 14 -6 -2 -15 0 -19 6 -3 6 -1
11 5 11 6 0 8 5 5 10 -4 6 -11 8 -16 5 -5 -4 -9 3 -9 15 l0 21 22 -21 c12 -11
24 -17 27 -14 6 6 -43 47 -79 66 -14 7 -28 17 -32 23 -5 6 -8 5 -8 -3z m70
-102 c0 -5 -5 -10 -11 -10 -5 0 -7 5 -4 10 3 6 8 10 11 10 2 0 4 -4 4 -10z"/>
<path d="M1425 1334 c34 -17 35 -17 35 -1 0 9 -12 14 -32 15 l-31 1 28 -15z"/>
<path d="M1476 1341 c-3 -5 5 -11 18 -13 17 -4 23 -1 19 9 -6 15 -29 18 -37 4z"/>
<path d="M2191 1325 c0 -16 6 -39 14 -49 17 -22 20 -50 5 -41 -5 3 -10 16 -10
27 0 22 -12 17 -16 -6 -3 -21 32 -38 46 -21 6 7 7 16 2 19 -5 3 -8 16 -5 28 2
13 -5 34 -17 48 l-20 25 1 -30z"/>
<path d="M1330 1309 c0 -17 4 -28 10 -24 6 3 10 1 10 -4 0 -6 -7 -11 -15 -11
-8 0 -15 -4 -15 -10 0 -5 8 -7 18 -4 16 5 16 5 0 -9 -22 -17 -23 -31 -3 -23 9
3 15 0 15 -9 0 -7 -9 -17 -20 -20 -11 -3 -20 -11 -20 -16 0 -6 5 -7 10 -4 6 3
10 1 10 -5 0 -6 4 -9 8 -6 20 12 35 -15 35 -65 0 -30 2 -43 4 -29 3 14 10 31
15 38 7 8 7 12 -2 12 -7 0 -10 7 -6 16 8 21 -11 44 -37 44 -20 0 -20 0 -1 14
14 11 21 11 26 3 6 -9 8 -9 8 0 0 23 39 0 45 -27 7 -34 29 -55 46 -44 8 4 9 3
5 -4 -4 -7 -3 -12 2 -12 5 0 12 9 15 20 6 22 -17 28 -29 8 -5 -7 -10 -3 -16
12 -5 14 -5 26 1 30 6 3 -5 14 -24 25 -19 10 -38 15 -42 12 -14 -15 -30 27
-22 57 11 37 3 66 -17 66 -9 0 -14 -11 -14 -31z m30 -10 c0 -6 -4 -7 -10 -4
-5 3 -10 11 -10 16 0 6 5 7 10 4 6 -3 10 -11 10 -16z"/>
<path d="M1530 1324 c0 -8 5 -12 10 -9 6 4 8 11 5 16 -9 14 -15 11 -15 -7z"/>
<path d="M537 1300 c-25 -30 -41 -37 -50 -22 -2 4 -2 1 -1 -5 2 -7 -1 -13 -6
-13 -6 0 -10 -7 -10 -15 0 -8 -7 -15 -15 -15 -8 0 -15 -4 -15 -10 0 -12 -2
-12 38 -1 28 9 32 7 32 -10 0 -24 -29 -37 -41 -18 -7 11 -9 10 -9 -4 0 -10 -4
-16 -9 -12 -5 3 -13 0 -17 -6 -4 -8 -3 -9 4 -5 7 4 12 1 12 -6 0 -9 3 -9 10 2
8 13 10 13 10 -1 0 -9 7 -19 15 -23 18 -7 20 5 3 23 -8 9 -9 12 -1 7 20 -11
41 4 35 26 -3 14 -1 19 6 14 6 -3 13 -2 16 2 7 11 -42 34 -55 27 -5 -4 -9 -1
-9 4 0 6 6 11 14 11 8 0 24 12 35 26 12 15 21 24 21 20 0 -4 7 -1 15 8 17 17
19 26 6 26 -5 0 -21 -13 -34 -30z"/>
<path d="M826 1305 c4 -8 2 -15 -4 -15 -6 0 -8 -9 -5 -20 3 -11 13 -20 23 -20
9 0 22 -11 28 -25 11 -25 32 -34 32 -15 0 6 8 10 18 11 14 0 14 2 -3 8 -11 5
-27 6 -35 3 -12 -4 -13 -2 -2 9 17 18 15 30 -5 22 -12 -5 -14 -3 -8 8 7 12 6
12 -7 1 -10 -8 -19 -9 -22 -3 -4 5 -2 12 4 16 15 9 12 35 -5 35 -9 0 -12 -6
-9 -15z"/>
<path d="M1470 1308 c0 -11 8 -18 20 -18 16 0 19 -6 16 -37 -2 -21 -1 -30 1
-20 2 9 11 17 19 17 12 0 12 4 -1 30 -9 17 -21 28 -27 24 -5 -4 -14 0 -19 7
-7 11 -9 10 -9 -3z"/>
<path d="M1949 1310 c-10 -7 -7 -19 12 -59 25 -54 33 -61 43 -35 9 23 -3 32
-15 14 -8 -11 -9 -8 -4 13 3 17 2 26 -4 23 -10 -6 -25 23 -16 32 8 9 45 -30
38 -41 -3 -5 0 -8 7 -5 25 8 20 23 -14 44 -20 13 -39 18 -47 14z"/>
<path d="M2010 1310 c0 -5 5 -10 11 -10 5 0 7 5 4 10 -3 6 -8 10 -11 10 -2 0
-4 -4 -4 -10z"/>
<path d="M2353 1305 c-7 -8 -9 -16 -4 -19 5 -3 11 1 15 9 5 15 27 21 25 8 -3
-17 1 -33 9 -33 4 0 8 11 8 25 2 19 -3 25 -20 25 -11 -1 -27 -7 -33 -15z"/>
<path d="M593 1296 c-22 -10 -31 -26 -15 -26 12 0 48 28 42 32 -3 2 -15 -1
-27 -6z"/>
<path d="M2415 1290 c3 -5 8 -10 11 -10 2 0 4 5 4 10 0 6 -5 10 -11 10 -5 0
-7 -4 -4 -10z"/>
<path d="M790 1271 c0 -5 5 -13 10 -16 6 -3 10 -2 10 4 0 5 -4 13 -10 16 -5 3
-10 2 -10 -4z"/>
<path d="M1818 1274 c-3 -5 1 -20 8 -34 12 -22 14 -22 14 -5 0 24 -16 51 -22
39z"/>
<path d="M2360 1265 c-9 -11 -10 -16 -2 -11 8 5 12 0 12 -16 0 -27 16 -55 26
-45 4 3 2 12 -4 19 -5 7 -12 26 -14 42 -3 28 -4 28 -18 11z"/>
<path d="M2680 1260 c0 -7 -7 -10 -15 -6 -9 3 -15 0 -15 -9 0 -9 10 -15 25
-15 25 0 35 23 15 35 -5 3 -10 1 -10 -5z"/>
<path d="M561 1220 c-23 -48 -14 -53 14 -7 27 45 28 47 16 47 -6 0 -19 -18
-30 -40z"/>
<path d="M1011 1253 c-1 -6 -9 -14 -18 -16 -17 -4 -17 -5 0 -6 9 0 17 -5 17
-10 0 -13 -45 -22 -67 -14 -17 6 -17 5 2 -16 11 -13 18 -34 17 -52 -2 -24 1
-29 21 -29 13 0 27 -4 33 -10 6 -6 10 -3 10 10 0 10 -8 21 -18 23 -10 3 -18 1
-18 -5 0 -5 -5 -6 -12 -2 -8 5 -6 11 6 20 10 7 17 15 17 18 0 16 22 66 30 66
5 0 9 5 9 11 0 5 -4 8 -9 5 -5 -4 -12 0 -14 6 -4 9 -6 9 -6 1z m-11 -59 c0 -3
-6 -12 -14 -19 -12 -12 -15 -12 -19 0 -3 7 -1 16 6 19 17 7 27 7 27 0z"/>
<path d="M342 1238 c-15 -15 -16 -38 -1 -38 5 0 8 4 4 9 -3 5 -1 12 4 15 5 4
11 -6 13 -21 l3 -28 21 21 c11 11 26 19 32 18 7 -1 8 0 2 3 -8 3 -7 9 1 19 7
9 8 14 1 14 -6 0 -13 -6 -15 -12 -4 -10 -8 -10 -15 1 -7 10 -11 10 -17 1 -5
-9 -9 -9 -14 -1 -5 8 -10 8 -19 -1z m44 -35 c-10 -10 -19 5 -10 18 6 11 8 11
12 0 2 -7 1 -15 -2 -18z"/>
<path d="M540 1239 c0 -5 5 -7 10 -4 6 3 10 8 10 11 0 2 -4 4 -10 4 -5 0 -10
-5 -10 -11z"/>
<path d="M610 1240 c0 -5 5 -10 10 -10 6 0 10 5 10 10 0 6 -4 10 -10 10 -5 0
-10 -4 -10 -10z"/>
<path d="M1070 1239 c0 -11 27 -12 34 -1 2 4 -4 9 -15 9 -10 1 -19 -2 -19 -8z"/>
<path d="M1890 1241 c0 -5 5 -13 10 -16 6 -3 10 -2 10 4 0 5 -4 13 -10 16 -5
3 -10 2 -10 -4z"/>
<path d="M680 1230 c0 -5 5 -10 10 -10 6 0 10 5 10 10 0 6 -4 10 -10 10 -5 0
-10 -4 -10 -10z"/>
<path d="M2555 1230 c-3 -5 1 -10 9 -10 9 0 16 5 16 10 0 6 -4 10 -9 10 -6 0
-13 -4 -16 -10z"/>
<path d="M310 1218 c0 -10 -10 -20 -24 -24 -17 -4 -25 -14 -28 -35 -5 -35 -2
-39 29 -39 12 0 23 -4 23 -9 0 -11 50 -9 69 3 10 6 12 5 7 -3 -4 -6 -1 -14 7
-17 19 -7 10 -44 -10 -44 -13 0 -13 2 -2 16 12 14 11 16 -6 13 -15 -3 -20 -13
-20 -35 -1 -30 1 -31 29 -23 35 10 38 8 39 -28 0 -15 2 -22 4 -16 3 8 14 11
26 8 18 -5 25 1 37 27 26 58 16 97 -11 46 -11 -21 -11 -22 4 -9 23 18 21 5 -3
-26 -19 -24 -25 -20 -21 14 1 6 -3 14 -9 18 -5 3 -10 1 -10 -4 0 -23 -15 -10
-16 14 -1 14 2 22 7 19 5 -3 9 -1 9 4 0 12 31 25 39 17 3 -3 -1 -10 -9 -15 -9
-6 -10 -10 -3 -10 6 0 18 7 27 15 8 8 19 15 25 15 6 0 11 4 11 8 0 4 -15 6
-34 4 -27 -3 -41 2 -63 22 -27 25 -27 26 -8 40 13 10 15 15 7 16 -7 0 -21 -7
-29 -16 -13 -13 -14 -17 -3 -24 14 -9 5 -30 -13 -30 -7 1 -25 12 -42 26 -16
15 -24 23 -17 20 16 -9 15 -5 -3 30 -10 19 -15 23 -15 12z m10 -67 c0 -6 -9
-9 -19 -8 -11 0 -17 5 -15 9 7 11 34 10 34 -1z m30 -16 c11 -13 10 -14 -4 -9
-9 3 -16 10 -16 15 0 13 6 11 20 -6z m89 -8 c6 -8 8 -17 4 -20 -7 -8 -33 11
-33 24 0 13 16 11 29 -4z"/>
<path d="M1187 1215 c-7 -17 18 -34 51 -35 4 0 0 -5 -8 -10 -10 -7 -11 -10 -2
-10 17 0 29 33 14 38 -7 2 -12 10 -12 18 0 9 -5 12 -10 9 -6 -4 -8 -12 -4 -18
3 -7 -1 -4 -9 6 -13 15 -15 15 -20 2z"/>
<path d="M1254 1219 c-3 -5 -1 -9 5 -9 5 0 16 -3 25 -6 9 -3 16 -2 16 4 0 13
-38 23 -46 11z"/>
<path d="M2400 1226 c0 -6 32 -66 35 -66 2 0 3 8 3 18 0 9 2 24 6 32 5 11 0
16 -19 18 -14 1 -25 0 -25 -2z"/>
<path d="M2626 1215 c4 -8 8 -15 10 -15 2 0 4 7 4 15 0 8 -4 15 -10 15 -5 0
-7 -7 -4 -15z"/>
<path d="M2686 1214 c-9 -8 -16 -26 -16 -39 0 -17 -4 -23 -14 -19 -9 3 -17 -3
-21 -15 -3 -12 -10 -19 -15 -16 -5 3 -7 12 -4 19 3 8 1 17 -4 20 -6 3 -13 -1
-16 -10 -3 -8 -10 -12 -16 -9 -5 3 -7 0 -5 -8 4 -8 -5 -19 -20 -27 -23 -12
-25 -16 -11 -26 16 -11 23 -29 8 -20 -5 3 -9 -1 -9 -9 0 -10 5 -11 18 -4 20
10 49 2 49 -14 0 -5 8 -3 18 6 10 10 26 17 34 17 19 0 32 27 17 35 -5 4 -12
-1 -15 -9 -3 -9 -10 -16 -15 -16 -4 0 -6 7 -3 15 4 8 1 15 -5 15 -6 0 -11 -8
-11 -18 0 -10 -2 -21 -5 -24 -8 -7 -55 14 -55 25 0 4 9 3 19 -3 28 -15 33 -13
26 10 -5 14 -2 20 9 20 9 0 16 7 16 15 0 8 4 15 9 15 5 0 7 -9 4 -20 -5 -19
-3 -20 20 -9 15 7 24 16 21 21 -3 4 -10 6 -15 3 -5 -4 -9 -1 -9 4 0 15 37 14
43 -1 4 -10 7 -10 18 0 12 11 12 14 -1 23 -8 5 -23 7 -33 5 -11 -3 -16 0 -14
7 3 7 10 11 16 9 20 -4 42 23 28 37 -15 15 -23 14 -41 -5z m-81 -86 c-1 -13
-3 -26 -4 -30 -1 -9 -41 -6 -41 4 0 4 6 8 14 8 7 0 16 9 19 20 7 27 15 25 12
-2z"/>
<path d="M594 1194 c-1 -13 2 -21 7 -18 11 6 12 31 2 37 -5 3 -9 -6 -9 -19z"/>
<path d="M1062 1200 c-12 -12 -22 -25 -22 -30 0 -5 -8 -7 -17 -4 -13 4 -12 0
5 -15 13 -11 21 -25 17 -31 -3 -5 0 -7 8 -4 7 2 14 11 14 19 0 8 -4 12 -9 9
-9 -6 -11 20 -2 29 4 3 15 2 25 -4 12 -6 19 -6 19 0 0 5 -8 11 -17 13 -15 3
-15 4 1 21 24 24 5 21 -22 -3z"/>
<path d="M1155 1188 c2 -25 8 -34 24 -36 23 -4 24 -7 10 -37 -9 -19 -9 -18 -5
3 3 18 0 22 -22 21 -17 -1 -21 -3 -9 -6 9 -2 17 -9 17 -14 0 -6 -4 -7 -10 -4
-5 3 -10 2 -10 -3 0 -5 10 -14 23 -20 16 -8 18 -11 5 -11 -9 -1 -18 -7 -21
-13 -2 -7 -8 -1 -12 14 -5 21 -12 26 -40 26 -33 0 -54 -21 -35 -33 6 -4 10 1
10 9 0 9 5 16 10 16 6 0 10 -8 8 -17 -2 -11 5 -19 17 -21 16 -3 18 -1 8 9 -15
15 -17 29 -4 29 19 0 19 -41 0 -53 -10 -6 -19 -19 -19 -28 0 -9 -7 -20 -16
-23 -22 -8 -32 3 -14 14 11 7 10 9 -7 8 -21 -2 -21 -18 0 -46 5 -7 7 -16 3
-19 -4 -4 -11 -2 -15 6 -5 7 -11 12 -15 12 -17 -2 -19 0 -9 10 14 14 6 39 -14
39 -8 0 -12 4 -9 9 8 12 56 20 56 9 0 -5 5 -6 10 -3 6 3 10 11 10 16 0 6 -4 8
-9 4 -5 -3 -16 2 -24 10 -9 8 -22 15 -31 15 -18 0 -31 -18 -21 -28 4 -4 10 -1
12 6 3 6 10 12 16 12 7 -1 2 -9 -10 -19 -13 -11 -23 -24 -23 -31 0 -6 -10 -10
-22 -8 -13 2 -22 9 -20 17 1 7 -3 11 -10 8 -7 -2 -20 1 -28 9 -12 10 -20 10
-40 -1 -14 -8 -19 -14 -12 -15 7 0 10 -5 6 -11 -3 -6 -19 -9 -35 -5 -16 3 -29
2 -29 -3 0 -13 25 -20 47 -15 16 4 19 0 17 -23 -1 -15 -2 -31 -3 -34 -2 -13
-47 -18 -83 -10 -31 7 -38 6 -38 -7 0 -19 -11 -10 -14 12 -2 18 -7 19 -32 9
-9 -3 -20 0 -24 7 -4 7 -13 9 -19 5 -9 -5 -7 -11 6 -20 10 -7 21 -11 26 -8 4
3 15 2 24 -1 12 -5 13 -9 3 -21 -13 -16 -6 -35 13 -35 8 0 8 3 -1 9 -11 7 -10
10 3 15 24 9 25 8 25 -13 0 -12 -11 -23 -31 -30 -39 -13 -39 -13 -39 0 0 5 6
7 13 3 9 -5 9 -4 0 6 -6 7 -9 20 -7 29 3 9 -2 5 -10 -9 l-15 -25 -1 33 c0 29
-3 32 -23 27 -30 -8 -59 21 -36 36 8 5 21 9 29 9 11 1 10 4 -5 16 -11 8 -25
12 -33 9 -7 -2 -10 0 -7 5 3 6 1 10 -5 10 -9 0 -4 47 6 59 11 12 14 -10 5 -27
-8 -16 -7 -21 5 -26 12 -5 14 -1 9 15 -5 16 -4 19 5 14 9 -5 11 -4 6 3 -4 7
-2 12 3 12 6 0 11 4 11 10 0 5 -7 7 -15 4 -11 -5 -15 1 -15 24 0 36 -18 46
-45 25 -19 -15 -19 -15 7 -9 23 5 27 3 25 -14 -1 -13 -7 -20 -18 -18 -19 4
-49 -19 -49 -37 0 -7 -7 -18 -15 -25 -8 -7 -15 -18 -15 -24 1 -6 9 -1 20 12
16 19 23 21 40 12 11 -6 20 -20 20 -31 0 -17 3 -18 20 -9 11 6 20 7 20 3 0 -9
-38 -35 -43 -31 -2 2 -10 -2 -18 -9 -11 -9 -19 -7 -38 8 -22 18 -22 19 -3 19
11 0 23 -6 25 -12 3 -7 6 -1 6 15 1 27 -12 36 -24 17 -3 -5 -17 -10 -30 -10
-13 0 -26 -4 -29 -9 -8 -12 18 -32 35 -29 9 2 13 -4 11 -16 -2 -10 1 -15 6
-12 5 3 15 -1 22 -9 7 -8 16 -13 20 -10 4 3 11 -2 14 -10 4 -12 10 -13 25 -5
25 13 31 13 31 0 0 -5 -7 -10 -15 -10 -8 0 -15 -4 -15 -10 0 -5 15 -8 35 -5
27 3 35 0 35 -11 0 -10 8 -15 23 -14 12 1 31 1 42 0 19 -1 18 -2 -2 -10 -13
-5 -23 -14 -23 -20 0 -15 27 -12 33 4 4 9 14 12 26 9 12 -3 18 -9 15 -14 -3
-5 2 -6 10 -3 9 3 16 10 16 16 0 5 -4 6 -10 3 -5 -3 -10 -1 -10 5 0 6 -3 9 -8
6 -4 -2 -18 2 -32 9 l-25 14 25 9 c19 7 28 5 37 -7 10 -14 11 -13 6 7 -3 12
-10 22 -15 22 -6 0 -8 7 -4 15 3 8 1 15 -4 15 -6 0 -10 4 -10 9 0 5 11 9 25 9
13 0 23 -3 21 -7 -2 -3 7 -7 20 -7 13 -1 24 3 24 10 0 6 4 5 9 -3 14 -21 41
77 30 107 -6 17 -5 22 6 22 26 0 85 -44 85 -63 0 -10 4 -16 10 -12 5 3 7 12 4
20 -4 8 1 18 10 21 23 9 31 -2 16 -21 -7 -8 -8 -15 -2 -15 5 0 13 -11 16 -25
4 -14 11 -25 18 -25 15 0 37 31 38 53 0 18 30 25 30 7 0 -5 -5 -10 -11 -10 -8
0 -8 -5 1 -15 7 -8 8 -15 4 -15 -5 0 -21 -11 -36 -24 -14 -14 -29 -22 -32 -19
-3 4 -6 2 -6 -4 0 -5 11 -15 24 -21 20 -9 25 -8 29 9 3 11 1 17 -5 13 -6 -4
-8 -1 -6 7 3 8 12 13 22 11 9 -2 17 3 18 10 0 7 2 18 3 23 2 6 3 16 4 23 0 6
6 12 12 12 6 0 8 -7 5 -16 -3 -8 -2 -12 4 -9 18 11 11 35 -10 35 -15 0 -19 6
-17 22 5 26 43 43 51 22 4 -10 13 -13 32 -8 21 5 25 3 23 -12 -2 -11 3 -31 11
-46 13 -22 17 -24 28 -12 10 11 10 14 -2 14 -7 0 -17 7 -20 16 -9 23 -7 34 4
34 6 0 10 -7 10 -15 0 -21 13 -19 28 6 7 12 16 18 19 15 4 -3 13 0 21 7 13 10
15 9 9 -5 -3 -10 -2 -18 4 -18 6 0 9 7 7 17 -5 24 -38 25 -58 1 -12 -15 -19
-18 -24 -10 -4 7 -2 12 4 12 6 0 8 5 5 10 -5 8 -11 7 -21 -1 -18 -15 -32 -3
-16 13 16 16 15 25 -4 32 -12 5 -14 1 -9 -15 5 -14 3 -19 -3 -15 -6 3 -13 2
-17 -4 -9 -15 -25 -12 -25 4 0 8 7 17 16 20 8 3 13 9 10 14 -2 4 0 14 5 22 8
13 10 13 20 0 9 -13 10 -13 6 2 -6 18 10 27 56 33 15 2 27 0 27 -5 0 -6 -7
-10 -15 -10 -8 0 -15 -5 -15 -11 0 -6 -9 -9 -20 -6 -11 3 -20 1 -20 -5 0 -5 9
-12 21 -15 15 -4 19 -11 15 -27 -5 -21 -5 -21 10 -1 12 16 16 17 23 6 7 -10
10 -10 16 -1 5 8 12 1 22 -21 9 -22 10 -35 3 -37 -5 -2 -8 -7 -5 -12 3 -4 -4
-6 -14 -3 -13 3 -23 -2 -31 -18 -11 -19 -10 -21 4 -16 8 3 18 2 21 -3 4 -6 -1
-10 -10 -10 -14 0 -14 -2 0 -24 11 -16 13 -26 6 -31 -16 -9 -13 -22 5 -29 8
-3 12 -2 9 4 -3 6 1 10 10 10 15 0 15 1 1 16 -21 20 -20 23 4 21 11 -1 20 -7
20 -14 0 -7 7 -13 15 -13 13 0 13 -2 3 -14 -7 -7 -19 -11 -25 -9 -8 3 -13 -3
-13 -15 0 -12 -7 -25 -15 -29 -9 -5 -11 -13 -6 -22 7 -11 10 -9 15 6 4 11 22
34 41 52 41 37 42 43 13 56 -20 9 -23 18 -23 65 0 30 -4 58 -10 62 -5 4 -10
15 -10 25 0 12 -7 17 -20 16 -17 -2 -21 3 -19 25 2 38 4 40 14 15 10 -23 30
-32 30 -12 0 5 -5 7 -11 3 -8 -4 -9 0 -4 15 4 12 2 22 -4 22 -6 1 -15 3 -21 4
-5 1 -15 3 -21 4 -6 0 -8 8 -5 18 4 10 4 14 0 10 -4 -4 -14 -1 -23 5 -13 10
-14 10 -4 -1 9 -11 7 -18 -12 -32 -25 -20 -45 -25 -45 -10 0 5 -9 11 -21 14
-12 3 -19 9 -16 14 3 4 -1 16 -8 26 -11 16 -12 14 -10 -15z m152 -94 c-9 -9
-28 6 -21 18 4 6 10 6 17 -1 6 -6 8 -13 4 -17z m-737 -41 c-1 -20 -16 -31 -30
-22 -13 8 -13 10 0 19 18 12 30 13 30 3z m790 -112 c0 -20 -2 -21 -15 -11 -8
7 -13 16 -10 20 3 5 1 11 -5 15 -5 3 -10 10 -10 16 0 5 9 4 20 -3 11 -7 20
-24 20 -37z m-762 -32 c12 -18 11 -20 -4 -11 -9 5 -25 7 -35 5 -11 -3 -19 -1
-19 5 0 9 10 14 40 21 3 0 11 -8 18 -20z m48 -47 c-4 -3 -11 0 -16 8 -15 24
-11 33 6 15 9 -9 13 -19 10 -23z"/>
<path d="M2650 1210 c0 -5 5 -10 11 -10 5 0 7 5 4 10 -3 6 -8 10 -11 10 -2 0
-4 -4 -4 -10z"/>
<path d="M840 1198 c0 -6 -10 -22 -22 -35 -21 -22 -13 -34 9 -12 7 7 18 3 38
-15 33 -31 46 -34 20 -6 -19 21 -11 27 14 11 8 -5 11 -16 7 -27 -9 -23 13 -36
31 -19 17 18 17 25 -2 25 -8 0 -15 5 -15 10 0 6 7 10 15 10 8 0 15 5 15 10 0
14 -27 12 -33 -2 -4 -8 -8 -4 -12 10 -8 25 -23 29 -31 7 -5 -11 -9 -12 -19 -2
-9 8 -10 18 -4 30 6 11 6 17 -1 17 -5 0 -10 -5 -10 -12z"/>
<path d="M1111 1201 c-8 -5 -9 -11 -3 -15 5 -3 15 1 22 9 14 16 3 20 -19 6z"/>
<path d="M1025 1190 c3 -5 8 -10 11 -10 2 0 4 5 4 10 0 6 -5 10 -11 10 -5 0
-7 -4 -4 -10z"/>
<path d="M1520 1193 c0 -6 8 -17 18 -24 16 -13 16 -13 2 6 -8 11 -16 22 -17
24 -2 2 -3 0 -3 -6z"/>
<path d="M1546 1193 c5 -5 12 -12 16 -18 4 -6 8 -2 8 8 0 9 -7 17 -17 17 -9 0
-12 -3 -7 -7z"/>
<path d="M1130 1177 c-19 -15 -26 -57 -10 -57 7 0 10 7 6 15 -3 8 -2 15 3 15
5 0 11 9 14 20 3 11 4 20 4 20 -1 0 -9 -6 -17 -13z"/>
<path d="M1390 1183 c0 -7 4 -14 9 -17 16 -10 19 -55 4 -67 -7 -7 -11 -14 -9
-17 3 -2 12 3 21 12 17 16 40 13 29 -5 -3 -5 -10 -7 -15 -4 -8 6 -14 -31 -10
-62 1 -7 -2 -13 -8 -13 -5 0 -12 6 -14 13 -4 7 -6 8 -6 1 -1 -6 5 -17 13 -23
11 -9 16 -5 26 21 7 18 12 39 11 46 -1 6 3 12 9 12 5 0 10 -7 10 -15 0 -8 4
-15 9 -15 5 0 11 -14 13 -30 4 -25 2 -30 -11 -25 -30 12 -36 10 -38 -15 -1
-14 1 -17 3 -7 6 20 25 22 42 5 9 -9 12 -9 12 0 0 7 5 12 10 12 15 0 12 -16
-5 -34 -20 -20 -19 -25 5 -23 14 1 18 6 14 19 -5 17 5 23 30 19 5 -1 6 5 3 14
-4 8 -2 15 3 15 6 0 10 -5 10 -11 0 -6 7 -9 15 -5 9 3 15 0 15 -9 0 -9 -6 -12
-15 -9 -12 5 -15 -1 -14 -27 1 -23 3 -27 6 -12 2 12 13 25 24 28 10 4 19 12
19 18 0 21 17 40 29 33 8 -5 7 -12 -4 -23 -14 -14 -13 -17 10 -37 14 -12 25
-27 25 -34 0 -15 -6 -15 -31 -1 -11 6 -25 8 -32 6 -10 -3 111 -47 131 -47 3 0
-3 9 -13 20 -10 12 -24 19 -31 16 -8 -3 -11 1 -7 10 3 7 0 14 -6 14 -6 0 -8 7
-5 15 4 9 0 15 -10 15 -9 0 -16 4 -16 9 0 6 9 9 20 8 11 -1 20 -6 20 -13 0
-18 58 -74 63 -61 2 7 -8 20 -22 29 -14 10 -22 18 -18 18 5 0 -1 13 -12 29
-25 35 -26 42 -6 35 8 -4 15 -11 15 -18 0 -6 14 -20 30 -30 17 -9 30 -23 29
-29 -4 -37 2 -68 13 -61 8 5 9 2 5 -10 -4 -10 -7 -20 -7 -22 0 -14 -20 -1 -21
14 0 10 -3 12 -6 5 -3 -8 -14 -11 -29 -7 -18 5 -24 2 -24 -10 0 -21 26 -32 43
-18 14 12 47 -7 47 -27 0 -6 11 -16 24 -22 15 -7 22 -17 19 -28 -2 -10 3 -23
11 -30 17 -15 22 -1 6 15 -6 6 -3 16 10 27 16 14 20 14 20 2 0 -8 9 -19 20
-25 14 -7 20 -7 20 0 0 5 -7 10 -15 10 -10 0 -15 10 -15 27 0 23 2 25 13 11
15 -20 77 -35 77 -19 0 6 -16 11 -35 11 -19 0 -35 4 -35 9 0 6 -9 26 -21 45
-15 25 -25 33 -37 28 -16 -6 -16 -7 1 -10 9 -2 17 -9 17 -17 0 -8 -7 -11 -20
-8 -30 8 -34 21 -15 49 17 26 13 44 -11 44 -17 0 -19 17 -1 23 14 4 36 -21 37
-43 0 -8 9 -21 20 -28 12 -7 18 -17 15 -22 -3 -6 -2 -10 4 -10 5 0 14 -12 20
-27 l10 -28 -2 32 c0 17 -5 29 -10 26 -5 -3 -8 0 -5 8 2 7 -8 26 -23 41 -25
27 -47 74 -28 63 4 -3 3 8 -2 25 -12 33 -25 45 -33 31 -4 -5 0 -16 8 -24 12
-12 11 -16 -10 -32 -28 -21 -29 -28 -8 -50 9 -9 14 -18 11 -21 -8 -9 -47 6
-47 17 0 6 6 7 13 4 6 -4 3 1 -7 9 -12 9 -15 16 -7 16 17 0 -30 59 -47 59 -7
1 -10 5 -7 11 3 5 1 18 -4 27 -7 12 -11 13 -11 5 0 -19 -23 -10 -26 10 -1 8
-5 25 -8 36 -4 11 -2 23 3 27 6 3 2 14 -10 26 -11 11 -24 18 -27 14 -4 -4 1
-12 11 -19 21 -16 22 -27 2 -20 -10 4 -15 0 -15 -16 0 -11 5 -18 10 -15 6 3
10 1 10 -5 0 -6 -7 -13 -15 -16 -8 -4 -12 -10 -9 -15 3 -5 1 -9 -5 -9 -6 0
-19 19 -30 43 -14 29 -21 36 -22 22 -1 -17 -2 -16 -8 5 l-7 25 -8 -23 c-9 -27
-6 -33 21 -35 14 -1 19 -6 15 -19 -2 -10 0 -18 5 -18 5 0 9 -8 10 -19 1 -14
-3 -17 -18 -14 -11 3 -22 9 -24 14 -3 4 -13 5 -22 2 -13 -5 -15 -2 -10 11 5
14 3 16 -12 11 -14 -4 -25 3 -40 24 -12 16 -21 33 -21 38 0 4 -9 14 -20 21
-11 7 -20 18 -20 25 -1 15 -30 55 -30 40z m280 -157 c0 -8 3 -23 6 -33 5 -16
4 -16 -10 1 -18 22 -21 46 -6 46 6 0 10 -6 10 -14z m-145 -15 c10 -17 -12 -21
-25 -6 -10 12 -10 15 3 15 9 0 18 -4 22 -9z m288 -161 c-3 -11 -1 -20 5 -20 6
0 8 -10 5 -22 -4 -21 -3 -22 10 -5 19 23 22 22 22 -8 0 -14 -1 -25 -2 -25 -1
0 -12 5 -25 10 -31 15 -48 51 -34 73 15 23 25 21 19 -3z m77 -39 c0 -12 -20
-25 -27 -18 -7 7 6 27 18 27 5 0 9 -4 9 -9z"/>
<path d="M1470 1169 c0 -6 7 -9 15 -5 10 4 23 -6 36 -27 12 -17 19 -24 15 -14
-4 14 -1 16 19 11 18 -5 25 -2 25 9 0 9 -7 14 -17 12 -10 -1 -30 4 -45 11 -33
17 -48 18 -48 3z"/>
<path d="M360 1161 c0 -5 7 -11 14 -14 10 -4 13 -1 9 9 -6 15 -23 19 -23 5z"/>
<path d="M545 1161 c-11 -5 -23 -7 -27 -4 -5 2 -8 -1 -8 -7 0 -7 7 -10 15 -6
8 3 15 1 15 -4 0 -17 14 -11 28 10 13 21 9 23 -23 11z"/>
<path d="M1686 1154 c-9 -22 3 -32 14 -14 12 19 12 30 1 30 -5 0 -12 -7 -15
-16z"/>
<path d="M1853 1145 c-10 -10 -9 -16 2 -25 8 -7 15 -19 15 -27 0 -9 6 -13 14
-10 9 4 17 -2 21 -14 8 -24 21 -25 28 0 3 14 -3 23 -24 31 -16 7 -29 17 -29
22 0 5 -4 6 -10 3 -5 -3 -10 -2 -10 4 0 5 5 11 12 13 7 3 8 7 3 10 -6 3 -15 0
-22 -7z"/>
<path d="M779 1133 c-1 -10 -1 -21 0 -25 0 -5 -3 -8 -7 -8 -4 0 -8 -9 -8 -19
0 -11 4 -17 8 -15 4 3 8 0 8 -6 0 -6 5 -8 11 -4 8 4 8 9 0 17 -6 6 -11 16 -11
21 0 6 11 -2 25 -17 14 -15 30 -27 35 -27 4 0 -5 13 -21 29 -17 17 -27 36 -23
44 3 8 1 18 -5 22 -6 3 -12 -2 -12 -12z"/>
<path d="M819 1134 c-19 -23 1 -48 44 -55 32 -5 34 -4 24 12 -8 12 -15 15 -21
9 -16 -16 -36 -12 -36 8 0 14 2 15 10 2 8 -13 10 -12 10 3 0 9 -5 17 -11 17
-5 0 -7 5 -4 10 10 16 -1 12 -16 -6z"/>
<path d="M1086 1141 c-4 -7 -5 -15 -2 -18 9 -9 19 4 14 18 -4 11 -6 11 -12 0z"/>
<path d="M1706 1123 c-4 -9 -3 -20 2 -25 6 -6 10 1 10 16 0 30 -3 32 -12 9z"/>
<path d="M1962 1120 c7 -11 16 -20 21 -20 4 0 5 -5 1 -11 -3 -6 -7 -30 -7 -52
0 -23 -2 -32 -4 -20 -3 15 -9 20 -21 17 -11 -4 -13 -3 -5 3 25 18 14 83 -15
83 -13 0 -11 -4 7 -21 20 -19 21 -22 7 -38 -18 -20 -21 -41 -6 -41 6 0 19 -9
30 -20 16 -16 18 -25 10 -40 -12 -23 -21 -25 -38 -8 -9 9 -12 8 -12 -6 0 -11
-5 -15 -12 -10 -10 6 -10 4 0 -7 17 -18 15 -34 -3 -19 -19 16 -20 3 -1 -15 9
-9 17 -10 24 -3 15 15 52 -9 64 -43 6 -17 13 -28 16 -25 6 6 -18 68 -30 76 -9
7 1 50 11 50 4 0 20 -13 36 -30 16 -16 24 -30 18 -30 -6 0 -9 -10 -6 -22 4
-22 3 -22 -11 2 -12 19 -15 21 -16 8 0 -10 6 -22 13 -28 48 -41 61 -49 69 -44
5 3 6 15 2 27 -5 18 -4 20 7 10 18 -18 34 -16 19 2 -7 8 -21 15 -32 15 -15 0
-18 -4 -12 -22 6 -20 5 -21 -9 -10 -15 13 -18 84 -4 98 11 12 8 43 -8 74 -9
18 -11 31 -5 35 13 8 13 25 0 25 -5 0 -10 -7 -10 -15 0 -8 -8 -15 -17 -15 -11
0 -14 3 -7 8 16 10 22 35 12 47 -5 5 -15 19 -23 30 -15 19 -15 19 -9 -6 3 -17
1 -30 -7 -35 -8 -5 -11 -2 -6 8 3 9 -3 25 -14 37 -25 27 -33 27 -17 1z m53
-76 c-9 -15 -12 -24 -7 -20 13 8 48 -28 55 -55 6 -21 -8 -27 -16 -6 -3 7 -6 5
-6 -5 -1 -10 4 -18 9 -18 6 0 10 -5 10 -12 0 -6 -8 -4 -20 7 -10 9 -19 20 -18
24 2 19 -3 24 -12 11 -7 -12 -9 -10 -7 8 0 12 6 22 12 22 5 0 2 5 -7 11 -23
13 -23 45 -1 58 26 14 28 5 8 -25z m-45 -124 c0 -5 -7 -7 -15 -4 -8 4 -15 8
-15 10 0 2 7 4 15 4 8 0 15 -4 15 -10z"/>
<path d="M700 1116 c-6 -8 -24 -16 -38 -18 -26 -3 -26 -3 -4 -10 14 -4 28 -1
36 8 18 18 30 18 23 0 -4 -10 0 -12 15 -8 18 4 18 6 4 14 -9 5 -14 13 -11 19
10 15 -11 10 -25 -5z"/>
<path d="M1807 1123 c-9 -3 -15 -8 -12 -13 3 -5 12 -7 19 -4 7 3 19 -3 27 -13
13 -16 12 -17 -4 -4 -9 8 -20 11 -23 8 -3 -3 3 -12 15 -19 27 -16 28 -32 1
-18 -24 13 -26 5 -5 -17 18 -17 18 -17 34 14 9 18 7 26 -11 46 -13 14 -31 22
-41 20z"/>
<path d="M1506 1105 c-3 -8 -1 -15 4 -15 6 0 10 -7 10 -17 0 -14 -2 -14 -21 3
-22 19 -22 19 -8 -4 8 -12 18 -21 23 -19 17 6 24 42 11 54 -10 10 -14 9 -19
-2z"/>
<path d="M2051 1110 c-9 -5 -4 -7 13 -7 29 0 32 2 13 10 -8 3 -20 2 -26 -3z"/>
<path d="M1730 1087 c0 -14 -6 -28 -12 -31 -7 -3 -1 -4 15 -2 15 2 30 -1 33
-5 3 -5 0 -9 -7 -9 -7 0 -10 -3 -6 -6 3 -3 16 1 29 10 l22 16 -21 0 c-12 0
-25 5 -29 11 -5 9 1 10 20 5 15 -4 26 -2 26 4 0 9 -15 14 -34 11 -4 -1 -14 4
-22 10 -11 9 -14 7 -14 -14z"/>
<path d="M973 1093 c-8 -3 -12 -20 -12 -41 l2 -37 6 33 c3 18 10 32 16 32 5
-1 11 3 13 9 4 12 -4 13 -25 4z"/>
<path d="M1690 1080 c0 -5 5 -10 11 -10 5 0 7 5 4 10 -3 6 -8 10 -11 10 -2 0
-4 -4 -4 -10z"/>
<path d="M2060 1078 c0 -4 4 -8 9 -8 6 0 12 4 15 8 3 5 -1 9 -9 9 -8 0 -15 -4
-15 -9z"/>
<path d="M676 1071 c-4 -6 -12 -9 -17 -6 -5 3 -6 -1 -3 -10 4 -10 2 -15 -7
-13 -9 2 -13 -5 -12 -20 2 -16 -1 -21 -10 -16 -6 4 -3 -2 8 -13 11 -11 27 -18
35 -14 13 5 12 6 -1 9 -10 2 -19 13 -23 25 -7 28 -2 32 18 12 14 -14 16 -14
16 -1 0 8 5 18 11 22 8 4 9 -4 4 -27 -4 -25 -3 -30 4 -19 6 8 11 23 11 33 0
23 41 20 48 -3 4 -12 2 -13 -9 -2 -18 17 -28 15 -26 -6 1 -24 35 -23 43 1 7
23 -12 38 -41 34 -11 -1 -25 4 -31 12 -8 10 -13 11 -18 2z m14 -15 c0 -3 -4
-8 -10 -11 -5 -3 -10 -1 -10 4 0 6 5 11 10 11 6 0 10 -2 10 -4z"/>
<path d="M1250 1069 c0 -5 5 -7 10 -4 6 3 10 8 10 11 0 2 -4 4 -10 4 -5 0 -10
-5 -10 -11z"/>
<path d="M915 1060 c3 -5 8 -10 11 -10 2 0 4 5 4 10 0 6 -5 10 -11 10 -5 0 -7
-4 -4 -10z"/>
<path d="M1395 1060 c-3 -5 -1 -10 4 -10 6 0 11 5 11 10 0 6 -2 10 -4 10 -3 0
-8 -4 -11 -10z"/>
<path d="M1874 1058 c-14 -22 -13 -61 1 -81 11 -15 12 -24 3 -34 -8 -10 -7
-13 6 -13 9 0 16 7 16 15 0 8 4 15 8 15 5 0 14 10 20 23 8 16 11 17 11 6 1
-19 31 -48 31 -30 0 6 -4 11 -10 11 -5 0 -10 9 -10 21 0 15 -4 19 -16 15 -9
-3 -20 -6 -25 -6 -4 0 -6 -7 -3 -15 9 -22 -9 -18 -24 5 -11 18 -10 20 10 20
17 0 20 3 9 9 -11 7 -10 10 5 14 16 4 16 5 -3 6 -16 1 -21 6 -17 16 7 18 -2
20 -12 3z"/>
<path d="M1562 1043 c2 -9 9 -18 16 -19 7 -1 8 0 3 2 -6 3 -7 12 -4 20 3 8 0
14 -7 14 -6 0 -10 -8 -8 -17z"/>
<path d="M2320 1051 c0 -6 4 -11 9 -11 5 0 8 -8 7 -17 -6 -36 25 -81 59 -87
32 -6 54 -39 34 -51 -4 -3 -3 -17 3 -31 8 -18 14 -21 20 -12 6 10 8 10 8 -1 0
-20 13 -5 17 20 3 17 0 18 -17 9 -12 -6 -20 -7 -20 -1 0 5 5 11 10 13 7 2 5
16 -6 36 -10 21 -21 31 -30 28 -8 -3 -14 -1 -14 5 0 6 -7 8 -16 5 -8 -3 -12
-2 -9 4 3 6 -1 13 -9 16 -9 3 -16 10 -16 16 0 5 5 6 10 3 6 -3 10 -1 10 4 0 6
-4 11 -10 11 -5 0 -10 6 -10 14 0 7 -7 19 -15 26 -10 9 -15 9 -15 1z"/>
<path d="M2350 1054 c0 -12 39 -54 43 -47 3 5 -3 18 -13 31 -18 21 -30 28 -30
16z"/>
<path d="M810 1040 c0 -5 5 -10 11 -10 5 0 7 5 4 10 -3 6 -8 10 -11 10 -2 0
-4 -4 -4 -10z"/>
<path d="M1450 1030 c-13 -8 -12 -10 3 -10 9 0 17 5 17 10 0 12 -1 12 -20 0z"/>
<path d="M1730 1032 c0 -6 7 -17 15 -26 8 -8 15 -20 15 -26 0 -7 6 -10 14 -7
9 4 17 -1 19 -11 3 -11 5 -8 6 8 1 20 3 22 11 10 6 -9 10 -10 10 -3 0 6 -4 14
-10 18 -5 3 -7 11 -4 19 3 7 -1 13 -9 13 -9 0 -12 -7 -9 -19 7 -26 -13 -22
-37 8 -12 15 -21 22 -21 16z"/>
<path d="M2566 1028 c3 -4 13 -8 22 -8 13 0 14 -2 4 -9 -11 -6 -10 -9 5 -13
23 -6 43 1 43 14 0 6 -6 8 -14 5 -8 -3 -16 -1 -18 5 -2 6 -14 12 -26 13 -11 1
-19 -2 -16 -7z"/>
<path d="M1130 1020 c0 -5 7 -10 16 -10 8 0 12 5 9 10 -3 6 -10 10 -16 10 -5
0 -9 -4 -9 -10z"/>
<path d="M895 1010 c3 -5 8 -10 11 -10 2 0 4 5 4 10 0 6 -5 10 -11 10 -5 0 -7
-4 -4 -10z"/>
<path d="M1180 1009 c-23 -10 -24 -11 -7 -21 10 -5 21 -7 24 -4 4 3 0 6 -7 6
-9 0 -7 5 6 15 22 17 19 18 -16 4z"/>
<path d="M770 1001 c0 -5 6 -12 13 -15 9 -5 9 -7 0 -12 -13 -6 -6 -34 8 -34 4
0 6 7 3 15 -5 12 0 14 25 9 21 -5 31 -3 31 6 0 7 -8 10 -19 7 -11 -2 -24 3
-32 14 -14 20 -29 25 -29 10z"/>
<path d="M2646 985 c-7 -18 16 -30 41 -21 14 6 14 8 -3 21 -24 18 -31 18 -38
0z"/>
<path d="M727 984 c-6 -11 2 -22 30 -38 9 -5 11 -2 7 8 -3 9 -10 14 -14 11 -5
-3 -10 3 -12 12 -2 12 -6 14 -11 7z"/>
<path d="M894 954 c-6 -18 -8 -31 -4 -29 3 2 12 -5 20 -15 8 -10 17 -17 21
-14 4 2 10 0 14 -6 4 -6 -5 -10 -20 -10 -14 0 -28 7 -31 15 -4 8 -10 15 -15
15 -4 0 -6 -7 -3 -15 4 -9 0 -15 -10 -15 -9 0 -16 -7 -16 -16 0 -14 1 -14 16
0 17 18 27 20 38 9 4 -4 15 -8 24 -8 12 0 20 -13 26 -42 6 -24 14 -43 19 -43
6 0 15 -7 22 -17 9 -13 14 -13 20 -3 5 9 4 11 -3 6 -7 -4 -12 -2 -12 4 0 7 15
9 39 6 25 -2 42 0 45 7 3 8 8 7 16 -3 9 -12 10 -10 4 10 -4 14 -11 28 -16 31
-5 4 -3 12 5 20 7 8 19 25 26 37 7 13 17 20 24 15 8 -4 8 -2 -1 9 -8 10 -9 19
-3 22 5 4 13 -3 16 -14 7 -23 50 -44 67 -34 6 4 9 1 6 -7 -3 -8 -12 -13 -21
-11 -8 1 -18 -2 -21 -7 -3 -5 5 -11 18 -13 18 -4 27 1 35 19 14 30 14 36 1 28
-6 -4 -10 8 -10 28 0 30 -4 37 -31 46 -40 14 -39 14 -39 -4 0 -8 6 -12 13 -10
18 7 35 -7 42 -38 5 -17 3 -27 -4 -27 -6 0 -11 7 -11 15 0 9 -6 12 -15 9 -9
-4 -15 0 -15 9 0 28 -29 27 -49 -2 -11 -16 -18 -31 -15 -34 3 -3 -3 -11 -14
-18 -14 -9 -19 -20 -15 -41 3 -21 0 -28 -12 -28 -10 0 -13 5 -9 12 5 8 2 9 -9
5 -18 -7 -24 8 -7 18 14 9 0 37 -16 31 -7 -3 -16 -1 -19 4 -10 17 -25 11 -18
-7 4 -11 3 -14 -6 -9 -10 7 -10 4 0 -12 11 -17 14 -18 27 -5 8 7 16 12 19 9 7
-6 -16 -46 -26 -46 -15 0 -43 51 -38 70 3 12 -6 28 -24 44 -16 15 -29 34 -29
44 0 14 2 15 10 2 5 -8 10 -10 10 -5 -1 6 -6 17 -13 26 -11 15 -14 13 -23 -17z"/>
<path d="M920 979 c0 -5 5 -7 10 -4 6 3 10 1 10 -6 0 -6 8 -18 18 -25 16 -13
16 -13 -1 -14 -10 0 -15 -4 -12 -10 4 -6 13 -5 25 2 16 10 22 10 32 -1 11 -12
10 -13 -6 -7 -14 5 -17 2 -12 -10 3 -8 6 -18 6 -21 0 -3 7 0 15 7 8 7 15 17
15 22 0 15 -29 40 -39 34 -12 -8 -34 21 -26 34 3 6 -3 10 -14 10 -12 0 -21 -5
-21 -11z"/>
<path d="M2560 979 c0 -5 -4 -7 -10 -4 -5 3 -10 1 -10 -6 0 -8 11 -10 35 -6
19 3 37 1 40 -4 4 -5 12 -9 18 -9 7 1 1 10 -12 20 -25 21 -61 27 -61 9z"/>
<path d="M690 970 c0 -5 5 -10 10 -10 6 0 10 5 10 10 0 6 -4 10 -10 10 -5 0
-10 -4 -10 -10z"/>
<path d="M1387 973 c-14 -13 -7 -32 10 -26 10 4 14 2 9 -5 -3 -6 -1 -14 5 -18
8 -5 9 -3 4 6 -6 10 -4 12 9 7 21 -8 56 12 49 30 -7 18 -23 17 -23 -2 0 -8 -7
-15 -15 -15 -9 0 -18 7 -21 15 -7 16 -17 19 -27 8z"/>
<path d="M2096 963 c-3 -4 -6 -13 -6 -22 0 -14 2 -14 10 -1 7 11 10 11 10 2 0
-7 5 -10 10 -7 6 3 10 10 10 15 0 10 -26 20 -34 13z"/>
<path d="M1530 948 c0 -9 5 -20 10 -23 13 -8 13 5 0 25 -8 13 -10 13 -10 -2z"/>
<path d="M810 940 c0 -5 7 -7 15 -4 8 4 15 8 15 10 0 2 -7 4 -15 4 -8 0 -15
-4 -15 -10z"/>
<path d="M1262 938 c-7 -7 -12 -19 -12 -27 0 -11 3 -12 8 -5 5 9 11 8 20 -2 7
-8 8 -14 2 -14 -5 0 -10 -7 -10 -15 0 -24 14 -17 28 12 8 19 9 30 1 37 -7 8
-8 5 -3 -9 7 -19 6 -19 -12 -2 -16 15 -17 19 -4 27 8 5 10 10 5 10 -6 0 -16
-5 -23 -12z"/>
<path d="M1740 940 c0 -5 5 -10 11 -10 5 0 7 5 4 10 -3 6 -8 10 -11 10 -2 0
-4 -4 -4 -10z"/>
<path d="M2526 936 c3 -9 11 -16 16 -16 13 0 5 23 -10 28 -7 2 -10 -2 -6 -12z"/>
<path d="M1451 926 c-10 -12 -9 -21 5 -45 10 -17 23 -27 31 -24 7 3 13 0 13
-6 0 -6 -12 -11 -27 -11 -24 -1 -26 -2 -10 -11 9 -5 21 -8 26 -4 5 3 12 1 16
-5 3 -5 -2 -11 -12 -11 -19 -1 29 -16 60 -18 29 -2 19 18 -15 27 -26 6 -32 13
-33 38 -1 16 -5 35 -9 42 -5 8 0 12 13 12 12 0 21 -4 21 -10 0 -5 -4 -10 -9
-10 -6 0 -6 -12 0 -30 6 -16 15 -30 21 -30 5 0 6 6 1 13 -4 6 -8 26 -8 42 0
26 -4 30 -28 30 -16 1 -32 6 -36 13 -6 10 -11 10 -20 -2z m25 -20 c16 -17 19
-36 4 -36 -5 0 -10 7 -10 15 0 8 -4 15 -10 15 -5 0 -10 5 -10 10 0 14 9 12 26
-4z"/>
<path d="M1585 925 c-3 -8 -7 -22 -10 -31 -3 -10 1 -14 13 -12 9 1 22 0 27 -3
20 -12 65 -19 65 -11 0 5 -6 9 -14 9 -8 0 -28 6 -46 13 -23 10 -30 18 -27 32
6 22 -2 25 -8 3z"/>
<path d="M2260 920 c0 -11 -6 -20 -12 -21 -7 0 -4 -5 8 -10 27 -14 72 -111 63
-136 -7 -16 -8 -16 -8 -1 -1 11 -6 15 -16 12 -11 -5 -13 -10 -5 -19 7 -8 5
-12 -5 -12 -8 0 -12 4 -9 8 2 4 0 10 -6 14 -5 3 -10 11 -10 16 0 6 4 8 8 5 4
-2 14 -1 21 3 10 7 10 12 0 30 -8 11 -20 21 -28 21 -11 0 -10 -5 4 -20 10 -11
15 -23 12 -27 -4 -3 -7 -3 -7 2 0 4 -7 2 -15 -5 -12 -10 -16 -8 -24 11 -5 13
-7 32 -5 41 2 12 -2 15 -14 11 -16 -5 -16 -5 0 12 15 17 18 17 33 1 17 -16 40
-13 29 5 -3 5 -9 7 -14 4 -4 -3 -13 2 -20 10 -10 11 -15 12 -24 2 -19 -19 -38
-58 -32 -65 3 -3 6 0 6 6 0 7 8 12 18 12 14 0 14 -2 3 -9 -12 -8 -12 -12 2
-26 12 -11 15 -25 11 -42 -5 -18 -4 -24 5 -19 6 4 9 12 6 17 -4 5 -1 9 4 9 6
0 11 -12 11 -26 0 -14 -4 -23 -10 -19 -5 3 -10 -1 -10 -9 0 -21 9 -20 33 2 15
12 21 14 24 5 3 -7 9 -13 14 -13 6 0 7 5 3 11 -4 7 5 10 27 8 19 -2 35 0 37 4
5 15 1 27 -9 27 -5 0 -7 -4 -4 -10 3 -5 2 -10 -3 -10 -14 0 -20 22 -12 45 6
17 8 17 16 3 8 -14 12 -14 41 2 18 9 30 20 26 24 -3 3 -1 6 5 6 7 0 12 -4 12
-9 0 -5 12 -8 26 -8 24 0 24 1 10 16 -22 21 -48 20 -64 -2 -16 -21 -59 -19
-54 2 3 12 0 12 -12 2 -19 -16 -36 -6 -36 23 0 12 -6 28 -12 35 -11 11 -10 13
5 8 9 -4 17 -2 17 4 0 6 -8 9 -17 8 -35 -3 -40 1 -35 26 2 14 2 25 -2 25 -3 0
-6 -9 -6 -20z"/>
<path d="M2000 915 c0 -8 7 -15 15 -15 8 0 15 4 15 9 0 5 -7 11 -15 15 -9 3
-15 0 -15 -9z"/>
<path d="M790 883 c0 -5 7 -17 15 -27 15 -20 20 -10 9 18 -6 16 -24 22 -24 9z"/>
<path d="M820 880 c0 -5 5 -10 10 -10 6 0 10 5 10 10 0 6 -4 10 -10 10 -5 0
-10 -4 -10 -10z"/>
<path d="M1422 866 c4 -18 1 -23 -10 -18 -11 4 -13 2 -7 -8 6 -10 4 -12 -9 -7
-10 4 -15 3 -11 -3 3 -6 0 -10 -8 -10 -10 0 -13 -8 -9 -26 4 -24 3 -26 -19
-19 -22 7 -22 6 -10 -9 8 -9 20 -15 27 -12 7 3 15 -2 18 -10 3 -8 12 -14 21
-14 21 0 19 -19 -2 -27 -10 -4 -21 -11 -25 -17 -4 -6 -12 2 -18 18 -6 16 -13
26 -16 23 -3 -3 0 -15 6 -27 6 -12 8 -25 4 -28 -4 -4 -9 -1 -11 6 -3 6 -9 10
-14 6 -8 -5 -13 9 -10 29 0 4 -4 7 -10 7 -6 0 -9 7 -5 15 3 9 0 15 -8 15 -8 0
-21 10 -29 23 l-16 22 6 -25 c4 -14 12 -29 20 -33 17 -10 17 -47 1 -47 -9 0
-8 -4 2 -10 13 -9 13 -11 0 -20 -13 -9 -12 -12 5 -25 11 -9 26 -13 33 -10 7 3
25 2 39 -1 18 -5 21 -9 11 -15 -10 -7 -8 -9 7 -10 11 -1 25 -3 31 -3 6 -1 18
-7 27 -14 10 -9 17 -9 22 -3 3 6 22 9 41 6 19 -2 32 0 30 4 -3 5 5 8 18 9 16
0 23 -5 19 -14 -3 -8 7 -15 30 -19 38 -7 77 1 77 16 0 5 9 9 19 9 11 0 22 4
25 9 8 13 53 19 67 10 8 -4 25 0 41 9 25 15 30 15 39 2 9 -12 10 -12 5 4 -5
15 -2 17 18 12 54 -13 126 -17 126 -7 0 6 -4 11 -10 11 -5 0 -20 10 -32 22
-20 20 -21 20 -16 2 4 -14 0 -20 -13 -20 -11 0 -19 4 -19 8 0 4 -8 5 -17 2
-14 -4 -15 -3 -5 4 11 7 11 10 -2 15 -8 3 -17 1 -20 -6 -2 -7 -5 -4 -5 5 -1
18 -38 44 -49 34 -3 -3 -1 -6 5 -6 6 0 9 -9 6 -20 -3 -11 -10 -20 -15 -20 -5
0 -6 -4 -3 -10 3 -5 1 -10 -4 -10 -6 0 -11 5 -11 10 0 6 -6 10 -14 10 -8 0
-17 6 -20 13 -3 6 -3 -1 1 -18 l6 -30 -20 20 c-11 11 -19 23 -16 28 2 4 -1 7
-6 7 -6 0 -10 5 -8 12 1 7 -3 12 -10 13 -20 0 -27 15 -8 15 10 0 27 -7 37 -17
10 -9 21 -14 24 -10 11 11 -6 25 -37 32 -35 8 -73 41 -83 73 -7 22 0 27 32 23
6 -1 12 3 12 10 0 6 -8 9 -19 6 -12 -3 -22 1 -25 9 -3 8 -11 14 -18 14 -9 0
-9 -3 0 -12 19 -19 14 -29 -8 -16 -11 7 -20 18 -20 24 0 7 -11 11 -25 10 -30
-1 -34 -16 -5 -16 11 0 20 -4 20 -9 0 -5 10 -11 22 -14 18 -5 19 -8 8 -21 -12
-16 -35 -23 -26 -8 6 11 -22 47 -31 38 -4 -4 -1 -12 8 -16 10 -6 15 -20 14
-35 l-3 -25 26 21 26 20 11 -33 c5 -18 17 -33 25 -33 8 0 14 -6 12 -14 -1 -7
6 -21 18 -31 28 -24 25 -31 -9 -19 -17 6 -28 17 -27 27 1 11 -6 16 -19 15 -28
-4 -47 11 -39 30 9 24 24 21 24 -5 0 -12 3 -19 6 -15 4 3 3 19 -1 34 l-7 28
-18 -22 c-9 -12 -20 -19 -24 -16 -3 4 -6 3 -6 -1 0 -14 23 -51 43 -70 20 -20
20 -20 15 2 -4 12 -2 22 3 22 5 0 9 -9 9 -20 0 -15 7 -20 29 -20 17 0 31 -6
35 -15 4 -13 2 -14 -15 -5 -18 10 -19 9 -13 -14 4 -17 2 -26 -5 -26 -7 0 -11
6 -10 12 3 28 -2 38 -19 38 -10 0 -23 5 -30 12 -9 9 -12 8 -12 -4 0 -9 5 -20
10 -23 6 -3 10 -11 10 -17 0 -6 -8 -4 -18 5 -10 10 -25 17 -33 17 -8 0 -21 5
-29 11 -12 8 -9 10 13 6 22 -3 25 -2 16 9 -8 10 -8 14 0 14 14 0 15 27 1 35
-6 3 -13 -2 -17 -12 -4 -10 -13 -24 -20 -31 -17 -18 -17 -32 2 -32 8 0 12 -6
9 -13 -3 -8 -11 -14 -19 -14 -8 0 -12 4 -9 8 2 4 0 10 -6 14 -5 3 -7 19 -3 35
4 20 1 30 -7 30 -7 0 -10 6 -6 15 3 8 9 23 13 32 5 13 3 15 -13 9 -12 -5 -15
-4 -9 2 6 6 19 12 30 15 15 4 14 5 -5 4 -14 -1 -31 2 -37 6 -9 6 -11 3 -6 -9
4 -12 3 -15 -5 -10 -7 4 -12 3 -12 -2 0 -5 9 -12 20 -15 17 -4 19 -11 14 -31
-4 -16 -2 -26 5 -26 6 0 11 -7 11 -15 0 -18 -20 -20 -20 -2 0 6 -5 4 -11 -6
-8 -14 -8 -22 0 -30 6 -6 11 -15 11 -19 0 -15 -15 -8 -29 13 -10 17 -10 23 -1
29 7 4 9 13 6 19 -11 17 -26 13 -19 -6 4 -10 2 -14 -4 -10 -6 4 -13 15 -16 26
-4 15 2 20 27 25 24 5 28 9 16 16 -9 6 -17 5 -22 -3 -5 -9 -10 -9 -20 1 -9 9
-9 12 5 12 9 0 18 7 18 15 2 24 4 29 12 43 5 8 3 12 -7 12 -15 0 -22 29 -17
68 1 6 -3 12 -10 12 -7 0 -9 -10 -7 -24z m17 -93 c1 -8 -6 -10 -16 -6 -10 4
-14 2 -9 -5 3 -6 2 -13 -3 -17 -14 -8 -33 32 -26 55 8 27 39 30 47 5 3 -11 6
-25 7 -32z m-129 -113 c-8 -5 -10 -10 -4 -10 5 0 15 5 20 10 7 7 11 6 11 -5 0
-9 -9 -15 -25 -15 -18 0 -23 4 -18 16 3 9 6 21 6 27 0 7 4 7 12 -1 10 -10 10
-15 -2 -22z m97 23 c-4 -3 2 -13 13 -20 11 -8 17 -19 14 -25 -4 -6 1 -17 11
-25 17 -12 17 -13 2 -13 -9 0 -17 5 -17 11 0 6 -9 9 -20 6 -11 -3 -20 -1 -20
4 0 5 -8 9 -17 10 -15 0 -15 2 2 8 11 5 26 6 34 3 9 -3 12 -1 7 6 -4 7 -20 10
-39 7 l-32 -6 30 21 c30 20 44 26 32 13z m444 -36 c-15 -15 -21 -5 -14 22 5
21 7 21 16 6 6 -11 5 -21 -2 -28z m-342 -37 c0 -10 -3 -8 -9 5 -12 27 -12 43
0 25 5 -8 9 -22 9 -30z m241 19 c0 -6 -4 -7 -10 -4 -5 3 -10 11 -10 16 0 6 5
7 10 4 6 -3 10 -11 10 -16z m-92 -12 c5 -24 -15 -21 -21 4 -3 13 -1 19 6 16 7
-2 13 -11 15 -20z m-44 -9 c36 -24 50 -46 17 -29 -10 6 -22 7 -26 3 -5 -4 -4
-1 0 7 6 11 4 13 -7 8 -15 -5 -38 9 -38 25 0 14 17 9 54 -14z"/>
<path d="M1390 790 c0 -5 7 -10 15 -10 8 0 15 5 15 10 0 6 -7 10 -15 10 -8 0
-15 -4 -15 -10z"/>
<path d="M1123 867 c-3 -5 -3 -10 -1 -12 7 -7 48 7 48 16 0 10 -40 7 -47 -4z"/>
<path d="M1935 859 c4 -5 18 -14 31 -19 13 -5 24 -16 24 -25 0 -14 -3 -14 -25
1 -16 10 -25 12 -25 5 0 -13 40 -31 53 -24 4 2 7 -3 7 -11 0 -9 8 -16 19 -16
10 0 21 -7 25 -15 3 -8 1 -15 -4 -15 -6 0 -10 5 -10 12 0 8 -6 6 -17 -5 -14
-14 -15 -19 -4 -29 10 -11 11 -10 6 5 -4 10 -2 17 4 17 6 0 11 -6 11 -12 0 -7
3 -24 6 -38 6 -24 6 -25 -9 -5 -16 20 -16 20 -17 -5 0 -23 4 -25 45 -25 30 0
45 4 45 12 0 7 5 13 10 13 6 0 10 -4 10 -10 0 -16 27 -11 34 6 8 21 -2 33 -13
16 -6 -10 -11 -10 -21 3 -11 13 -10 15 6 9 18 -5 18 -5 2 9 -19 15 -25 32 -8
22 16 -10 12 11 -5 25 -8 7 -12 17 -8 24 3 6 3 8 -2 4 -4 -4 -23 1 -41 12 -20
13 -35 17 -39 10 -3 -5 -1 -10 4 -10 6 0 11 -4 11 -10 0 -25 -22 -6 -42 35
-17 34 -28 45 -46 45 -14 0 -21 -4 -17 -11z m170 -101 c5 4 5 1 1 -5 -4 -7
-11 -13 -16 -13 -15 0 -41 31 -34 41 3 6 14 1 23 -10 10 -11 22 -17 26 -13z
m-5 -52 c0 -9 -7 -12 -20 -9 -11 3 -20 14 -20 25 0 16 3 17 20 8 11 -6 20 -17
20 -24z m-15 -26 c3 -5 -3 -10 -15 -10 -12 0 -18 5 -15 10 3 6 10 10 15 10 5
0 12 -4 15 -10z"/>
<path d="M870 849 c0 -5 5 -7 10 -4 6 3 10 -1 10 -9 0 -8 -5 -18 -10 -21 -6
-4 -8 -10 -5 -15 3 -5 1 -11 -4 -14 -5 -3 -11 3 -14 14 -5 20 -27 28 -27 10 0
-5 6 -10 13 -10 8 0 7 -3 -2 -9 -12 -8 -9 -11 12 -16 15 -4 27 -11 27 -17 0
-5 -8 -7 -18 -4 -12 4 -19 1 -19 -8 0 -11 6 -12 24 -5 16 6 23 5 23 -3 0 -9 3
-9 12 0 9 9 9 15 2 20 -14 10 -16 54 -2 46 8 -5 9 -1 5 10 -4 10 -7 24 -7 32
0 8 -7 14 -15 14 -8 0 -15 -5 -15 -11z"/>
<path d="M1257 848 c2 -5 -1 -8 -7 -8 -6 0 -3 -11 6 -25 12 -18 22 -24 35 -20
11 4 19 2 19 -4 0 -6 -7 -11 -16 -11 -8 0 -12 -4 -9 -10 3 -5 13 -10 21 -10
19 0 18 34 -1 50 -10 9 -15 9 -15 1 0 -6 -5 -11 -11 -11 -5 0 -7 5 -4 10 3 6
1 10 -4 10 -6 0 -11 5 -11 11 0 8 12 10 36 6 25 -4 34 -2 31 6 -2 6 -20 12
-39 12 -20 0 -34 -3 -31 -7z"/>
<path d="M2400 850 c0 -5 5 -10 10 -10 6 0 10 5 10 10 0 6 -4 10 -10 10 -5 0
-10 -4 -10 -10z"/>
<path d="M920 835 c7 -9 15 -13 17 -11 7 7 -7 26 -19 26 -6 0 -6 -6 2 -15z"/>
<path d="M1140 840 c-8 -5 -18 -6 -22 -4 -4 3 -8 -2 -8 -10 0 -9 9 -16 21 -16
13 0 18 -4 13 -12 -4 -7 1 -6 11 3 21 20 9 54 -15 39z"/>
<path d="M2325 820 c-3 -5 -1 -10 4 -10 6 0 11 5 11 10 0 6 -2 10 -4 10 -3 0
-8 -4 -11 -10z"/>
<path d="M1197 803 c5 -12 2 -15 -9 -11 -8 4 -22 -2 -31 -13 -13 -15 -14 -19
-3 -19 8 0 17 -7 20 -16 9 -23 8 -26 -6 -18 -8 5 -9 2 -5 -10 4 -10 7 -20 7
-22 0 -2 7 -4 15 -4 8 0 15 -4 15 -10 0 -5 5 -10 11 -10 5 0 7 5 4 10 -3 6 -2
10 3 10 6 0 12 -7 16 -15 3 -8 13 -15 22 -15 15 0 15 3 -4 23 -24 26 -28 57
-10 75 10 10 8 14 -10 18 -12 4 -19 10 -16 15 3 5 9 7 14 4 5 -3 12 0 16 6 5
9 0 10 -14 7 -12 -4 -22 -2 -22 3 0 5 -4 9 -10 9 -5 0 -6 -8 -3 -17z m17 -29
c25 -9 19 -26 -6 -19 -23 6 -23 6 -3 -10 19 -16 19 -17 1 -13 -23 4 -43 48
-21 48 7 0 20 -3 29 -6z m6 -63 c0 -6 -9 -9 -20 -8 -11 1 -20 5 -20 9 0 4 9 8
20 8 11 0 20 -4 20 -9z"/>
<path d="M1660 810 c0 -6 5 -10 10 -10 6 0 10 -7 10 -15 0 -8 4 -15 9 -15 14
0 1 38 -15 44 -8 3 -14 1 -14 -4z"/>
<path d="M2120 806 c0 -7 7 -19 16 -27 9 -7 14 -22 11 -37 -3 -16 2 -27 14
-35 11 -7 19 -18 19 -25 0 -7 -4 -10 -10 -7 -5 3 -10 -3 -10 -14 0 -14 6 -21
20 -21 11 0 23 0 27 -1 4 0 9 4 11 10 2 6 -3 11 -11 11 -17 0 -29 47 -15 57 6
3 14 0 18 -7 5 -8 8 0 7 21 -1 19 -10 42 -21 52 -26 23 -31 15 -11 -17 16 -23
16 -26 1 -26 -10 0 -13 -5 -9 -17 5 -11 3 -14 -6 -9 -7 5 -11 17 -8 27 3 10 1
22 -4 25 -5 3 -7 10 -4 15 4 5 -1 9 -10 9 -11 0 -15 5 -11 15 3 8 1 15 -4 15
-6 0 -10 -6 -10 -14z"/>
<path d="M1707 789 c4 -12 0 -25 -8 -31 -12 -8 -11 -9 1 -5 8 2 23 -2 33 -11
15 -14 17 -13 17 1 0 10 -7 17 -15 17 -8 0 -15 5 -15 10 0 13 32 9 42 -5 5 -6
8 -6 8 1 0 6 -10 19 -22 30 -14 12 -19 14 -13 4 6 -12 5 -13 -6 -2 -19 18 -28
15 -22 -9z"/>
<path d="M802 784 c-7 -8 -12 -20 -9 -27 2 -7 9 -2 16 11 15 28 11 36 -7 16z"/>
<path d="M930 769 c6 -18 6 -35 1 -38 -4 -4 -5 -15 0 -26 6 -17 8 -17 8 -2 1
9 6 17 11 17 7 0 7 6 1 18 -5 10 -9 26 -8 36 1 11 -3 21 -10 23 -9 3 -10 -4
-3 -28z"/>
<path d="M738 774 c-5 -20 12 -44 32 -44 5 0 10 -7 10 -16 0 -8 4 -13 9 -10 5
3 22 -1 37 -9 16 -8 35 -15 42 -15 23 0 78 -36 74 -48 -4 -14 14 -17 22 -3 9
13 50 19 72 9 17 -7 16 -8 -3 -4 -15 3 -23 -1 -23 -9 0 -8 8 -14 18 -14 43 -1
58 -5 71 -18 12 -12 16 -12 30 2 15 15 15 17 -2 30 -12 9 -15 15 -7 20 6 4 14
4 18 0 7 -6 8 -10 11 -36 0 -5 6 -7 11 -4 6 4 8 10 5 15 -3 5 8 4 25 -2 22 -7
35 -7 42 0 6 6 17 8 26 5 10 -4 13 -1 10 8 -6 19 -45 24 -64 8 -8 -7 -14 -8
-12 -2 2 6 -9 21 -23 35 -14 13 -24 29 -22 35 3 7 -1 21 -7 33 -9 17 -18 20
-62 15 -29 -3 -56 -9 -61 -14 -11 -11 -49 -2 -41 10 3 5 0 9 -6 9 -7 0 -9 -8
-5 -20 4 -12 1 -27 -5 -35 -7 -8 -10 -20 -7 -27 4 -9 6 -7 6 3 1 9 8 20 17 23
9 3 12 11 8 18 -6 10 -3 9 9 0 15 -13 14 -16 -9 -37 -21 -20 -28 -21 -49 -11
-14 6 -23 17 -20 24 2 7 -3 16 -12 19 -9 4 -19 1 -21 -5 -2 -7 -8 -12 -13 -12
-4 0 -6 7 -3 15 5 13 2 14 -20 6 -17 -7 -27 -7 -32 1 -4 7 -3 8 4 4 8 -4 10
-2 6 8 -3 8 -12 12 -20 9 -7 -3 -17 2 -20 11 -3 9 -12 16 -19 16 -7 0 -15 6
-17 12 -3 7 -7 3 -10 -8z m346 -53 c-10 -10 -22 -17 -26 -14 -5 2 -8 -1 -8 -7
0 -7 7 -10 15 -6 8 3 15 2 15 -2 0 -4 11 -8 24 -8 29 -2 84 -36 66 -42 -7 -3
-16 1 -19 7 -7 11 -30 13 -96 10 -52 -3 -65 1 -65 15 0 8 7 17 16 20 10 4 14
12 10 22 -4 12 -2 15 9 10 8 -3 15 -2 15 2 0 4 14 8 31 9 31 2 31 2 13 -16z
m50 -21 c-11 -11 -56 -1 -48 11 3 5 10 7 15 4 5 -4 9 2 9 12 0 16 1 16 17 0
11 -11 14 -20 7 -27z m-24 -50 c0 -5 -8 -10 -17 -10 -14 -1 -12 -4 7 -15 27
-15 20 -19 -18 -9 -22 6 -22 8 -6 25 19 21 34 25 34 9z"/>
<path d="M1030 696 c0 -8 -6 -17 -12 -19 -7 -3 -3 -6 9 -6 16 -1 20 3 16 19
-6 23 -13 26 -13 6z"/>
<path d="M1542 765 c-11 -13 -10 -15 7 -15 14 0 19 5 15 15 -7 18 -6 18 -22 0z"/>
<path d="M1790 762 c25 -45 30 -48 30 -21 0 18 -6 28 -20 32 -16 4 -18 2 -10
-11z"/>
<path d="M1770 736 c0 -16 18 -31 27 -22 3 3 -2 12 -11 21 -14 14 -16 14 -16
1z"/>
<path d="M1866 737 c3 -10 9 -15 12 -12 3 3 0 11 -7 18 -10 9 -11 8 -5 -6z"/>
<path d="M1942 732 l-22 -17 26 -12 c23 -11 24 -10 18 9 -4 14 -2 18 5 14 6
-4 11 -3 11 3 0 18 -15 20 -38 3z"/>
<path d="M1527 727 c-3 -8 -1 -20 4 -28 6 -10 9 -7 9 14 0 29 -5 35 -13 14z"/>
<path d="M1240 726 c0 -2 7 -9 15 -16 13 -11 14 -10 9 4 -5 14 -24 23 -24 12z"/>
<path d="M1897 704 c-5 -5 28 -44 36 -44 2 0 4 6 4 14 0 15 -32 38 -40 30z"/>
<path d="M1987 703 c-10 -9 -9 -41 1 -47 5 -3 9 8 9 24 0 33 -1 33 -10 23z"/>
<path d="M1780 690 c0 -15 21 -23 32 -12 6 6 2 11 -11 15 -12 3 -21 1 -21 -3z"/>
<path d="M1290 597 c0 -14 5 -18 20 -14 11 3 20 1 20 -5 0 -5 5 -6 10 -3 20
12 9 33 -20 37 -25 4 -30 1 -30 -15z"/>
</g>
</svg>
