<?xml version="1.0" standalone="no"?>
<!DOCTYPE svg PUBLIC "-//W3C//DTD SVG 20010904//EN"
 "http://www.w3.org/TR/2001/REC-SVG-20010904/DTD/svg10.dtd">
<svg version="1.0" xmlns="http://www.w3.org/2000/svg"
 width="200.000000pt" height="200.000000pt" viewBox="0 0 200.000000 200.000000"
 preserveAspectRatio="xMidYMid meet">
<metadata>
Created by potrace 1.10, written by Peter Selinger 2001-2011
</metadata>
<g transform="translate(0.000000,200.000000) scale(0.100000,-0.100000)"
fill="#000000" stroke="none">
<path d="M856 1981 c-4 -7 1 -11 14 -11 12 0 19 -4 15 -9 -3 -5 5 -11 17 -13
13 -2 22 -9 21 -16 -4 -17 28 -15 41 3 10 14 30 18 104 24 7 1 11 5 8 10 -3 5
-22 5 -42 1 -20 -5 -42 -6 -49 -4 -7 3 -16 1 -20 -5 -3 -6 -14 -11 -23 -10
-11 0 -12 3 -4 6 20 8 14 21 -10 21 -13 0 -33 3 -44 7 -13 4 -25 2 -28 -4z"/>
<path d="M1064 1939 c-16 -6 -14 -8 8 -8 27 -1 46 -17 33 -29 -3 -3 -10 0 -15
8 -5 8 -12 11 -16 7 -12 -11 3 -19 43 -24 21 -2 40 -8 41 -13 2 -6 11 -10 19
-10 13 0 13 -3 3 -15 -7 -8 -10 -22 -6 -30 6 -18 32 -20 42 -4 4 8 0 9 -15 4
-15 -4 -21 -2 -21 8 0 9 7 14 18 12 9 -2 20 -4 25 -4 4 -1 7 -7 7 -15 0 -8 7
-16 15 -20 8 -3 15 -9 15 -14 0 -9 -37 -9 -60 0 -8 4 -28 9 -45 12 -27 6 -28
5 -10 -6 29 -18 85 -37 85 -28 0 4 14 7 30 8 17 0 28 -4 24 -9 -3 -5 0 -17 8
-26 11 -15 11 -16 -5 -10 -10 4 -21 7 -23 7 -3 0 -3 4 0 9 8 12 -57 8 -67 -4
-6 -6 -10 -6 -14 2 -3 9 -11 9 -29 -3 -17 -12 -24 -13 -24 -4 0 7 -7 10 -14 7
-10 -4 -13 -1 -9 9 3 7 0 14 -6 14 -6 0 -11 -5 -11 -11 0 -6 -9 -8 -22 -4 -17
6 -20 4 -15 -9 4 -10 1 -16 -8 -16 -8 0 -14 -3 -14 -7 3 -19 -2 -33 -12 -33
-5 0 -7 5 -3 11 4 7 0 9 -13 5 -14 -4 -28 2 -46 20 -41 41 -37 48 27 44 19 -1
26 2 21 10 -4 6 -13 9 -20 6 -8 -3 -11 2 -8 13 3 10 22 24 44 31 42 14 61 30
35 30 -9 0 -16 5 -16 11 0 6 9 9 20 6 11 -3 20 -2 20 3 0 13 -39 19 -44 6 -3
-7 -5 -7 -5 2 -1 17 -18 15 -24 -2 -4 -10 -1 -13 8 -10 9 4 13 -1 12 -15 -1
-20 -1 -20 -34 -1 -36 21 -46 11 -11 -12 18 -12 19 -15 5 -15 -9 0 -17 4 -17
9 0 4 -7 8 -15 8 -17 0 -20 -16 -5 -25 6 -3 10 -10 10 -15 0 -14 -31 -41 -40
-35 -5 3 -11 1 -15 -5 -3 -5 -1 -10 4 -10 6 0 11 -4 11 -10 0 -5 -7 -7 -15 -4
-8 4 -15 1 -15 -5 0 -6 6 -11 14 -11 7 0 25 -9 40 -21 14 -11 26 -18 26 -15 0
3 12 -1 26 -9 15 -7 34 -11 43 -8 9 4 13 3 9 -2 -4 -4 0 -21 9 -36 14 -23 22
-27 42 -22 15 3 31 12 38 20 7 8 14 10 17 4 4 -5 1 -13 -4 -16 -8 -5 -6 -13 6
-26 13 -15 14 -19 3 -20 -8 0 -5 -4 6 -8 12 -5 23 -4 27 3 6 8 8 7 8 -1 0 -20
17 -15 23 7 6 22 0 25 -23 10 -15 -9 -40 4 -40 22 0 6 7 5 15 -2 9 -8 15 -9
15 -2 0 6 -4 14 -10 17 -20 12 -10 26 10 15 11 -6 18 -16 14 -22 -4 -7 2 -8
17 -3 33 10 34 12 19 30 -11 13 -15 13 -22 3 -6 -10 -10 -10 -15 -2 -12 18
-48 21 -66 5 -15 -11 -17 -11 -17 2 0 17 20 27 58 28 15 0 21 3 14 6 -10 4 -9
8 5 19 10 7 13 14 7 14 -6 0 -17 -7 -24 -15 -11 -13 -14 -13 -26 2 -11 15 -14
15 -15 3 -1 -8 -1 -18 0 -22 2 -13 -23 -9 -46 7 -16 11 -22 12 -26 2 -4 -9 -7
-9 -18 1 -8 8 -9 12 -2 12 6 0 18 7 27 15 8 8 22 12 30 9 22 -8 20 -25 -1 -18
-15 5 -15 4 -3 -5 10 -7 19 -6 30 4 8 7 39 15 69 18 42 4 57 1 71 -13 13 -13
21 -15 29 -7 16 16 26 0 11 -18 -7 -9 -21 -13 -31 -10 -10 4 -27 1 -36 -5 -14
-9 -15 -11 -2 -7 21 7 99 -13 99 -24 0 -5 -11 -7 -25 -3 -15 4 -25 2 -25 -5 0
-6 -5 -10 -11 -8 -6 1 -14 -4 -16 -10 -6 -18 12 -16 31 2 8 8 22 12 30 9 9 -3
24 0 34 7 9 7 14 9 9 4 -4 -4 3 -19 15 -32 25 -27 18 -30 -17 -7 -23 15 -25
15 -25 -2 0 -9 3 -15 6 -11 10 10 65 -23 58 -34 -4 -6 -13 -4 -25 7 -19 17
-26 9 -19 -21 9 -36 7 -86 -3 -82 -14 4 -19 47 -5 47 5 0 3 10 -4 23 -7 12
-11 28 -9 36 1 7 -2 10 -8 6 -7 -4 -11 4 -11 20 0 14 -4 24 -10 20 -5 -3 -6
-13 -3 -23 5 -14 3 -15 -8 -4 -16 14 -29 16 -29 2 0 -5 11 -12 24 -16 13 -3
30 -17 37 -31 12 -22 11 -27 -6 -39 -12 -9 -21 -11 -23 -4 -5 14 -29 13 -35
-2 -2 -7 -7 -10 -11 -7 -11 10 6 41 19 35 24 -9 25 7 4 30 -12 12 -27 20 -35
17 -22 -8 -16 -26 6 -20 11 3 20 1 20 -4 0 -5 -4 -9 -10 -9 -5 0 -10 -7 -10
-15 0 -22 -17 -18 -23 5 -7 26 -27 26 -27 1 0 -11 -4 -22 -9 -25 -5 -3 -9 0
-8 7 1 35 -5 47 -23 47 -11 0 -20 -4 -20 -10 0 -5 7 -10 15 -10 19 0 20 -34 1
-49 -9 -8 -21 -8 -39 -2 -21 8 -25 7 -20 -4 4 -11 -2 -15 -21 -15 -15 0 -38
-11 -52 -25 -30 -30 -32 -30 -36 -8 -2 12 -14 18 -36 19 -23 1 -30 -2 -24 -8
12 -12 -2 -30 -30 -41 -12 -4 -18 -2 -18 8 0 8 7 15 17 15 27 0 7 12 -30 17
-25 3 -36 0 -41 -12 -6 -17 -26 -12 -26 6 0 6 5 7 10 4 6 -3 10 1 10 9 0 22
-13 20 -27 -3 -10 -15 -10 -21 0 -24 9 -3 9 -7 0 -17 -9 -10 -9 -16 2 -26 22
-22 47 -17 45 9 -3 37 -1 49 10 42 6 -3 8 -24 5 -46 -4 -36 -3 -39 20 -39 13
0 27 -5 31 -11 4 -7 9 -7 13 -2 3 5 15 15 26 21 16 9 13 10 -19 5 -28 -4 -37
-3 -32 5 4 7 2 12 -3 12 -6 0 -11 -4 -11 -10 0 -5 -4 -10 -10 -10 -5 0 -7 7
-3 16 4 11 15 15 34 12 17 -3 26 0 22 6 -4 5 0 7 9 3 16 -6 38 10 38 27 0 6
-5 5 -12 -2 -7 -7 -16 -12 -20 -12 -4 0 1 9 13 21 23 23 26 23 31 -6 1 -11 8
-24 13 -28 6 -5 -1 -5 -14 -2 -17 5 -22 4 -19 -6 7 -21 118 -20 118 0 0 5 -11
7 -24 6 -13 -2 -29 1 -37 6 -11 7 -11 9 -1 9 7 0 10 5 7 10 -9 14 8 13 23 -2
8 -8 12 -8 12 -1 0 6 11 10 25 9 14 0 25 -4 25 -8 0 -5 5 -8 11 -8 5 0 3 10
-5 22 -20 29 -20 42 0 34 8 -3 25 0 37 8 33 21 78 29 72 14 -3 -8 4 -13 17
-14 60 -3 104 -15 118 -32 9 -10 21 -17 27 -15 6 2 14 -1 18 -6 3 -6 12 -11
18 -11 7 0 4 7 -6 14 -16 13 -15 14 10 12 15 -1 34 -5 41 -10 7 -4 16 -5 20
-1 10 10 -27 35 -43 29 -7 -3 -15 1 -18 9 -3 7 0 14 6 14 7 0 21 4 31 9 15 6
18 4 13 -8 -7 -19 19 -33 27 -15 5 9 7 9 12 -1 3 -6 10 -10 15 -6 5 3 9 -2 9
-11 0 -12 -6 -15 -21 -10 -15 5 -19 4 -14 -5 4 -7 -1 -13 -14 -17 -12 -3 -21
-10 -21 -15 0 -6 8 -7 18 -3 9 4 24 8 32 9 23 2 32 23 24 60 -6 37 -23 49 -51
39 -16 -6 -17 -5 -3 13 14 18 14 18 -4 4 -10 -8 -25 -16 -35 -17 -53 -11 -71
-11 -77 -1 -5 8 -1 9 12 4 15 -6 17 -5 7 5 -18 18 -16 34 2 19 11 -9 15 -9 15
-1 0 7 5 9 10 6 22 -13 0 53 -29 89 -9 11 -10 16 -3 12 6 -4 12 -3 12 3 0 6 7
8 15 5 8 -4 15 -1 15 6 0 6 -8 10 -17 9 -10 -2 -34 1 -53 6 -19 5 -38 8 -42 7
-4 -1 -5 4 -3 11 6 15 65 20 65 6 0 -6 5 -7 10 -4 6 4 17 1 25 -5 12 -10 18
-10 30 0 12 10 15 9 15 -4 0 -11 -4 -14 -12 -10 -9 5 -8 2 1 -10 11 -13 16
-14 22 -5 6 10 11 10 26 -1 13 -10 15 -10 6 -1 -16 19 -5 45 13 30 9 -7 14 -8
14 -1 0 6 -6 12 -12 15 -7 2 -10 8 -6 12 4 4 15 2 24 -6 15 -12 17 -12 12 1
-6 19 -52 43 -56 30 -2 -6 -10 -10 -18 -10 -9 0 -12 -5 -9 -10 5 -8 11 -7 21
1 11 9 14 8 14 -5 0 -30 -29 -16 -60 30 -38 54 -51 51 -23 -6 11 -22 19 -40
18 -40 -1 0 -16 7 -34 16 -18 9 -41 14 -51 11 -21 -5 -53 23 -34 30 7 2 10 13
7 23 -3 11 -1 20 5 20 5 0 13 -12 16 -26 5 -17 12 -24 21 -20 7 2 15 0 18 -7
2 -8 5 -8 11 1 4 7 2 12 -3 12 -6 0 -11 6 -11 14 0 19 -38 46 -56 39 -8 -3
-14 -16 -14 -29 0 -13 -5 -24 -11 -24 -5 0 -7 5 -4 10 11 18 -6 52 -22 46 -9
-4 -17 1 -20 14 -3 11 -9 20 -14 20 -4 0 -24 14 -42 30 -19 17 -41 30 -50 30
-8 0 -17 6 -20 14 -9 23 34 6 81 -33 24 -20 51 -34 60 -33 13 3 14 1 3 -12
-18 -22 -1 -20 29 4 21 16 23 21 11 32 -12 11 -13 10 -8 -5 6 -15 3 -17 -16
-12 -12 4 -30 9 -39 11 -10 3 -18 12 -18 20 0 9 -5 12 -12 8 -7 -4 -8 -3 -4 4
16 26 -104 59 -150 41z m22 -265 c-3 -8 -2 -12 3 -9 16 9 22 -12 7 -25 -20
-15 -41 21 -24 38 16 16 21 15 14 -4z m294 -124 c0 -5 -2 -10 -4 -10 -3 0 -8
5 -11 10 -3 6 -1 10 4 10 6 0 11 -4 11 -10z m140 -54 c0 -3 -4 -8 -10 -11 -5
-3 -10 -1 -10 4 0 6 5 11 10 11 6 0 10 -2 10 -4z m-112 -38 c-6 -18 -28 -21
-28 -4 0 9 7 16 16 16 9 0 14 -5 12 -12z m-330 -5 c-10 -2 -18 -9 -18 -14 0
-6 -5 -7 -10 -4 -16 10 -1 25 23 24 17 -1 18 -2 5 -6z m-253 -53 c3 -5 1 -10
-4 -10 -6 0 -11 5 -11 10 0 6 2 10 4 10 3 0 8 -4 11 -10z"/>
<path d="M838 1928 c29 -15 28 -28 -2 -28 -35 0 -55 -10 -50 -24 3 -7 -2 -19
-11 -26 -19 -16 -19 -30 0 -30 9 0 12 6 9 15 -4 8 -2 15 4 15 5 0 15 -7 22
-15 10 -12 9 -15 -4 -15 -10 0 -14 -4 -11 -10 4 -6 -3 -6 -21 0 -15 6 -35 8
-45 5 -12 -4 -22 1 -29 15 -9 17 -8 20 10 20 12 0 19 -4 16 -8 -3 -5 1 -9 9
-9 25 0 23 22 -1 23 -25 2 -58 23 -49 32 2 3 11 -1 20 -8 12 -10 15 -10 15 4
0 12 7 14 30 10 18 -4 30 -2 30 4 0 13 -57 21 -69 9 -5 -5 -18 -4 -31 3 -16 9
-25 9 -33 1 -8 -8 -6 -11 7 -11 9 0 14 -5 11 -10 -4 -6 -10 -8 -15 -5 -10 6
-50 -33 -50 -48 0 -5 8 -7 18 -5 12 4 18 -1 18 -13 0 -19 -7 -23 -38 -20 -10
1 -18 -2 -18 -6 0 -5 -16 -9 -35 -9 -19 0 -35 4 -35 8 0 4 -7 8 -15 8 -8 0
-15 -4 -15 -10 0 -5 -5 -10 -11 -10 -5 0 -7 5 -4 10 3 6 1 10 -4 10 -6 0 -11
-8 -11 -17 0 -13 -3 -14 -12 -5 -7 7 -17 12 -23 12 -13 -1 -48 -76 -42 -93 3
-6 10 1 16 17 8 19 16 26 27 22 9 -3 20 -6 25 -6 18 0 8 -17 -16 -28 -22 -10
-24 -15 -15 -32 7 -13 16 -17 28 -12 16 6 16 7 0 10 -17 3 -26 22 -10 22 18
-1 34 -19 29 -34 -6 -15 -23 -20 -58 -17 -9 1 -22 -5 -29 -14 -11 -13 -8 -14
21 -9 19 3 40 7 47 10 9 2 11 -7 7 -36 -5 -39 -4 -40 24 -36 22 2 28 -1 26
-13 -2 -9 -4 -18 -4 -20 -1 -3 -8 4 -16 15 -8 10 -15 14 -15 7 0 -6 5 -15 11
-18 14 -9 -31 -32 -59 -30 -12 1 -25 4 -28 8 -11 10 -24 8 -24 -3 0 -5 6 -10
14 -10 8 0 16 -7 20 -15 3 -8 11 -15 17 -15 8 0 8 4 -1 15 -7 8 -8 15 -2 15
14 0 33 -25 25 -33 -3 -4 -2 -7 4 -7 17 0 23 13 13 25 -8 9 -6 14 5 19 9 3 15
0 15 -10 0 -8 4 -13 9 -10 5 4 11 0 14 -6 2 -7 8 -10 12 -6 5 5 0 17 -10 28
-10 11 -13 20 -8 20 6 0 16 -7 23 -15 10 -12 16 -13 26 -4 19 15 7 31 -17 24
-22 -7 -23 -2 -8 27 8 16 8 22 -2 29 -8 5 -16 3 -21 -4 -12 -19 -21 0 -9 20 6
10 11 14 11 9 0 -11 30 14 30 25 0 5 -4 9 -10 9 -5 0 -10 -7 -10 -16 0 -8 -5
-12 -11 -9 -12 8 18 46 35 44 42 -5 47 23 9 54 -21 17 -22 47 -1 47 6 0 8 -7
4 -15 -3 -9 0 -15 10 -15 8 0 12 -5 8 -11 -3 -6 15 1 42 15 26 14 52 23 57 19
5 -3 12 -1 16 6 10 16 84 -37 77 -56 -3 -8 1 -21 10 -30 13 -14 13 -17 -2 -34
-19 -21 -33 -17 -16 4 7 8 7 18 2 27 -7 11 -10 12 -10 2 0 -7 -4 -10 -10 -7
-5 3 -10 11 -10 16 0 6 4 8 9 5 5 -3 11 0 14 8 5 12 -40 55 -47 44 -1 -2 -8
-11 -15 -21 -12 -15 -12 -17 3 -11 9 3 16 10 16 15 0 6 6 4 14 -3 10 -10 11
-17 2 -30 -13 -22 -30 -24 -22 -3 3 8 3 15 0 15 -2 0 -8 -8 -12 -19 -5 -14
-12 -17 -30 -10 l-22 9 20 20 c40 40 20 57 -30 25 -25 -16 -35 -30 -35 -49 -1
-15 5 -26 12 -26 7 0 13 -4 13 -10 0 -13 -23 -13 -37 1 -7 7 -13 7 -17 1 -3
-6 7 -13 24 -17 16 -4 30 -11 30 -17 0 -6 -6 -8 -14 -5 -8 3 -16 0 -19 -6 -6
-16 34 -17 50 -1 9 8 9 14 0 23 -8 8 -7 11 4 11 8 0 20 -5 27 -12 9 -9 12 -8
12 7 0 15 2 17 9 6 11 -16 59 -23 81 -11 11 6 20 3 28 -10 10 -16 9 -18 -5
-13 -11 4 -14 3 -9 -6 5 -7 14 -10 22 -7 19 7 71 -38 56 -48 -7 -4 -12 -3 -12
3 0 6 -9 15 -19 21 -29 15 -36 -5 -11 -30 l20 -20 -25 0 c-14 0 -25 -4 -25 -8
0 -10 57 -8 82 2 9 4 22 4 29 0 7 -4 10 -2 7 7 -3 8 -10 14 -16 14 -5 0 -14 3
-18 8 -4 4 -2 7 4 7 7 0 2 11 -10 25 -12 14 -29 25 -37 25 -14 0 -14 2 -1 10
10 6 21 3 37 -12 21 -20 28 -18 24 6 -1 5 7 6 18 3 12 -3 22 1 25 9 6 16 -29
20 -39 4 -9 -15 -25 -12 -25 5 0 8 9 15 20 15 21 0 27 15 10 25 -5 3 -10 11
-10 17 0 7 5 6 15 -2 12 -10 16 -9 21 4 6 16 -22 53 -33 42 -4 -3 2 -13 13
-21 22 -17 15 -19 -18 -6 -17 6 -29 5 -43 -6 -20 -14 -20 -15 0 -12 22 4 45
-7 45 -22 0 -5 -4 -9 -10 -9 -5 0 -10 8 -10 18 0 14 -2 14 -9 3 -8 -13 -12
-13 -26 -1 -16 13 -13 17 26 51 40 34 42 37 26 53 -9 10 -17 13 -17 7 0 -6 -4
-11 -10 -11 -5 0 -10 8 -10 18 0 13 -2 14 -9 3 -7 -11 -10 -11 -17 0 -4 7 -3
14 4 17 7 2 9 9 5 15 -4 6 0 8 9 4 9 -3 21 0 27 6 15 15 26 1 12 -17 -9 -11
-7 -15 9 -19 11 -3 20 -1 20 4 0 5 9 9 19 9 11 0 22 4 26 9 3 6 -7 6 -27 0
-18 -5 -34 -9 -35 -9 -1 0 0 7 3 15 3 8 9 14 12 13 4 0 16 0 27 2 20 1 20 1 0
9 -11 5 -30 7 -42 5 -14 -3 -23 1 -23 8 0 10 -2 10 -8 1 -5 -8 -12 -8 -26 3
-16 11 -17 16 -6 29 7 8 17 15 22 15 6 0 4 -8 -3 -17 -10 -12 -11 -15 -1 -9 7
4 19 2 27 -4 9 -8 15 -8 15 -2 0 5 9 8 20 5 11 -3 20 -10 20 -16 0 -5 9 -2 20
8 25 23 26 45 1 45 -11 0 -22 8 -25 18 -5 13 -17 19 -49 20 -37 1 -39 0 -19
-10z m66 -24 c8 -20 8 -19 -27 -28 -19 -4 -26 -3 -22 4 3 5 13 10 20 10 9 0
12 6 9 15 -4 8 -2 15 4 15 5 0 13 -7 16 -16z m36 -23 c0 -12 -20 -25 -27 -18
-7 7 6 27 18 27 5 0 9 -4 9 -9z m-255 -21 c3 -5 -3 -17 -14 -27 -15 -12 -18
-20 -9 -30 14 -18 29 -16 22 2 -8 19 3 19 23 0 12 -13 18 -13 31 -3 12 10 16
10 19 1 3 -7 11 -13 19 -13 7 0 16 -11 20 -25 3 -14 10 -23 14 -20 5 3 12 0
15 -6 4 -5 13 -8 21 -5 21 8 17 -8 -6 -22 -12 -7 -26 -10 -32 -6 -6 4 -8 3 -5
-3 9 -14 -19 -37 -33 -28 -5 3 -10 12 -10 19 0 8 -7 19 -15 26 -8 7 -15 17
-15 22 0 6 7 5 15 -2 11 -9 15 -9 15 -1 0 7 4 10 9 6 16 -9 20 9 5 23 -12 11
-14 10 -14 -4 0 -10 -5 -14 -15 -11 -8 4 -17 2 -21 -4 -4 -7 -13 -4 -24 6 -13
11 -23 13 -41 6 -13 -5 -28 -10 -34 -11 -5 -2 -20 -10 -33 -18 -27 -18 -33
-14 -25 16 3 15 18 26 45 34 25 7 37 16 34 24 -3 8 -1 16 4 19 15 10 12 25 -6
25 -8 0 -12 5 -9 10 8 13 42 13 50 0z m-172 -87 c2 -5 -2 -19 -9 -33 -8 -14
-14 -19 -14 -12 0 9 -7 11 -21 7 -15 -5 -19 -4 -15 4 5 7 -4 11 -26 11 -26 1
-30 3 -16 10 10 7 25 7 41 1 19 -8 27 -6 31 5 6 15 22 19 29 7z m115 -78 l-28
-24 26 -20 c15 -12 21 -21 13 -21 -7 0 -23 10 -35 21 -20 18 -21 24 -9 35 7 8
18 14 23 14 6 0 13 7 16 16 4 9 10 14 14 10 4 -4 -5 -18 -20 -31z m-153 15
c-4 -7 2 -9 18 -5 19 5 28 1 41 -20 13 -19 14 -26 4 -23 -7 3 -26 -4 -42 -15
-20 -14 -27 -16 -24 -6 3 8 -1 26 -8 40 -13 26 -10 39 8 39 5 0 6 -5 3 -10z
m232 -84 c-6 -8 -15 -12 -19 -9 -4 2 -2 10 5 17 6 8 15 12 19 9 4 -2 2 -10 -5
-17z m89 8 c-5 -14 -1 -16 26 -10 31 5 32 5 14 -9 -11 -8 -25 -15 -32 -15 -17
0 -37 27 -29 40 10 16 28 12 21 -6z m-326 -34 c0 -11 -4 -20 -9 -20 -5 0 -7 9
-4 20 3 11 7 20 9 20 2 0 4 -9 4 -20z m345 -70 c3 -5 1 -10 -4 -10 -6 0 -11 5
-11 10 0 6 2 10 4 10 3 0 8 -4 11 -10z"/>
<path d="M700 1765 c7 -9 15 -13 17 -11 7 7 -7 26 -19 26 -6 0 -6 -6 2 -15z"/>
<path d="M590 1760 c-9 -6 -10 -10 -3 -10 6 0 15 5 18 10 8 12 4 12 -15 0z"/>
<path d="M780 1730 c-8 -5 -12 -11 -9 -14 2 -3 11 -1 19 4 8 5 12 11 9 14 -2
3 -11 1 -19 -4z"/>
<path d="M815 1720 c3 -5 8 -10 11 -10 2 0 4 5 4 10 0 6 -5 10 -11 10 -5 0 -7
-4 -4 -10z"/>
<path d="M490 1675 c-11 -13 -10 -14 4 -9 9 3 16 10 16 15 0 13 -6 11 -20 -6z"/>
<path d="M1010 1930 c0 -5 -9 -10 -20 -10 -11 0 -20 -7 -20 -15 0 -18 17 -20
22 -3 2 6 18 11 36 11 28 0 29 2 14 13 -21 16 -32 17 -32 4z"/>
<path d="M1227 1914 c3 -8 16 -14 29 -14 31 0 22 25 -10 26 -17 1 -23 -2 -19
-12z"/>
<path d="M1317 1911 c16 -12 16 -13 1 -8 -23 8 -75 -18 -54 -26 9 -4 18 -2 21
3 4 6 17 10 31 10 14 0 23 -4 20 -9 -8 -12 135 -4 147 8 7 7 -8 10 -46 10 -32
-1 -57 -5 -57 -10 0 -6 -6 -4 -14 3 -13 11 -13 14 0 24 11 9 6 11 -26 10 -37
-1 -39 -2 -23 -15z"/>
<path d="M743 1873 c9 -2 23 -2 30 0 6 3 -1 5 -18 5 -16 0 -22 -2 -12 -5z"/>
<path d="M1094 1865 c-10 -8 -14 -15 -8 -15 6 0 17 7 24 15 16 19 9 19 -16 0z"/>
<path d="M1122 1849 c-7 -12 -12 -23 -10 -25 8 -7 48 28 43 37 -9 14 -19 11
-33 -12z"/>
<path d="M1458 1862 c-10 -2 -18 -8 -18 -13 0 -6 -7 -6 -17 0 -19 9 -44 8 -80
-4 -34 -11 -28 -21 20 -34 55 -15 109 -11 102 8 -3 7 0 20 6 28 14 16 10 21
-13 15z m-84 -27 c-6 -16 -24 -21 -24 -7 0 11 11 22 21 22 5 0 6 -7 3 -15z
m67 -12 c3 1 1 -2 -3 -7 -3 -5 -19 -5 -34 -2 -21 6 -24 10 -14 16 8 5 21 5 31
0 9 -5 18 -8 20 -7z"/>
<path d="M1060 1830 c0 -5 7 -10 16 -10 8 0 12 5 9 10 -3 6 -10 10 -16 10 -5
0 -9 -4 -9 -10z"/>
<path d="M1482 1818 c2 -16 -4 -26 -19 -33 -17 -7 -21 -15 -17 -30 8 -25 12
-30 20 -22 4 4 2 13 -4 20 -9 11 -7 16 11 24 15 7 29 8 38 2 19 -12 49 -11 49
1 0 6 -9 10 -20 10 -11 0 -20 5 -20 11 0 7 10 9 26 5 15 -4 23 -3 20 2 -10 17
-47 21 -53 6 -3 -8 -9 -12 -14 -9 -4 3 -6 12 -2 20 3 8 0 15 -7 15 -6 0 -10
-10 -8 -22z"/>
<path d="M1020 1810 c-13 -8 -12 -10 3 -10 11 0 15 -5 11 -11 -4 -7 -1 -10 6
-7 8 2 16 10 18 18 3 7 0 10 -6 6 -6 -3 -12 -2 -14 4 -2 6 -8 6 -18 0z"/>
<path d="M1100 1800 c0 -7 -6 -10 -14 -7 -8 3 -17 -1 -20 -9 -6 -16 15 -19 31
-3 8 8 15 4 27 -12 10 -15 19 -20 25 -14 5 6 -3 19 -20 33 -16 13 -29 18 -29
12z"/>
<path d="M1007 1750 c-13 -18 -15 -18 -38 -3 l-24 16 23 -24 22 -23 27 27 c15
15 22 27 16 27 -7 0 -18 -9 -26 -20z"/>
<path d="M1495 1758 c11 -6 35 -24 53 -41 17 -17 32 -26 32 -21 0 16 -70 74
-88 74 -14 -1 -13 -3 3 -12z"/>
<path d="M1219 1703 c-12 -15 -12 -16 4 -10 10 4 23 7 28 7 5 0 9 5 9 10 0 16
-26 12 -41 -7z"/>
<path d="M917 1698 c12 -20 11 -31 -5 -50 -10 -12 -11 -18 -4 -18 7 0 25 -19
42 -42 16 -22 30 -35 30 -27 0 8 -13 27 -28 44 l-28 29 25 22 25 21 -22 7
c-12 4 -22 12 -22 17 0 5 -5 9 -11 9 -6 0 -7 -5 -2 -12z"/>
<path d="M1000 1654 c8 -10 15 -20 16 -22 1 -2 5 1 8 7 4 5 -4 15 -16 22 -22
12 -22 11 -8 -7z"/>
<path d="M1538 1663 c-20 -5 -25 -23 -7 -23 8 0 8 -4 0 -14 -7 -9 -8 -17 -3
-20 6 -3 12 1 16 9 3 8 15 15 26 15 11 0 20 5 20 11 0 6 -9 8 -20 4 -15 -5
-18 -3 -14 9 3 9 5 15 3 15 -2 -1 -12 -3 -21 -6z"/>
<path d="M350 1645 c-19 -23 -9 -25 25 -4 26 17 27 19 9 19 -12 0 -27 -7 -34
-15z"/>
<path d="M954 1638 c-8 -12 36 -59 47 -52 5 3 9 12 9 20 0 11 -6 14 -22 9 -19
-6 -21 -5 -10 6 6 7 12 16 12 19 0 10 -30 8 -36 -2z"/>
<path d="M1430 1629 c0 -5 -5 -7 -10 -4 -6 4 -1 -14 12 -39 21 -45 21 -46 2
-67 -19 -22 -19 -22 3 -8 12 7 24 22 27 33 4 16 8 17 20 7 9 -7 23 -11 31 -7
9 3 13 2 10 -4 -10 -16 11 -12 25 5 14 16 10 18 -42 17 -19 0 -25 4 -21 14 3
10 13 12 32 7 23 -6 25 -5 12 10 -19 23 -28 21 -56 -10 -13 -16 -25 -23 -25
-17 0 6 9 21 20 34 11 13 20 28 19 34 0 6 -7 1 -16 -11 -8 -13 -23 -23 -31
-23 -12 0 -13 3 -4 12 15 15 16 28 2 28 -5 0 -10 -5 -10 -11z"/>
<path d="M1037 1623 c-4 -3 -7 -14 -7 -24 0 -10 -8 -23 -17 -28 -10 -6 -14
-11 -9 -11 5 0 2 -7 -5 -16 -11 -14 -10 -18 6 -31 18 -12 20 -12 23 2 3 11 11
15 23 12 23 -6 23 -4 4 33 -14 27 -14 30 0 30 8 0 15 -8 15 -18 0 -11 8 -26
18 -35 21 -20 32 -22 32 -6 0 5 -4 7 -10 4 -5 -3 -10 1 -10 9 0 17 16 30 23
19 2 -5 2 -2 1 5 -2 6 1 12 6 12 19 0 10 18 -11 23 -15 4 -19 2 -15 -9 6 -16
-9 -19 -19 -4 -3 6 -15 10 -27 10 -17 0 -18 2 -8 15 12 14 0 22 -13 8z m7 -68
c3 -9 0 -15 -8 -15 -7 0 -13 7 -13 15 0 8 4 15 8 15 4 0 9 -7 13 -15z"/>
<path d="M1595 1619 c-4 -6 -4 -13 0 -17 3 -3 10 0 14 7 5 8 17 11 30 6 12 -4
21 -2 21 4 0 14 -57 14 -65 0z"/>
<path d="M1670 1613 c0 -4 -12 -13 -26 -20 -21 -10 -25 -9 -21 1 4 11 0 11
-19 2 -28 -13 -29 -19 -8 -40 24 -24 40 -19 18 5 -19 22 -19 22 3 8 12 -7 21
-20 22 -28 0 -22 5 -44 14 -58 9 -15 -2 -17 -21 -4 -7 4 -12 13 -10 20 5 20
-26 35 -55 27 -30 -7 -37 -26 -9 -26 13 0 14 -2 3 -9 -7 -5 -10 -14 -6 -20 5
-9 11 -7 21 6 8 11 13 13 14 6 0 -7 7 -13 15 -13 8 0 30 -8 50 -17 31 -15 37
-15 45 -3 5 8 7 17 4 21 -6 11 21 18 36 9 7 -4 14 -17 15 -27 0 -10 4 -23 8
-30 5 -8 1 -8 -17 0 -14 7 -20 15 -14 18 6 4 7 13 3 20 -12 18 -27 -28 -19
-54 6 -20 6 -20 -21 1 -15 12 -36 22 -46 22 -11 0 -19 5 -19 10 0 6 -8 10 -17
10 -17 -1 -17 -1 0 -11 9 -6 15 -15 11 -20 -3 -6 2 -10 12 -9 30 3 44 1 44 -8
0 -4 -16 -8 -35 -8 -19 0 -35 4 -35 8 0 4 -15 7 -32 7 -28 -2 -29 -2 -8 -6 14
-3 30 -9 37 -15 6 -5 35 -8 65 -7 55 3 99 -6 95 -20 -4 -13 62 -81 69 -70 6
10 -22 38 -39 39 -5 0 -5 9 -2 20 4 13 2 20 -7 20 -20 0 -54 27 -46 35 4 4 21
0 37 -8 26 -13 31 -13 31 -2 0 8 -8 19 -19 24 -10 6 -21 21 -25 34 -3 13 -16
36 -30 52 -21 25 -23 30 -10 43 13 13 17 12 34 -3 11 -10 23 -15 28 -11 4 4
-2 14 -13 22 -11 8 -28 21 -38 30 -17 14 -18 14 -12 -5 4 -12 2 -21 -4 -21 -6
0 -12 7 -12 15 -1 8 -2 21 -3 27 -1 14 -36 24 -36 11z m19 -33 c5 0 7 -11 6
-25 -2 -15 3 -29 13 -34 14 -8 14 -10 0 -25 -9 -8 -18 -21 -21 -28 -6 -17 -16
-7 -20 20 -2 12 -6 25 -10 28 -12 13 -7 24 10 24 14 0 13 3 -5 16 -24 16 -20
39 5 30 8 -3 18 -6 22 -6z m-84 -70 c3 -5 2 -10 -4 -10 -5 0 -13 5 -16 10 -3
6 -2 10 4 10 5 0 13 -4 16 -10z"/>
<path d="M1674 1511 c0 -11 5 -17 14 -14 14 6 12 25 -4 30 -5 2 -10 -5 -10
-16z"/>
<path d="M519 1593 c-12 -15 -12 -16 4 -10 10 4 23 7 28 7 5 0 9 5 9 10 0 16
-26 12 -41 -7z"/>
<path d="M1240 1600 c0 -5 5 -10 10 -10 6 0 10 5 10 10 0 6 -4 10 -10 10 -5 0
-10 -4 -10 -10z"/>
<path d="M1550 1589 c0 -11 5 -17 10 -14 6 3 10 13 10 21 0 8 -4 14 -10 14 -5
0 -10 -9 -10 -21z"/>
<path d="M282 1591 c-13 -3 -23 -10 -22 -16 1 -5 -4 -11 -11 -14 -6 -2 -9 1
-5 7 11 18 -11 23 -27 7 -9 -8 -20 -15 -26 -15 -5 0 -13 -5 -16 -11 -8 -13 79
-2 109 13 12 7 22 6 29 -1 13 -13 31 -15 23 -2 -3 4 7 6 21 3 l27 -5 -22 23
c-17 18 -24 21 -36 11 -8 -6 -16 -8 -18 -3 -1 4 -13 6 -26 3z"/>
<path d="M370 1590 c0 -5 7 -10 16 -10 8 0 12 5 9 10 -3 6 -10 10 -16 10 -5 0
-9 -4 -9 -10z"/>
<path d="M415 1580 c4 -14 2 -20 -9 -20 -10 0 -13 -6 -9 -16 4 -12 0 -14 -18
-10 -74 15 -91 14 -135 -5 -52 -22 -54 -38 -3 -20 29 10 35 9 56 -11 12 -12
21 -23 18 -26 -2 -3 0 -13 6 -23 7 -15 6 -19 -6 -19 -8 0 -24 -9 -35 -20 -24
-24 -31 -25 -24 -5 4 8 1 15 -4 15 -13 0 -54 -51 -47 -58 3 -3 11 3 19 13 12
17 16 17 30 5 15 -12 18 -10 23 9 4 16 8 19 14 10 6 -10 14 -6 34 15 17 18 29
25 34 18 4 -7 13 -5 26 5 19 15 19 15 -4 8 -20 -6 -23 -4 -18 9 4 10 1 16 -9
16 -9 0 -12 -5 -8 -11 4 -7 1 -10 -7 -7 -8 3 -13 12 -11 22 2 9 -2 16 -8 16
-18 0 0 21 28 31 17 7 27 6 32 -1 8 -13 36 -4 38 13 1 7 3 24 6 40 2 15 0 27
-6 27 -5 0 -6 -9 -3 -20z m-95 -60 c0 -5 -4 -10 -9 -10 -6 0 -13 5 -16 10 -3
6 1 10 9 10 9 0 16 -4 16 -10z"/>
<path d="M710 1590 c0 -5 5 -10 11 -10 5 0 7 5 4 10 -3 6 -8 10 -11 10 -2 0
-4 -4 -4 -10z"/>
<path d="M645 1581 c3 -5 -5 -17 -17 -25 -12 -9 -19 -18 -16 -21 8 -8 -36 -55
-51 -55 -6 0 -11 -4 -11 -10 0 -5 4 -10 9 -10 14 0 81 73 81 87 0 6 5 15 12
19 8 5 9 2 5 -9 -8 -20 2 -21 25 -3 20 14 14 28 -8 19 -8 -3 -14 0 -14 6 0 6
-5 11 -11 11 -5 0 -8 -4 -4 -9z"/>
<path d="M903 1570 c-21 -18 -21 -21 -6 -51 13 -26 13 -33 2 -40 -9 -6 -1 -7
21 -3 19 4 39 11 45 15 16 16 28 10 14 -7 -12 -15 -11 -16 9 -10 14 5 22 3 22
-4 0 -6 5 -8 11 -5 6 4 -3 17 -22 31 -35 26 -43 29 -34 15 3 -5 1 -12 -5 -16
-5 -3 -10 -1 -10 5 0 7 -8 9 -21 5 -13 -5 -19 -3 -15 3 3 5 -1 15 -9 22 -13
10 -12 14 2 28 12 13 17 14 21 4 2 -7 13 -17 25 -24 20 -10 21 -10 8 5 -7 10
-10 17 -6 17 4 0 2 7 -5 15 -16 20 -22 19 -47 -5z"/>
<path d="M536 1572 c-3 -5 2 -13 12 -17 15 -7 14 -9 -8 -16 -22 -8 -20 -8 8
-4 31 4 45 -9 20 -18 -7 -2 -10 -8 -6 -12 4 -4 15 -2 23 5 10 8 12 17 6 23 -5
5 -7 16 -4 23 4 10 0 12 -12 8 -9 -4 -20 -1 -25 6 -5 7 -10 8 -14 2z"/>
<path d="M727 1549 c7 -7 15 -10 18 -7 3 3 -2 9 -12 12 -14 6 -15 5 -6 -5z"/>
<path d="M430 1530 c0 -5 5 -10 10 -10 6 0 10 5 10 10 0 6 -4 10 -10 10 -5 0
-10 -4 -10 -10z"/>
<path d="M695 1526 c11 -9 16 -16 11 -16 -5 0 -3 -7 4 -15 7 -8 16 -13 20 -10
4 3 13 -2 20 -10 10 -13 9 -15 -9 -15 -11 0 -21 5 -21 10 0 6 -6 10 -14 10 -8
0 -18 9 -21 20 -7 21 -25 28 -25 10 0 -5 -7 -10 -15 -10 -8 0 -22 -12 -31 -26
-15 -22 -15 -27 -3 -35 8 -5 19 -7 26 -5 6 3 19 -2 30 -9 10 -8 22 -15 26 -15
14 0 -11 35 -25 36 -7 0 -21 2 -30 2 -10 1 -18 7 -18 13 0 7 10 9 28 4 26 -6
26 -6 7 10 -19 15 -19 16 -1 13 10 -2 28 -20 39 -42 16 -31 22 -35 29 -22 5 9
17 16 27 16 33 0 33 30 1 48 -16 9 -29 23 -27 31 1 8 -9 15 -23 18 -24 3 -24
3 -5 -11z"/>
<path d="M750 1525 c-11 -13 -10 -14 4 -9 9 3 16 10 16 15 0 13 -6 11 -20 -6z"/>
<path d="M927 1529 c7 -7 15 -10 18 -7 3 3 -2 9 -12 12 -14 6 -15 5 -6 -5z"/>
<path d="M1136 1515 c-3 -8 -1 -15 4 -15 13 0 22 18 11 24 -5 3 -11 -1 -15 -9z"/>
<path d="M1305 1520 c-3 -5 -2 -10 4 -10 5 0 13 5 16 10 3 6 2 10 -4 10 -5 0
-13 -4 -16 -10z"/>
<path d="M1044 1499 c0 -10 7 -14 17 -12 26 7 30 28 5 28 -13 0 -22 -6 -22
-16z"/>
<path d="M230 1472 c-14 -9 -27 -19 -30 -22 -3 -3 -22 -18 -42 -33 -21 -15
-38 -33 -38 -39 0 -7 5 -6 15 2 8 6 19 9 25 5 5 -3 13 1 16 9 3 9 16 16 29 16
19 0 22 4 17 22 -4 17 -2 20 11 15 10 -4 24 -10 32 -13 8 -3 15 -1 15 5 0 6
-7 11 -15 11 -8 0 -15 5 -15 10 0 6 12 10 26 10 14 0 23 4 19 10 -9 15 -36 11
-65 -8z"/>
<path d="M846 1472 c-3 -6 3 -12 15 -15 12 -3 19 -1 16 6 -5 15 -24 20 -31 9z"/>
<path d="M1181 1453 c-12 -13 -11 -14 8 -8 13 4 21 2 21 -5 0 -6 -12 -10 -27
-8 -16 2 -27 8 -26 15 2 8 -4 10 -14 6 -10 -4 -12 -8 -6 -10 7 -3 9 -11 6 -19
-4 -10 0 -12 13 -7 14 5 16 3 10 -12 -7 -18 -6 -18 13 -1 11 10 24 15 29 12
15 -9 20 28 6 42 -16 15 -16 15 -33 -5z"/>
<path d="M520 1450 c0 -15 21 -23 32 -12 6 6 2 11 -11 15 -12 3 -21 1 -21 -3z"/>
<path d="M570 1450 c0 -5 5 -10 11 -10 5 0 7 5 4 10 -3 6 -8 10 -11 10 -2 0
-4 -4 -4 -10z"/>
<path d="M485 1440 c-4 -6 -10 -8 -15 -5 -5 3 -11 1 -15 -5 -3 -6 1 -13 9 -16
9 -3 16 -10 16 -16 0 -5 -5 -6 -12 -2 -7 4 -8 3 -4 -4 5 -8 2 -10 -8 -6 -9 3
-13 10 -10 15 3 5 -2 6 -12 2 -13 -5 -15 -2 -9 15 3 12 2 22 -3 22 -5 0 -12
-9 -15 -21 -3 -11 -15 -23 -26 -26 -12 -3 -21 -9 -21 -14 0 -5 -7 -9 -15 -9
-27 0 -16 18 15 25 16 4 32 11 36 16 9 14 -45 -1 -83 -24 -39 -23 -41 -27 -8
-21 19 3 23 1 19 -11 -4 -10 -14 -13 -30 -9 -25 6 -34 -10 -11 -19 6 -3 2 -6
-9 -6 -22 -1 -56 -31 -36 -31 16 0 66 23 75 35 5 5 5 0 2 -12 -5 -18 -3 -22 8
-17 17 6 30 44 16 44 -5 0 -9 5 -9 12 0 6 3 9 6 6 3 -4 22 5 41 18 20 13 39
21 42 18 3 -4 0 -9 -6 -11 -7 -3 -23 -14 -35 -25 -13 -11 -17 -17 -10 -13 16
8 15 0 -3 -36 -13 -23 -21 -28 -41 -25 -17 3 -24 1 -21 -7 3 -7 10 -11 16 -9
7 1 10 -2 6 -8 -3 -5 -2 -10 4 -10 5 0 23 17 38 38 15 20 34 43 41 50 17 19
15 27 -3 12 -9 -7 -15 -8 -15 -2 0 5 11 17 24 25 20 14 25 14 29 2 3 -7 -1
-19 -9 -25 -8 -7 -14 -19 -14 -27 0 -12 2 -12 15 1 8 8 15 17 15 20 0 3 8 14
18 24 19 19 58 23 80 8 18 -11 29 1 14 16 -16 16 -15 33 1 20 8 -7 19 -6 37 3
18 10 20 14 8 15 -9 0 -20 -5 -23 -10 -5 -8 -11 -8 -19 0 -10 7 -20 5 -38 -9
-19 -15 -28 -17 -36 -9 -17 17 -15 31 3 24 8 -3 15 -1 15 4 0 14 -18 21 -25
10z"/>
<path d="M1270 1440 c0 -5 -8 -7 -17 -4 -14 5 -15 4 -4 -4 8 -6 20 -8 28 -5 7
3 13 0 13 -5 0 -12 26 -22 73 -28 32 -4 102 -67 92 -84 -6 -9 25 -23 34 -15 3
3 1 9 -4 13 -18 12 -16 32 2 25 12 -5 15 -2 10 10 -3 9 -3 17 1 18 4 0 27 2
50 5 30 4 42 2 37 -5 -3 -6 -2 -11 4 -11 8 0 27 20 19 20 -2 0 -24 7 -50 14
-43 14 -46 13 -41 -2 6 -15 5 -15 -10 -3 -13 10 -17 11 -17 1 0 -9 -7 -7 -20
5 -11 10 -20 13 -20 7 0 -17 -20 -15 -42 5 -10 9 -32 16 -50 15 -39 -1 -55 7
-37 20 10 6 7 7 -8 3 -14 -4 -23 -2 -23 4 0 6 -4 11 -10 11 -5 0 -10 -4 -10
-10z m201 -77 c12 -15 12 -16 -3 -10 -11 4 -18 2 -18 -5 0 -6 -2 -9 -5 -6 -5
5 4 38 10 38 1 0 9 -8 16 -17z"/>
<path d="M1570 1429 c0 -5 5 -7 10 -4 6 3 10 8 10 11 0 2 -4 4 -10 4 -5 0 -10
-5 -10 -11z"/>
<path d="M1445 1420 c3 -5 8 -10 11 -10 2 0 4 5 4 10 0 6 -5 10 -11 10 -5 0
-7 -4 -4 -10z"/>
<path d="M630 1410 c0 -6 -6 -10 -12 -9 -27 3 -36 -2 -41 -21 -3 -11 -12 -20
-21 -20 -9 0 -16 -8 -16 -19 0 -27 19 -75 27 -67 3 3 21 -5 39 -19 33 -25 33
-25 44 -5 9 16 7 24 -6 38 -16 16 -17 15 -12 -10 4 -19 1 -25 -9 -21 -7 3 -13
9 -13 14 0 5 -7 9 -16 9 -8 0 -12 5 -9 10 4 6 11 7 17 4 6 -4 8 -2 5 3 -4 6 3
13 16 17 32 8 37 8 37 -8 0 -7 12 -22 28 -32 23 -15 25 -15 13 -1 -8 10 -9 17
-3 17 6 0 13 -4 17 -10 3 -5 12 -7 20 -3 8 3 15 0 15 -6 0 -6 7 -11 16 -11 8
0 13 -4 9 -9 -3 -5 -1 -12 5 -16 23 -15 8 26 -17 42 -25 17 -38 21 -75 25 -10
1 -18 8 -18 14 0 7 9 10 23 7 20 -4 21 -3 5 10 -22 17 -23 28 -3 21 8 -4 15
-4 15 -1 0 16 -33 14 -50 -3 -11 -11 -30 -22 -43 -24 -12 -3 -24 -5 -27 -6 -3
-2 -8 -2 -12 -1 -4 0 -5 -6 -2 -14 4 -8 2 -15 -4 -15 -29 0 -18 53 17 84 22
20 22 20 15 0 -7 -17 -6 -18 12 -4 33 26 45 50 24 50 -5 0 -10 -5 -10 -10z"/>
<path d="M757 1391 c-3 -16 -12 -35 -19 -42 -7 -8 -14 -22 -16 -31 -2 -15 1
-16 24 -8 22 9 25 8 20 -5 -3 -9 -2 -13 4 -10 6 3 13 0 16 -8 4 -12 11 -13 34
-4 28 11 28 12 13 30 -16 17 -16 17 1 11 14 -5 17 -3 14 7 -7 21 -34 23 -42 3
-3 -9 -1 -23 5 -30 9 -11 8 -14 -6 -14 -10 0 -15 3 -12 7 4 3 0 18 -9 31 -15
23 -15 25 0 19 9 -4 16 -2 16 4 0 6 -9 13 -19 16 -16 4 -18 9 -11 29 5 13 6
24 1 24 -5 0 -11 -13 -14 -29z m-6 -54 c-10 -9 -11 -8 -5 6 3 10 9 15 12 12 3
-3 0 -11 -7 -18z"/>
<path d="M1235 1410 c3 -5 14 -10 23 -10 15 0 15 2 2 10 -20 13 -33 13 -25 0z"/>
<path d="M660 1396 c0 -12 10 -16 40 -16 22 0 40 5 40 11 0 6 -12 9 -28 8 -15
-2 -33 0 -40 4 -7 5 -12 3 -12 -7z"/>
<path d="M1820 1389 c-7 -13 -7 -19 0 -19 5 0 19 -9 29 -19 31 -31 80 -54 66
-31 -8 13 1 13 26 0 22 -12 26 2 4 20 -8 6 -23 9 -35 5 -13 -4 -29 0 -44 12
-21 17 -22 21 -8 29 14 9 13 11 -6 16 -16 4 -25 1 -32 -13z"/>
<path d="M1108 1388 c11 -14 6 -17 -33 -22 -25 -4 -45 -11 -45 -17 0 -11 -2
-11 38 1 28 7 33 7 28 -5 -3 -9 0 -15 8 -15 8 0 17 11 20 25 6 24 8 24 22 10
13 -13 19 -13 32 -3 12 10 14 10 8 1 -4 -8 -2 -13 4 -13 24 0 4 33 -20 35 -14
1 -36 5 -50 10 -22 7 -23 6 -12 -7z"/>
<path d="M1209 1386 c5 -6 12 -22 16 -36 13 -42 38 -68 60 -60 15 5 16 8 4 16
-8 5 -18 9 -23 9 -5 0 -11 6 -13 13 -3 6 0 12 5 12 6 0 18 3 28 7 14 5 16 3
11 -11 -4 -9 -3 -15 2 -11 5 3 12 -1 14 -7 4 -9 6 -8 6 2 1 28 -17 44 -68 61
-30 9 -47 12 -42 5z m61 -22 c0 -8 -19 -13 -24 -6 -3 5 1 9 9 9 8 0 15 -2 15
-3z"/>
<path d="M501 1340 c8 -22 8 -23 -5 -7 -17 22 -26 22 -26 -2 0 -11 -6 -22 -12
-24 -10 -4 -10 -6 0 -6 7 -1 -1 -14 -17 -30 -16 -16 -27 -32 -23 -36 6 -6 -16
-25 -29 -25 -14 0 -19 34 -7 42 10 6 8 8 -4 8 -10 0 -18 -4 -18 -9 0 -5 -10
-11 -22 -15 -16 -4 -19 -9 -11 -14 8 -5 9 -13 3 -22 -8 -12 -10 -12 -16 3 -3
9 -4 23 -1 30 3 7 -4 19 -14 26 -11 6 -17 17 -13 23 4 7 3 8 -5 4 -7 -4 -9
-16 -5 -28 6 -19 4 -19 -27 3 -19 13 -36 27 -39 31 -8 10 -90 -8 -103 -22 -10
-10 -8 -11 8 -5 28 11 99 15 89 5 -5 -5 -22 -10 -39 -12 -16 -2 -28 -7 -25
-13 3 -5 7 -9 10 -8 3 1 13 5 23 8 12 5 17 2 17 -10 0 -12 6 -15 23 -10 19 5
20 4 4 -5 -9 -6 -22 -8 -27 -5 -6 3 -10 0 -9 -7 1 -18 17 -56 18 -42 1 5 7 19
15 29 14 19 15 19 35 1 20 -19 30 -53 12 -42 -5 4 -11 0 -14 -6 -3 -10 -8 -9
-22 2 -17 14 -18 13 -12 -2 3 -10 2 -20 -4 -23 -5 -4 -12 1 -15 9 -8 22 -23
20 -17 -2 5 -21 -31 -59 -42 -43 -3 6 -15 11 -25 11 -10 0 -21 4 -24 9 -4 5 3
7 13 4 21 -5 67 32 50 42 -5 4 -18 -4 -29 -17 -18 -22 -19 -22 -20 -3 -1 19
-2 18 -23 -5 -15 -17 -30 -24 -47 -22 -21 3 -22 2 -11 -11 9 -12 19 -14 36 -7
15 6 27 6 30 0 4 -6 17 -10 31 -10 16 0 24 -6 24 -17 1 -16 2 -16 13 -3 7 8
24 21 40 27 15 7 27 17 27 22 0 5 7 11 14 14 10 4 13 1 9 -9 -4 -10 0 -12 11
-8 9 3 16 12 16 20 0 8 5 14 11 14 5 0 7 4 4 10 -3 5 0 7 8 4 8 -3 13 -16 11
-30 -3 -31 2 -30 21 4 9 15 14 19 11 9 -3 -10 -6 -25 -6 -32 0 -8 -9 -17 -20
-20 -11 -3 -20 -11 -20 -16 0 -6 4 -7 10 -4 6 3 10 0 10 -8 0 -7 13 -23 30
-35 46 -35 13 -70 -37 -39 -7 4 -23 1 -36 -8 -22 -14 -25 -14 -41 4 -10 11
-23 18 -29 17 -7 -2 -9 -1 -4 1 12 8 8 23 -8 23 -12 0 -35 -28 -35 -44 0 -3
14 -3 32 1 35 7 61 -16 51 -45 -4 -10 5 -6 22 11 21 21 31 25 41 16 8 -6 14
-19 14 -29 0 -9 9 -25 20 -35 17 -15 20 -16 20 -3 0 9 -7 18 -15 22 -8 3 -15
14 -15 24 0 22 30 23 55 2 13 -11 21 -11 36 -2 11 7 19 8 19 2 0 -5 7 -7 16
-3 15 5 15 7 -1 16 -11 6 -21 5 -28 -2 -14 -14 -30 -14 -22 -1 4 6 1 9 -6 8
-6 -2 -14 3 -16 10 -3 6 1 12 7 12 9 0 9 4 2 13 -14 17 1 40 27 42 11 1 18 -2
15 -7 -3 -4 -1 -8 4 -8 6 0 12 7 16 15 4 10 -1 15 -16 15 -16 0 -19 3 -11 11
14 14 66 0 59 -17 -3 -7 -1 -16 4 -19 5 -3 11 4 15 14 5 16 14 19 41 17 18 -1
34 -1 34 1 0 2 -12 15 -27 28 -16 13 -24 27 -19 32 5 4 11 2 13 -4 6 -18 23
-16 23 2 0 8 2 15 4 15 2 0 19 7 39 15 34 14 35 14 35 -12 0 -14 6 -29 13 -34
25 -16 30 -9 9 13 -18 20 -19 23 -4 39 12 13 28 17 60 15 23 -2 49 1 56 5 9 6
8 9 -7 10 -72 4 -90 9 -101 24 -9 12 -19 15 -35 10 -14 -5 -19 -4 -15 4 4 7
-1 11 -13 11 -12 0 -20 5 -19 12 2 6 -6 14 -16 16 -17 4 -18 2 -5 -12 44 -48
47 -54 23 -52 -9 0 -19 -5 -21 -12 -4 -9 1 -10 21 -2 14 5 26 6 26 3 0 -4 5
-2 12 5 17 17 35 15 35 -3 0 -8 -2 -13 -5 -11 -2 3 -16 0 -30 -5 -36 -14 -142
-18 -149 -6 -4 6 -1 7 6 2 8 -4 18 1 27 14 17 24 39 28 30 6 -3 -8 -1 -15 4
-15 6 0 10 7 10 15 0 8 5 15 11 15 5 0 7 5 4 10 -4 6 -11 8 -16 5 -5 -4 -6 2
-2 11 5 13 2 16 -9 12 -19 -8 -38 10 -39 37 0 20 0 20 -8 0 -5 -11 -5 -21 0
-23 4 -2 5 -10 2 -18 -3 -9 0 -14 7 -12 7 2 15 -3 17 -9 6 -16 -19 -17 -34 -2
-15 15 -33 3 -33 -21 0 -21 -29 -31 -46 -15 -8 7 -5 12 9 20 11 5 22 19 23 30
2 11 12 27 23 37 12 9 21 25 21 36 0 13 6 19 18 18 10 0 16 6 16 17 -1 9 2 17
7 17 5 0 9 4 9 9 0 6 -9 9 -19 8 -16 -1 -17 -5 -10 -27z m-255 -97 c26 -31 23
-45 -4 -20 -10 10 -24 17 -30 17 -13 0 -16 13 -5 23 10 11 14 9 39 -20z m52
-25 c-6 -16 16 -38 36 -38 9 0 16 8 16 20 0 20 11 26 23 13 4 -3 -1 -15 -10
-26 -17 -18 -17 -19 2 -33 15 -11 16 -14 3 -14 -9 0 -18 7 -22 15 -3 8 -12 12
-21 9 -8 -4 -22 -1 -30 6 -17 14 -20 60 -4 60 6 0 9 -6 7 -12z m187 -28 c3 -5
1 -10 -4 -10 -6 0 -11 5 -11 10 0 6 2 10 4 10 3 0 8 -4 11 -10z m-100 -20 c3
-5 1 -10 -4 -10 -6 0 -11 5 -11 10 0 6 2 10 4 10 3 0 8 -4 11 -10z m25 -45 c0
-14 4 -25 10 -25 5 0 7 6 4 14 -3 8 3 19 13 24 19 10 79 9 90 -1 8 -9 -46 -29
-59 -21 -5 3 -12 -3 -15 -15 -3 -12 -6 -21 -7 -21 -1 0 -16 4 -34 9 -21 6 -32
6 -32 0 0 -21 -33 -3 -36 19 -3 16 1 22 15 22 11 0 23 5 26 10 11 18 25 10 25
-15z m110 -40 c7 -9 10 -18 6 -22 -3 -3 -6 -1 -6 6 0 6 -6 11 -12 10 -7 -1
-22 -1 -33 0 -17 1 -18 3 -5 11 21 14 36 12 50 -5z m-173 -22 c2 -6 -3 -13
-11 -16 -10 -4 -14 0 -13 14 1 20 18 21 24 2z m33 -23 c0 -5 -9 -10 -21 -10
-11 0 -17 5 -14 10 3 6 13 10 21 10 8 0 14 -4 14 -10z"/>
<path d="M1363 1358 c3 -10 2 -18 -3 -18 -6 0 -10 5 -10 10 0 6 -7 10 -15 10
-13 0 -14 -4 -4 -21 8 -15 8 -24 0 -32 -16 -16 -13 -31 3 -18 10 8 16 9 21 1
3 -5 1 -10 -5 -10 -6 0 -4 -13 6 -32 l16 -33 -32 33 c-18 17 -36 32 -41 32 -5
0 -20 -18 -34 -40 -14 -22 -29 -40 -34 -40 -5 0 -16 -3 -25 -6 -9 -3 -16 -2
-16 4 0 5 11 13 25 16 14 4 25 12 25 18 0 6 -3 8 -6 5 -4 -3 -16 0 -27 8 -13
9 -31 12 -46 8 -25 -6 -26 -5 -8 14 17 20 14 53 -5 53 -5 0 -6 5 -2 12 5 8 13
4 26 -11 10 -13 18 -19 18 -13 0 14 -29 42 -43 42 -19 0 -35 -44 -23 -62 10
-17 -7 -48 -27 -48 -5 0 -3 8 7 18 15 18 15 20 -8 45 -30 33 -60 37 -51 7 4
-11 2 -20 -4 -20 -6 0 -11 6 -11 13 0 7 -7 22 -16 33 -14 18 -15 18 -8 -6 6
-22 5 -23 -10 -11 -9 8 -15 20 -12 27 3 8 0 11 -10 7 -16 -6 -18 -19 -4 -28 5
-3 7 -12 3 -20 -3 -9 5 -23 18 -35 21 -17 22 -19 6 -20 -27 0 -10 -20 17 -20
13 0 29 -7 36 -15 7 -9 19 -14 27 -11 10 4 11 1 3 -14 -16 -30 -12 -34 8 -9
13 15 21 19 26 11 4 -7 2 -12 -3 -12 -20 0 -11 -18 12 -25 20 -7 19 -8 -11
-12 -37 -5 -64 11 -60 36 2 9 -3 15 -10 13 -20 -4 -72 37 -73 56 0 9 -21 34
-45 55 -48 39 -67 47 -58 22 4 -8 12 -15 18 -15 14 0 56 -42 56 -56 0 -5 -5
-2 -10 6 -9 13 -11 13 -19 0 -6 -8 -14 -11 -18 -6 -4 5 -2 11 5 13 20 8 14 20
-13 25 -28 6 -31 -1 -12 -21 10 -11 10 -13 0 -7 -7 4 -13 3 -13 -2 0 -15 26
-22 65 -17 25 4 35 1 35 -9 0 -19 110 -102 145 -109 17 -3 37 -1 45 4 13 8 12
11 -3 20 -30 18 -8 28 25 12 l31 -16 -22 -19 c-13 -10 -27 -15 -32 -12 -5 3
-9 -2 -9 -10 0 -9 6 -16 14 -16 7 0 26 -10 42 -22 23 -18 27 -19 21 -5 -4 10
-2 17 5 17 7 0 7 4 -1 14 -23 27 22 31 72 6 24 -11 30 -12 37 -1 4 8 14 10 21
7 8 -4 7 -1 -3 6 -12 10 -14 18 -6 32 5 9 7 21 3 24 -4 4 -11 -1 -16 -10 -7
-13 -13 -14 -34 -5 -31 15 -33 27 -3 22 12 -3 27 0 33 5 8 7 20 2 39 -15 28
-25 56 -33 56 -15 0 6 6 10 14 10 29 0 27 20 -3 26 -17 4 -31 11 -31 16 0 6
11 8 24 6 30 -6 67 19 47 31 -9 6 -12 18 -8 31 4 17 3 20 -6 11 -15 -15 -28
-14 -21 2 2 7 -4 22 -15 34 -11 12 -17 23 -13 26 4 2 2 2 -5 1 -7 -2 -20 5
-30 14 -16 16 -17 16 -10 0z m37 -41 c20 -16 24 -38 5 -31 -29 11 -14 -11 17
-27 17 -8 34 -22 36 -30 4 -11 2 -11 -8 -2 -10 9 -18 8 -36 -4 -27 -17 -34
-56 -9 -47 17 7 21 -11 5 -21 -6 -4 -20 5 -32 20 -18 23 -26 26 -52 20 -17 -4
-41 -8 -52 -8 -12 -1 -21 -6 -20 -13 2 -16 28 -46 34 -40 2 3 11 -2 19 -10 9
-8 12 -18 8 -22 -4 -4 -10 -1 -12 6 -3 6 -11 12 -19 12 -8 0 -17 7 -20 15 -4
8 -10 12 -15 9 -5 -3 -6 -10 -3 -16 4 -7 2 -8 -4 -4 -6 4 -21 2 -33 -5 -17 -9
-19 -13 -8 -20 7 -4 10 -11 7 -15 -4 -3 -14 1 -23 9 -14 14 -14 17 0 24 17 10
29 53 14 53 -5 0 -11 -1 -13 -2 -2 -2 -13 6 -25 16 -12 11 -21 16 -21 12 0 -4
-9 -2 -20 4 -11 6 -20 16 -20 22 0 6 3 8 7 5 3 -4 13 -1 21 6 13 10 14 8 7
-13 -7 -22 -6 -23 8 -10 39 35 46 40 52 30 9 -15 -5 -32 -21 -26 -25 10 -15
-13 13 -27 28 -15 41 -9 82 36 8 9 20 17 25 17 6 0 5 -5 -2 -12 -7 -7 -12 -19
-12 -27 0 -11 6 -9 21 8 19 20 23 21 43 8 17 -12 23 -12 34 -1 8 9 9 15 1 20
-7 4 -9 21 -6 40 3 19 2 32 -2 30 -4 -3 -8 1 -8 9 0 18 17 19 37 2z m-300 -38
c0 -4 -7 -15 -16 -23 -8 -9 -11 -16 -5 -16 6 0 11 -4 11 -10 0 -12 -27 -13
-34 -1 -9 14 4 40 22 43 14 3 14 5 -1 20 -24 24 -21 35 3 13 11 -10 20 -22 20
-26z m54 2 c-6 -6 -24 19 -24 34 1 6 7 1 15 -9 8 -11 12 -22 9 -25z m-144 8
c0 -4 -7 -6 -15 -3 -8 4 -15 10 -15 15 0 4 7 6 15 3 8 -4 15 -10 15 -15z m43
-23 c-19 -25 -33 -25 -33 0 0 8 4 13 9 9 5 -3 12 -1 16 5 3 5 11 10 16 10 5 0
2 -11 -8 -24z"/>
<path d="M1395 1244 c9 -9 18 -14 21 -11 9 9 -6 27 -22 27 -13 0 -13 -2 1 -16z"/>
<path d="M1220 1154 c0 -8 5 -12 10 -9 6 3 10 10 10 16 0 5 -4 9 -10 9 -5 0
-10 -7 -10 -16z"/>
<path d="M1629 1353 c14 -28 14 -40 -1 -25 -15 15 -48 16 -48 0 0 -6 3 -8 6
-5 4 3 16 1 28 -5 11 -7 27 -12 35 -13 15 0 29 -25 14 -25 -4 0 -20 7 -35 14
-20 11 -28 11 -28 3 0 -6 -7 -1 -16 11 -14 21 -42 33 -29 12 3 -5 -7 -8 -25
-5 -38 5 -42 -21 -5 -35 27 -10 33 -26 13 -33 -7 -2 -10 -7 -6 -11 3 -4 15 -3
26 3 17 9 24 6 41 -17 11 -15 21 -21 21 -14 0 6 6 12 14 12 8 0 17 6 19 13 3
7 6 5 6 -6 1 -23 -38 -38 -61 -24 -9 6 -15 14 -12 18 2 4 0 10 -6 14 -19 11
-10 -18 12 -42 17 -19 19 -26 9 -36 -10 -9 -11 -8 -6 6 8 18 -2 22 -24 8 -11
-7 -10 -11 5 -19 11 -5 25 -7 32 -5 6 3 12 -2 12 -11 0 -19 -21 -21 -39 -3
-11 10 -11 8 -1 -8 18 -29 81 -68 92 -57 5 5 -3 14 -21 22 -30 12 -45 35 -16
24 12 -5 12 -1 -1 26 -20 39 -5 65 23 38 14 -15 14 -19 3 -33 -12 -14 -12 -16
1 -15 36 5 60 0 53 -12 -5 -8 0 -7 11 2 17 14 18 13 12 -3 -4 -10 -7 -21 -7
-23 0 -3 -4 -2 -10 1 -5 3 -10 2 -10 -4 0 -17 -43 -52 -57 -47 -7 3 -17 -3
-22 -12 -9 -16 -11 -15 -25 3 -22 29 -19 41 4 20 11 -10 20 -13 20 -7 0 6 -12
19 -27 29 -16 10 -32 23 -36 30 -6 9 -12 8 -27 -7 -12 -12 -26 -17 -37 -13
-16 6 -16 5 -4 -10 7 -9 17 -15 21 -12 14 8 23 -16 12 -27 -8 -8 -19 -2 -37
21 -27 31 -45 33 -45 5 0 -11 6 -13 20 -9 14 5 20 2 20 -9 0 -9 4 -16 9 -16 5
0 13 -9 16 -20 4 -11 11 -17 17 -14 7 5 9 1 5 -9 -3 -10 -3 -17 2 -17 5 0 12
-12 16 -27 5 -21 8 -24 15 -13 5 9 5 19 -2 27 -7 8 -7 13 0 13 5 0 15 -7 22
-15 14 -17 30 -20 30 -6 0 5 -16 15 -34 22 -19 7 -33 16 -30 21 8 12 21 10 37
-7 13 -12 20 -12 56 2 22 9 38 20 35 25 -3 5 -12 4 -20 -3 -11 -9 -14 -8 -14
6 0 10 3 15 7 12 3 -4 12 -2 19 4 14 12 38 3 29 -11 -7 -11 37 -21 49 -11 6 5
25 11 42 14 26 5 31 3 30 -11 0 -10 12 -23 31 -32 34 -16 39 -37 7 -32 -15 3
-17 1 -7 -9 10 -10 17 -10 37 1 14 7 23 17 21 21 -3 4 5 9 17 11 23 3 23 4 -7
32 -17 17 -23 26 -12 23 9 -4 25 -10 35 -14 15 -6 15 -5 3 10 -7 9 -26 17 -40
17 -31 0 -70 24 -58 36 4 4 13 2 19 -4 18 -18 27 -14 21 8 -8 30 -31 44 -68
42 -20 -2 -37 4 -46 15 -8 9 -9 14 -2 10 6 -4 14 -3 17 2 11 17 -17 24 -29 7
-11 -15 -13 -15 -26 0 -12 15 -14 14 -19 -2 -6 -17 -10 -16 -33 10 -21 22 -24
32 -16 42 9 11 8 18 -1 28 -7 10 -8 21 -2 32 8 15 9 15 16 -1 3 -9 4 -21 1
-25 -8 -14 16 -23 27 -12 8 8 1 24 -25 55 -20 25 -34 47 -32 49 3 3 -5 13 -16
24 -22 19 -22 19 -10 -3z m-59 -58 c6 3 10 1 10 -5 0 -7 8 -9 19 -5 10 3 24
-1 31 -10 7 -8 16 -12 21 -9 14 8 10 -3 -7 -20 -14 -14 -17 -14 -39 0 -13 9
-28 13 -34 10 -5 -4 -12 3 -16 14 -3 11 -13 20 -21 20 -8 0 -14 5 -14 10 0 7
7 7 20 0 11 -6 25 -8 30 -5z m215 -181 c13 -9 33 -13 44 -9 10 3 22 1 26 -5 3
-5 0 -11 -7 -11 -7 -1 -19 -2 -27 -3 -8 0 -16 -7 -19 -15 -3 -8 0 -11 6 -7 6
4 36 -13 66 -36 31 -24 51 -45 45 -47 -6 -2 -23 8 -37 21 -49 44 -61 51 -74
41 -18 -13 -50 -10 -55 5 -3 7 1 10 10 6 10 -3 16 3 19 20 5 24 -2 31 -24 27
-5 0 -8 6 -8 14 0 19 5 19 35 -1z m-211 -40 c4 -9 4 -19 1 -22 -3 -3 -5 0 -5
6 0 7 -3 11 -7 11 -17 -3 -24 2 -18 11 9 15 22 12 29 -6z m196 6 c0 -5 -4 -10
-10 -10 -5 0 -10 5 -10 10 0 6 5 10 10 10 6 0 10 -4 10 -10z m-30 -10 c0 -5
-4 -10 -9 -10 -6 0 -13 5 -16 10 -3 6 1 10 9 10 9 0 16 -4 16 -10z m-5 -26 c9
-9 14 -18 11 -21 -6 -6 -46 20 -46 29 0 13 18 9 35 -8z m-160 -14 c4 -6 11 -8
16 -5 5 4 9 1 9 -4 0 -6 10 -11 23 -12 21 0 21 -1 2 -8 -11 -5 -23 -4 -26 1
-3 5 -9 9 -13 9 -28 -4 -46 1 -46 14 0 17 25 20 35 5z m293 -30 c7 -11 10 -20
6 -20 -7 0 -34 27 -34 34 0 13 16 5 28 -14z"/>
<path d="M1600 1276 c0 -2 7 -9 15 -16 9 -7 15 -8 15 -2 0 5 -7 12 -15 16 -8
3 -15 4 -15 2z"/>
<path d="M1655 1360 c3 -5 8 -10 11 -10 2 0 4 5 4 10 0 6 -5 10 -11 10 -5 0
-7 -4 -4 -10z"/>
<path d="M1689 1351 l-24 -20 32 1 c28 1 31 3 20 16 -10 13 -9 15 6 9 11 -4
16 -3 12 3 -9 15 -20 12 -46 -9z"/>
<path d="M240 1350 c0 -5 5 -10 10 -10 6 0 10 5 10 10 0 6 -4 10 -10 10 -5 0
-10 -4 -10 -10z"/>
<path d="M585 1351 c-3 -2 -5 -8 -5 -12 0 -8 38 0 44 10 5 7 -32 9 -39 2z"/>
<path d="M1545 1350 c-3 -5 1 -10 9 -10 9 0 16 5 16 10 0 6 -4 10 -9 10 -6 0
-13 -4 -16 -10z"/>
<path d="M1515 1340 c-3 -5 -1 -10 4 -10 6 0 11 5 11 10 0 6 -2 10 -4 10 -3 0
-8 -4 -11 -10z"/>
<path d="M1822 1338 c3 -7 21 -22 41 -33 20 -11 37 -24 37 -28 0 -15 37 -57
44 -50 3 4 -1 15 -11 25 -20 23 -10 23 24 1 21 -14 25 -14 21 -3 -2 8 -18 21
-34 29 -74 36 -90 45 -97 58 -10 17 -30 17 -25 1z"/>
<path d="M210 1330 c-20 -12 -9 -21 18 -13 12 3 19 9 16 14 -7 11 -15 11 -34
-1z"/>
<path d="M1747 1334 c-3 -3 5 -16 19 -29 19 -18 21 -24 10 -28 -8 -3 -22 4
-31 16 -9 12 -13 16 -10 10 8 -16 -7 -17 -23 -1 -23 23 -21 1 2 -31 14 -18 22
-39 19 -47 -3 -8 1 -14 9 -14 20 0 19 32 -1 47 -10 8 -11 12 -4 13 6 0 15 -5
18 -10 4 -6 12 -4 22 5 18 19 31 12 15 -8 -7 -8 -8 -18 -4 -22 4 -5 1 -5 -6
-1 -11 6 -12 -6 -3 -42 1 -2 13 10 27 25 l26 28 -7 -39 c-6 -27 -4 -37 3 -32
6 4 9 13 5 21 -3 8 -1 15 5 15 5 0 13 -7 16 -16 4 -9 9 -14 13 -10 3 3 15 -1
25 -11 17 -16 18 -15 12 18 -4 19 -11 39 -16 45 -4 6 -5 20 -2 30 6 16 5 17
-7 7 -19 -18 -34 -16 -19 2 15 18 -1 20 -18 3 -9 -9 -5 -17 13 -34 25 -23 33
-44 16 -44 -5 0 -16 11 -25 25 -10 15 -22 22 -31 19 -8 -4 -15 -2 -15 4 0 6 4
12 10 14 5 2 -5 20 -23 40 -19 21 -36 35 -40 32z"/>
<path d="M935 1320 c-4 -7 -2 -16 6 -21 18 -11 23 -4 11 17 -7 12 -11 13 -17
4z"/>
<path d="M392 1298 c-17 -17 -15 -25 8 -31 14 -3 24 1 31 15 8 16 8 19 -1 13
-7 -4 -15 -3 -19 4 -5 8 -10 8 -19 -1z"/>
<path d="M1196 1291 c-15 -16 -13 -19 19 -34 43 -20 54 -7 21 26 -23 23 -26
24 -40 8z"/>
<path d="M520 1276 c0 -28 14 -35 23 -12 3 8 -1 20 -9 26 -12 10 -14 8 -14
-14z"/>
<path d="M812 1268 c-7 -7 -12 -20 -12 -30 0 -11 -7 -18 -20 -18 -11 0 -20 5
-20 11 0 8 -5 7 -15 -1 -20 -17 -32 -5 -15 15 7 8 8 15 2 15 -12 0 -24 -29
-16 -41 3 -5 3 -9 -1 -9 -3 0 -10 12 -15 26 -9 22 -13 24 -25 14 -9 -7 -13
-15 -10 -19 3 -3 10 1 15 9 8 12 10 11 10 -6 0 -12 7 -27 15 -34 11 -9 15 -9
15 -1 0 8 6 9 18 2 11 -6 24 -6 36 1 14 8 17 8 11 -2 -5 -8 -1 -11 11 -8 11 2
18 11 16 21 -3 20 2 21 29 7 29 -16 25 -44 -6 -36 -14 4 -25 2 -25 -4 0 -5 5
-10 10 -10 6 0 10 -5 10 -11 0 -5 -5 -7 -11 -3 -8 4 -8 0 0 -15 14 -26 19 -27
17 -3 0 11 6 17 18 17 13 0 20 -8 21 -22 1 -15 -3 -19 -13 -15 -10 3 -13 1 -8
-6 4 -7 2 -12 -5 -12 -7 0 -10 -3 -7 -6 11 -11 48 17 48 36 0 10 5 22 10 25
18 11 10 26 -10 20 -18 -6 -20 -3 -14 20 6 22 2 27 -25 38 -17 6 -31 15 -31
19 0 4 8 4 18 1 15 -6 15 -5 3 10 -16 20 -14 20 -29 5z"/>
<path d="M1480 1273 c0 -5 5 -15 10 -23 9 -13 11 -13 19 0 7 10 6 17 -2 22
-15 10 -27 10 -27 1z"/>
<path d="M460 1240 c0 -5 5 -10 11 -10 5 0 7 5 4 10 -3 6 -8 10 -11 10 -2 0
-4 -4 -4 -10z"/>
<path d="M153 1211 c-9 -15 -9 -23 2 -37 12 -17 13 -15 12 19 0 20 -1 37 -2
37 0 0 -6 -9 -12 -19z"/>
<path d="M930 1222 c0 -5 14 -21 30 -37 17 -16 29 -34 28 -39 -4 -27 14 -42
47 -41 40 2 61 15 24 15 -14 0 -31 6 -38 13 -11 10 -13 10 -7 0 8 -15 -10 -18
-18 -4 -10 15 25 22 43 9 11 -9 11 -6 -2 9 -12 13 -25 19 -35 16 -10 -4 -14
-3 -11 1 4 4 -7 20 -23 36 -31 31 -38 35 -38 22z"/>
<path d="M1490 1214 c0 -8 4 -12 10 -9 6 3 7 -1 4 -9 -7 -18 -24 -22 -24 -6 0
6 -7 10 -16 10 -14 0 -14 -3 -4 -15 7 -8 19 -15 26 -15 8 0 14 -4 14 -10 0
-18 15 -10 26 15 10 20 9 27 -5 40 -22 19 -31 19 -31 -1z"/>
<path d="M110 1213 c-39 -15 -78 -54 -73 -73 6 -24 25 -27 21 -4 -2 12 6 18
27 21 30 4 53 18 44 27 -3 3 -17 -1 -32 -9 -15 -8 -27 -10 -27 -6 0 5 14 14
30 21 17 7 30 16 30 21 0 5 -1 9 -2 8 -2 0 -10 -3 -18 -6z"/>
<path d="M900 1209 c0 -8 12 -25 28 -39 15 -14 23 -22 16 -17 -14 9 -46 -2
-39 -14 3 -4 13 -5 22 -2 11 4 14 3 9 -5 -4 -7 -2 -10 6 -7 7 3 19 -4 26 -16
15 -24 8 -39 -10 -21 -17 17 -33 15 -18 -3 14 -17 0 -21 -17 -4 -14 14 -56 8
-59 -9 -1 -7 0 -8 3 -2 8 16 27 12 53 -12 16 -15 25 -18 28 -10 2 7 8 12 13
12 6 0 7 -6 1 -17 -7 -11 -5 -21 4 -31 9 -8 12 -23 9 -36 -6 -20 -6 -21 9 -2
14 18 14 21 0 37 -10 11 -13 25 -9 39 l7 21 19 -22 c20 -23 17 -24 81 9 3 2 9
-6 13 -18 3 -11 10 -18 15 -15 4 3 10 -2 14 -10 3 -8 17 -15 30 -15 18 0 24 4
20 14 -3 8 -1 17 5 21 16 9 13 22 -5 29 -8 3 -12 2 -9 -4 12 -19 -7 -10 -26
13 -15 17 -20 19 -28 8 -5 -8 -16 -11 -29 -7 -15 5 -25 1 -34 -13 -18 -29 -29
-26 -18 4 7 18 6 25 -3 26 -6 1 -19 2 -27 3 -8 0 -20 15 -25 31 -12 34 -75
104 -75 84z m228 -154 c-2 -5 -8 -10 -15 -11 -6 -1 -9 4 -6 12 6 16 27 15 21
-1z m32 -23 c0 -13 -12 -22 -22 -16 -10 6 -1 24 13 24 5 0 9 -4 9 -8z"/>
<path d="M223 1177 c4 -14 26 -16 30 -3 1 5 -6 10 -16 12 -10 1 -16 -3 -14 -9z"/>
<path d="M1530 1166 c0 -8 7 -16 15 -20 13 -4 14 -2 5 14 -13 23 -20 26 -20 6z"/>
<path d="M753 1147 c-37 -12 -49 -33 -32 -53 9 -11 8 -19 -7 -36 l-19 -21 32
18 c35 20 48 41 33 50 -6 4 -10 1 -10 -5 0 -6 -4 -8 -10 -5 -17 10 -11 23 14
29 13 3 26 13 30 21 3 8 4 14 3 14 -1 -1 -16 -7 -34 -12z"/>
<path d="M1450 1150 c-7 -4 -15 -17 -16 -27 -3 -14 4 -19 26 -21 26 -2 30 1
30 24 l0 27 -20 -23 c-11 -13 -20 -19 -20 -14 0 6 5 15 12 22 15 15 7 24 -12
12z"/>
<path d="M690 1140 c0 -5 -7 -7 -15 -4 -20 8 -19 -10 1 -27 13 -10 17 -10 25
2 12 19 11 39 -1 39 -5 0 -10 -4 -10 -10z"/>
<path d="M790 1124 c0 -9 -5 -12 -12 -8 -7 4 -8 3 -4 -5 6 -9 11 -9 22 0 16
13 18 29 4 29 -5 0 -10 -7 -10 -16z"/>
<path d="M1360 1130 c0 -5 5 -10 11 -10 5 0 7 -5 3 -12 -4 -6 -3 -8 4 -4 6 3
20 -6 31 -20 30 -38 26 -55 -4 -19 -20 24 -27 27 -37 17 -11 -11 -10 -12 5 -7
10 5 17 2 17 -5 0 -9 -13 -11 -45 -8 -49 6 -60 1 -44 -19 14 -16 33 -18 23 -2
-3 6 8 3 26 -6 17 -9 34 -14 38 -11 3 3 -1 6 -8 6 -11 0 -11 3 -2 12 9 9 15 9
24 0 10 -10 7 -18 -15 -38 -24 -22 -30 -35 -26 -60 0 -4 -5 -11 -13 -15 -8 -5
-9 -9 -2 -9 7 0 19 12 29 26 9 15 12 23 6 20 -6 -4 -11 -2 -11 4 0 7 9 14 20
17 11 3 17 9 15 14 -7 10 30 31 39 22 12 -12 6 -22 -9 -17 -9 4 -15 0 -15 -8
0 -10 9 -13 30 -10 20 3 37 -2 50 -13 28 -25 25 -8 -6 32 -15 20 -32 32 -40
29 -10 -4 -14 3 -14 23 0 16 -7 31 -15 35 -9 3 -12 12 -9 23 4 13 3 14 -3 5
-8 -10 -12 -10 -23 3 -14 17 -30 20 -30 5z m120 -121 c0 -6 -4 -7 -10 -4 -5 3
-10 11 -10 16 0 6 5 7 10 4 6 -3 10 -11 10 -16z"/>
<path d="M1507 1120 c-3 -12 0 -20 7 -20 6 0 12 9 12 20 0 11 -3 20 -7 20 -4
0 -9 -9 -12 -20z"/>
<path d="M141 1114 c0 -11 3 -14 6 -6 3 7 2 16 -1 19 -3 4 -6 -2 -5 -13z"/>
<path d="M594 1105 c10 -8 23 -12 29 -8 11 7 -12 23 -33 23 -12 -1 -11 -4 4
-15z"/>
<path d="M900 1110 c0 -5 5 -10 11 -10 5 0 7 5 4 10 -3 6 -8 10 -11 10 -2 0
-4 -4 -4 -10z"/>
<path d="M1090 1105 c-10 -12 -10 -15 3 -15 19 0 31 16 18 24 -5 3 -14 -1 -21
-9z"/>
<path d="M1663 1105 c5 -16 37 -18 37 -3 0 8 -9 14 -20 14 -11 0 -19 -5 -17
-11z"/>
<path d="M265 1100 c-4 -6 -12 -10 -18 -9 -28 3 -38 -2 -35 -18 2 -12 -3 -17
-14 -15 -10 2 -18 -1 -18 -6 0 -15 -37 -21 -51 -8 -9 8 -10 7 -5 -8 9 -26 -3
-59 -20 -52 -8 3 -19 -4 -25 -16 -7 -12 -21 -30 -33 -39 -12 -10 -18 -20 -14
-24 7 -8 52 33 61 56 4 11 7 12 15 1 7 -10 13 -4 26 22 9 20 25 40 36 46 20
11 50 4 50 -12 0 -21 29 -39 47 -29 10 5 26 12 36 15 28 9 1 44 -29 38 -25 -4
-34 12 -11 21 7 4 6 6 -4 6 -22 1 -32 -24 -15 -38 6 -6 23 -7 37 -4 13 3 22 4
19 2 -3 -2 -15 -12 -26 -22 -21 -17 -22 -17 -38 8 -22 33 -13 65 19 65 26 0
41 15 26 24 -5 4 -13 2 -16 -4z"/>
<path d="M800 1095 c-11 -13 -10 -14 2 -10 21 8 29 -17 18 -54 -9 -34 0 -40
24 -15 20 19 20 28 1 44 -8 7 -15 21 -15 31 0 23 -13 24 -30 4z m45 -55 c3 -5
1 -10 -4 -10 -6 0 -11 5 -11 10 0 6 2 10 4 10 3 0 8 -4 11 -10z"/>
<path d="M1265 1081 c4 -12 2 -21 -4 -21 -6 0 -11 8 -11 17 0 13 -3 14 -12 5
-8 -8 -5 -20 13 -47 23 -34 39 -40 46 -19 2 6 -7 16 -19 22 -13 6 -17 11 -10
11 15 1 16 37 1 47 -8 4 -9 0 -4 -15z"/>
<path d="M590 1080 c0 -5 0 -12 0 -15 0 -3 -5 -12 -12 -19 -9 -10 -15 -11 -20
-3 -4 6 -10 8 -14 5 -3 -4 0 -13 7 -20 12 -11 20 -8 49 21 19 18 29 30 23 27
-7 -4 -13 -2 -13 3 0 6 -4 11 -10 11 -5 0 -10 -4 -10 -10z"/>
<path d="M665 1062 c-17 -16 -36 -27 -43 -24 -6 2 -12 -1 -12 -7 0 -6 4 -11 8
-11 5 0 18 -13 30 -30 19 -25 20 -29 5 -24 -14 5 -15 4 -4 -4 7 -5 10 -15 6
-22 -4 -6 1 -17 11 -25 17 -12 20 -11 31 8 7 13 12 16 13 8 0 -8 -7 -23 -16
-33 -14 -14 -14 -20 -4 -33 7 -8 10 -21 7 -28 -4 -10 3 -14 21 -13 22 1 28 6
30 29 4 33 14 34 35 5 9 -13 16 -18 16 -12 1 18 -40 65 -50 58 -5 -3 -7 -10
-4 -15 4 -5 -1 -12 -10 -15 -9 -4 -14 -13 -11 -20 3 -8 0 -14 -5 -14 -6 0 -9
9 -6 20 3 11 0 20 -5 20 -6 0 -5 6 2 15 7 8 18 15 26 15 7 0 25 11 38 25 21
21 29 24 46 15 23 -12 40 -6 40 15 0 8 6 12 14 9 11 -4 12 -12 7 -27 -6 -15
-4 -26 5 -35 23 -22 15 -36 -8 -16 -23 19 -23 19 -5 -2 26 -31 20 -38 -13 -14
-16 12 -35 18 -41 14 -7 -4 -6 2 2 17 12 23 11 23 -6 9 -17 -14 -18 -13 -12 4
6 16 5 17 -8 6 -9 -7 -12 -16 -8 -19 4 -3 8 -13 8 -21 0 -8 13 -17 31 -20 44
-10 52 -17 59 -54 10 -53 -29 -246 -59 -295 -14 -22 -30 -41 -35 -41 -4 0 -23
-15 -42 -32 -43 -42 -85 -70 -129 -88 -19 -7 -39 -17 -45 -21 -5 -4 -32 -10
-60 -14 -27 -4 -61 -9 -75 -12 -14 -3 -40 -6 -57 -6 -55 -1 -39 -25 20 -30
109 -9 1256 -6 1262 3 3 6 -2 10 -13 10 -10 0 -22 3 -26 7 -3 4 -12 8 -19 10
-7 1 -30 7 -52 12 -22 5 -62 12 -89 15 -52 5 -217 81 -266 123 -43 36 -99 135
-112 197 -11 49 -10 57 7 76 20 22 65 30 47 7 -7 -8 -7 -18 -2 -27 8 -13 10
-12 10 3 0 9 4 17 10 17 5 0 13 12 16 26 6 22 8 24 16 10 5 -9 13 -14 19 -11
11 7 12 26 2 24 -21 -3 -22 3 -6 28 18 26 17 27 -2 19 -11 -5 -32 -13 -46 -19
-29 -11 -83 -2 -74 13 3 6 28 10 55 10 27 0 51 4 54 9 3 5 15 7 26 4 15 -4 19
-11 15 -27 -5 -17 -4 -18 5 -6 9 11 13 12 17 3 6 -17 28 -16 42 1 8 10 9 16 1
21 -5 3 -10 -1 -10 -10 0 -9 -4 -14 -10 -10 -15 9 1 37 17 30 11 -4 13 -1 9
11 -3 8 -6 20 -6 26 0 6 -6 6 -15 -2 -8 -7 -13 -15 -11 -19 3 -4 1 -13 -4 -21
-7 -11 -11 -12 -25 0 -13 10 -13 15 -3 21 10 7 10 12 1 28 -10 16 -9 20 5 26
15 6 14 8 -5 16 -28 10 -21 39 8 32 11 -3 22 -9 24 -14 3 -4 12 -6 21 -2 11 4
12 9 3 19 -8 10 -6 13 10 11 12 -1 21 -8 21 -16 0 -11 3 -12 11 -4 7 7 9 19 6
27 -5 14 -11 14 -54 1 -26 -8 -48 -15 -49 -15 0 0 1 13 4 29 6 42 -41 68 -52
28 -7 -27 1 -35 17 -17 10 10 9 11 -2 5 -9 -5 -12 -4 -7 3 12 20 37 2 30 -22
-11 -37 -54 -57 -54 -24 0 6 8 7 18 3 12 -4 14 -3 6 5 -16 16 -46 2 -35 -17
10 -19 2 -54 -15 -68 -10 -8 -10 -13 1 -23 12 -10 16 -6 21 27 9 54 30 61 43
14 10 -34 4 -64 -6 -35 -7 19 -23 14 -23 -7 0 -17 -6 -20 -40 -18 -47 2 -49 9
-15 43 29 29 31 34 9 34 -8 0 -20 -13 -25 -30 -6 -16 -15 -30 -21 -30 -6 0 -7
7 -4 16 3 9 6 22 6 29 0 16 29 47 39 41 4 -3 7 4 7 15 0 10 -1 19 -1 19 -9 0
-73 -69 -68 -72 5 -3 2 -3 -6 -1 -8 2 -18 -2 -22 -9 -4 -7 -11 -9 -15 -5 -4 4
3 19 17 34 13 14 17 23 9 18 -31 -17 -48 -37 -43 -51 6 -18 -28 -19 -45 -2 -9
9 -12 8 -12 -4 0 -18 39 -31 54 -19 6 5 27 11 46 15 19 3 29 3 23 0 -10 -4
-10 -11 -2 -25 8 -15 5 -26 -13 -51 -12 -18 -24 -37 -25 -43 -10 -44 -42 -119
-49 -117 -5 2 -10 -2 -13 -10 -2 -7 0 -10 4 -6 12 11 45 -32 45 -59 0 -12 -4
-23 -10 -23 -5 0 -10 14 -10 30 0 17 -4 30 -8 30 -5 0 -8 -16 -8 -35 1 -27 5
-35 19 -35 23 0 37 39 24 68 -6 12 -13 22 -17 22 -8 0 16 100 26 109 4 3 3 -5
0 -19 -7 -24 -6 -24 8 -6 18 22 21 40 6 31 -5 -3 -10 -1 -10 4 0 6 5 11 10 11
6 0 10 7 10 15 0 9 6 12 15 9 8 -4 15 -12 15 -19 0 -7 -7 -18 -15 -25 -8 -7
-15 -20 -15 -30 0 -10 -7 -21 -16 -24 -13 -5 -14 -9 -4 -22 10 -11 10 -18 2
-26 -8 -8 -8 -17 -1 -30 6 -10 8 -26 5 -36 -3 -9 1 -28 9 -42 13 -23 14 -23
15 -4 0 30 24 26 43 -8 18 -32 13 -37 -11 -10 -10 10 -13 12 -8 5 5 -7 5 -13
0 -13 -5 0 -1 -5 9 -11 9 -5 22 -7 29 -3 8 5 9 2 5 -9 -4 -11 -1 -17 7 -17 18
0 46 -33 46 -53 0 -18 -34 -57 -49 -57 -5 0 -11 -7 -15 -15 -12 -32 -76 -39
-76 -8 0 8 5 11 11 7 6 -3 15 -1 19 5 6 11 27 18 58 20 17 1 15 21 -3 21 -8 0
-15 -5 -15 -11 0 -5 -5 -7 -10 -4 -6 4 -17 2 -25 -5 -10 -9 -19 -8 -38 4 -26
17 -39 13 -30 -10 4 -12 8 -12 21 -2 13 11 14 10 10 -2 -2 -8 -15 -16 -27 -18
-12 -2 -20 -9 -18 -15 2 -7 11 -11 19 -9 21 3 43 -24 27 -34 -8 -4 -9 -3 -5 4
5 8 -4 12 -28 12 -19 0 -38 -4 -41 -10 -3 -5 -11 -10 -17 -10 -6 0 -1 12 13
26 22 23 23 26 6 35 -22 13 -22 39 1 39 12 1 8 5 -11 16 -27 15 -53 11 -32 -4
6 -4 11 -18 13 -32 3 -24 2 -24 -12 -5 -9 11 -16 25 -16 32 0 7 -10 18 -22 24
-13 7 -28 19 -34 27 -10 14 -16 13 -50 -3 -22 -11 -43 -18 -47 -17 -4 1 -18
-3 -30 -9 -21 -11 -21 -10 3 15 13 15 26 22 28 17 2 -6 8 -9 12 -6 5 3 6 13 3
22 -5 13 -2 15 16 10 17 -4 21 -2 17 9 -3 8 -2 12 4 9 5 -3 14 5 21 17 12 22
11 22 -6 8 -17 -14 -18 -14 -5 9 12 24 13 24 26 6 14 -18 14 -18 15 1 0 12 7
5 19 -21 10 -22 19 -33 19 -25 0 8 -8 31 -19 50 -11 19 -19 29 -20 22 0 -7 -4
-10 -10 -7 -6 4 -5 13 2 25 7 10 15 17 19 14 9 -5 17 27 25 108 5 51 3 72 -7
84 -12 15 -12 17 1 12 8 -2 17 -15 20 -29 4 -15 9 -19 13 -12 4 6 4 18 1 27
-3 9 -2 16 4 16 20 0 20 -29 0 -55 -11 -14 -18 -29 -14 -32 3 -4 7 0 8 8 0 8
4 -8 9 -36 l7 -50 -2 53 c-1 57 10 71 17 20 3 -18 4 -8 2 23 -1 31 -5 62 -10
69 -6 10 -4 12 8 7 10 -3 17 -2 17 3 0 14 -18 21 -25 10 -8 -13 -52 -13 -60 0
-6 9 8 14 28 11 5 -1 6 3 3 8 -3 5 1 11 9 15 8 3 15 1 15 -5 0 -6 4 -8 10 -4
10 6 -24 45 -40 45 -22 0 -47 94 -28 106 5 3 17 -1 27 -10 23 -21 31 -20 31 5
0 11 -4 17 -10 14 -5 -3 -10 3 -10 14 0 11 -10 27 -22 35 -32 23 -47 19 -19
-4 22 -19 22 -20 3 -20 -16 0 -19 -5 -15 -22 4 -22 4 -22 -10 -5 -14 17 -18
17 -44 4 -16 -8 -40 -26 -53 -39 -26 -26 -66 -46 -55 -28 3 6 1 10 -5 10 -6 0
-8 5 -5 10 11 18 -4 11 -25 -12 -15 -16 -20 -18 -20 -7 0 9 11 26 25 39 16 15
25 19 25 10 0 -9 4 -8 13 4 11 15 17 16 35 7 26 -14 34 -2 27 40 -9 50 -15 53
-46 23 -20 -19 -28 -35 -24 -48 3 -12 2 -15 -1 -7 -5 11 -11 8 -26 -10 l-19
-24 7 25 c4 14 12 28 18 32 16 11 -6 10 -23 -1 -7 -5 -10 -14 -7 -20 4 -6 0
-11 -8 -11 -9 0 -16 9 -16 21 0 11 4 18 9 15 11 -7 33 18 24 27 -3 4 2 9 11
13 16 6 23 24 9 24 -5 0 -22 -13 -38 -28z m115 -17 c7 -9 8 -15 2 -15 -5 0
-12 7 -16 15 -3 8 -4 15 -2 15 2 0 9 -7 16 -15z m-20 -21 c0 -8 -4 -12 -10 -9
-5 3 -10 10 -10 16 0 5 5 9 10 9 6 0 10 -7 10 -16z m79 -55 c-12 -7 -12 -9 0
-9 8 0 12 -3 8 -6 -10 -10 -26 6 -21 21 4 8 11 12 16 9 6 -4 5 -10 -3 -15z
m101 -115 c0 -3 -4 -3 -9 0 -5 3 -12 -1 -15 -10 -8 -22 -25 -8 -19 16 4 16 9
18 24 9 10 -5 19 -12 19 -15z m236 -69 c-30 -26 -41 -31 -32 -16 4 5 3 11 -1
14 -5 2 -3 2 4 1 6 -2 17 4 23 12 7 8 18 14 24 14 6 0 -2 -11 -18 -25z m-286
-172 c-10 -15 -11 -14 -6 7 3 14 7 43 8 65 2 39 2 39 5 -7 2 -26 -1 -56 -7
-65z m190 2 c0 -13 5 -27 10 -30 15 -9 12 -24 -5 -21 -18 3 -32 16 -16 16 8 0
7 8 -3 29 -9 16 -13 31 -9 34 11 11 23 -4 23 -28z m-207 -189 c4 -10 1 -13 -7
-10 -8 3 -17 1 -20 -5 -4 -6 -13 -8 -21 -4 -22 8 -18 -5 5 -17 16 -8 25 -7 42
4 17 12 23 13 34 1 8 -7 14 -18 14 -23 0 -21 26 -58 38 -54 6 2 12 -1 12 -7 0
-12 -16 -13 -45 -2 -13 5 -26 2 -39 -11 -11 -10 -22 -15 -25 -12 -3 4 0 9 7
11 6 3 12 9 12 14 0 5 -13 3 -30 -6 -33 -17 -60 -20 -60 -5 0 11 2 11 38 15
34 3 46 19 28 35 -13 10 -17 9 -22 -4 -8 -22 -25 -20 -18 2 2 9 -1 7 -7 -6 -8
-15 -18 -21 -31 -16 -11 3 -20 0 -24 -11 -4 -10 -13 -13 -25 -10 -11 4 -19 2
-19 -4 0 -6 -13 -11 -30 -11 -42 0 -41 32 2 48 27 10 34 9 41 -3 10 -19 23
-19 30 -1 4 10 1 13 -8 9 -9 -3 -18 2 -21 12 -5 12 -14 15 -30 11 -13 -4 -24
-2 -24 3 0 14 31 22 45 11 8 -7 17 -4 30 10 10 11 23 19 29 18 19 -2 66 14 66
23 0 15 27 10 33 -5z m353 -31 c-7 -29 1 -32 21 -7 10 12 16 14 19 4 3 -6 10
-10 14 -7 5 3 5 -8 -1 -24 -9 -26 -13 -29 -35 -21 -13 5 -30 7 -39 4 -12 -5
-12 -9 3 -29 9 -12 23 -20 30 -17 11 4 11 6 0 14 -10 8 -9 9 4 4 11 -3 25 4
37 20 13 16 25 23 33 18 8 -5 8 -1 -2 11 -14 17 -14 18 8 6 12 -7 20 -16 17
-20 -2 -5 1 -8 8 -8 25 3 166 -37 161 -45 -7 -11 -41 -10 -46 0 -5 13 -68 23
-68 12 0 -6 5 -10 10 -10 6 0 10 -4 10 -9 0 -4 -11 -6 -25 -3 -26 4 -34 27
-13 34 7 3 6 7 -5 11 -11 4 -17 1 -17 -9 0 -8 -4 -12 -10 -9 -6 3 -7 -1 -4 -9
3 -9 3 -16 -1 -16 -11 0 -34 27 -28 34 4 3 1 6 -5 6 -6 0 -14 -4 -17 -10 -3
-5 -1 -10 4 -10 17 0 13 -17 -5 -24 -8 -3 -12 -2 -9 4 3 6 1 10 -4 10 -6 0
-11 -4 -11 -10 0 -5 -11 -10 -25 -10 -14 0 -25 4 -25 9 0 4 -12 6 -27 3 -16
-3 -24 -1 -20 4 5 5 13 9 18 9 17 0 14 20 -3 23 -10 2 -18 -1 -18 -7 0 -6 -5
-11 -10 -11 -21 0 10 40 35 46 14 3 25 11 24 18 -3 27 2 46 12 46 7 0 9 -10 5
-25z m-586 -81 c0 -19 -5 -24 -22 -23 -19 1 -19 2 -5 6 18 5 18 5 0 26 -10 11
-12 17 -5 13 6 -4 12 -2 12 4 0 6 5 8 10 5 6 -3 10 -17 10 -31z m-56 -11 c-13
-14 -17 -14 -25 -2 -6 10 -9 10 -9 2 0 -9 -17 -13 -52 -12 l-53 2 45 7 c64 12
79 15 86 23 4 3 11 4 15 1 5 -3 2 -12 -7 -21z m549 -5 c3 -9 -5 -13 -23 -13
-22 0 -26 3 -18 13 6 6 16 12 23 12 7 0 15 -6 18 -12z m477 -15 c3 -3 -6 -3
-20 0 -14 4 -35 7 -47 7 -13 0 -23 4 -23 9 0 9 80 -5 90 -16z m-165 7 c3 -5 1
-10 -4 -10 -6 0 -11 5 -11 10 0 6 2 10 4 10 3 0 8 -4 11 -10z"/>
<path d="M776 389 c4 -6 0 -16 -7 -21 -11 -8 -10 -9 3 -5 9 3 19 1 21 -6 3 -7
4 -2 4 10 -1 12 -7 25 -15 28 -8 3 -10 0 -6 -6z"/>
<path d="M888 333 c7 -3 16 -2 19 1 4 3 -2 6 -13 5 -11 0 -14 -3 -6 -6z"/>
<path d="M670 310 c0 -5 4 -10 9 -10 6 0 13 5 16 10 3 6 -1 10 -9 10 -9 0 -16
-4 -16 -10z"/>
<path d="M510 1029 c0 -24 22 -49 43 -49 12 0 29 -5 37 -11 12 -8 10 -9 -7 -4
-12 3 -24 1 -28 -5 -3 -6 -11 -8 -16 -5 -12 8 -11 -6 1 -25 5 -9 5 -19 -2 -27
-7 -8 -7 -13 0 -13 5 0 15 6 21 14 9 11 9 15 0 18 -8 3 -9 9 -4 18 6 10 11 6
22 -14 15 -28 29 -33 36 -13 2 6 8 9 12 5 4 -4 -2 -17 -14 -29 -23 -25 -27
-39 -10 -39 8 0 8 -5 -1 -15 -10 -12 -9 -16 4 -21 9 -3 16 -13 16 -22 0 -10 8
-6 24 13 33 39 38 63 16 77 -10 6 -16 18 -13 25 3 7 0 13 -7 13 -6 0 -8 5 -5
10 4 7 -2 9 -18 5 -15 -4 -28 -2 -32 6 -5 8 -4 10 3 5 7 -4 12 -2 12 4 0 7 6
10 14 7 26 -10 29 26 4 44 -29 22 -37 15 -13 -11 23 -25 19 -25 -38 0 -32 14
-44 25 -41 35 4 8 1 15 -5 15 -6 0 -11 -5 -11 -11z m134 -145 c24 -9 19 -22
-8 -20 -14 0 -22 6 -19 14 6 14 6 14 27 6z m-4 -49 c0 -8 -4 -15 -10 -15 -5 0
-10 7 -10 15 0 8 5 15 10 15 6 0 10 -7 10 -15z"/>
<path d="M980 1031 c0 -5 6 -11 13 -13 6 -3 12 -19 12 -36 0 -18 -6 -34 -12
-37 -7 -2 -13 -10 -12 -17 0 -10 2 -10 6 0 2 6 8 10 13 7 4 -2 15 4 25 15 10
11 24 20 30 20 15 0 29 30 19 39 -3 3 -13 -4 -21 -16 -16 -24 -33 -30 -33 -12
0 5 5 7 10 4 20 -13 9 12 -15 33 -28 24 -35 27 -35 13z"/>
<path d="M403 995 c0 -18 5 -25 20 -25 20 0 20 0 1 23 -10 12 -19 23 -20 25
-1 2 -1 -9 -1 -23z"/>
<path d="M450 995 c0 -23 2 -24 25 -13 14 6 25 16 25 21 0 5 -7 4 -15 -3 -12
-10 -15 -10 -15 4 0 9 -4 16 -10 16 -5 0 -10 -11 -10 -25z"/>
<path d="M1328 1013 c6 -2 18 -2 25 0 6 3 1 5 -13 5 -14 0 -19 -2 -12 -5z"/>
<path d="M330 996 c0 -9 5 -16 10 -16 6 0 10 4 10 9 0 6 -4 13 -10 16 -5 3
-10 -1 -10 -9z"/>
<path d="M1095 1000 c4 -6 1 -17 -5 -25 -15 -18 1 -20 18 -3 17 17 15 38 -4
38 -8 0 -12 -5 -9 -10z"/>
<path d="M1766 997 c-16 -12 -16 -14 -2 -26 14 -11 16 -11 16 3 0 9 7 16 15
16 8 0 15 5 15 10 0 14 -23 12 -44 -3z"/>
<path d="M1715 984 c9 -9 18 -14 21 -11 9 9 -6 27 -22 27 -13 0 -13 -2 1 -16z"/>
<path d="M741 971 c-7 -12 -7 -22 -2 -26 5 -3 13 4 16 16 9 28 -1 36 -14 10z"/>
<path d="M495 970 c-4 -6 -11 -8 -16 -5 -18 12 -8 -18 13 -36 24 -21 38 -24
38 -8 0 5 -4 8 -9 4 -5 -3 -12 -1 -16 5 -3 5 -1 10 5 10 6 0 8 5 5 10 -3 6 -1
10 4 10 6 0 11 5 11 10 0 13 -27 13 -35 0z"/>
<path d="M1470 967 c0 -10 3 -16 8 -15 10 3 52 -25 52 -35 0 -4 -5 -5 -12 -1
-7 4 -8 3 -4 -4 9 -15 5 -15 -28 -2 -22 8 -26 7 -26 -10 0 -10 8 -23 17 -29
10 -5 14 -13 10 -17 -10 -10 -46 30 -44 47 2 8 6 19 10 26 8 13 -1 43 -14 43
-5 0 -9 -7 -9 -16 0 -8 5 -12 10 -9 16 10 11 -8 -9 -32 -11 -13 -27 -23 -38
-22 -10 0 -13 3 -5 6 17 7 15 23 -3 23 -20 0 -19 -30 2 -45 16 -12 14 -12 -10
-8 -17 3 -27 1 -27 -7 0 -6 5 -10 12 -8 15 5 49 -22 42 -34 -3 -4 6 -3 20 3
20 10 23 15 15 26 -18 21 13 17 37 -5 11 -10 32 -22 46 -25 29 -8 58 -32 58
-49 0 -6 -8 -3 -19 6 -10 9 -31 19 -47 22 -22 3 -25 2 -14 -6 8 -5 11 -10 6
-10 -6 0 -5 -5 2 -12 7 -7 12 -19 12 -28 -1 -9 -11 -3 -30 20 -22 24 -30 29
-30 17 0 -9 5 -17 10 -17 6 0 10 -5 10 -11 0 -6 -7 -9 -15 -5 -8 3 -15 1 -15
-4 0 -17 21 -22 38 -9 12 10 11 7 -3 -9 -11 -13 -21 -19 -23 -13 -2 5 -10 7
-18 4 -8 -3 -14 1 -14 8 0 17 -13 2 -16 -19 -3 -20 18 -35 27 -20 6 9 11 8 22
-1 12 -9 16 -9 21 1 5 11 7 11 12 0 5 -10 9 -10 21 0 12 10 18 9 29 -7 13 -17
13 -21 -2 -32 -10 -7 -14 -16 -9 -20 4 -5 10 -3 12 4 2 7 11 9 20 6 13 -5 15
-2 11 15 -4 12 -2 20 3 16 5 -3 9 0 9 5 0 6 -7 11 -16 11 -11 0 -14 6 -9 23 5
17 4 19 -4 7 -9 -13 -11 -13 -11 3 0 9 5 17 11 17 5 0 7 5 4 10 -9 15 -25 2
-25 -21 0 -20 -24 -26 -35 -9 -3 6 -2 10 4 10 6 0 17 12 24 27 l14 27 27 -30
c62 -67 63 -68 44 -61 -21 8 -22 4 -4 -47 7 -21 16 -34 20 -28 3 6 3 17 0 26
-3 9 -1 16 5 16 6 0 8 8 5 18 -4 12 -3 14 4 4 5 -7 7 -25 5 -40 -3 -23 -2 -24
6 -7 9 19 9 19 19 -5 6 -14 11 -19 11 -11 1 25 -32 91 -46 91 -7 0 -13 7 -13
15 0 8 -6 25 -12 36 -10 17 -10 23 0 26 6 3 12 10 12 17 0 7 13 25 28 40 27
25 30 26 43 10 12 -16 12 -17 -5 -11 -13 5 -17 3 -13 -7 4 -10 1 -13 -9 -9 -7
3 -14 1 -14 -5 0 -24 32 -20 55 6 14 15 25 22 25 15 0 -6 -4 -14 -9 -17 -5 -3
-7 -15 -4 -26 3 -11 9 -17 14 -15 4 3 6 13 3 23 -3 9 2 6 11 -8 15 -23 15 -24
10 -2 -4 13 -2 22 4 22 6 0 11 -7 11 -15 0 -8 5 -15 10 -15 6 0 10 8 10 18 0
21 -29 52 -48 52 -7 0 -12 7 -12 15 0 13 4 14 21 5 11 -6 23 -18 26 -26 3 -8
9 -14 14 -14 17 0 9 27 -15 49 l-25 23 -35 -22 c-29 -17 -36 -19 -36 -7 0 24
-29 47 -58 46 l-27 -1 25 -8 c21 -7 21 -8 5 -9 -21 -1 -47 12 -46 23 3 18 -1
19 -10 2 -12 -20 1 -35 31 -37 8 0 26 -2 39 -2 13 -1 26 -8 29 -16 3 -10 0
-11 -14 -3 -15 8 -27 6 -53 -10 -31 -19 -34 -20 -43 -5 -5 10 -16 17 -23 17
-8 0 -15 4 -15 9 0 4 -11 6 -25 3 -14 -2 -25 0 -25 6 0 11 51 9 69 -2 5 -3 8
0 7 6 -3 20 -30 58 -40 58 -5 0 -18 7 -28 17 -17 15 -18 15 -18 0z m-44 -109
c-3 -22 -22 -29 -20 -8 3 25 5 30 14 30 5 0 8 -10 6 -22z m110 -12 c3 -8 14
-16 24 -19 11 -3 25 -18 31 -34 6 -15 15 -36 20 -45 14 -28 10 -33 -10 -12
-10 10 -16 25 -13 31 5 15 -54 73 -75 73 -8 0 -11 5 -8 10 9 14 25 12 31 -4z
m105 -6 c-13 -11 -31 -20 -40 -20 -10 0 -6 7 14 20 39 26 57 25 26 0z m-21
-40 c0 -5 -2 -10 -4 -10 -3 0 -8 5 -11 10 -3 6 -1 10 4 10 6 0 11 -4 11 -10z"/>
<path d="M1658 968 c-16 -5 -28 -14 -28 -20 0 -11 43 1 49 14 1 5 12 2 22 -8
21 -18 27 -6 7 14 -14 14 -14 14 -50 0z"/>
<path d="M1790 972 c0 -5 10 -14 23 -21 14 -7 15 -10 3 -6 -13 4 -17 1 -12
-10 7 -20 0 -19 -24 5 -20 20 -56 28 -45 10 4 -6 12 -7 18 -3 8 4 8 2 -1 -9
-10 -13 -10 -17 3 -22 9 -3 13 -2 10 4 -3 6 -1 10 4 10 6 0 11 -4 11 -9 0 -19
35 -16 46 4 8 15 7 24 -4 38 -16 18 -32 23 -32 9z"/>
<path d="M912 943 c3 -39 38 -74 38 -38 0 8 -4 15 -10 15 -5 0 -10 4 -10 9 0
5 9 7 20 4 12 -3 20 0 20 7 0 7 -7 10 -15 6 -8 -3 -21 2 -30 10 -13 14 -15 12
-13 -13z"/>
<path d="M1408 965 c-8 -8 2 -45 13 -45 10 0 10 8 0 33 -3 10 -9 15 -13 12z"/>
<path d="M136 945 c-8 -9 -19 -14 -23 -13 -12 4 -77 -51 -69 -59 3 -4 18 4 33
18 14 13 23 18 19 12 -4 -7 -2 -13 4 -13 6 0 8 -4 5 -10 -3 -5 -2 -10 3 -10 6
0 12 7 16 15 3 8 10 15 16 15 6 0 3 -11 -6 -25 -10 -15 -12 -25 -5 -25 6 0 11
4 11 9 0 5 9 13 20 16 22 7 25 22 10 45 -7 12 -13 11 -34 -10 -15 -13 -26 -19
-26 -14 0 6 12 21 26 33 19 16 29 20 37 12 16 -16 27 -14 21 4 -8 19 -38 19
-58 0z"/>
<path d="M200 953 c0 -4 5 -15 10 -23 8 -13 10 -13 10 2 0 9 -4 20 -10 23 -5
3 -10 3 -10 -2z"/>
<path d="M270 936 c0 -8 -6 -17 -12 -19 -10 -4 -9 -8 2 -16 22 -15 40 -13 40
5 0 8 -4 13 -9 10 -5 -4 -7 3 -4 14 3 11 0 20 -6 20 -6 0 -11 -6 -11 -14z"/>
<path d="M353 916 l28 -25 -20 -20 c-24 -24 -27 -41 -7 -41 8 0 16 -6 19 -12
2 -7 2 -3 0 10 -2 12 1 22 7 22 5 0 10 -6 10 -13 0 -19 20 -36 36 -30 7 2 10
12 7 20 -4 10 -2 14 4 10 12 -7 36 16 28 26 -3 4 -2 4 3 1 4 -3 7 -9 7 -13 0
-4 7 -15 17 -24 14 -14 17 -14 22 -2 7 19 26 19 26 0 0 -8 9 -15 20 -15 11 0
20 -7 20 -15 0 -8 5 -15 10 -15 13 0 13 3 -2 35 -7 15 -17 24 -25 21 -8 -3
-16 1 -19 9 -4 8 -11 12 -18 8 -7 -4 -7 -2 1 7 9 10 15 10 26 2 20 -17 51 17
32 35 -15 14 -26 7 -18 -13 7 -18 -1 -18 -38 2 -17 8 -33 13 -37 10 -3 -3 0
-6 6 -6 7 0 12 -12 12 -27 l0 -27 -16 23 c-9 12 -17 33 -18 47 -1 16 -6 22
-14 19 -8 -3 -16 -5 -19 -5 -3 0 0 -7 7 -15 9 -11 10 -15 1 -15 -8 0 -10 -8
-5 -22 6 -20 5 -21 -8 -10 -9 7 -13 22 -10 37 2 14 0 25 -4 25 -10 0 -12 -50
-3 -65 4 -5 3 -19 -2 -30 -5 -14 -8 -16 -9 -5 -2 8 -2 19 -1 24 1 4 -4 14 -10
22 -7 9 -8 14 -1 14 5 0 8 9 5 19 -3 11 -11 17 -18 15 -7 -3 -15 2 -18 10 -4
9 -14 16 -24 16 -14 0 -12 -5 10 -24z"/>
<path d="M1276 919 c-14 -11 -23 -25 -20 -31 4 -6 16 1 29 16 16 19 25 23 28
14 4 -8 6 -7 6 5 1 22 -10 22 -43 -4z"/>
<path d="M1671 924 c13 -16 29 -19 29 -5 0 5 -9 11 -21 14 -16 4 -18 3 -8 -9z"/>
<path d="M1905 930 c-3 -5 -3 -16 1 -22 6 -10 4 -10 -7 0 -7 6 -27 12 -43 12
-26 -1 -28 -2 -13 -11 9 -5 21 -8 26 -4 5 3 13 0 17 -6 4 -8 3 -9 -4 -5 -7 4
-12 3 -12 -3 0 -6 -8 -7 -17 -4 -17 7 -17 6 0 -20 14 -21 15 -32 7 -47 -6 -11
-7 -20 -1 -20 13 0 24 31 22 58 -4 34 35 30 47 -5 7 -19 11 -22 11 -10 1 10
-4 27 -10 38 -6 11 -8 25 -6 32 3 7 9 1 15 -13 6 -14 11 -20 12 -15 0 6 9 -1
20 -15 16 -20 20 -21 20 -8 0 10 -9 22 -20 28 -11 6 -20 17 -20 24 0 8 -7 17
-16 20 -21 8 -22 8 -29 -4z"/>
<path d="M840 919 c0 -5 5 -7 10 -4 6 3 10 8 10 11 0 2 -4 4 -10 4 -5 0 -10
-5 -10 -11z"/>
<path d="M1707 913 c-4 -3 -7 -13 -7 -21 0 -12 3 -12 15 -2 8 7 15 16 15 21 0
11 -14 12 -23 2z"/>
<path d="M207 903 c-10 -10 -8 -25 2 -18 5 3 12 1 16 -5 3 -5 13 -10 22 -10
14 0 14 3 -2 20 -19 21 -28 24 -38 13z"/>
<path d="M1325 891 c-3 -10 -3 -26 1 -35 3 -9 1 -16 -6 -16 -6 0 -8 -5 -5 -11
10 -16 -24 -49 -43 -42 -15 6 -15 4 1 -14 9 -11 14 -23 10 -26 -3 -4 -1 -7 5
-7 6 0 14 11 18 25 3 14 10 22 15 19 5 -3 9 0 9 6 0 7 7 7 23 -1 l22 -11 -22
21 c-13 12 -23 27 -23 33 0 7 16 -3 35 -22 19 -19 35 -30 35 -25 0 5 -17 24
-37 43 -24 22 -33 37 -25 39 14 5 17 43 3 43 -5 0 -12 -8 -16 -19z"/>
<path d="M1812 876 c1 -10 8 -17 13 -17 15 1 12 24 -3 29 -9 3 -13 -2 -10 -12z"/>
<path d="M173 864 c-7 -7 -13 -19 -13 -26 1 -8 6 -6 15 6 13 17 15 17 30 2 24
-23 35 -20 22 7 -12 26 -36 31 -54 11z"/>
<path d="M1040 860 c0 -5 5 -10 10 -10 6 0 10 5 10 10 0 6 -4 10 -10 10 -5 0
-10 -4 -10 -10z"/>
<path d="M1007 840 c-16 -19 -16 -20 3 -20 13 0 20 7 20 20 0 11 -1 20 -3 20
-1 0 -10 -9 -20 -20z"/>
<path d="M1433 801 c-13 -11 -23 -30 -23 -43 -1 -22 -1 -22 -14 -5 -12 15 -18
16 -34 8 -12 -6 -27 -8 -35 -5 -10 3 -17 -4 -21 -21 -4 -14 -10 -23 -15 -20
-5 2 -11 -2 -15 -10 -4 -11 2 -15 19 -15 14 0 25 6 25 13 0 7 16 20 35 29 35
16 45 12 24 -9 -6 -6 -8 -16 -5 -22 10 -15 29 -14 24 1 -5 14 20 43 36 43 6 0
12 9 14 19 3 15 0 17 -14 12 -13 -4 -11 0 6 13 13 11 28 17 32 15 4 -3 8 0 8
5 0 17 -22 12 -47 -8z"/>
<path d="M1017 803 c-4 -3 -7 -19 -7 -35 0 -16 -4 -27 -8 -24 -5 3 -9 -9 -10
-26 -1 -47 17 -20 27 40 8 55 8 56 -2 45z"/>
<path d="M1644 798 c3 -9 0 -18 -6 -20 -12 -4 -2 -28 12 -28 16 0 18 28 3 47
-12 15 -14 15 -9 1z"/>
<path d="M1232 759 c-7 -10 -8 -19 -3 -19 5 0 11 6 14 13 2 6 7 9 11 6 3 -3 3
-16 -1 -27 -8 -20 -10 -21 -36 -7 -26 13 -28 13 -36 -8 -15 -37 33 -76 69 -57
15 8 19 17 14 34 -3 13 -1 33 5 45 9 16 8 22 -7 30 -14 7 -21 5 -30 -10z m14
-70 c9 -15 -25 -22 -41 -9 -8 7 -15 16 -15 20 0 10 49 0 56 -11z"/>
<path d="M940 600 c0 -11 -5 -20 -11 -20 -20 0 20 -44 43 -47 16 -2 19 0 9 6
-9 6 -11 17 -6 32 5 16 4 21 -3 14 -5 -5 -12 -19 -15 -30 -3 -11 -5 -3 -6 18
-1 27 3 36 11 31 7 -4 8 -3 4 4 -11 19 -26 14 -26 -8z"/>
<path d="M1616 572 c-3 -5 1 -9 9 -9 8 0 12 4 9 9 -3 4 -7 8 -9 8 -2 0 -6 -4
-9 -8z"/>
<path d="M1034 536 c-8 -9 -7 -15 3 -25 18 -17 26 -9 16 16 -6 16 -11 18 -19
9z"/>
<path d="M927 523 c-3 -5 1 -14 9 -21 12 -10 14 -10 14 2 0 17 -16 30 -23 19z"/>
<path d="M975 478 c-6 -18 -17 -34 -25 -34 -8 -1 -23 -2 -34 -3 -15 -1 -16 -4
-6 -16 14 -17 35 -21 25 -5 -9 15 21 12 34 -4 14 -17 51 -28 51 -15 0 5 -5 9
-11 9 -16 0 -41 28 -30 34 10 7 21 66 11 66 -3 0 -10 -15 -15 -32z"/>
<path d="M1081 498 c-1 -11 -7 -15 -20 -11 -10 3 -22 0 -25 -6 -4 -5 -13 -8
-21 -4 -8 3 -15 0 -15 -7 0 -8 13 -9 45 -4 38 5 45 4 45 -10 0 -9 -4 -16 -10
-16 -5 0 -10 5 -10 12 0 6 -3 8 -7 5 -8 -8 26 -47 41 -47 6 0 5 4 -3 9 -11 7
-12 13 -3 23 7 9 8 18 3 24 -5 5 -11 18 -14 29 -3 14 -5 15 -6 3z"/>
<path d="M868 493 c-18 -4 -25 -22 -10 -24 4 0 15 -2 25 -4 9 -2 17 3 17 10 0
17 -10 23 -32 18z"/>
<path d="M930 470 c0 -6 7 -10 15 -10 8 0 15 2 15 4 0 2 -7 6 -15 10 -8 3 -15
1 -15 -4z"/>
<path d="M1132 454 c10 -10 20 -16 22 -13 3 3 -5 11 -17 18 -21 13 -21 12 -5
-5z"/>
<path d="M1027 443 c-11 -10 -8 -23 5 -23 6 0 20 -7 30 -17 10 -9 18 -12 18
-6 0 14 -45 54 -53 46z"/>
<path d="M1116 425 c4 -8 10 -15 15 -15 4 0 6 7 3 15 -4 8 -10 15 -15 15 -4 0
-6 -7 -3 -15z"/>
<path d="M1156 413 c-6 -14 -5 -15 5 -6 7 7 10 15 7 18 -3 3 -9 -2 -12 -12z"/>
<path d="M290 265 c0 -8 9 -19 21 -26 29 -15 61 -92 57 -137 -3 -35 -1 -37 37
-48 49 -14 285 -24 285 -13 0 5 -33 9 -72 9 -77 1 -213 16 -229 25 -22 14 4
22 46 14 61 -11 321 -18 337 -8 7 4 -53 8 -132 9 -80 1 -167 4 -195 8 -49 7
-50 8 -60 49 -6 23 -13 45 -18 49 -13 13 -8 34 9 34 9 0 12 -5 8 -12 -5 -7 -3
-8 7 -2 22 13 511 5 528 -9 10 -8 13 -8 8 -1 -4 8 87 11 326 12 183 1 343 2
357 4 24 3 25 1 21 -47 -1 -27 -7 -59 -12 -72 -6 -16 -5 -23 4 -23 6 0 3 -6
-8 -13 -12 -7 -77 -13 -162 -15 -86 -3 -143 -8 -143 -14 0 -6 44 -9 119 -7 66
2 117 2 114 -1 -2 -3 -55 -8 -116 -11 l-112 -6 117 -1 c89 -2 119 1 125 12 4
7 26 17 48 23 40 9 40 9 37 51 -5 56 12 104 48 136 17 14 30 31 30 36 0 14
-37 13 -46 -2 -5 -7 -3 -8 6 -3 8 5 11 3 8 -6 -8 -24 -194 -30 -738 -24 -561
6 -619 9 -636 31 -14 18 -24 18 -24 -1z"/>
<path d="M1498 193 c7 -3 16 -2 19 1 4 3 -2 6 -13 5 -11 0 -14 -3 -6 -6z"/>
<path d="M998 183 c7 -3 16 -2 19 1 4 3 -2 6 -13 5 -11 0 -14 -3 -6 -6z"/>
<path d="M900 78 c0 -4 14 -8 30 -8 17 0 30 2 30 4 0 2 -13 6 -30 8 -16 3 -30
1 -30 -4z"/>
<path d="M1405 80 c3 -5 13 -10 21 -10 8 0 12 5 9 10 -3 6 -13 10 -21 10 -8 0
-12 -4 -9 -10z"/>
<path d="M1553 83 c9 -2 25 -2 35 0 9 3 1 5 -18 5 -19 0 -27 -2 -17 -5z"/>
<path d="M858 73 c7 -3 16 -2 19 1 4 3 -2 6 -13 5 -11 0 -14 -3 -6 -6z"/>
<path d="M1008 73 c18 -2 45 -2 60 0 15 2 0 4 -33 4 -33 0 -45 -2 -27 -4z"/>
<path d="M1203 73 c15 -2 39 -2 55 0 15 2 2 4 -28 4 -30 0 -43 -2 -27 -4z"/>
<path d="M1338 73 c6 -2 18 -2 25 0 6 3 1 5 -13 5 -14 0 -19 -2 -12 -5z"/>
<path d="M1483 73 c9 -2 23 -2 30 0 6 3 -1 5 -18 5 -16 0 -22 -2 -12 -5z"/>
<path d="M696 34 c-5 -13 -23 -15 -133 -10 -88 3 -112 2 -78 -4 76 -13 223
-12 227 1 3 8 84 11 288 10 253 -2 285 -4 296 -19 8 -9 14 -12 14 -5 0 6 -7
19 -16 27 -13 14 -55 16 -304 16 -253 0 -289 -2 -294 -16z"/>
</g>
</svg>
