<?xml version="1.0" standalone="no"?>
<!DOCTYPE svg PUBLIC "-//W3C//DTD SVG 20010904//EN"
 "http://www.w3.org/TR/2001/REC-SVG-20010904/DTD/svg10.dtd">
<svg version="1.0" xmlns="http://www.w3.org/2000/svg"
 width="200.000000pt" height="200.000000pt" viewBox="0 0 200.000000 200.000000"
 preserveAspectRatio="xMidYMid meet">
<metadata>
Created by potrace 1.10, written by Peter Selinger 2001-2011
</metadata>
<g transform="translate(0.000000,200.000000) scale(0.100000,-0.100000)"
fill="#000000" stroke="none">
<path d="M857 1588 c-15 -5 -29 -19 -31 -31 -8 -39 -15 -135 -10 -140 3 -3 19
2 35 10 38 19 287 15 311 -4 14 -12 28 -8 28 8 0 4 -33 13 -72 19 -79 14 -225
8 -271 -9 -24 -10 -27 -9 -19 5 5 9 7 35 5 58 -6 66 0 69 162 82 46 4 57 3 45
-6 -12 -9 -11 -10 7 -5 12 3 24 1 28 -6 6 -8 9 -8 15 1 5 8 17 9 41 3 32 -9
34 -12 37 -57 3 -41 1 -48 -12 -43 -9 4 -16 3 -16 -2 0 -5 11 -11 25 -13 25
-5 25 -4 21 41 -5 64 -13 78 -48 90 -39 14 -243 13 -281 -1z"/>
<path d="M910 1488 c0 -5 -11 -8 -24 -8 -14 0 -27 -4 -30 -9 -3 -4 18 -4 47 1
29 6 92 8 141 6 63 -3 82 -2 65 5 -28 12 -199 15 -199 5z"/>
<path d="M997 1423 c41 -3 53 -8 58 -24 4 -11 1 -27 -6 -35 -10 -13 -8 -14 15
-10 14 3 43 -3 64 -12 35 -15 36 -16 12 -20 -14 -2 -29 -8 -34 -13 -6 -5 -61
-9 -124 -9 -78 0 -111 -3 -107 -11 9 -13 224 -4 239 11 20 20 58 10 92 -25 19
-20 34 -29 34 -21 0 8 -17 29 -37 47 -29 25 -39 42 -43 72 -3 22 -11 42 -18
43 -7 1 -8 0 -2 -3 13 -6 13 -63 1 -63 -6 0 -17 10 -25 22 -9 12 -16 17 -16
10 0 -22 -26 -13 -27 10 -3 30 -20 38 -78 36 l-50 -2 52 -3z"/>
<path d="M840 1382 c0 -39 0 -39 38 -36 20 2 64 3 96 3 33 1 57 4 53 7 -3 3
-22 6 -41 6 -33 0 -35 2 -30 24 8 32 -4 31 -16 -2 -8 -21 -15 -25 -42 -22 -29
3 -33 6 -31 31 1 18 -3 27 -13 27 -10 0 -14 -12 -14 -38z"/>
<path d="M1095 1410 c3 -5 8 -10 11 -10 2 0 4 5 4 10 0 6 -5 10 -11 10 -5 0
-7 -4 -4 -10z"/>
<path d="M814 1311 c-62 -38 -59 -18 -59 -442 0 -375 1 -388 20 -415 34 -44
85 -58 225 -58 108 -1 131 2 172 21 39 18 78 58 66 67 -2 2 -23 -10 -48 -25
-24 -16 -37 -29 -30 -30 9 0 6 -4 -6 -9 -40 -16 -178 -22 -248 -10 -68 11
-133 36 -122 47 3 3 13 0 21 -7 13 -11 18 -11 28 0 7 7 7 10 2 7 -12 -7 -42 9
-34 18 7 6 69 -14 69 -23 0 -9 107 -8 116 0 3 4 -26 10 -66 14 -40 4 -90 16
-113 28 l-42 21 -2 353 c-2 291 0 354 11 358 8 3 36 9 62 14 l49 9 -52 -3
c-29 -2 -53 -1 -53 1 0 17 27 47 52 57 17 7 26 16 21 19 -5 3 -23 -2 -39 -12z
m386 -871 c-8 -5 -19 -10 -25 -10 -5 0 -3 5 5 10 8 5 20 10 25 10 6 0 3 -5 -5
-10z"/>
<path d="M1055 1270 c3 -5 8 -10 11 -10 2 0 4 5 4 10 0 6 -5 10 -11 10 -5 0
-7 -4 -4 -10z"/>
<path d="M894 1248 c-3 -4 6 -8 20 -8 14 0 26 4 26 8 0 4 -9 8 -21 8 -11 0
-23 -4 -25 -8z"/>
<path d="M1085 1249 c-3 -4 19 -9 48 -11 53 -4 65 -3 55 8 -9 8 -98 12 -103 3z"/>
<path d="M1210 1018 c-1 -179 -3 -210 -14 -195 -16 20 -30 23 -23 3 3 -7 0
-19 -6 -25 -9 -10 -5 -12 18 -9 20 2 29 -1 27 -9 -1 -7 2 -13 6 -13 4 0 8 -11
8 -25 0 -14 -4 -25 -8 -25 -4 0 -8 -7 -8 -15 0 -8 4 -15 10 -15 6 0 6 -9 0
-26 -6 -14 -10 -54 -10 -89 0 -35 -4 -66 -9 -70 -16 -9 -22 12 -11 39 9 24 8
26 -21 26 -17 0 -32 6 -35 15 -4 8 -10 12 -15 9 -17 -10 -9 -24 16 -30 14 -3
25 -10 25 -15 0 -12 -2 -12 -39 7 -23 11 -29 20 -22 27 11 11 -2 45 -23 60 -8
5 -6 10 4 17 13 8 12 10 -4 10 -18 0 -19 1 -1 20 17 19 30 84 15 75 -4 -2 -22
0 -40 5 -21 6 -39 6 -51 -1 -15 -7 -19 -6 -19 5 0 19 27 28 50 16 13 -7 19 -6
24 5 3 8 13 15 23 15 13 0 14 -3 5 -12 -27 -27 -10 -30 18 -3 27 26 35 26 31
1 -1 -4 4 -14 10 -22 6 -8 8 -14 3 -14 -11 0 18 -20 29 -20 5 0 5 5 1 11 -4 8
0 9 15 4 23 -7 26 1 11 25 -5 8 -10 10 -10 3 0 -6 -8 -10 -17 -8 -13 2 -17 10
-15 30 2 17 -1 24 -8 20 -6 -4 -17 -1 -25 5 -8 7 -15 8 -15 3 0 -13 -73 -10
-77 3 -2 6 12 8 34 6 l38 -4 -43 41 c-28 26 -49 38 -59 34 -11 -4 -14 -2 -9 5
4 7 15 12 24 12 26 0 70 -33 64 -49 -3 -8 1 -12 9 -9 8 3 21 -4 30 -15 8 -11
22 -18 29 -15 11 3 9 9 -6 24 -11 11 -18 26 -16 32 2 7 -6 12 -17 12 -12 0
-21 6 -21 15 0 8 -3 14 -7 13 -5 -1 -18 3 -30 10 -18 10 -30 8 -77 -14 -31
-14 -56 -32 -56 -40 0 -8 -6 -14 -14 -14 -19 0 -26 -21 -14 -42 12 -24 27 -23
21 2 -3 12 0 20 6 20 7 0 10 -4 7 -9 -4 -5 0 -11 6 -14 14 -4 41 50 32 64 -3
5 2 9 10 9 9 0 16 -5 16 -11 0 -5 5 -7 10 -4 14 8 60 -21 60 -38 0 -8 -3 -8
-9 2 -7 11 -13 10 -35 -4 -22 -15 -29 -15 -42 -4 -14 11 -15 10 -12 -6 2 -13
-4 -21 -17 -23 -11 -2 -27 -10 -35 -16 -8 -7 -26 -13 -40 -14 -22 -1 -23 0 -7
9 9 6 22 7 27 4 6 -3 10 -2 10 4 0 18 -18 22 -44 10 -52 -24 -17 -49 46 -32
30 8 38 7 38 -3 0 -7 -4 -16 -10 -19 -15 -10 -12 -28 4 -22 8 3 16 1 18 -5 3
-8 10 -8 25 1 40 21 103 11 103 -16 0 -9 -6 -13 -14 -10 -8 3 -17 1 -20 -6 -5
-9 -7 -9 -12 1 -5 10 -9 10 -20 1 -11 -9 -18 -9 -29 1 -12 10 -18 10 -30 0 -8
-6 -20 -8 -26 -4 -9 5 -7 10 7 15 16 6 15 8 -8 8 -20 1 -28 -4 -28 -16 0 -14
-3 -13 -16 5 -20 29 -69 31 -71 1 -2 -25 13 -31 80 -33 34 -1 56 4 63 13 8 10
13 11 18 3 4 -7 2 -12 -3 -12 -6 0 -11 -4 -11 -10 0 -5 12 -10 26 -10 16 0 23
4 18 11 -4 7 -2 9 7 5 8 -3 21 -9 29 -12 8 -3 23 -21 33 -41 17 -33 17 -37 1
-54 -15 -17 -18 -17 -40 -2 -13 8 -24 11 -24 5 0 -5 -12 -10 -27 -9 -86 3
-134 -11 -71 -20 12 -2 29 -10 38 -18 24 -22 36 -18 16 4 -15 16 -15 19 -1 24
8 4 15 2 15 -4 0 -6 14 -9 35 -6 45 6 48 -16 5 -38 -16 -9 -30 -22 -30 -31 0
-11 9 -7 35 13 19 15 35 33 35 40 0 6 4 14 8 17 13 8 90 -33 106 -56 13 -18
16 -19 45 -4 l31 17 0 333 c0 258 -3 335 -12 339 -10 4 -10 6 0 6 27 2 5 41
-24 41 -2 0 -4 -96 -4 -212z m-269 -141 c-10 -9 -11 -8 -5 6 3 10 9 15 12 12
3 -3 0 -11 -7 -18z m57 -68 c3 -8 1 -11 -3 -7 -16 15 -35 -13 -24 -33 7 -13 6
-19 -1 -19 -18 0 -23 30 -10 56 14 26 31 27 38 3z m33 4 c13 -16 12 -17 -3 -4
-10 7 -18 15 -18 17 0 8 8 3 21 -13z m-162 -97 c9 -11 6 -13 -16 -13 -16 0
-22 2 -15 4 6 3 10 9 6 14 -9 14 12 10 25 -5z m201 -20 c0 -3 -4 -8 -10 -11
-5 -3 -10 -1 -10 4 0 6 5 11 10 11 6 0 10 -2 10 -4z m102 -168 c-7 -7 -12 -8
-12 -2 0 14 12 26 19 19 2 -3 -1 -11 -7 -17z"/>
<path d="M955 1189 c-4 -5 1 -19 11 -30 16 -18 16 -19 -1 -19 -14 0 -16 -3 -8
-11 6 -6 16 -8 22 -5 17 11 13 34 -6 45 -17 10 -17 10 0 11 9 0 17 5 17 10 0
13 -27 13 -35 -1z"/>
<path d="M1007 1193 c-13 -13 -7 -61 9 -67 21 -8 24 -8 24 4 0 6 -7 10 -16 10
-8 0 -12 5 -9 10 4 6 11 8 16 5 5 -4 9 -1 9 4 0 6 -7 11 -16 11 -8 0 -12 5 -9
10 4 6 11 8 16 5 5 -4 9 -1 9 4 0 12 -23 15 -33 4z"/>
<path d="M1057 1193 c-11 -10 -8 -63 3 -63 6 0 10 16 10 35 0 36 -2 40 -13 28z"/>
<path d="M1082 1165 c0 -22 2 -34 5 -27 4 10 9 9 24 -4 21 -18 27 -6 7 14 -9
9 -9 15 0 24 20 20 13 32 -7 14 -18 -17 -19 -17 -24 1 -3 10 -5 0 -5 -22z"/>
<path d="M793 1174 c-17 -14 -17 -14 0 -28 18 -14 18 -14 0 -19 -10 -3 0 -5
22 -5 31 0 35 1 20 8 -11 5 -14 9 -7 9 6 1 12 6 12 12 0 5 -4 7 -10 4 -5 -3
-10 -2 -10 4 0 5 5 11 12 13 8 3 6 6 -4 10 -9 4 -24 0 -35 -8z m17 -14 c0 -5
-5 -10 -11 -10 -5 0 -7 5 -4 10 3 6 8 10 11 10 2 0 4 -4 4 -10z"/>
<path d="M857 1175 c-4 -8 -2 -17 4 -21 6 -3 8 -11 6 -18 -3 -6 4 -12 14 -12
23 0 25 14 4 22 -8 4 -15 10 -15 16 0 5 4 7 9 4 5 -4 11 -3 14 1 2 5 3 4 2 -2
-1 -5 6 -19 16 -29 20 -20 25 -12 9 14 -5 9 -5 19 2 27 8 10 3 13 -25 13 -21
0 -37 -6 -40 -15z"/>
<path d="M1140 1160 c0 -16 5 -30 10 -30 6 0 10 14 10 30 0 17 -4 30 -10 30
-5 0 -10 -13 -10 -30z"/>
<path d="M813 1103 c-18 -2 -33 -8 -33 -13 0 -5 80 -8 185 -7 140 1 185 5 185
15 0 9 -36 12 -152 10 -84 0 -168 -3 -185 -5z"/>
<path d="M793 1053 c-25 -10 -12 -22 22 -20 20 1 35 7 35 15 0 12 -33 15 -57
5z"/>
<path d="M865 1051 c-3 -5 -1 -12 5 -16 5 -3 10 1 10 9 0 18 -6 21 -15 7z"/>
<path d="M910 1052 c-23 -4 -23 -5 -5 -12 23 -8 55 -2 55 11 0 9 -8 10 -50 1z"/>
<path d="M970 1048 c0 -4 17 -8 38 -9 20 0 66 -1 102 -2 36 -1 66 2 68 7 4 14
-31 17 -40 3 -4 -7 -8 -7 -8 -2 0 7 -32 11 -80 11 -44 1 -80 -3 -80 -8z"/>
<path d="M1065 1021 c-3 -6 -11 -9 -16 -6 -5 4 -9 2 -9 -4 0 -12 65 -9 77 3 4
5 1 7 -8 3 -9 -3 -21 -1 -27 5 -6 6 -12 6 -17 -1z"/>
<path d="M780 1010 c0 -5 14 -10 30 -10 17 0 30 5 30 10 0 6 -13 10 -30 10
-16 0 -30 -4 -30 -10z"/>
<path d="M855 1010 c3 -5 8 -10 11 -10 2 0 4 5 4 10 0 6 -5 10 -11 10 -5 0 -7
-4 -4 -10z"/>
<path d="M880 1011 c0 -5 20 -9 45 -9 25 0 45 3 45 7 0 4 -20 9 -45 9 -25 1
-45 -2 -45 -7z"/>
<path d="M985 1009 c6 -9 45 -8 45 2 0 4 -11 7 -25 7 -13 0 -22 -4 -20 -9z"/>
<path d="M777 974 c4 -11 73 -14 73 -3 0 4 -17 9 -39 11 -25 2 -37 0 -34 -8z"/>
<path d="M870 970 c0 -5 5 -10 10 -10 6 0 10 5 10 10 0 6 -4 10 -10 10 -5 0
-10 -4 -10 -10z"/>
<path d="M860 900 c-9 -6 -10 -10 -3 -10 6 0 15 5 18 10 8 12 4 12 -15 0z"/>
<path d="M980 868 c0 -11 22 -10 39 1 10 7 7 9 -12 8 -15 -1 -27 -5 -27 -9z"/>
<path d="M1105 768 c1 -13 6 -22 11 -20 13 3 11 35 -2 39 -6 2 -10 -7 -9 -19z"/>
<path d="M900 766 c-8 -11 -18 -12 -36 -5 -31 11 -54 12 -54 0 0 -4 19 -11 43
-14 33 -5 46 -2 62 14 11 10 14 19 8 19 -6 0 -16 -7 -23 -14z"/>
<path d="M1182 736 c-22 -7 -31 -15 -27 -25 7 -17 -12 -31 -40 -30 -15 0 -13
3 10 14 17 7 24 14 16 14 -7 1 -11 7 -7 16 8 21 0 19 -24 -7 -22 -24 -23 -27
-11 -46 7 -11 15 -11 46 2 21 9 40 14 43 11 3 -3 1 -5 -4 -5 -5 0 -16 -5 -24
-10 -13 -8 -12 -11 5 -24 19 -14 17 -15 -25 -10 l-45 5 22 -22 c26 -27 73 -20
73 10 0 11 3 21 8 24 4 2 1 2 -7 0 -11 -3 -10 1 3 16 17 18 16 20 -6 35 -22
16 -22 16 -1 16 11 0 23 7 27 15 3 8 4 14 3 14 -1 -1 -17 -7 -35 -13z"/>
<path d="M803 675 c0 -8 4 -12 9 -9 5 3 6 10 3 15 -9 13 -12 11 -12 -6z"/>
<path d="M995 654 c-11 -8 -32 -13 -48 -11 -15 2 -30 0 -33 -5 -3 -5 -9 -6
-14 -3 -11 7 -90 -25 -90 -36 0 -13 14 -11 28 3 7 7 12 8 12 2 0 -19 128 -19
159 0 6 4 23 0 36 -8 27 -18 35 -6 10 14 -8 7 -12 16 -9 22 6 9 -13 38 -25 38
-3 0 -15 -8 -26 -16z m35 -8 c0 -8 -13 -19 -30 -25 -16 -5 -30 -7 -30 -3 0 5
42 35 58 41 1 1 2 -5 2 -13z m-88 -33 c-12 -2 -20 -9 -17 -14 7 -11 3 -11 -19
-3 -29 11 -17 24 22 23 23 -1 29 -3 14 -6z"/>
<path d="M796 576 c3 -8 14 -16 25 -19 10 -3 19 -11 19 -19 0 -9 -3 -9 -8 -2
-9 15 -52 28 -52 17 0 -5 15 -17 34 -26 26 -12 36 -13 39 -4 3 9 7 9 18 1 17
-14 79 -16 79 -3 0 10 -2 11 -51 14 -23 1 -44 11 -62 29 -28 28 -50 35 -41 12z"/>
<path d="M856 567 c3 -10 9 -15 12 -12 3 3 0 11 -7 18 -10 9 -11 8 -5 -6z"/>
<path d="M1118 503 c6 -2 18 -2 25 0 6 3 1 5 -13 5 -14 0 -19 -2 -12 -5z"/>
<path d="M1109 465 c-3 -2 -29 -5 -57 -6 -29 -1 -52 -6 -52 -10 0 -11 165 3
177 15 4 3 -9 6 -29 6 -19 0 -37 -2 -39 -5z"/>
</g>
</svg>
