<?xml version="1.0" standalone="no"?>
<!DOCTYPE svg PUBLIC "-//W3C//DTD SVG 20010904//EN"
 "http://www.w3.org/TR/2001/REC-SVG-20010904/DTD/svg10.dtd">
<svg version="1.0" xmlns="http://www.w3.org/2000/svg"
 width="300.000000pt" height="300.000000pt" viewBox="0 0 300.000000 300.000000"
 preserveAspectRatio="xMidYMid meet">
<metadata>
Created by potrace 1.10, written by Peter Selinger 2001-2011
</metadata>
<g transform="translate(0.000000,300.000000) scale(0.100000,-0.100000)"
fill="#000000" stroke="none">
<path d="M686 2748 c-2 -7 -12 -83 -21 -168 -21 -194 -21 -194 -30 -142 -4 23
-12 45 -18 49 -6 3 -7 1 -3 -5 4 -7 2 -12 -3 -12 -12 0 -5 -266 7 -285 4 -5
10 -287 13 -625 6 -521 10 -644 27 -805 11 -104 19 -192 17 -195 -2 -3 0 -23
5 -43 11 -52 -8 -126 -60 -236 -36 -75 -41 -94 -31 -104 11 -9 14 -9 18 1 6
15 30 16 39 0 5 -8 2 -9 -9 -5 -10 3 -17 2 -17 -3 0 -6 8 -10 18 -10 18 0 39
42 97 190 32 83 33 91 41 300 16 395 7 937 -17 981 -4 9 -5 19 -2 23 10 9 -8
6 -47 -9 l-35 -14 40 5 c44 6 31 -8 -17 -20 -23 -5 -28 -3 -28 13 0 13 12 22
45 31 42 12 45 15 45 46 0 39 -4 40 -49 18 -29 -15 -45 -13 -47 4 0 4 -4 14
-8 23 -4 8 -6 108 -4 221 2 114 0 204 -3 202 -4 -2 -9 12 -11 31 -2 19 -1 35
3 35 4 0 10 41 14 91 4 50 17 167 29 260 12 93 18 169 14 169 -5 0 -10 -6 -12
-12z m-49 -435 c-3 -10 -5 -2 -5 17 0 19 2 27 5 18 2 -10 2 -26 0 -35z m109
-600 c-4 -5 -22 -13 -39 -20 l-32 -12 40 4 40 5 -39 -15 c-21 -8 -42 -12 -46
-10 -5 3 -9 -92 -10 -212 0 -119 -3 -219 -5 -222 -3 -2 -5 95 -5 215 0 162 3
223 12 232 10 10 10 15 -2 23 -12 8 -10 9 6 4 12 -3 32 -1 45 4 30 12 45 13
35 4z m-15 -109 c-18 -8 -41 -13 -50 -11 -10 2 -3 8 19 14 51 16 70 14 31 -3z
m29 -13 c0 -5 -16 -12 -35 -15 -19 -4 -37 -11 -40 -16 -3 -5 9 -5 27 1 18 5
37 9 43 9 17 -1 -18 -17 -52 -25 -28 -6 -33 -4 -33 13 0 14 11 22 43 29 23 6
43 11 45 12 1 0 2 -3 2 -8z m0 -50 c0 -5 -16 -12 -35 -15 -19 -4 -37 -11 -40
-16 -3 -5 8 -4 24 1 17 6 36 9 43 6 7 -2 -6 -10 -29 -16 -24 -6 -43 -14 -43
-17 0 -3 9 -3 20 0 58 17 64 18 57 10 -5 -5 -25 -14 -45 -21 l-37 -12 45 4 45
5 -35 -15 -35 -15 40 6 c49 7 42 -2 -16 -21 -41 -14 -12 -12 36 2 35 10 5 -11
-33 -24 l-37 -12 45 4 45 4 -44 -14 c-44 -15 -74 -33 -36 -22 56 17 78 19 72
10 -4 -6 -26 -14 -49 -18 -24 -4 -38 -9 -31 -12 6 -2 28 0 47 6 20 5 36 6 36
2 0 -5 -19 -13 -42 -19 l-43 -11 45 4 45 4 -48 -15 c-59 -19 -56 -30 3 -14 23
6 44 9 47 6 3 -3 -8 -8 -23 -11 -66 -15 -80 -25 -29 -20 l50 5 -45 -15 -45
-15 50 5 50 4 -48 -14 c-27 -7 -52 -17 -55 -20 -4 -4 2 -5 13 -2 11 3 36 8 55
11 40 7 20 -4 -40 -23 l-35 -11 38 6 c21 3 44 7 51 10 6 2 12 -4 13 -15 1 -15
-8 -21 -45 -30 l-47 -10 50 4 c54 4 57 6 -34 -21 -30 -9 -3 -12 34 -4 56 13
55 4 -2 -14 -42 -14 -17 -14 30 0 15 5 17 -3 17 -63 0 -37 -4 -151 -10 -253
-5 -102 -11 -230 -13 -285 -3 -92 -6 -107 -44 -192 -23 -50 -38 -95 -35 -99 4
-4 1 -4 -5 0 -9 5 -13 -1 -13 -18 0 -14 -4 -26 -9 -26 -22 0 -20 23 8 78 16
33 40 88 52 123 25 74 23 138 -12 494 -10 110 -19 221 -19 246 l0 46 48 10 47
10 -51 -1 -51 -1 -2 -65 c-3 -88 -11 -90 -11 -2 0 39 4 73 8 76 5 3 6 76 4
164 l-4 159 44 10 c23 6 44 11 46 12 1 0 2 -3 2 -8z m-83 -598 c-2 -16 -4 -3
-4 27 0 30 2 43 4 28 2 -16 2 -40 0 -55z m-20 15 c-2 -13 -4 -5 -4 17 -1 22 1
32 4 23 2 -10 2 -28 0 -40z m10 -105 c-3 -10 -5 -2 -5 17 0 19 2 27 5 18 2
-10 2 -26 0 -35z m20 -15 c-2 -13 -4 -3 -4 22 0 25 2 35 4 23 2 -13 2 -33 0
-45z m-10 -75 c-3 -10 -5 -4 -5 12 0 17 2 24 5 18 2 -7 2 -21 0 -30z m20 -15
c-2 -13 -4 -5 -4 17 -1 22 1 32 4 23 2 -10 2 -28 0 -40z m-10 -85 c-3 -10 -5
-2 -5 17 0 19 2 27 5 18 2 -10 2 -26 0 -35z m20 -15 c-2 -13 -4 -5 -4 17 -1
22 1 32 4 23 2 -10 2 -28 0 -40z m-10 -90 c-2 -13 -4 -3 -4 22 0 25 2 35 4 23
2 -13 2 -33 0 -45z m20 -5 c-3 -10 -5 -4 -5 12 0 17 2 24 5 18 2 -7 2 -21 0
-30z m-11 -130 c-15 -55 -95 -218 -103 -210 -3 3 13 39 36 80 22 40 45 97 52
125 6 29 14 52 19 52 4 0 3 -21 -4 -47z"/>
<path d="M710 1101 c-23 -7 -22 -8 14 -15 21 -4 41 -5 44 -2 3 3 -6 6 -19 7
l-24 1 25 8 c20 6 21 8 5 8 -11 0 -31 -3 -45 -7z"/>
<path d="M757 2705 c75 -93 88 -127 88 -241 l0 -101 -52 -104 -52 -104 6 -195
c3 -107 8 -197 10 -200 3 -3 3 85 2 195 l-4 200 47 95 c30 59 51 118 57 155
17 116 -21 235 -100 310 l-42 40 40 -50z"/>
<path d="M1341 2710 c0 -14 4 -32 9 -40 8 -12 10 -12 9 5 0 11 -4 29 -9 40 -8
18 -9 18 -9 -5z"/>
<path d="M2208 2685 c-48 -56 -70 -122 -65 -190 3 -33 8 -70 12 -83 7 -20 2
-25 -33 -39 -41 -16 -41 -16 -38 -62 4 -45 23 -100 38 -112 5 -3 2 -23 -5 -45
-56 -157 -88 -642 -91 -1359 l-1 -280 29 -85 c15 -47 41 -118 57 -158 33 -82
33 -82 19 -82 -21 0 -104 226 -119 323 -6 34 -11 151 -12 260 -2 109 -6 200
-9 202 -4 2 -6 -105 -4 -238 l2 -242 40 -115 c46 -131 90 -230 102 -230 4 0
11 12 15 27 3 15 12 31 18 35 8 5 -3 51 -37 155 -44 136 -49 158 -53 273 -7
173 13 577 37 744 22 157 56 308 100 441 16 50 31 99 33 110 4 18 5 18 14 -5
6 -14 27 -61 48 -105 126 -274 220 -686 257 -1135 l12 -148 -38 -136 c-20 -75
-39 -146 -40 -159 -1 -12 -8 -32 -14 -44 -17 -31 -15 -38 12 -38 21 0 22 3 15
27 -6 24 -5 27 14 25 17 -2 24 9 43 69 75 235 73 320 -22 994 -54 384 -99 620
-150 785 -49 159 -49 160 -22 235 l24 65 -47 22 -47 21 -10 -22 c-6 -11 -11
-16 -11 -9 -1 7 13 26 29 43 23 23 30 40 30 68 0 71 -43 175 -87 214 -17 14
-20 12 -45 -17z m42 -40 c0 4 7 -1 16 -10 21 -21 46 -103 33 -110 -5 -4 -12 1
-16 11 -5 14 -7 14 -18 -6 -10 -19 -13 -20 -24 -6 -9 11 -10 16 -2 16 6 0 11
5 11 10 0 7 -7 7 -17 2 -27 -13 -58 -9 -58 8 1 21 28 80 38 80 5 0 5 5 1 11
-4 8 0 8 15 0 11 -7 21 -9 21 -6z m40 -155 c-16 -30 -27 -32 -27 -5 0 14 4 25
9 25 5 0 6 6 2 13 -6 8 -3 8 9 -2 12 -10 14 -18 7 -31z m-115 21 c3 -5 1 -12
-5 -16 -5 -3 -10 1 -10 9 0 18 6 21 15 7z m75 -41 c11 -22 20 -53 20 -71 0
-35 31 -69 62 -69 26 0 32 -22 15 -63 -14 -33 -13 -41 14 -129 69 -216 116
-454 170 -848 83 -616 89 -733 49 -880 -12 -47 -28 -105 -35 -129 -11 -43 -35
-68 -35 -39 0 8 16 73 36 144 35 127 36 131 30 264 -6 135 -47 500 -67 588
-21 97 -93 341 -130 444 -49 137 -167 414 -230 540 -27 54 -49 104 -49 112 0
8 16 18 38 23 36 9 37 10 34 51 -3 30 2 52 18 77 25 40 33 38 60 -15z m66 -16
c-4 -9 -9 -15 -11 -12 -3 3 -3 13 1 22 4 9 9 15 11 12 3 -3 3 -13 -1 -22z
m-151 -285 c9 -17 15 -33 13 -35 -3 -2 -12 12 -21 31 -21 43 -13 47 8 4z m60
-195 c5 -21 -3 -63 -24 -130 -106 -349 -146 -656 -139 -1091 l4 -248 47 -140
c46 -138 55 -189 18 -102 -66 153 -107 363 -97 492 2 28 7 212 11 410 9 512
27 751 72 943 l17 72 42 -87 c24 -49 46 -102 49 -119z m-6 71 c0 -5 -8 6 -19
25 -11 19 -19 40 -19 45 0 6 8 -6 19 -25 11 -19 19 -39 19 -45z"/>
<path d="M2290 2323 c1 -11 39 -80 40 -72 0 11 -30 79 -35 79 -3 0 -5 -3 -5
-7z"/>
<path d="M2228 2313 c7 -3 16 -2 19 1 4 3 -2 6 -13 5 -11 0 -14 -3 -6 -6z"/>
<path d="M2272 2293 c10 -11 17 -32 15 -49 -2 -28 -5 -30 -35 -29 -39 1 -54
20 -47 58 6 36 -16 32 -29 -6 -7 -19 -5 -32 7 -51 50 -75 161 -14 114 63 -8
14 -21 27 -29 30 -8 2 -7 -3 4 -16z"/>
<path d="M2329 1960 c-5 -28 -3 -35 9 -36 25 -3 27 -5 12 -14 -8 -5 -10 -10
-5 -10 6 0 16 4 24 9 11 7 10 11 -6 20 -11 5 -22 9 -25 8 -2 -1 5 6 15 16 19
17 19 17 -2 17 -12 0 -22 -4 -22 -10z"/>
<path d="M2354 1886 c-14 -11 -16 -18 -8 -26 17 -17 54 -2 54 21 0 23 -19 25
-46 5z m28 -3 c-6 -2 -10 -9 -6 -14 3 -5 1 -9 -5 -9 -5 0 -12 4 -15 9 -6 9 10
19 29 19 6 0 4 -2 -3 -5z"/>
<path d="M2156 2002 c-14 -41 27 -69 54 -37 11 13 8 15 -13 15 -19 0 -27 6
-29 23 l-4 22 -8 -23z"/>
<path d="M2126 2638 c-20 -23 -43 -65 -51 -92 -16 -52 -20 -161 -7 -169 4 -3
7 29 7 71 0 49 4 77 12 79 7 3 10 10 7 17 -5 14 33 96 45 96 3 0 12 9 19 20
20 33 6 23 -32 -22z"/>
<path d="M2320 2656 c0 -2 8 -10 18 -17 15 -13 16 -12 3 4 -13 16 -21 21 -21
13z"/>
<path d="M2370 2580 c11 -21 20 -48 20 -60 0 -11 4 -20 9 -20 6 0 6 12 2 28
-10 33 -39 92 -46 92 -3 0 4 -18 15 -40z"/>
<path d="M1306 2543 c-3 -27 -10 -129 -16 -228 -5 -99 -13 -236 -17 -305 -4
-69 -8 -300 -8 -515 0 -214 -1 -397 -3 -406 -1 -9 -40 -41 -87 -72 -162 -108
-210 -207 -210 -432 0 -161 17 -226 77 -291 70 -75 159 -80 225 -12 62 64 72
134 53 368 -5 63 -14 219 -20 345 -5 127 -15 312 -21 413 -7 109 -8 253 -4
357 l7 173 32 -17 c30 -17 31 -20 31 -82 0 -35 -6 -143 -13 -239 -15 -197 -4
-606 24 -915 22 -241 9 -330 -62 -414 -35 -42 -79 -61 -142 -61 -61 0 -105 27
-149 93 -44 65 -53 103 -60 232 -7 133 8 230 47 313 34 73 83 123 184 191 42
29 76 54 76 57 0 15 -166 -104 -212 -153 -80 -83 -118 -205 -118 -378 0 -226
65 -348 203 -377 51 -11 58 -10 109 15 66 32 124 101 140 165 l11 43 18 -41
c11 -23 17 -46 14 -51 -7 -10 20 -65 44 -93 24 -27 84 -55 133 -61 l43 -5 -35
11 c-72 21 -122 53 -152 96 -16 25 -28 47 -25 50 3 3 12 -8 20 -24 48 -91 172
-132 263 -85 52 27 88 67 116 127 42 95 35 373 -13 470 -11 22 -16 31 -13 20
33 -106 38 -139 38 -275 1 -131 -1 -150 -22 -195 -39 -85 -114 -145 -182 -145
-39 0 -98 24 -128 53 -13 12 -27 21 -30 20 -4 -2 -7 3 -7 10 -1 27 -17 57 -27
51 -7 -4 -8 -2 -4 4 3 6 1 32 -5 58 -9 35 -9 93 0 248 20 342 15 647 -14 901
-40 347 -41 347 -70 373 -14 12 -32 22 -39 22 -9 0 -12 36 -10 158 3 164 11
326 21 425 6 69 -2 77 -11 10z m94 -1035 c12 -135 20 -790 8 -723 -4 22 -5
-16 -3 -85 2 -87 0 -110 -5 -75 -6 35 -7 19 -4 -55 3 -58 7 -123 11 -145 3
-22 2 -37 -2 -33 -7 6 -14 76 -41 383 -19 215 -25 847 -10 980 l10 80 12 -100
c7 -55 18 -157 24 -227z m-110 -762 c12 -160 18 -311 15 -337 -8 -56 -46 -119
-85 -143 -40 -23 -100 -20 -141 7 -141 95 -142 488 -3 644 38 43 188 145 191
130 1 -7 12 -142 23 -301z"/>
<path d="M2395 2469 c6 -33 15 -36 15 -6 0 15 -4 27 -9 27 -6 0 -8 -10 -6 -21z"/>
<path d="M2095 2450 c-3 -6 1 -7 9 -4 18 7 21 14 7 14 -6 0 -13 -4 -16 -10z"/>
<path d="M2098 2423 c7 -3 16 -2 19 1 4 3 -2 6 -13 5 -11 0 -14 -3 -6 -6z"/>
<path d="M2380 2422 c0 -5 7 -9 15 -9 8 0 15 4 15 9 0 4 -7 8 -15 8 -8 0 -15
-4 -15 -8z"/>
<path d="M1392 2310 c0 -14 2 -19 5 -12 2 6 2 18 0 25 -3 6 -5 1 -5 -13z"/>
<path d="M680 2205 c7 -8 22 -15 33 -15 20 0 20 0 1 15 -27 20 -51 20 -34 0z"/>
<path d="M1350 2195 c0 -8 4 -15 10 -15 5 0 7 7 4 15 -4 8 -8 15 -10 15 -2 0
-4 -7 -4 -15z"/>
<path d="M1345 2129 c4 -6 -1 -9 -11 -7 -16 2 -18 -2 -16 -27 5 -43 22 -56 22
-17 0 18 7 35 16 40 15 8 15 10 0 15 -11 4 -15 3 -11 -4z"/>
<path d="M1301 2079 c-1 -32 27 -59 62 -59 33 0 57 25 56 58 -1 26 -1 26 -7 4
-4 -13 -11 -24 -17 -25 -5 -1 -9 -4 -8 -7 3 -9 -56 -5 -66 5 -5 6 -11 19 -14
30 -4 16 -5 15 -6 -6z"/>
<path d="M1452 1895 c0 -16 2 -22 5 -12 2 9 2 23 0 30 -3 6 -5 -1 -5 -18z"/>
<path d="M1466 1730 c11 -277 8 -912 -5 -1097 -15 -214 -10 -261 36 -321 94
-123 257 -79 305 82 19 63 15 288 -6 361 -36 122 -77 176 -194 258 -101 70
-102 71 -102 55 0 -7 27 -30 59 -51 153 -99 212 -189 232 -357 20 -165 0 -287
-57 -350 -85 -93 -193 -73 -246 47 -20 44 -20 58 -13 203 22 439 20 1033 -4
1215 -8 62 -9 57 -5 -45z"/>
<path d="M678 1763 c7 -3 16 -2 19 1 4 3 -2 6 -13 5 -11 0 -14 -3 -6 -6z"/>
<path d="M710 1750 c0 -5 -7 -10 -17 -10 -9 0 -14 -3 -10 -6 8 -8 47 5 47 17
0 5 -4 9 -10 9 -5 0 -10 -4 -10 -10z"/>
<path d="M1290 1691 c0 -6 5 -11 12 -11 9 0 9 -3 0 -12 -14 -14 -16 -28 -3
-28 15 0 19 39 5 51 -10 8 -14 8 -14 0z"/>
<path d="M1304 1611 c0 -11 4 -17 8 -15 4 3 8 12 8 20 0 8 -4 14 -8 14 -4 0
-8 -9 -8 -19z"/>
<path d="M2012 1260 c0 -19 2 -27 5 -17 2 9 2 25 0 35 -3 9 -5 1 -5 -18z"/>
<path d="M2472 1175 c0 -16 2 -22 5 -12 2 9 2 23 0 30 -3 6 -5 -1 -5 -18z"/>
<path d="M2002 1160 c0 -19 2 -27 5 -17 2 9 2 25 0 35 -3 9 -5 1 -5 -18z"/>
<path d="M2482 1120 c-1 -14 8 -79 18 -145 12 -72 17 -94 14 -55 -6 78 -32
235 -32 200z"/>
<path d="M1998 1077 c-5 -10 -8 -33 -8 -50 1 -27 2 -29 11 -14 6 9 9 32 7 50
-2 25 -5 28 -10 14z"/>
<path d="M1710 955 c13 -14 26 -25 28 -25 3 0 -5 11 -18 25 -13 14 -26 25 -28
25 -3 0 5 -11 18 -25z"/>
<path d="M1761 886 c12 -20 23 -36 25 -36 7 0 -25 58 -36 65 -5 3 -1 -10 11
-29z"/>
<path d="M2523 815 c0 -22 2 -30 4 -17 2 12 2 30 0 40 -3 9 -5 -1 -4 -23z"/>
<path d="M2533 720 c0 -30 2 -43 4 -27 2 15 2 39 0 55 -2 15 -4 2 -4 -28z"/>
<path d="M2543 625 c0 -22 2 -30 4 -17 2 12 2 30 0 40 -3 9 -5 -1 -4 -23z"/>
<path d="M2542 545 c0 -16 2 -22 5 -12 2 9 2 23 0 30 -3 6 -5 -1 -5 -18z"/>
<path d="M926 360 c32 -122 127 -203 234 -198 34 1 34 1 5 5 -107 15 -171 61
-217 158 -16 33 -26 49 -22 35z"/>
</g>
</svg>
