<?xml version="1.0" standalone="no"?>
<!DOCTYPE svg PUBLIC "-//W3C//DTD SVG 20010904//EN"
 "http://www.w3.org/TR/2001/REC-SVG-20010904/DTD/svg10.dtd">
<svg version="1.0" xmlns="http://www.w3.org/2000/svg"
 width="200.000000pt" height="200.000000pt" viewBox="0 0 200.000000 200.000000"
 preserveAspectRatio="xMidYMid meet">
<metadata>
Created by potrace 1.10, written by Peter Selinger 2001-2011
</metadata>
<g transform="translate(0.000000,200.000000) scale(0.100000,-0.100000)"
fill="#000000" stroke="none">
<path d="M1420 1611 c0 -6 4 -13 10 -16 6 -3 7 1 4 9 -7 18 -14 21 -14 7z"/>
<path d="M1469 1534 c6 -11 40 -93 75 -184 35 -91 99 -248 140 -349 42 -102
76 -186 76 -188 0 -2 4 -3 10 -3 5 0 -7 37 -26 83 -20 45 -78 188 -130 317
-52 129 -99 244 -104 255 -5 11 -13 33 -17 49 -5 17 -15 32 -22 34 -9 3 -10 0
-2 -14z"/>
<path d="M1500 1534 c0 -3 6 -18 14 -32 13 -25 28 -59 30 -72 3 -15 52 -134
77 -186 16 -34 29 -68 29 -76 0 -8 4 -18 8 -23 5 -6 17 -32 27 -60 19 -55 29
-78 73 -175 46 -102 47 -108 20 -115 -13 -3 -149 -30 -303 -60 -291 -58 -370
-78 -379 -98 -5 -9 -7 -9 -12 0 -6 13 -85 8 -116 -8 -11 -6 -18 -5 -21 4 -3 9
-8 8 -18 -4 -9 -10 -99 -35 -249 -68 -129 -28 -261 -58 -292 -65 -63 -15 -68
-12 -68 44 0 16 -4 31 -8 34 -5 3 -9 27 -9 55 -1 27 -6 58 -11 68 -5 10 -8 23
-5 29 2 6 -3 17 -12 24 -9 8 -15 8 -15 2 0 -6 4 -13 9 -16 5 -3 7 -15 4 -26
-3 -11 0 -20 6 -20 5 0 8 -7 4 -16 -3 -9 0 -20 8 -25 12 -7 12 -9 0 -9 -9 0
-11 -6 -6 -18 4 -9 9 -33 12 -52 14 -95 20 -115 34 -111 110 29 684 152 714
154 l39 1 12 -59 c10 -51 50 -172 60 -184 1 -1 7 0 12 3 6 3 0 30 -13 63 -13
32 -30 86 -38 119 l-14 62 35 16 c34 17 276 71 543 121 l147 28 -18 41 c-10
22 -34 82 -55 131 -20 50 -43 104 -51 122 -8 17 -14 34 -14 37 0 3 -9 26 -20
51 -11 25 -29 65 -40 90 -11 25 -20 48 -20 51 0 4 -15 43 -34 88 -18 45 -39
96 -46 114 -11 27 -30 44 -30 26z"/>
<path d="M1122 1492 c-16 -2 -22 -8 -18 -19 3 -8 6 -17 6 -19 0 -2 5 -4 11 -4
6 0 9 6 6 13 -3 8 1 14 9 14 7 0 11 -3 9 -7 -2 -3 12 -4 31 -2 38 5 41 25 5
30 -17 3 -21 0 -15 -10 6 -10 4 -11 -7 -3 -8 6 -24 9 -37 7z"/>
<path d="M668 1463 c7 -3 16 -2 19 1 4 3 -2 6 -13 5 -11 0 -14 -3 -6 -6z"/>
<path d="M701 1466 c2 -2 31 -7 64 -10 42 -5 56 -4 45 3 -13 10 -119 16 -109
7z"/>
<path d="M836 1451 c-3 -5 1 -26 9 -47 9 -24 13 -29 10 -12 -3 14 -8 34 -12
44 -4 11 -3 15 5 10 14 -8 32 -70 32 -108 0 -15 18 -87 39 -160 22 -73 64
-214 93 -313 55 -185 71 -225 84 -212 4 4 -15 76 -43 160 -74 219 -132 418
-153 525 -18 88 -32 122 -51 122 -4 0 -10 -4 -13 -9z"/>
<path d="M1153 1428 c-46 -11 -83 -24 -83 -29 0 -12 0 -12 49 6 23 8 43 14 46
14 31 1 107 16 111 22 8 14 -33 9 -123 -13z"/>
<path d="M266 1328 c9 -59 14 -60 14 -5 0 26 -5 47 -10 47 -6 0 -8 -16 -4 -42z"/>
<path d="M184 1273 c3 -10 8 -31 11 -48 4 -16 8 -41 11 -53 3 -15 1 -21 -6
-17 -16 10 -12 -14 5 -31 17 -17 21 -49 5 -39 -5 3 -10 -1 -10 -9 0 -10 6 -13
17 -9 14 6 15 0 10 -43 -3 -27 -3 -42 0 -34 3 8 10 17 14 21 11 7 -40 279 -53
279 -5 0 -7 -8 -4 -17z"/>
<path d="M1430 1274 l-45 -13 50 5 c37 4 46 3 35 -5 -13 -9 -13 -11 3 -11 18
0 21 8 9 26 -5 7 -20 7 -52 -2z"/>
<path d="M282 1250 c0 -14 2 -19 5 -12 2 6 2 18 0 25 -3 6 -5 1 -5 -13z"/>
<path d="M1335 1261 c-11 -5 -23 -7 -27 -4 -5 2 -8 0 -8 -5 0 -6 17 -8 40 -5
22 3 40 1 40 -4 0 -5 16 -7 35 -5 19 2 35 8 35 12 0 5 -16 6 -35 3 -23 -4 -35
-2 -35 6 0 13 -16 13 -45 2z"/>
<path d="M1240 1240 c-12 -8 -12 -10 5 -10 11 0 27 5 35 10 12 8 12 10 -5 10
-11 0 -27 -5 -35 -10z"/>
<path d="M1152 1218 c-35 -11 -62 -22 -59 -24 4 -5 114 24 126 33 16 12 -14 8
-67 -9z"/>
<path d="M1280 1228 c-78 -16 -122 -29 -118 -34 5 -4 200 35 207 42 7 7 -40 3
-89 -8z"/>
<path d="M175 1220 c3 -5 8 -10 11 -10 2 0 4 5 4 10 0 6 -5 10 -11 10 -5 0 -7
-4 -4 -10z"/>
<path d="M1006 1182 c-7 -12 13 -72 24 -72 17 0 20 18 4 24 -13 5 -14 9 -4 21
7 8 20 15 29 15 14 0 14 -2 1 -10 -11 -7 -11 -10 -2 -10 7 0 10 -5 6 -11 -4
-7 -1 -9 7 -6 8 3 40 14 72 23 31 10 57 22 57 26 0 4 -21 0 -47 -8 -78 -25
-90 -28 -73 -15 11 8 12 11 2 11 -7 0 -10 5 -7 10 8 13 -1 13 -27 -1 -15 -8
-22 -8 -28 1 -5 8 -10 8 -14 2z"/>
<path d="M1110 1180 c-8 -5 -10 -10 -5 -10 6 0 17 5 25 10 8 5 11 10 5 10 -5
0 -17 -5 -25 -10z"/>
<path d="M1258 1172 c-38 -8 -68 -19 -68 -25 0 -5 6 -7 14 -4 8 3 42 11 75 18
34 6 64 16 67 20 7 11 -5 10 -88 -9z"/>
<path d="M1425 1157 c-68 -16 -85 -27 -30 -20 28 3 59 9 69 13 32 11 4 17 -39
7z"/>
<path d="M1490 1160 c0 -13 11 -13 30 0 12 8 11 10 -7 10 -13 0 -23 -4 -23
-10z"/>
<path d="M1328 1153 c7 -3 16 -2 19 1 4 3 -2 6 -13 5 -11 0 -14 -3 -6 -6z"/>
<path d="M1248 1143 c-10 -2 -18 -8 -18 -13 0 -8 69 6 79 16 6 5 -39 3 -61 -3z"/>
<path d="M309 1108 c4 -28 6 -29 9 -9 2 13 0 27 -5 32 -6 6 -7 -3 -4 -23z"/>
<path d="M1310 1130 c-12 -8 -10 -10 8 -10 13 0 20 4 17 10 -7 12 -6 12 -25 0z"/>
<path d="M1529 1136 c-2 -2 -22 -7 -44 -10 -79 -12 -105 -18 -110 -25 -2 -4
26 -2 63 5 87 17 99 17 99 -1 0 -8 -7 -15 -14 -15 -8 0 -11 5 -8 10 3 6 -1 10
-9 10 -28 0 -17 -19 17 -29 18 -5 25 -10 15 -11 -10 -2 -22 -4 -28 -5 -5 -1
-17 -3 -27 -4 -9 0 -14 -4 -10 -7 3 -3 24 -3 46 1 36 6 41 10 37 30 -5 29 -20
57 -27 51z"/>
<path d="M1180 1124 c-57 -19 -140 -58 -140 -66 0 -6 10 -4 23 4 12 9 52 25
90 38 37 12 67 24 67 26 0 5 -21 4 -40 -2z"/>
<path d="M1265 1120 c-19 -8 -19 -9 3 -9 12 -1 22 4 22 9 0 6 -1 10 -2 9 -2 0
-12 -4 -23 -9z"/>
<path d="M1178 1098 c-16 -5 -28 -14 -28 -19 0 -6 6 -7 13 -2 6 4 28 13 47 19
20 7 27 12 15 12 -11 0 -32 -4 -47 -10z"/>
<path d="M1305 1089 c-18 -7 -18 -8 5 -9 18 -2 20 -4 8 -7 -10 -2 -18 -8 -18
-13 0 -4 -8 -6 -18 -4 -9 3 -28 0 -42 -6 -22 -9 -21 -10 11 -5 27 4 38 2 43
-10 3 -8 0 -15 -6 -15 -6 0 -9 -2 -6 -5 3 -3 13 -2 22 1 14 5 15 9 4 15 -10 6
-8 9 7 9 17 0 17 2 5 10 -13 8 -13 10 2 10 9 0 18 -4 20 -9 2 -4 12 -5 23 0
20 7 20 8 -1 8 -12 1 -25 9 -30 20 -7 14 -14 16 -29 10z"/>
<path d="M1400 1081 c0 -4 -10 -7 -22 -6 -13 1 -16 0 -6 -2 33 -8 28 -31 -9
-38 -19 -3 -33 -8 -31 -10 2 -3 32 1 66 7 49 9 59 14 51 25 -6 7 -17 13 -23
13 -6 0 -4 -5 4 -10 12 -8 11 -10 -7 -10 -25 0 -29 10 -11 28 9 9 9 12 0 12
-7 0 -12 -4 -12 -9z"/>
<path d="M1440 1080 c8 -5 20 -10 25 -10 6 0 3 5 -5 10 -8 5 -19 10 -25 10 -5
0 -3 -5 5 -10z"/>
<path d="M1215 1069 c-46 -15 -134 -21 -115 -8 13 9 13 10 0 6 -8 -2 -14 -9
-13 -15 2 -6 -6 -14 -17 -17 -29 -9 -24 -22 8 -19 35 3 214 63 187 62 -11 0
-33 -4 -50 -9z m-95 -34 c-14 -8 -29 -14 -35 -14 -5 0 1 6 15 14 14 8 30 14
35 14 6 0 -1 -6 -15 -14z"/>
<path d="M323 1035 c0 -22 2 -30 4 -17 2 12 2 30 0 40 -3 9 -5 -1 -4 -23z"/>
<path d="M1170 1030 c-13 -9 -13 -10 0 -10 8 0 22 5 30 10 13 9 13 10 0 10 -8
0 -22 -5 -30 -10z"/>
<path d="M1231 1029 c-18 -6 -31 -12 -29 -14 5 -5 78 14 78 20 0 6 -8 5 -49
-6z"/>
<path d="M1560 1031 c0 -5 6 -12 13 -14 6 -3 0 -6 -15 -6 -16 -1 -28 -5 -28
-9 0 -5 14 -7 30 -4 33 5 32 4 24 26 -7 17 -24 22 -24 7z"/>
<path d="M1428 1012 c-43 -8 -75 -18 -73 -22 4 -7 184 26 193 35 9 9 -41 4
-120 -13z"/>
<path d="M1097 1002 c-28 -11 -36 -19 -32 -31 6 -15 12 -37 14 -52 1 -8 60 -4
69 6 4 4 -4 4 -18 1 l-25 -7 25 15 c29 18 66 23 40 6 -8 -5 -10 -10 -5 -10 6
0 17 5 25 10 13 9 13 10 0 10 -13 0 -13 1 0 10 8 5 24 9 35 9 20 0 20 0 0 -10
-20 -9 -20 -9 0 -6 11 2 19 9 18 15 -2 7 4 12 12 12 8 0 15 -4 15 -10 0 -5 8
-6 17 -3 15 6 15 7 -3 13 -14 5 -10 9 20 14 21 4 36 10 33 12 -3 3 -33 -2 -67
-11 -59 -15 -63 -15 -75 2 -7 10 -17 15 -21 10 -4 -4 -1 -7 7 -7 8 -1 3 -7
-11 -15 l-25 -15 30 6 c25 4 27 3 12 -6 -10 -6 -31 -9 -46 -5 -18 4 -32 2 -36
-5 -5 -9 0 -10 16 -6 21 6 20 4 -4 -9 -16 -9 -31 -14 -35 -11 -3 3 1 6 9 6 12
0 12 2 -1 10 -11 7 -5 14 30 30 37 16 39 19 15 15 l-30 -5 25 15 c32 18 16 17
-33 -3z m3 -22 c-8 -5 -19 -10 -25 -10 -5 0 -3 5 5 10 8 5 20 10 25 10 6 0 3
-5 -5 -10z"/>
<path d="M1220 1000 c-18 -12 -2 -12 25 0 13 6 15 9 5 9 -8 0 -22 -4 -30 -9z"/>
<path d="M1365 974 c-110 -24 -125 -29 -222 -67 -55 -21 -58 -24 -45 -43 5 -8
16 -5 37 7 17 11 23 19 15 19 -13 0 -13 1 0 10 8 5 22 10 30 10 13 0 13 -1 0
-11 -13 -9 -13 -10 0 -6 8 2 14 9 13 14 -2 9 78 35 142 47 78 15 180 38 184
42 10 9 -50 1 -154 -22z m-235 -94 c-20 -13 -33 -13 -25 0 3 6 14 10 23 10 15
0 15 -2 2 -10z"/>
<path d="M1315 980 c-3 -5 -2 -10 4 -10 5 0 13 5 16 10 3 6 2 10 -4 10 -5 0
-13 -4 -16 -10z"/>
<path d="M341 939 c14 -63 20 -72 13 -19 -3 25 -10 49 -14 54 -5 4 -4 -11 1
-35z"/>
<path d="M1569 976 c-4 -5 -51 -14 -77 -15 -7 -1 -11 -5 -7 -11 4 -6 15 -6 31
0 14 6 36 10 49 10 13 0 27 5 30 10 6 10 -17 15 -26 6z"/>
<path d="M225 961 c-3 -5 -1 -12 5 -16 5 -3 10 1 10 9 0 18 -6 21 -15 7z"/>
<path d="M1540 945 c-30 -8 -66 -14 -80 -14 -23 0 -23 1 -5 9 30 13 -1 12 -68
-1 -31 -7 -57 -16 -57 -21 0 -6 8 -7 18 -3 9 4 33 9 52 11 27 3 31 2 15 -5
-11 -5 -30 -10 -42 -10 -13 -1 -23 -5 -23 -9 0 -5 59 3 130 17 72 14 130 29
130 33 0 10 -2 10 -70 -7z"/>
<path d="M230 915 c0 -8 5 -15 10 -15 6 0 10 7 10 15 0 8 -4 15 -10 15 -5 0
-10 -7 -10 -15z"/>
<path d="M280 925 c0 -5 5 -17 10 -25 5 -8 10 -10 10 -5 0 6 -5 17 -10 25 -5
8 -10 11 -10 5z"/>
<path d="M1242 901 c-29 -10 -56 -22 -60 -26 -4 -5 0 -6 8 -3 8 3 41 13 73 22
31 9 57 19 57 21 0 9 -24 4 -78 -14z"/>
<path d="M1240 875 c-82 -27 -103 -31 -80 -14 12 9 12 10 -3 5 -10 -3 -22 -6
-25 -6 -4 0 0 -5 8 -10 12 -7 10 -11 -10 -19 -14 -5 -22 -10 -18 -10 8 -1 221
70 227 75 11 10 -30 1 -99 -21z"/>
<path d="M240 876 c0 -9 5 -16 10 -16 6 0 10 4 10 9 0 6 -4 13 -10 16 -5 3
-10 -1 -10 -9z"/>
<path d="M1450 870 c0 -5 5 -10 10 -10 6 0 10 5 10 10 0 6 -4 10 -10 10 -5 0
-10 -4 -10 -10z"/>
<path d="M361 838 c-1 -16 4 -28 9 -28 12 0 12 8 0 35 -8 18 -9 17 -9 -7z"/>
<path d="M1370 850 c0 -5 4 -10 9 -10 6 0 13 5 16 10 3 6 -1 10 -9 10 -9 0
-16 -4 -16 -10z"/>
<path d="M254 823 c2 -15 5 -31 5 -35 1 -5 5 -8 9 -8 11 0 2 59 -10 66 -5 3
-7 -7 -4 -23z"/>
<path d="M1300 840 c0 -5 5 -10 10 -10 6 0 10 5 10 10 0 6 -4 10 -10 10 -5 0
-10 -4 -10 -10z"/>
<path d="M1709 840 c-8 -5 -36 -12 -61 -15 -25 -3 -90 -15 -144 -25 -94 -19
-66 -18 76 1 36 4 86 8 113 9 34 0 47 4 47 14 0 20 -12 26 -31 16z"/>
<path d="M316 775 c2 -22 4 -51 4 -63 0 -13 5 -31 10 -40 12 -19 7 35 -10 103
l-9 40 5 -40z"/>
<path d="M371 794 c-1 -7 8 -56 19 -110 12 -55 22 -108 25 -119 2 -11 4 -22 5
-25 2 -3 2 -8 1 -12 0 -3 59 14 132 38 83 28 141 43 157 39 20 -4 22 -3 10 5
-12 9 -8 10 16 5 16 -3 41 -1 55 4 20 9 18 10 -16 6 -28 -3 -18 1 30 15 39 11
99 22 134 25 35 2 66 7 70 11 9 10 -129 -4 -203 -21 -36 -8 -133 -36 -217 -61
-83 -25 -153 -43 -155 -41 -2 2 -11 37 -19 78 -17 83 -43 180 -44 163z"/>
<path d="M1500 779 c-143 -22 -274 -53 -337 -80 -62 -26 -53 -31 15 -8 82 29
167 48 330 74 78 12 145 25 149 29 9 9 -15 6 -157 -15z"/>
<path d="M1378 773 c7 -3 16 -2 19 1 4 3 -2 6 -13 5 -11 0 -14 -3 -6 -6z"/>
<path d="M1328 763 c7 -3 16 -2 19 1 4 3 -2 6 -13 5 -11 0 -14 -3 -6 -6z"/>
<path d="M341 637 c-1 -26 20 -110 30 -121 13 -14 11 0 -11 74 -10 36 -19 57
-19 47z"/>
<path d="M850 640 c-20 -6 -21 -8 -5 -8 11 0 29 3 40 8 25 11 -1 11 -35 0z"/>
</g>
</svg>
