<?xml version="1.0" standalone="no"?>
<!DOCTYPE svg PUBLIC "-//W3C//DTD SVG 20010904//EN"
 "http://www.w3.org/TR/2001/REC-SVG-20010904/DTD/svg10.dtd">
<svg version="1.0" xmlns="http://www.w3.org/2000/svg"
 width="300.000000pt" height="300.000000pt" viewBox="0 0 300.000000 300.000000"
 preserveAspectRatio="xMidYMid meet">
<metadata>
Created by potrace 1.10, written by Peter Selinger 2001-2011
</metadata>
<g transform="translate(0.000000,300.000000) scale(0.100000,-0.100000)"
fill="#000000" stroke="none">
<path d="M373 1833 c-37 -18 -77 -32 -88 -33 -44 -1 -46 -17 -3 -25 120 -21
2377 -29 2448 -8 l35 10 -45 13 c-25 7 -58 18 -75 25 -88 38 -110 45 -139 45
-17 0 -474 3 -1015 6 l-984 6 6 -46 c4 -26 2 -48 -3 -51 -6 -3 -10 0 -10 7 0
10 -3 9 -9 -1 -7 -11 -13 -12 -23 -4 -7 6 -38 9 -68 7 l-55 -2 29 24 c27 24
29 24 42 7 11 -15 14 -15 15 -3 1 8 1 20 -1 25 -1 6 4 5 10 -1 13 -13 60 4 60
22 0 20 -58 10 -127 -23z m383 9 c5 7 3 8 -6 3 -8 -5 -11 -4 -7 3 4 5 16 8 27
5 11 -3 17 -10 14 -15 -4 -6 1 -6 13 1 14 7 24 7 33 -2 10 -9 11 -9 5 2 -6 10
3 12 44 10 28 -2 52 0 54 5 2 5 11 1 20 -8 9 -10 17 -13 17 -7 0 15 105 14
132 0 11 -6 18 -7 14 -1 -3 6 11 10 34 10 29 1 38 -3 33 -11 -5 -9 -3 -9 8 0
18 15 79 14 79 -1 0 -7 3 -7 8 -1 4 6 42 10 84 11 56 0 75 -3 68 -11 -6 -7 -1
-10 18 -9 15 1 34 3 42 3 13 1 13 2 0 11 -8 5 -11 10 -6 10 5 0 19 -8 30 -17
20 -17 20 -17 7 0 -12 15 -11 17 3 17 9 0 16 -6 16 -12 0 -8 3 -9 8 -3 9 12
32 13 51 1 10 -6 12 -5 7 2 -4 7 -2 12 3 12 6 0 11 -7 11 -15 0 -13 4 -14 20
-5 11 6 25 8 30 5 6 -3 10 -2 10 4 0 6 7 8 15 5 8 -4 13 -9 11 -13 -3 -4 6 -7
20 -7 16 0 23 5 20 13 -4 9 1 10 18 3 13 -5 27 -6 31 -2 9 10 134 9 128 -1 -2
-4 -9 -4 -15 -1 -7 4 -8 2 -4 -4 7 -12 36 -5 36 9 0 6 9 5 20 -1 11 -6 26 -7
33 -3 19 12 58 10 53 -2 -2 -7 2 -12 9 -12 8 0 13 5 12 11 -1 8 39 10 128 9
127 -2 130 -3 133 -25 2 -13 -4 -32 -12 -43 -14 -19 -15 -20 -45 -2 -28 16
-30 17 -24 1 5 -14 3 -15 -12 -6 -12 6 -28 7 -42 1 -13 -5 -25 -4 -28 2 -4 5
-11 7 -16 3 -18 -11 -208 -11 -201 1 4 6 1 6 -9 -1 -20 -15 -61 -16 -52 -1 4
7 0 6 -10 -2 -11 -8 -17 -9 -17 -3 0 6 -6 9 -12 7 -41 -14 -68 -13 -68 3 0 13
-2 14 -9 3 -9 -14 -167 -21 -188 -8 -6 4 -23 3 -37 -3 -14 -5 -28 -5 -31 -1
-3 5 -15 7 -27 3 -16 -4 -19 -2 -13 8 6 10 4 11 -6 4 -20 -13 -419 -12 -419 1
0 6 -3 6 -8 -1 -10 -14 -95 -17 -86 -2 5 7 2 8 -7 3 -19 -12 -49 -14 -55 -3
-3 4 -15 3 -26 -3 -15 -8 -22 -8 -28 1 -4 7 -10 8 -13 3 -4 -6 -32 -9 -64 -8
-75 3 -73 2 -74 23 -1 16 -2 16 -6 0 -7 -29 -23 -20 -23 12 0 23 4 30 20 30
11 0 20 5 20 11 0 7 9 5 24 -5 18 -11 27 -13 32 -4z m-150 -4 c4 -7 9 -6 14 2
4 7 13 9 19 6 14 -9 14 -46 1 -66 -8 -12 -10 -10 -10 9 l0 25 -20 -22 c-24
-25 -38 -27 -62 -8 -34 25 -17 60 32 63 11 1 23 -3 26 -9z m864 2 c0 -5 -2
-10 -4 -10 -3 0 -8 5 -11 10 -3 6 -1 10 4 10 6 0 11 -4 11 -10z m983 -14 c8
-20 -3 -56 -17 -57 -6 -1 -30 -2 -53 -3 -42 -2 -43 -1 -43 29 0 18 2 34 5 37
3 2 27 5 54 7 35 1 50 -2 54 -13z m31 2 c-5 -7 -3 -8 7 -2 23 14 36 13 56 -5
14 -13 25 -16 42 -9 18 6 27 4 37 -9 21 -28 17 -31 -26 -23 -27 5 -40 4 -41
-4 0 -6 -3 -6 -6 2 -3 8 -9 10 -16 4 -7 -5 -24 -12 -39 -14 -26 -5 -28 -3 -28
27 0 17 3 35 7 38 10 11 15 8 7 -5z"/>
<path d="M1344 1833 c4 -4 16 -8 28 -10 28 -4 18 6 -12 12 -12 2 -20 1 -16 -2z"/>
<path d="M2000 1836 c0 -2 7 -7 16 -10 8 -3 12 -2 9 4 -6 10 -25 14 -25 6z"/>
<path d="M2108 1823 c7 -3 16 -2 19 1 4 3 -2 6 -13 5 -11 0 -14 -3 -6 -6z"/>
<path d="M275 1853 c-58 -14 -233 -74 -248 -86 -26 -19 -12 -43 36 -62 51 -20
83 -49 107 -95 25 -50 89 -385 83 -434 -4 -29 -1 -42 10 -51 13 -10 14 -18 6
-49 -10 -35 -8 -39 26 -74 33 -34 40 -37 88 -36 112 3 156 10 174 26 10 9 36
23 58 32 22 10 49 26 61 37 21 20 31 20 827 17 748 -3 807 -4 819 -20 7 -10
31 -25 53 -34 22 -9 52 -25 67 -35 14 -11 41 -19 60 -18 18 0 49 -3 68 -8 57
-14 120 0 147 33 24 30 31 88 13 99 -17 10 -11 25 10 25 17 0 20 6 19 58 -1
52 34 267 63 379 6 27 26 63 46 85 40 45 35 47 -25 13 -27 -17 -51 -41 -64
-67 -23 -45 -54 -185 -64 -293 -4 -38 -9 -78 -11 -87 -3 -11 2 -18 17 -20 21
-3 22 -4 6 -20 -9 -9 -17 -25 -17 -35 0 -11 -5 -24 -12 -31 -8 -8 -8 -12 -1
-12 6 0 13 -13 15 -29 3 -23 1 -28 -11 -23 -14 5 -14 3 -3 -10 11 -14 10 -18
-7 -27 -11 -6 -29 -11 -40 -11 -12 0 -21 -6 -21 -12 0 -8 -3 -9 -8 -3 -4 6
-24 11 -46 12 -54 2 -72 11 -58 25 15 15 15 28 2 28 -6 0 -9 -6 -8 -12 2 -7
-6 -13 -17 -13 -14 0 -19 6 -17 20 4 17 1 17 -18 -5 -18 -21 -21 -22 -15 -5 5
16 4 18 -6 8 -19 -19 -34 -16 -18 4 13 15 12 15 -10 4 -19 -11 -22 -11 -16 0
6 8 4 11 -7 7 -19 -8 -45 7 -29 16 6 4 11 3 11 -2 0 -5 20 -6 48 -1 70 12 111
11 92 -1 -8 -5 -11 -10 -7 -10 4 0 18 6 30 14 12 8 50 16 84 18 34 2 58 7 54
11 -5 5 -41 4 -79 -2 -106 -16 -240 -16 -260 1 -13 11 -43 13 -116 12 -54 -2
-95 0 -92 4 9 8 298 10 311 2 14 -10 45 -8 39 2 -3 4 2 8 10 8 9 0 16 -5 16
-11 0 -8 4 -9 13 0 8 6 17 8 20 4 4 -3 7 -1 7 5 0 8 -103 11 -371 11 -304 0
-369 -2 -360 -13 8 -9 7 -13 -4 -13 -8 0 -15 6 -15 14 0 9 -14 13 -46 13 -34
0 -45 -3 -41 -13 7 -18 -107 -17 -125 1 -17 17 -28 15 -28 -5 0 -15 -2 -14
-15 3 -9 11 -13 13 -10 4 4 -11 -4 -15 -32 -16 l-38 -1 30 13 30 13 -32 -1
c-18 -1 -33 -8 -33 -14 0 -7 -11 -11 -25 -10 -31 1 -31 4 -2 16 20 8 19 8 -9
7 -21 -1 -30 -6 -27 -14 3 -7 -2 -13 -12 -13 -11 0 -15 5 -12 14 5 11 0 13
-23 6 -16 -4 -32 -5 -36 -2 -4 4 -4 1 0 -5 5 -9 0 -13 -16 -13 -18 0 -20 2 -8
10 13 8 13 10 -2 10 -9 0 -20 -5 -23 -10 -4 -7 -13 -6 -27 1 -15 8 -19 8 -14
0 5 -7 -2 -11 -18 -11 -14 0 -26 4 -26 9 0 15 -32 23 -44 11 -8 -8 -6 -9 5 -5
10 4 19 2 22 -2 3 -5 -8 -10 -24 -11 -17 -1 -28 1 -25 6 3 5 -1 9 -9 9 -8 0
-12 -4 -9 -9 3 -4 0 -8 -5 -8 -6 0 -11 7 -11 15 0 8 -5 15 -11 15 -6 0 -9 -7
-5 -15 7 -19 1 -19 -28 1 -18 11 -26 12 -32 3 -5 -8 -3 -10 7 -4 8 5 11 4 6 0
-15 -17 -59 -16 -78 1 -16 14 -22 15 -32 5 -9 -10 -8 -11 7 -5 13 5 17 4 12
-4 -8 -14 -66 -12 -66 2 0 7 -3 7 -8 1 -9 -13 -32 -17 -32 -6 0 5 6 12 13 14
6 3 -1 6 -16 6 -16 1 -30 -5 -33 -14 -4 -9 -17 -14 -34 -13 -16 1 -26 6 -23
10 2 5 14 6 25 2 14 -4 18 -2 14 5 -10 16 -68 10 -62 -6 3 -8 -2 -13 -12 -13
-9 0 -24 -12 -32 -26 -11 -20 -24 -27 -54 -30 -22 -2 -44 -8 -50 -14 -8 -8 -5
-9 9 -5 11 4 5 -2 -13 -14 -41 -27 -62 -27 -31 -1 20 16 21 19 7 20 -10 0 -18
-5 -18 -11 0 -6 -6 -9 -12 -6 -7 2 -12 11 -10 18 3 11 1 11 -9 2 -10 -10 -9
-15 1 -28 7 -8 8 -15 2 -15 -14 0 -20 21 -17 54 5 39 9 41 62 29 55 -13 68 -9
29 8 -48 22 -30 34 50 34 42 0 78 3 80 7 3 5 -40 8 -94 8 -95 0 -100 -1 -95
-20 4 -16 0 -20 -20 -20 -30 0 -44 15 -22 24 8 3 15 11 15 18 0 10 -2 10 -9
-1 -7 -11 -10 -9 -16 8 -8 27 -20 27 -22 1 -1 -12 3 -18 9 -14 6 4 9 1 6 -7
-3 -9 -20 -14 -50 -14 -28 0 -44 -4 -40 -10 9 -13 3 -47 -11 -63 -19 -24 35
-42 77 -26 21 8 21 44 0 44 -10 0 -14 -5 -10 -15 7 -19 -21 -32 -36 -17 -6 6
-7 23 -3 42 6 29 10 31 43 28 19 -2 37 -8 39 -15 3 -7 -4 -10 -19 -6 l-23 5
22 -16 c43 -32 12 -76 -50 -69 -53 7 -59 13 -63 60 -3 28 -2 34 6 23 6 -9 10
-10 10 -3 0 6 -6 18 -12 25 -37 39 -49 88 -23 88 13 0 21 -33 15 -65 -1 -5 4
-5 10 2 17 16 3 73 -18 73 -11 0 -17 8 -17 24 0 13 5 22 11 19 7 -2 15 0 19 6
3 6 2 11 -3 11 -5 0 -9 16 -10 35 -1 20 -6 43 -11 52 -6 11 -8 0 -6 -36 1 -29
-1 -49 -6 -44 -4 4 -9 31 -11 58 -2 28 -6 52 -9 55 -9 8 -40 181 -33 191 3 5
0 9 -5 9 -6 0 -11 5 -11 11 0 6 7 9 15 5 39 -15 -10 57 -57 84 -21 12 -38 22
-38 23 0 1 121 2 269 2 148 0 268 -2 266 -5 -2 -3 83 -4 188 -3 112 1 179 -2
162 -7 -30 -8 -30 -8 8 -9 23 -1 36 3 32 9 -3 6 5 10 19 10 14 0 28 -4 31 -10
3 -5 14 -10 23 -9 14 0 13 2 -3 9 -12 5 103 9 280 9 197 1 295 -3 285 -9 -10
-7 17 -9 85 -8 l100 2 -85 6 c-52 4 10 6 160 6 150 0 212 -2 160 -6 l-85 -6
87 -2 c61 -1 88 2 91 11 4 10 6 10 6 0 1 -7 6 -13 12 -13 5 0 7 5 4 10 -4 6 7
10 25 10 22 0 29 -4 24 -12 -6 -10 -4 -10 7 0 14 13 43 17 35 4 -2 -4 6 -9 20
-10 13 -1 24 4 24 11 0 8 4 7 10 -3 7 -11 14 -12 26 -5 9 6 44 8 81 5 35 -3
67 -2 70 3 2 4 10 4 16 -1 7 -5 48 -6 92 -2 44 3 123 5 174 4 105 -3 171 15
171 46 0 13 -11 19 -47 24 -25 3 -49 4 -51 1 -3 -3 5 -5 17 -5 25 0 39 -26 22
-43 -8 -8 -11 -7 -11 6 0 14 -10 17 -54 17 -83 0 -176 -12 -170 -22 3 -5 -235
-8 -560 -6 -462 1 -566 4 -566 15 0 7 -4 13 -10 13 -5 0 -7 -6 -4 -13 3 -10
-30 -13 -161 -12 -125 0 -165 3 -165 13 0 15 -37 16 -42 1 -3 -8 -142 -11
-493 -9 -535 1 -591 3 -617 13 -10 4 -26 10 -35 14 -15 5 -14 7 6 11 13 2 28
-2 32 -10 7 -10 9 -9 9 4 0 9 12 21 28 26 22 9 23 11 7 12 -30 2 109 48 195
64 72 14 73 14 25 14 -27 0 -59 -2 -70 -5z m945 -137 c0 -3 -4 -8 -10 -11 -5
-3 -10 -1 -10 4 0 6 5 11 10 11 6 0 10 -2 10 -4z m1649 0 c-10 -9 -79 -14 -79
-5 0 5 19 9 42 9 23 0 39 -2 37 -4z m-2669 -107 c0 -6 -4 -7 -10 -4 -5 3 -10
11 -10 16 0 6 5 7 10 4 6 -3 10 -11 10 -16z m2590 -99 c0 -5 -8 -10 -17 -10
-15 0 -16 2 -3 10 19 12 20 12 20 0z m-15 -30 c-4 -6 -9 -30 -11 -53 -3 -23
-6 -52 -7 -64 -4 -33 -13 -36 -14 -5 -2 43 17 132 28 132 6 0 7 -5 4 -10z
m-34 -196 c-5 -16 -10 -21 -10 -12 -1 18 10 51 15 45 2 -1 -1 -16 -5 -33z
m-1941 -174 c0 -5 -2 -10 -4 -10 -3 0 -8 5 -11 10 -3 6 -1 10 4 10 6 0 11 -4
11 -10z m980 6 c0 -2 -7 -6 -15 -10 -8 -3 -15 -1 -15 4 0 6 7 10 15 10 8 0 15
-2 15 -4z m70 -6 c0 -5 -4 -10 -10 -10 -5 0 -10 5 -10 10 0 6 5 10 10 10 6 0
10 -4 10 -10z m120 0 c0 -5 -6 -10 -14 -10 -8 0 -18 5 -21 10 -3 6 3 10 14 10
12 0 21 -4 21 -10z m40 -6 c0 -2 -7 -4 -15 -4 -8 0 -15 4 -15 10 0 5 7 7 15 4
8 -4 15 -8 15 -10z m80 8 c0 -4 -13 -9 -30 -10 -16 -1 -30 1 -30 5 0 5 14 9
30 10 17 1 30 -1 30 -5z m-743 -8 c-3 -3 -12 -4 -19 -1 -8 3 -5 6 6 6 11 1 17
-2 13 -5z m-1054 -47 c3 -8 -1 -14 -8 -14 -7 0 -11 6 -8 14 3 7 6 13 8 13 2 0
5 -6 8 -13z m2198 -65 c-7 -2 -18 1 -23 6 -8 8 -4 9 13 5 13 -4 18 -8 10 -11z"/>
<path d="M2595 1849 c17 -5 50 -11 75 -14 25 -3 60 -9 78 -14 17 -5 32 -7 32
-3 0 3 5 1 12 -6 7 -7 21 -12 33 -12 11 0 29 -6 40 -14 19 -12 115 -33 104
-22 -2 3 -53 21 -112 41 -101 33 -211 55 -267 54 -23 -1 -23 -1 5 -10z"/>
<path d="M110 1741 c16 -11 68 -15 58 -5 -4 3 -21 8 -40 10 -25 4 -29 2 -18
-5z"/>
<path d="M245 1730 c85 -9 163 -12 230 -9 62 3 -129 17 -230 16 l-70 0 70 -7z"/>
<path d="M632 1723 c59 -2 158 -2 220 0 62 1 14 3 -107 3 -121 0 -172 -2 -113
-3z"/>
<path d="M978 1723 c7 -3 16 -2 19 1 4 3 -2 6 -13 5 -11 0 -14 -3 -6 -6z"/>
<path d="M1028 1723 c12 -2 30 -2 40 0 9 3 -1 5 -23 4 -22 0 -30 -2 -17 -4z"/>
<path d="M1133 1723 c9 -2 23 -2 30 0 6 3 -1 5 -18 5 -16 0 -22 -2 -12 -5z"/>
<path d="M1328 1723 c6 -2 18 -2 25 0 6 3 1 5 -13 5 -14 0 -19 -2 -12 -5z"/>
<path d="M1515 1720 c-3 -5 -1 -10 4 -10 6 0 11 5 11 10 0 6 -2 10 -4 10 -3 0
-8 -4 -11 -10z"/>
<path d="M1598 1723 c7 -3 16 -2 19 1 4 3 -2 6 -13 5 -11 0 -14 -3 -6 -6z"/>
<path d="M1723 1723 c9 -2 25 -2 35 0 9 3 1 5 -18 5 -19 0 -27 -2 -17 -5z"/>
<path d="M1868 1723 c12 -2 32 -2 45 0 12 2 2 4 -23 4 -25 0 -35 -2 -22 -4z"/>
<path d="M2068 1723 c7 -3 16 -2 19 1 4 3 -2 6 -13 5 -11 0 -14 -3 -6 -6z"/>
<path d="M2637 1719 c7 -7 15 -10 18 -7 3 3 -2 9 -12 12 -14 6 -15 5 -6 -5z"/>
<path d="M2498 1713 c6 -2 18 -2 25 0 6 3 1 5 -13 5 -14 0 -19 -2 -12 -5z"/>
<path d="M2553 1713 c9 -2 25 -2 35 0 9 3 1 5 -18 5 -19 0 -27 -2 -17 -5z"/>
<path d="M280 1660 c11 -11 23 -20 26 -20 21 0 81 -120 70 -139 -4 -5 -3 -12
2 -15 4 -2 9 -22 11 -43 6 -80 10 -109 17 -132 5 -18 4 -22 -6 -16 -7 4 -16 2
-21 -6 -14 -23 -10 -34 5 -13 14 18 15 18 25 -9 14 -36 14 -67 0 -67 -5 0 -8
-4 -5 -9 3 -5 -10 -12 -30 -16 -20 -3 -37 -5 -38 -3 -1 2 -7 14 -12 27 -6 14
-13 20 -16 15 -4 -5 1 -20 11 -33 16 -21 23 -23 68 -16 l51 7 -4 56 c-10 113
-44 321 -60 361 -18 46 -65 91 -95 91 -18 0 -18 -1 1 -20z"/>
<path d="M361 1663 c6 -7 20 -13 31 -13 16 0 17 2 6 13 -7 8 -21 14 -30 14
-14 0 -15 -3 -7 -14z"/>
<path d="M1168 1673 c7 -3 16 -2 19 1 4 3 -2 6 -13 5 -11 0 -14 -3 -6 -6z"/>
<path d="M1213 1673 c9 -2 23 -2 30 0 6 3 -1 5 -18 5 -16 0 -22 -2 -12 -5z"/>
<path d="M1298 1673 c6 -2 18 -2 25 0 6 3 1 5 -13 5 -14 0 -19 -2 -12 -5z"/>
<path d="M1473 1673 c32 -2 81 -2 110 0 29 2 3 3 -58 3 -60 0 -84 -1 -52 -3z"/>
<path d="M1898 1673 c12 -2 32 -2 45 0 12 2 2 4 -23 4 -25 0 -35 -2 -22 -4z"/>
<path d="M1988 1673 c7 -3 16 -2 19 1 4 3 -2 6 -13 5 -11 0 -14 -3 -6 -6z"/>
<path d="M2670 1631 c-28 -29 -39 -52 -48 -97 -23 -115 -32 -177 -38 -262 -3
-48 -7 -91 -8 -97 0 -5 7 -10 17 -9 9 0 33 1 52 2 19 1 35 5 35 10 0 4 -21 5
-46 3 l-47 -3 8 88 c4 49 8 96 10 104 1 8 8 49 15 90 7 41 15 80 18 85 4 6 7
15 8 21 4 23 39 67 69 85 23 15 26 19 11 19 -11 0 -36 -17 -56 -39z"/>
<path d="M235 1621 c-3 -5 -2 -12 3 -15 5 -3 9 1 9 9 0 17 -3 19 -12 6z"/>
<path d="M945 1620 c-3 -5 -1 -10 4 -10 6 0 11 5 11 10 0 6 -2 10 -4 10 -3 0
-8 -4 -11 -10z"/>
<path d="M405 1610 c-3 -5 -1 -10 4 -10 6 0 11 5 11 10 0 6 -2 10 -4 10 -3 0
-8 -4 -11 -10z"/>
<path d="M232 1550 c0 -14 2 -19 5 -12 2 6 2 18 0 25 -3 6 -5 1 -5 -13z"/>
<path d="M446 1551 c-3 -5 1 -14 8 -20 12 -10 13 -8 9 8 -6 23 -9 25 -17 12z"/>
<path d="M1736 1542 c-3 -5 1 -9 9 -9 8 0 12 4 9 9 -3 4 -7 8 -9 8 -2 0 -6 -4
-9 -8z"/>
<path d="M880 1536 c0 -2 8 -10 18 -17 15 -13 16 -12 3 4 -13 16 -21 21 -21
13z"/>
<path d="M590 1510 c-9 -6 -10 -10 -3 -10 6 0 15 5 18 10 8 12 4 12 -15 0z"/>
<path d="M2492 1504 c-7 -8 -8 -14 -3 -14 10 0 25 19 20 25 -2 1 -10 -3 -17
-11z"/>
<path d="M245 1476 c1 -20 5 -40 9 -43 3 -3 6 -16 6 -27 0 -12 5 -28 10 -36
11 -16 11 -13 -5 75 -10 56 -23 75 -20 31z"/>
<path d="M462 1482 c1 -18 5 -35 10 -38 11 -7 10 37 -2 56 -6 10 -9 5 -8 -18z"/>
<path d="M2700 1491 c0 -6 4 -13 10 -16 6 -3 7 1 4 9 -7 18 -14 21 -14 7z"/>
<path d="M2694 1425 c-4 -8 -10 -12 -15 -9 -5 3 -9 0 -9 -5 0 -18 19 -12 30 9
6 11 8 20 5 20 -3 0 -8 -7 -11 -15z"/>
<path d="M465 1413 c4 -10 8 -24 8 -31 1 -18 20 -9 23 11 1 9 -1 16 -4 16 -20
-3 -25 2 -12 11 13 8 12 10 -4 10 -13 0 -16 -4 -11 -17z"/>
<path d="M2581 1413 c-1 -6 -4 -20 -7 -30 -5 -17 -5 -17 6 0 6 10 9 23 6 30
-3 9 -5 9 -5 0z"/>
<path d="M356 1382 c-3 -5 1 -9 9 -9 8 0 12 4 9 9 -3 4 -7 8 -9 8 -2 0 -6 -4
-9 -8z"/>
<path d="M487 1348 c-2 -7 -4 -26 -3 -42 2 -31 30 -45 40 -19 3 8 1 11 -4 8
-15 -9 -32 4 -23 18 11 18 14 47 4 47 -5 0 -11 -6 -14 -12z"/>
<path d="M780 1351 c0 -6 4 -13 10 -16 6 -3 7 1 4 9 -7 18 -14 21 -14 7z"/>
<path d="M356 1337 c3 -8 11 -14 19 -14 20 0 19 4 -5 17 -15 8 -18 8 -14 -3z"/>
<path d="M1785 1309 c-4 -6 -5 -12 -2 -15 2 -3 7 2 10 11 7 17 1 20 -8 4z"/>
<path d="M995 1289 c-4 -6 -5 -12 -2 -15 2 -3 7 2 10 11 7 17 1 20 -8 4z"/>
<path d="M2666 1272 c-3 -5 1 -9 9 -9 8 0 12 4 9 9 -3 4 -7 8 -9 8 -2 0 -6 -4
-9 -8z"/>
<path d="M878 1253 c7 -3 16 -2 19 1 4 3 -2 6 -13 5 -11 0 -14 -3 -6 -6z"/>
<path d="M2562 1240 c0 -14 2 -19 5 -12 2 6 2 18 0 25 -3 6 -5 1 -5 -13z"/>
<path d="M498 1233 c6 -2 18 -2 25 0 6 3 1 5 -13 5 -14 0 -19 -2 -12 -5z"/>
<path d="M1503 1225 c0 -8 4 -12 9 -9 5 3 6 10 3 15 -9 13 -12 11 -12 -6z"/>
<path d="M370 1200 c0 -5 5 -10 11 -10 5 0 7 5 4 10 -3 6 -8 10 -11 10 -2 0
-4 -4 -4 -10z"/>
<path d="M451 1194 c0 -11 3 -14 6 -6 3 7 2 16 -1 19 -3 4 -6 -2 -5 -13z"/>
<path d="M762 1174 c-11 -12 -5 -14 38 -14 32 0 49 4 45 10 -3 6 -18 7 -32 4
-14 -4 -28 -2 -32 4 -4 6 -11 5 -19 -4z"/>
<path d="M863 1175 c0 -11 29 -14 146 -14 79 -1 142 1 138 5 -3 3 -64 7 -134
8 -70 0 -133 4 -139 8 -6 4 -11 1 -11 -7z"/>
<path d="M2422 1178 c-10 -10 -102 -13 -373 -13 -199 0 -363 3 -366 8 -2 4
-13 3 -23 -3 -13 -7 -20 -6 -23 3 -3 6 -6 7 -6 1 -1 -7 -35 -9 -101 -7 -58 1
-98 -1 -95 -7 6 -10 1061 -14 1101 -4 13 3 24 13 24 23 0 11 -3 12 -8 4 -10
-16 -62 -28 -62 -14 0 6 -5 11 -11 11 -5 0 -8 -4 -5 -8 3 -5 -5 -8 -17 -7 -12
2 -21 8 -19 14 3 14 -1 14 -16 -1z"/>
<path d="M484 1168 c-5 -7 57 -10 191 -10 54 0 65 1 65 10 0 10 -250 10 -256
0z"/>
<path d="M1180 1169 c-14 -3 9 -7 55 -7 44 -1 102 -2 128 -2 27 -1 51 1 55 4
3 3 -19 7 -49 7 -30 1 -79 2 -109 3 -30 1 -66 -1 -80 -5z"/>
<path d="M2666 1153 c-4 -5 -13 -8 -18 -8 -6 0 -13 -7 -15 -15 -4 -12 -3 -12
5 -2 13 20 19 19 35 -2 13 -18 14 -18 12 2 -2 26 -9 35 -19 25z"/>
<path d="M488 1143 c7 -3 16 -2 19 1 4 3 -2 6 -13 5 -11 0 -14 -3 -6 -6z"/>
<path d="M2560 1133 c0 -7 6 -13 13 -13 7 0 21 6 30 13 15 11 14 12 -13 12
-17 0 -30 -5 -30 -12z"/>
<path d="M860 1119 c0 -5 5 -7 10 -4 6 3 10 8 10 11 0 2 -4 4 -10 4 -5 0 -10
-5 -10 -11z"/>
<path d="M948 1118 c9 -9 15 -9 24 0 9 9 7 12 -12 12 -19 0 -21 -3 -12 -12z"/>
<path d="M1590 1123 c0 -9 86 -10 94 -2 4 3 -16 7 -44 8 -27 1 -50 -2 -50 -6z"/>
<path d="M600 1080 c-14 -5 -18 -9 -10 -10 23 -4 44 1 55 11 11 11 -9 10 -45
-1z"/>
<path d="M490 1055 c7 -9 15 -13 17 -11 7 7 -7 26 -19 26 -6 0 -6 -6 2 -15z"/>
<path d="M2552 1048 c-15 -15 -16 -48 -2 -48 6 0 10 11 10 25 0 25 14 34 24
16 4 -5 0 -12 -6 -14 -10 -4 -9 -8 2 -16 8 -6 20 -9 25 -8 14 5 19 37 6 50 -7
7 -8 4 -5 -10 3 -12 0 -24 -7 -29 -8 -5 -11 -2 -6 8 3 9 0 21 -6 27 -14 14
-20 14 -35 -1z"/>
<path d="M2645 1010 c-19 -8 -19 -9 2 -9 12 -1 25 4 28 9 7 12 -2 12 -30 0z"/>
</g>
</svg>
