<?xml version="1.0" standalone="no"?>
<!DOCTYPE svg PUBLIC "-//W3C//DTD SVG 20010904//EN"
 "http://www.w3.org/TR/2001/REC-SVG-20010904/DTD/svg10.dtd">
<svg version="1.0" xmlns="http://www.w3.org/2000/svg"
 width="200.000000pt" height="200.000000pt" viewBox="0 0 200.000000 200.000000"
 preserveAspectRatio="xMidYMid meet">
<metadata>
Created by potrace 1.10, written by Peter Selinger 2001-2011
</metadata>
<g transform="translate(0.000000,200.000000) scale(0.100000,-0.100000)"
fill="#000000" stroke="none">
<path d="M175 1248 c-2 -7 -29 -80 -60 -162 -30 -82 -55 -164 -55 -182 0 -30
3 -34 25 -34 l25 0 2 -142 c1 -79 2 -156 3 -173 1 -29 2 -30 57 -32 67 -2 70
4 61 106 l-5 66 767 4 768 3 -6 -68 c-7 -93 0 -104 68 -104 l55 0 0 63 c0 34
3 112 6 173 6 104 8 110 28 110 17 -1 22 6 24 31 3 26 -14 60 -88 177 -49 80
-93 152 -96 160 -5 14 -98 16 -790 16 -622 0 -785 -2 -789 -12z m79 -30 c-9
-49 -30 -93 -43 -93 -8 0 -15 -6 -17 -13 -1 -7 0 -8 3 -2 2 5 9 10 15 10 13 0
2 -64 -19 -103 -15 -31 -12 -57 9 -57 9 0 9 3 0 12 -6 6 -8 16 -3 22 4 6 18
48 30 93 12 46 29 100 38 120 30 70 24 17 -12 -107 -19 -68 -35 -126 -35 -127
0 -2 349 -3 776 -3 426 0 778 -1 782 -4 4 -2 15 -1 24 3 15 5 9 21 -43 111
-33 58 -67 117 -75 132 l-14 27 35 -1 c25 -1 39 -8 50 -25 9 -12 13 -23 10
-23 -3 0 3 -10 15 -22 11 -12 20 -27 20 -33 0 -6 14 -30 31 -53 17 -23 28 -42
24 -42 -3 0 3 -10 15 -22 11 -12 19 -29 18 -37 -2 -9 3 -16 11 -16 8 0 16 -6
19 -12 3 -10 -185 -13 -917 -13 -607 0 -921 3 -921 10 0 6 4 10 10 10 5 0 9 3
8 8 -4 14 14 72 20 68 4 -2 8 6 8 17 1 12 16 59 34 105 31 80 32 82 65 82 30
0 33 -3 29 -22z m1469 -101 c37 -68 67 -127 67 -130 0 -15 -16 -5 -25 16 -6
12 -37 70 -69 130 -32 59 -54 107 -49 107 4 0 38 -56 76 -123z m-99 88 c-4
-14 -3 -16 4 -7 7 10 25 -15 68 -95 33 -59 60 -110 61 -113 2 -3 -339 -6 -757
-8 l-760 -2 0 20 c0 11 6 35 13 53 8 18 20 57 27 87 7 30 16 62 20 70 7 13 92
15 669 15 659 1 661 0 655 -20z m203 -288 c-7 -5 -3 -6 8 -1 11 4 35 8 53 9
25 1 32 -2 32 -17 0 -11 -7 -18 -20 -18 -11 0 -20 -4 -20 -8 0 -5 -201 -9
-447 -10 -495 -1 -910 -2 -933 -1 -8 1 -93 0 -188 -1 -175 -1 -232 8 -232 37
0 10 137 13 642 15 986 4 1117 4 1105 -5z m-1631 -93 c1 -16 4 -38 9 -49 5
-16 5 -17 -4 -5 -6 8 -11 10 -11 4 0 -5 5 -15 11 -21 16 -16 20 -174 6 -192
-10 -12 -9 -13 3 -6 9 5 12 5 7 -1 -5 -5 -24 -9 -43 -9 -45 0 -47 8 -42 169 3
131 9 147 47 141 10 -1 16 -12 17 -31z m1674 16 c0 -11 -4 -20 -10 -20 -6 0
-6 -9 -2 -22 5 -13 7 -73 4 -135 l-4 -111 -42 2 -41 3 2 80 c2 57 -1 80 -10
80 -7 1 -61 2 -120 3 -59 1 -106 5 -102 8 3 3 56 5 118 4 l113 -2 13 35 c9 26
9 39 1 52 -9 15 -10 14 -4 -7 6 -22 5 -23 -10 -11 -9 8 -14 21 -11 29 3 9 0
19 -7 24 -8 4 13 8 50 8 55 0 62 -2 62 -20z m-1570 -35 c0 -25 0 -48 0 -52 0
-5 -15 -9 -35 -11 -34 -3 -35 -2 -35 30 0 18 -3 43 -6 56 -6 20 -3 22 35 22
l41 0 0 -45z m120 -10 l0 -55 -47 0 -48 0 -2 55 -3 55 50 0 50 0 0 -55z m112
4 c1 -28 1 -53 -1 -55 -2 -2 -24 -4 -48 -4 l-43 0 0 55 0 55 44 0 44 0 4 -51z
m118 2 c0 -27 3 -58 6 -68 4 -11 3 -14 -3 -6 -4 6 -28 13 -53 15 l-44 3 -4 53
-3 52 50 0 51 0 0 -49z m110 -3 l0 -53 -45 -2 -45 -1 0 54 0 54 45 0 45 0 0
-52z m120 0 l0 -53 -50 0 -50 0 0 53 0 52 50 0 50 0 0 -52z m110 0 l0 -53 -45
0 -45 -1 0 53 0 53 45 0 45 0 0 -52z m118 1 l-3 -51 -47 -2 -48 -2 0 53 0 53
51 0 50 0 -3 -51z m112 -2 l0 -53 -47 2 c-27 1 -47 5 -45 8 1 3 2 26 2 51 l0
45 45 0 45 0 0 -53z m116 37 c-3 -9 -6 -32 -6 -52 l0 -37 -45 0 -45 -1 0 53 0
53 51 0 c43 0 50 -3 45 -16z m114 -33 l0 -49 -46 -4 c-25 -2 -47 -1 -48 2 -2
3 -1 26 2 53 l4 47 44 0 44 0 0 -49z m110 0 l0 -49 -45 -4 -45 -3 0 52 0 53
45 0 45 0 0 -49z m115 -1 l0 -50 -47 0 -48 0 0 50 0 50 48 0 47 0 0 -50z m73
17 c20 -56 16 -67 -24 -67 -29 0 -35 3 -30 16 3 9 6 31 6 50 0 47 31 47 48 1z
m-288 -87 c0 -5 -8 -10 -17 -10 -15 0 -16 2 -3 10 19 12 20 12 20 0z m-1110
-16 c0 -2 -30 -3 -67 -2 -67 1 -67 1 -18 7 47 6 85 3 85 -5z m347 10 c-3 -3
-12 -4 -19 -1 -8 3 -5 6 6 6 11 1 17 -2 13 -5z m130 0 c-3 -3 -12 -4 -19 -1
-8 3 -5 6 6 6 11 1 17 -2 13 -5z m670 0 c-3 -3 -12 -4 -19 -1 -8 3 -5 6 6 6
11 1 17 -2 13 -5z m-1100 -10 c-3 -3 -12 -4 -19 -1 -8 3 -5 6 6 6 11 1 17 -2
13 -5z m61 -1 c-10 -2 -26 -2 -35 0 -10 3 -2 5 17 5 19 0 27 -2 18 -5z"/>
<path d="M195 1200 c-3 -6 1 -7 9 -4 18 7 21 14 7 14 -6 0 -13 -4 -16 -10z"/>
<path d="M1720 1181 c0 -6 4 -13 10 -16 6 -3 7 1 4 9 -7 18 -14 21 -14 7z"/>
<path d="M1772 1135 c4 -4 2 -15 -4 -24 -10 -13 -10 -14 2 -4 11 10 16 9 27
-5 13 -15 13 -15 3 5 -5 12 -16 25 -23 29 -6 4 -9 4 -5 -1z"/>
<path d="M1810 1069 c0 -5 5 -7 10 -4 6 3 10 8 10 11 0 2 -4 4 -10 4 -5 0 -10
-5 -10 -11z"/>
<path d="M1826 1013 c-6 -14 -5 -15 5 -6 7 7 10 15 7 18 -3 3 -9 -2 -12 -12z"/>
<path d="M1783 610 c0 -30 2 -43 4 -27 2 15 2 39 0 55 -2 15 -4 2 -4 -28z"/>
<path d="M1950 1011 c0 -6 4 -13 10 -16 6 -3 7 1 4 9 -7 18 -14 21 -14 7z"/>
<path d="M1983 680 c0 -25 2 -35 4 -22 2 12 2 32 0 45 -2 12 -4 2 -4 -23z"/>
<path d="M261 624 c0 -11 3 -14 6 -6 3 7 2 16 -1 19 -3 4 -6 -2 -5 -13z"/>
<path d="M588 613 c12 -2 30 -2 40 0 9 3 -1 5 -23 4 -22 0 -30 -2 -17 -4z"/>
<path d="M1885 520 c-3 -6 1 -7 9 -4 18 7 21 14 7 14 -6 0 -13 -4 -16 -10z"/>
<path d="M473 363 c43 -2 110 -2 150 0 40 1 5 3 -78 3 -82 0 -115 -2 -72 -3z"/>
</g>
</svg>
