<?xml version="1.0" standalone="no"?>
<!DOCTYPE svg PUBLIC "-//W3C//DTD SVG 20010904//EN"
 "http://www.w3.org/TR/2001/REC-SVG-20010904/DTD/svg10.dtd">
<svg version="1.0" xmlns="http://www.w3.org/2000/svg"
 width="300.000000pt" height="300.000000pt" viewBox="0 0 300.000000 300.000000"
 preserveAspectRatio="xMidYMid meet">
<metadata>
Created by potrace 1.10, written by Peter Selinger 2001-2011
</metadata>
<g transform="translate(0.000000,300.000000) scale(0.100000,-0.100000)"
fill="#000000" stroke="none">
<path d="M1468 2673 c-10 -2 -18 -10 -18 -17 0 -7 -10 -26 -23 -43 -19 -26
-27 -30 -62 -26 -22 2 -52 8 -67 13 -18 5 -28 5 -28 -1 0 -18 -15 -8 -32 21
-17 29 -48 41 -48 19 0 -6 6 -9 14 -6 8 3 17 -1 20 -9 9 -24 8 -25 -25 -19
-19 4 -28 2 -24 -5 3 -5 1 -10 -5 -10 -13 0 -9 32 5 42 5 4 7 9 4 12 -9 10
-26 -9 -33 -38 l-7 -28 58 6 58 7 -24 -21 c-30 -26 -11 -26 22 1 19 14 31 17
44 11 10 -5 28 -8 41 -7 13 1 25 -2 28 -7 7 -11 54 -10 54 2 0 6 5 10 11 10 5
0 7 -5 3 -12 -4 -7 -3 -8 5 -4 9 6 9 11 0 22 -9 11 -8 15 6 20 10 4 21 1 26
-7 5 -8 9 -9 10 -4 0 6 3 2 7 -7 5 -12 12 -14 21 -9 11 7 11 14 -3 42 -16 31
-13 57 3 30 5 -7 11 -12 15 -12 24 3 28 0 16 -14 -7 -9 -10 -19 -6 -22 4 -4
11 -1 16 7 7 10 10 11 10 3 0 -7 5 -13 10 -13 6 0 10 7 10 16 0 9 5 12 11 8 6
-4 27 -10 46 -14 27 -7 39 -4 53 10 10 10 21 16 24 12 5 -5 28 -9 65 -11 10
-1 11 -4 3 -14 -6 -7 -15 -24 -21 -39 -9 -23 -8 -25 11 -20 11 2 24 -1 28 -8
6 -10 13 -9 31 4 l24 17 -27 -7 c-18 -4 -28 -2 -28 5 0 6 -3 10 -8 9 -4 -2 -7
2 -7 7 0 6 7 9 15 7 8 -2 23 -3 34 -3 23 0 44 -20 38 -37 -2 -7 2 -10 12 -6 9
3 14 10 11 14 -3 5 3 11 12 14 11 3 8 4 -7 3 -16 -1 -28 5 -35 20 -8 16 -15
19 -28 12 -20 -12 -37 -4 -37 17 0 8 -3 14 -7 14 -5 1 -27 5 -50 9 -29 6 -48
5 -59 -4 -11 -7 -32 -9 -63 -4 -25 4 -49 5 -52 3 -4 -2 -10 3 -13 12 -4 9 -9
14 -13 11 -3 -4 -15 0 -27 8 -11 8 -23 14 -26 14 -3 -1 -13 -3 -22 -6z m20
-35 c7 -7 12 -17 12 -22 0 -6 -5 -4 -10 4 -8 12 -10 12 -10 1 0 -18 -13 -6
-16 14 -3 18 8 19 24 3z"/>
<path d="M1876 2609 c3 -5 13 -9 22 -9 15 0 15 -2 2 -10 -13 -8 -13 -10 2 -10
19 0 89 -60 83 -70 -3 -4 2 -13 10 -20 8 -7 15 -19 15 -26 0 -8 5 -14 11 -14
7 0 5 10 -5 25 -9 13 -16 30 -16 37 0 17 -83 94 -109 101 -12 3 -19 1 -15 -4z"/>
<path d="M1731 2603 c1 -5 1 -15 0 -23 -1 -12 -5 -11 -16 4 -8 11 -15 14 -15
7 0 -7 -4 -10 -9 -7 -5 3 -15 -2 -22 -11 -12 -15 -12 -16 1 -8 21 13 40 15 40
4 0 -5 -6 -9 -12 -9 -7 0 -5 -5 5 -11 21 -12 22 -29 2 -29 -8 0 -15 -5 -15
-11 0 -5 6 -7 13 -3 9 6 9 4 -1 -8 -8 -10 -9 -18 -3 -22 6 -4 15 3 21 14 6 11
8 20 4 20 -3 0 -1 6 5 14 8 10 9 16 1 21 -6 3 -8 11 -4 16 3 5 10 6 16 3 7 -4
8 -2 4 4 -4 7 -3 12 3 12 6 0 8 7 5 15 -6 15 -25 21 -23 8z"/>
<path d="M1585 2573 l-7 -28 -19 24 -19 23 0 -24 c0 -13 5 -29 11 -35 9 -9 7
-12 -7 -11 -10 0 -27 -3 -37 -7 -15 -6 -17 -3 -13 18 5 28 -19 46 -28 21 -3
-9 -1 -12 4 -9 6 3 10 1 10 -4 0 -6 -9 -11 -20 -11 -11 0 -23 -7 -27 -16 -5
-13 -7 -13 -14 -2 -6 10 -11 9 -23 -7 -9 -11 -15 -24 -16 -30 0 -5 4 -4 9 4 5
7 13 11 19 7 5 -3 15 1 22 9 7 8 17 12 23 8 6 -3 7 -1 3 5 -4 7 -1 12 8 12 19
0 20 -5 6 -30 -7 -13 -7 -21 2 -26 7 -4 8 -3 4 4 -4 7 -2 12 4 12 6 0 8 5 5
10 -3 6 4 10 16 10 21 0 22 -1 4 -20 -20 -22 -19 -22 40 -22 22 0 45 -4 52
-10 7 -5 16 -7 21 -4 12 7 10 -36 -2 -50 -12 -13 -49 -16 -41 -3 4 5 14 9 23
9 15 0 15 2 2 10 -11 7 -11 10 -2 10 7 0 10 5 7 11 -4 6 -10 8 -13 5 -3 -3
-10 -2 -16 3 -6 5 -20 5 -31 1 -17 -6 -16 -7 8 -14 24 -6 26 -9 17 -26 -6 -11
-8 -25 -5 -30 3 -6 0 -10 -7 -10 -9 0 -9 -3 2 -10 11 -7 17 -4 23 12 4 11 10
18 13 15 4 -3 3 -14 -1 -24 -17 -37 -11 -61 10 -43 9 7 15 8 19 1 4 -6 13 -8
20 -5 8 3 17 1 21 -5 3 -6 -1 -11 -9 -11 -9 0 -16 -5 -16 -10 0 -6 10 -9 23
-7 12 2 16 2 10 0 -7 -3 -13 -9 -13 -15 0 -6 3 -8 7 -5 3 4 12 2 20 -4 10 -9
13 -7 13 9 0 21 26 49 37 38 3 -3 1 -6 -6 -6 -7 0 -10 -4 -7 -9 4 -5 0 -11 -6
-14 -7 -2 -10 -7 -7 -11 4 -4 17 3 29 16 15 16 19 18 15 6 -5 -13 -2 -18 8
-18 13 0 14 5 6 29 -8 22 -15 28 -27 24 -15 -6 -15 -5 -2 11 13 16 12 18 -10
14 -14 -2 -24 -8 -23 -14 1 -5 -7 -11 -18 -11 -10 -1 -20 2 -20 8 -1 5 -2 14
-3 19 0 6 -8 15 -16 21 -13 9 -12 10 3 5 9 -3 17 -2 17 3 0 5 12 9 27 9 14 0
32 7 38 16 13 17 50 12 39 -5 -3 -5 -9 -7 -14 -4 -4 3 -14 -3 -21 -12 -12 -15
-12 -16 3 -10 12 4 19 0 23 -14 4 -10 15 -19 26 -19 13 0 19 -7 19 -21 0 -11
4 -17 10 -14 6 4 18 1 26 -6 8 -6 17 -9 21 -6 3 4 -6 12 -21 18 -14 7 -26 16
-26 21 0 11 28 10 35 -2 3 -5 11 -10 16 -10 6 0 7 5 4 10 -3 6 -1 10 5 10 6 0
10 -6 9 -12 -3 -26 1 -39 11 -33 6 4 8 11 5 16 -3 5 1 6 9 3 22 -9 20 -25 -4
-31 -17 -4 -18 -8 -8 -20 9 -11 9 -16 -2 -23 -8 -5 -17 -7 -22 -4 -4 3 -17 -5
-28 -16 -20 -20 -20 -23 -6 -39 16 -17 15 -18 -14 -17 -27 1 -45 16 -19 16 5
0 7 4 4 10 -3 5 6 21 22 34 25 22 26 25 10 31 -15 6 -15 10 -5 23 11 13 10 15
-11 9 -14 -3 -31 -1 -38 5 -8 6 -13 7 -13 0 0 -5 7 -15 15 -22 8 -7 13 -16 10
-20 -3 -5 -1 -11 5 -15 5 -3 10 -1 10 4 0 6 5 11 10 11 18 0 11 -18 -9 -25
-11 -3 -21 -15 -23 -26 -2 -11 -7 -20 -13 -20 -17 -1 -16 18 1 36 15 15 15 18
1 32 -21 21 -51 9 -44 -17 3 -11 1 -23 -4 -26 -5 -3 -7 -10 -4 -15 4 -5 2 -9
-4 -9 -5 0 -8 18 -6 40 3 36 2 39 -15 30 -26 -14 -73 7 -125 57 -7 7 -16 9
-20 5 -5 -4 -6 1 -2 10 3 10 0 19 -9 22 -10 4 -13 13 -9 26 6 18 3 21 -21 18
-24 -3 -29 1 -34 27 -5 28 -6 29 -12 7 -5 -16 0 -30 13 -43 10 -10 19 -16 19
-12 0 4 6 -2 14 -12 8 -11 12 -24 9 -29 -3 -5 -10 -1 -15 8 -9 17 -38 22 -38
7 0 -5 10 -16 23 -25 14 -10 16 -14 4 -10 -13 5 -16 2 -11 -10 3 -9 10 -13 15
-10 5 3 12 -3 16 -13 4 -10 11 -21 17 -25 6 -4 11 -13 11 -20 0 -20 32 -21 52
-1 18 18 63 20 63 3 0 -5 7 -7 16 -3 14 5 15 3 5 -15 -9 -18 -8 -23 8 -32 11
-5 27 -10 35 -10 10 0 16 -9 16 -21 0 -19 -2 -20 -17 -8 -10 8 -24 20 -31 27
-7 6 -20 12 -28 12 -8 0 -14 5 -14 10 0 6 5 10 11 10 5 0 8 4 5 9 -3 5 -17 9
-31 9 -13 0 -23 -4 -20 -7 2 -4 -3 -20 -10 -35 -8 -16 -12 -33 -8 -39 4 -6 0
-8 -10 -4 -19 7 -21 -1 -8 -22 14 -21 44 5 36 30 -6 17 -1 19 37 18 24 0 37
-3 30 -6 -10 -4 -7 -9 10 -17 33 -17 31 -50 -8 -87 -32 -31 -64 -35 -64 -7 0
10 3 9 9 -1 8 -12 12 -12 25 -2 9 7 13 17 10 22 -3 5 2 9 10 9 8 0 18 5 22 12
5 7 2 9 -8 6 -17 -7 -42 27 -32 45 4 7 -4 1 -17 -13 -18 -19 -21 -27 -12 -33
7 -4 17 -6 22 -3 5 4 7 -3 4 -15 -5 -19 -7 -19 -15 -5 -5 9 -13 14 -19 11 -5
-4 -9 -2 -9 2 0 5 -17 15 -37 23 -21 7 -32 15 -25 17 18 7 15 21 -4 19 -9 0
-19 6 -21 14 -4 13 -3 13 6 0 8 -12 12 -9 20 13 13 35 14 47 1 27 -7 -11 -11
-9 -19 13 -6 15 -18 30 -27 34 -10 4 -12 8 -5 13 8 4 5 13 -9 25 -15 14 -23
16 -32 7 -8 -8 -7 -13 5 -18 9 -3 17 -10 17 -15 0 -13 -28 1 -34 18 -4 9 -1
21 5 29 13 16 19 64 8 64 -5 0 -9 7 -9 16 0 10 -6 14 -15 10 -11 -4 -15 1 -15
19 0 25 -14 33 -25 15 -3 -5 -13 -10 -21 -10 -8 0 -14 5 -14 10 0 6 8 10 18
10 14 0 15 2 2 10 -24 15 -43 12 -36 -6 4 -10 -1 -22 -11 -30 -16 -11 -15 -12
10 -10 24 3 27 1 21 -18 -4 -11 -10 -23 -13 -26 -10 -8 -10 -60 -1 -60 15 0
22 21 11 34 -17 21 6 35 44 26 19 -4 36 -6 38 -3 8 7 15 -23 9 -34 -4 -6 -18
-14 -32 -18 -22 -7 -23 -6 -11 8 7 9 17 14 22 11 5 -3 9 -3 9 0 0 3 -10 10
-21 17 -15 8 -19 8 -15 0 4 -6 2 -11 -3 -11 -6 0 -11 5 -11 11 0 5 -4 7 -10 4
-6 -4 -4 -14 5 -28 9 -15 11 -27 5 -37 -9 -13 -10 -13 -11 0 -1 8 -1 19 0 23
1 5 -3 5 -9 2 -6 -4 -9 -13 -6 -21 4 -12 2 -12 -14 -4 -14 7 -20 7 -20 0 0 -5
4 -10 10 -10 5 0 7 -6 4 -14 -6 -15 4 -15 43 -2 14 4 20 12 16 22 -3 10 0 12
10 8 9 -3 15 -14 14 -24 -1 -11 -6 -16 -16 -12 -9 3 -12 1 -7 -6 4 -7 23 -12
42 -12 19 0 34 -4 34 -8 0 -5 -14 -8 -30 -7 -19 1 -29 -2 -27 -9 2 -6 -5 -20
-16 -31 -20 -20 -20 -20 -7 3 18 35 7 36 -24 2 -18 -21 -25 -37 -21 -50 7 -22
20 -26 30 -10 3 6 -1 10 -9 10 -9 0 -16 5 -16 11 0 6 6 9 13 6 16 -6 48 6 50
18 3 19 30 43 43 38 20 -7 17 -21 -3 -19 -10 0 -19 -7 -21 -16 -2 -11 3 -18
13 -18 9 0 13 4 10 10 -4 6 4 9 17 7 15 -1 29 -14 40 -37 9 -19 17 -32 17 -27
1 4 15 1 31 -8 37 -19 42 -68 9 -86 -14 -7 -19 -7 -15 0 4 5 1 19 -6 30 -9 15
-15 17 -25 9 -8 -6 -17 -8 -20 -4 -4 4 -2 11 5 15 10 6 9 15 -3 44 -20 49 -27
47 -19 -5 8 -48 -10 -46 -21 3 -5 20 -11 29 -21 25 -8 -3 -14 1 -14 9 0 8 -5
15 -10 15 -7 0 -7 -6 0 -20 6 -11 14 -20 18 -20 4 0 8 -9 9 -20 1 -11 -4 -20
-13 -20 -8 0 -14 8 -14 18 0 14 -2 15 -10 2 -5 -9 -5 -19 1 -26 6 -8 5 -14 -6
-18 -22 -8 -19 -22 5 -22 18 0 24 8 21 29 0 4 3 7 9 7 13 0 6 -58 -9 -73 -7
-7 -12 -7 -11 -2 4 21 0 35 -11 35 -6 0 -8 -7 -5 -17 8 -19 -29 -58 -45 -48
-11 7 -61 -40 -52 -49 3 -3 -8 -3 -23 -2 -16 2 -32 -1 -36 -8 -4 -6 -10 -7
-15 -3 -4 5 3 17 17 27 27 21 45 26 35 10 -4 -6 1 -7 11 -3 15 6 15 7 0 15
-11 6 -22 5 -32 -2 -11 -10 -14 -9 -14 4 0 9 5 16 11 16 5 0 7 5 4 10 -5 8
-11 7 -21 -1 -11 -9 -15 -8 -20 5 -3 8 -4 21 -1 28 3 7 6 2 6 -11 1 -17 4 -21
14 -13 6 5 24 8 40 6 15 -1 27 1 27 6 0 4 13 13 29 18 25 9 29 8 24 -4 -3 -8
-14 -14 -24 -14 -10 0 -19 -4 -19 -10 0 -5 13 -7 30 -5 43 5 53 14 35 31 -20
20 -19 30 2 38 14 6 15 9 4 16 -12 7 -12 12 1 32 15 23 14 48 -3 48 -4 0 -6
-6 -3 -14 3 -8 1 -17 -5 -21 -6 -3 -11 -17 -11 -31 0 -21 -3 -24 -25 -18 -15
4 -25 2 -25 -5 0 -6 -9 -11 -21 -11 -16 0 -19 -4 -14 -20 3 -11 2 -20 -4 -20
-5 0 -12 8 -14 18 -4 16 -5 16 -6 -1 0 -10 -5 -16 -11 -12 -5 3 -7 12 -4 19 3
8 1 17 -5 21 -21 13 -10 21 24 19 25 -2 35 1 35 11 0 8 6 15 13 15 7 1 5 6 -5
14 -10 7 -18 19 -18 25 0 7 -5 9 -12 5 -7 -4 -8 -3 -4 4 7 12 36 5 36 -9 0 -5
5 -9 10 -9 15 0 12 27 -4 33 -11 4 -12 16 -5 51 5 28 5 56 -1 72 -13 32 -13
43 0 24 5 -8 10 -10 10 -4 0 6 -7 18 -16 25 -14 12 -16 10 -12 -16 1 -15 -2
-30 -7 -32 -22 -7 -10 62 14 85 30 27 13 29 -19 2 -18 -15 -25 -17 -31 -8 -4
7 -3 18 3 25 8 10 6 13 -8 13 -18 0 -52 -54 -46 -72 1 -4 -4 -5 -12 -2 -8 3
-17 1 -21 -5 -3 -6 1 -11 9 -11 9 0 16 -4 16 -10 0 -5 6 -10 13 -10 7 0 23 -9
34 -19 16 -15 23 -17 32 -8 10 9 12 9 9 -3 -5 -25 -27 -41 -50 -38 -18 2 -24
-3 -26 -22 -3 -24 -3 -25 12 -5 14 19 15 18 3 -13 -6 -18 -14 -27 -16 -20 -2
7 -10 17 -18 21 -11 7 -11 11 2 23 8 9 13 20 10 25 -6 9 8 13 32 10 8 -1 10 5
7 14 -6 14 -9 14 -30 0 -30 -20 -27 -20 -71 18 -22 19 -34 25 -30 15 3 -9 1
-19 -6 -22 -7 -2 2 -5 18 -5 24 -1 27 -3 15 -12 -13 -9 -12 -10 3 -5 11 3 17
0 17 -9 0 -9 6 -12 18 -8 15 6 15 4 -2 -15 -19 -22 -32 -30 -22 -13 3 5 -1 14
-8 20 -9 7 -17 8 -20 2 -8 -12 -56 0 -55 14 0 6 8 9 17 8 10 -1 11 0 4 3 -6 3
-9 10 -6 16 4 6 -1 6 -14 -1 -18 -10 -32 -55 -24 -79 2 -6 15 -8 30 -6 39 8
40 14 2 14 -26 0 -31 3 -22 12 8 8 24 6 64 -10 42 -16 48 -21 28 -23 -14 -1
-31 -1 -38 0 -10 2 -12 -4 -7 -18 5 -17 2 -21 -18 -21 -20 0 -24 4 -20 20 3
12 2 20 -3 19 -29 -5 -36 3 -32 35 2 23 0 32 -8 29 -7 -2 -10 -14 -7 -26 4
-20 3 -20 -9 -5 -9 10 -23 14 -40 11 -27 -5 -44 -28 -29 -38 5 -3 11 2 15 10
6 17 46 21 46 4 0 -6 -7 -9 -15 -6 -8 4 -17 2 -20 -3 -4 -6 -1 -10 4 -10 6 0
10 -11 9 -25 -1 -14 -6 -25 -11 -25 -5 0 -4 -7 3 -15 18 -21 32 -8 25 24 -4
19 -1 32 10 41 9 8 15 8 15 2 0 -6 -4 -13 -9 -16 -5 -3 -7 -15 -4 -26 3 -11 9
-17 15 -14 5 3 6 14 3 25 -5 14 -2 17 8 13 19 -7 16 -72 -4 -85 -22 -13 -26 1
-5 17 11 7 17 16 14 20 -9 8 -49 -16 -43 -26 3 -5 0 -12 -6 -16 -8 -4 -9 -3
-5 4 8 13 -23 31 -42 25 -7 -3 -20 -2 -30 3 -30 13 -52 14 -52 3 0 -5 4 -8 9
-4 12 7 36 -34 25 -43 -4 -4 -9 -1 -11 6 -3 6 -9 10 -14 7 -5 -4 -2 -16 6 -29
8 -12 12 -26 8 -29 -3 -4 -1 -7 6 -7 7 0 9 -4 6 -10 -3 -5 1 -10 9 -10 20 0
20 7 1 27 -16 15 -11 38 6 28 5 -3 6 1 3 9 -4 10 -1 16 7 17 8 0 5 4 -6 9 -16
7 -13 9 18 9 36 1 50 -12 24 -22 -9 -3 -13 -20 -11 -47 2 -35 -1 -43 -22 -50
-13 -5 -24 -14 -24 -20 0 -6 5 -8 10 -5 6 3 10 2 10 -4 0 -20 -22 -22 -27 -2
-3 12 -10 21 -15 21 -5 0 -7 -4 -4 -9 10 -16 -18 -18 -33 -4 -12 12 -12 17 3
31 11 11 16 12 16 4 0 -7 5 -10 11 -6 17 10 -4 24 -27 18 -26 -7 -44 -42 -34
-69 6 -18 7 -18 17 -1 6 11 13 14 17 8 3 -5 15 -8 26 -5 14 4 20 0 20 -11 0
-11 5 -14 12 -10 7 4 8 3 4 -4 -4 -6 -13 -9 -21 -5 -18 6 -19 -6 -1 -29 7 -10
26 -18 41 -18 22 0 26 -4 22 -19 -3 -11 2 -29 10 -40 17 -25 7 -50 -10 -26 -7
8 -23 17 -35 20 -22 4 -23 1 -17 -22 5 -23 4 -25 -9 -14 -9 8 -16 10 -16 5 0
-5 -5 -1 -11 9 -5 9 -18 17 -27 17 -12 0 -10 -4 8 -17 14 -10 28 -18 33 -19 4
-1 10 -3 15 -4 4 -1 10 -2 15 -1 4 0 7 -6 7 -15 0 -8 4 -13 9 -9 5 3 16 -1 24
-10 13 -13 16 -13 27 0 7 8 10 24 7 35 -3 11 -1 22 3 25 14 8 -1 45 -19 46
-13 0 -14 2 -1 6 21 8 45 44 43 65 -2 29 -2 30 -19 13 -13 -12 -19 -13 -30 -4
-8 7 -17 9 -21 5 -3 -3 -1 -6 6 -6 9 0 8 -4 -3 -15 -8 -8 -19 -15 -25 -15 -14
0 -14 17 -1 25 6 4 10 12 9 18 -1 7 3 25 10 42 9 23 14 26 21 15 7 -12 12 -12
28 3 23 21 32 22 32 1 0 -8 -4 -13 -9 -10 -17 11 -20 -22 -3 -37 15 -14 19
-14 37 0 16 13 17 15 3 10 -12 -4 -18 -1 -18 9 0 9 5 12 13 8 9 -6 8 -3 -1 8
-11 14 -11 21 3 42 16 24 16 26 1 26 -10 0 -15 4 -12 9 3 4 -4 8 -16 7 -12 0
-23 -7 -24 -14 -1 -7 0 -8 3 -2 2 5 8 10 13 10 14 0 0 -35 -18 -47 -15 -9 -17
-4 -19 36 -1 28 1 41 6 32 7 -10 10 -10 13 -1 2 7 18 13 36 14 18 1 32 6 33
11 0 6 7 13 14 18 8 4 12 14 9 22 -4 8 -1 15 5 15 6 0 11 -4 11 -10 0 -5 8 -7
18 -4 16 5 16 5 0 -6 -9 -6 -15 -17 -12 -25 4 -8 2 -15 -4 -15 -6 0 -13 6 -15
13 -3 7 -6 5 -6 -5 -1 -10 -5 -18 -10 -18 -5 0 -11 -7 -15 -15 -7 -19 8 -20
26 -2 7 8 19 12 26 9 6 -2 12 1 12 8 0 6 4 8 10 5 6 -3 7 1 4 10 -4 8 -1 21 5
29 6 7 7 17 3 21 -4 5 -1 5 6 1 7 -4 12 -1 12 8 0 9 -8 16 -17 16 -14 0 -15 2
-4 13 10 9 15 9 18 0 2 -7 10 -10 16 -7 7 2 26 0 42 -5 17 -5 22 -10 12 -10
-24 -1 -11 -21 14 -21 10 0 19 -5 19 -10 0 -6 -10 -9 -22 -7 -13 2 -18 2 -12
0 12 -4 17 -53 5 -51 -3 0 -8 -1 -11 -2 -19 -7 -39 -7 -34 1 3 5 11 9 19 9 7
0 15 6 18 13 3 8 -1 14 -9 14 -7 0 -11 -3 -10 -6 2 -3 -7 -7 -21 -7 l-25 -2
21 19 c26 24 27 39 4 38 -10 0 -13 -3 -6 -5 8 -4 7 -11 -5 -23 -9 -10 -21 -16
-27 -13 -5 3 -2 -4 8 -15 9 -11 17 -24 17 -29 0 -5 11 -14 25 -21 14 -6 23 -7
20 -3 -3 5 -1 11 5 15 11 7 14 -27 4 -38 -4 -4 -19 3 -35 13 -17 13 -30 16
-34 10 -3 -5 0 -10 7 -11 7 0 4 -4 -7 -9 -18 -8 -17 -9 8 -9 18 -1 27 -6 24
-13 -2 -7 -11 -12 -19 -10 -20 3 -33 -29 -16 -39 7 -4 9 -11 5 -15 -8 -8 11
-34 24 -34 17 0 9 32 -13 51 -22 18 -22 18 -3 19 12 0 26 5 33 12 7 7 12 8 12
4 0 -5 7 -3 15 4 13 11 14 10 9 -4 -3 -9 -1 -16 5 -16 6 0 11 -5 11 -11 0 -6
-6 -9 -12 -7 -7 3 -18 -1 -25 -8 -15 -15 -17 -28 -3 -19 6 3 10 2 10 -4 0 -5
-8 -15 -17 -20 -17 -10 -16 -13 10 -35 15 -14 27 -27 27 -30 0 -3 -11 -16 -25
-30 -15 -15 -21 -27 -14 -31 7 -5 6 -11 -2 -21 -9 -11 -7 -14 10 -14 21 0 25
18 6 33 -6 4 -3 11 8 18 9 5 17 17 17 24 0 8 4 15 9 15 4 0 6 12 3 26 -3 15
-8 21 -12 14 -5 -8 -10 -7 -19 4 -8 10 -9 16 -1 21 5 3 10 3 10 -1 0 -4 9 1
19 10 11 10 25 15 30 11 6 -3 11 1 11 9 0 16 12 21 23 10 12 -12 -30 -45 -49
-38 -16 6 -17 5 -6 -7 6 -7 13 -22 13 -33 1 -17 2 -18 6 -3 2 9 11 17 19 17 9
0 12 5 8 13 -4 6 7 -1 24 -18 23 -23 27 -31 15 -33 -9 -2 -13 -11 -10 -21 3
-14 -2 -18 -29 -17 -19 1 -32 5 -31 11 2 5 14 9 25 7 19 -3 22 2 22 28 0 26
-2 29 -14 18 -7 -7 -11 -19 -8 -27 3 -9 1 -12 -6 -7 -6 3 -13 2 -17 -4 -4 -6
-11 -8 -16 -5 -5 4 -9 1 -9 -4 0 -19 -2 -26 -11 -43 -7 -14 -6 -18 6 -18 9 0
14 4 10 9 -3 5 -1 12 4 15 25 16 20 -49 -5 -69 -10 -8 -10 -15 1 -35 11 -20
14 -21 15 -7 0 13 5 17 19 12 11 -3 22 -1 26 5 9 14 27 2 19 -13 -4 -7 -1 -6
7 2 11 10 11 15 2 18 -8 3 -11 14 -7 28 4 17 0 26 -14 34 -11 6 -23 7 -27 3
-5 -4 -5 -1 -1 6 4 6 2 12 -3 12 -6 0 -11 4 -11 10 0 14 22 8 37 -10 11 -13
14 -13 23 0 8 12 10 11 10 -7 0 -16 4 -21 15 -17 19 8 19 -7 1 -51 -12 -29
-12 -36 -2 -42 15 -9 4 -53 -14 -53 -5 0 -10 -5 -10 -11 0 -8 5 -7 16 2 10 8
18 9 22 2 4 -6 14 -3 27 10 20 19 20 19 -5 13 -14 -4 -20 -4 -15 1 16 13 14
52 -3 45 -11 -4 -13 0 -7 19 4 13 12 33 19 44 7 11 9 35 6 55 -5 33 -6 34 -17
14 -7 -12 -9 -24 -6 -28 3 -3 1 -6 -5 -6 -17 0 -15 28 2 46 8 8 17 14 20 14 3
0 18 12 33 27 15 14 22 23 16 19 -9 -5 -13 0 -13 13 0 27 20 38 35 18 7 -10
18 -17 25 -17 8 0 10 -6 5 -17 -12 -31 -13 -48 -2 -60 6 -9 5 -18 -3 -28 -16
-20 -1 -38 23 -29 19 7 23 24 6 24 -6 0 -9 9 -6 20 3 11 1 18 -3 15 -5 -3 -12
0 -15 6 -5 7 1 9 16 7 16 -2 23 -9 21 -20 -3 -20 14 -33 24 -17 4 8 3 9 -4 5
-7 -4 -12 -3 -12 2 0 11 30 20 48 15 6 -3 9 -10 5 -16 -4 -7 4 -5 17 4 14 8
34 19 44 22 15 6 17 5 7 -7 -9 -11 -8 -15 4 -20 12 -4 14 -13 10 -28 -7 -22
-7 -23 11 -4 14 13 16 20 7 23 -18 6 -16 23 1 23 16 0 21 13 32 73 5 30 3 37
-10 37 -9 0 -16 4 -16 9 0 5 -3 17 -7 27 -5 13 -3 15 8 9 8 -5 7 0 -4 12 -11
12 -15 27 -11 38 5 13 4 16 -4 11 -20 -12 -14 10 8 29 16 14 23 15 34 6 9 -7
24 -10 37 -6 16 5 20 3 17 -6 -3 -8 -12 -13 -22 -11 -9 2 -16 -2 -16 -8 0 -6
5 -8 10 -5 6 3 10 1 10 -4 0 -23 -31 -5 -36 22 -1 4 -2 10 -3 14 0 4 -6 2 -13
-5 -8 -8 -8 -15 2 -27 8 -10 9 -15 1 -15 -6 0 -11 -7 -11 -16 0 -8 5 -12 10
-9 14 9 52 -4 45 -15 -3 -5 -13 -7 -23 -4 -9 4 -3 -3 13 -15 l30 -21 -35 5
c-19 3 -28 2 -20 -2 8 -3 23 -17 33 -29 16 -21 54 -24 41 -3 -3 5 -9 7 -13 5
-4 -3 -13 -1 -21 5 -12 7 -12 9 3 9 14 0 17 5 12 20 -5 14 0 26 16 39 24 19
18 44 -8 34 -11 -4 -14 -3 -9 5 10 17 41 15 56 -3 8 -9 8 -15 2 -15 -15 0 -26
-40 -14 -52 6 -6 12 -6 16 1 4 6 2 11 -5 11 -7 0 -10 3 -6 6 3 3 16 -1 29 -10
17 -12 18 -16 6 -16 -9 0 -19 -7 -22 -16 -5 -13 -9 -14 -20 -5 -14 12 -32 0
-19 -13 9 -9 43 -8 43 2 0 4 15 14 34 20 35 13 53 37 36 47 -6 4 -10 -1 -10
-9 0 -9 -5 -16 -11 -16 -6 0 -9 7 -5 15 3 8 -4 21 -17 31 l-22 16 23 -5 c15
-4 27 1 38 16 15 22 15 22 29 3 8 -11 15 -15 15 -10 0 6 -5 15 -11 21 -8 8 -1
10 22 9 26 -1 39 -10 58 -36 13 -19 21 -27 18 -17 -8 21 2 22 17 1 13 -17 50
-9 40 8 -4 6 -1 9 7 6 8 -3 14 -11 14 -19 0 -8 5 -16 10 -19 6 -3 10 4 10 14
0 11 6 20 13 22 7 1 8 0 2 -3 -11 -5 -14 -24 -2 -21 4 0 15 -2 25 -7 10 -4 21
-5 24 -1 4 3 -1 6 -10 6 -10 0 -17 8 -17 20 0 11 5 20 10 20 6 0 10 -7 10 -15
0 -18 41 -20 58 -3 18 18 15 42 -10 68 -18 19 -23 36 -23 81 0 32 -4 61 -8 65
-4 4 -2 13 3 19 17 20 -5 60 -42 78 -19 9 -40 29 -48 44 -8 15 -26 46 -41 68
-14 22 -29 50 -33 63 -4 12 -12 22 -18 22 -6 0 -5 -7 3 -17 10 -12 11 -17 2
-20 -8 -3 -7 -10 5 -23 40 -44 62 -85 65 -118 1 -23 37 -65 37 -44 0 7 -5 12
-12 12 -6 0 -9 2 -6 5 2 3 18 0 34 -5 36 -13 56 -50 37 -68 -10 -10 -13 -9
-13 8 0 20 -1 20 -17 5 -14 -14 -14 -18 -2 -27 11 -8 10 -9 -3 -4 -10 3 -18 1
-18 -5 0 -7 10 -9 25 -5 20 5 27 2 34 -16 10 -28 3 -39 -10 -16 -9 16 -47 19
-41 3 2 -4 -2 -11 -8 -15 -9 -5 -6 -10 9 -15 24 -7 28 -22 6 -22 -8 0 -15 4
-15 9 0 5 -4 7 -9 4 -14 -9 0 -48 15 -42 7 3 16 1 19 -4 4 -6 -1 -10 -9 -10
-9 0 -16 -5 -16 -11 0 -8 -4 -8 -12 -2 -20 16 -44 11 -44 -8 0 -10 3 -16 7
-13 4 2 10 -2 13 -8 3 -7 3 -2 0 12 l-7 24 29 -18 c16 -11 26 -15 22 -11 -4 4
3 15 15 25 21 17 23 17 46 -2 27 -20 37 -53 21 -63 -6 -3 -10 -1 -10 5 0 6 -4
8 -10 5 -6 -4 -9 3 -7 17 1 15 -4 23 -18 26 -16 4 -17 2 -7 -11 10 -12 9 -16
-10 -20 -46 -11 -104 5 -92 25 4 6 -1 8 -15 3 -13 -4 -29 -1 -39 7 -15 12 -16
11 -3 -4 9 -12 10 -18 2 -18 -6 0 -14 7 -18 16 -6 16 -32 15 -75 -1 -13 -5
-18 -2 -18 10 0 12 6 16 20 12 10 -3 25 1 31 9 16 19 3 30 -16 14 -9 -7 -19
-10 -22 -6 -4 4 -3 10 3 14 6 4 16 16 23 27 9 15 11 16 7 3 -6 -22 7 -23 23
-4 10 12 8 16 -11 21 -13 5 -24 3 -26 -4 -6 -18 -23 -13 -20 7 2 9 -2 16 -9
15 -7 -2 -10 4 -6 13 5 13 8 13 22 1 9 -8 26 -17 38 -19 20 -5 21 -3 12 19 -6
17 -6 30 1 38 5 6 7 15 3 18 -3 4 -1 7 5 7 15 0 16 -17 2 -25 -14 -9 7 -45 25
-45 8 0 15 -4 15 -10 0 -5 4 -10 8 -10 4 0 8 9 8 21 0 14 -5 19 -18 16 -10 -3
-16 -1 -13 3 3 5 -1 11 -7 14 -7 3 -2 3 12 0 25 -7 25 -7 6 15 -21 23 -16 26
17 10 21 -10 21 -10 -1 10 -13 11 -30 17 -37 14 -8 -3 -15 0 -15 5 0 6 9 9 21
7 17 -3 19 -2 9 10 -14 17 -52 16 -46 -2 3 -7 1 -15 -4 -18 -6 -4 -10 1 -10 9
0 8 -9 20 -20 26 -23 12 -27 30 -6 30 13 0 13 6 3 36 -7 19 -17 35 -21 34 -5
-1 -13 6 -18 15 -8 13 -13 14 -24 4 -12 -10 -17 -9 -27 1 -7 7 -7 10 -2 7 6
-3 17 -2 25 3 8 5 23 4 34 -1 18 -9 17 -7 -3 11 -17 15 -27 17 -36 10 -9 -8
-15 -6 -19 7 -4 10 -2 19 3 21 16 5 13 28 -5 43 -15 12 -16 11 -10 -9 6 -17 4
-21 -8 -16 -20 8 -20 8 0 46 9 16 11 27 6 24 -6 -4 -13 -2 -17 4 -4 6 -11 8
-16 4 -5 -3 -6 -10 -3 -16 4 -6 1 -9 -7 -6 -8 3 -13 15 -11 26 2 12 -2 22 -7
22 -6 0 -10 -3 -10 -7 3 -20 -2 -34 -11 -28 -5 3 -10 1 -10 -4 0 -6 7 -11 15
-11 8 0 15 -7 15 -15 0 -8 5 -15 10 -15 6 0 10 -7 10 -15 0 -8 6 -14 13 -12 6
1 11 -4 10 -10 -2 -7 2 -13 8 -13 5 0 7 -5 3 -12 -5 -7 -2 -9 7 -4 8 4 5 0 -6
-9 -16 -13 -17 -17 -6 -24 8 -5 9 -11 3 -15 -5 -3 -13 1 -16 10 -3 8 -10 13
-15 9 -5 -3 -13 0 -17 6 -4 7 -3 9 2 6 18 -11 33 7 21 24 -22 29 -50 39 -63
21 -16 -22 -43 -8 -55 28 -6 16 -15 30 -20 30 -11 0 -11 -7 0 -29 7 -13 6 -18
-4 -18 -7 0 -16 11 -20 24 -3 13 -10 23 -15 23 -6 0 -10 7 -10 15 0 8 -8 16
-17 16 -24 2 -25 2 -45 -6 -10 -4 -18 -3 -18 3 0 5 9 12 20 15 13 3 18 10 14
21 -5 12 -2 15 10 10 9 -3 16 -13 16 -21 0 -12 3 -13 15 -3 8 6 23 9 34 5 16
-5 19 -3 15 9 -3 9 -16 14 -32 13 -24 -2 -27 1 -24 26 1 15 1 27 -2 27 -2 0
-7 -12 -11 -27z m11 -100 c-7 -7 -26 7 -26 19 0 6 6 6 15 -2 9 -7 13 -15 11
-17z m-41 7 c-3 -5 -16 -10 -28 -9 -20 1 -20 2 3 9 14 4 26 8 28 9 2 1 0 -3
-3 -9z m259 -15 c-7 -18 -20 -19 -30 -3 -4 7 -3 8 4 4 7 -4 12 -2 12 3 0 6 4
11 10 11 5 0 7 -7 4 -15z m-144 -64 c0 -5 -7 -11 -15 -15 -15 -5 -20 5 -8 17
9 10 23 9 23 -2z m-251 -40 c0 -10 -2 -11 -6 -3 -2 6 -9 10 -14 6 -5 -3 -9 2
-9 10 0 10 6 13 15 10 8 -4 15 -14 14 -23z m205 5 c-3 -9 2 -16 13 -18 16 -3
16 -4 -3 -10 -17 -4 -21 -1 -19 16 3 24 3 26 10 26 2 0 2 -6 -1 -14z m-342
-56 c7 0 6 -5 -1 -14 -9 -11 -9 -15 1 -18 8 -3 7 -6 -4 -11 -12 -4 -19 1 -24
16 -4 12 -11 25 -17 28 -5 4 -6 12 -3 18 5 8 12 7 22 -4 9 -8 20 -15 26 -15z
m-51 -33 c-10 -9 -11 -8 -5 6 3 10 9 15 12 12 3 -3 0 -11 -7 -18z m316 8 c0
-8 -4 -12 -9 -9 -5 3 -6 10 -3 15 9 13 12 11 12 -6z m70 -38 c-5 -17 -39 -15
-45 3 -4 13 -3 13 10 2 13 -10 18 -10 24 -1 4 7 3 9 -3 6 -6 -4 -14 0 -17 8
-5 13 -2 14 15 5 11 -6 18 -17 16 -23z m-287 -16 c0 -6 -4 -13 -10 -16 -5 -3
-10 1 -10 9 0 9 5 16 10 16 6 0 10 -4 10 -9z m440 -11 c0 -5 -5 -10 -11 -10
-5 0 -7 5 -4 10 3 6 8 10 11 10 2 0 4 -4 4 -10z m-250 -21 c0 -5 -4 -9 -10 -9
-5 0 -10 7 -10 16 0 8 5 12 10 9 6 -3 10 -10 10 -16z m192 -11 c-7 -7 -12 -8
-12 -2 0 6 3 14 7 17 3 4 9 5 12 2 2 -3 -1 -11 -7 -17z m233 -3 c-2 -11 -4
-21 -4 -22 -1 -2 -11 7 -22 18 -16 16 -23 18 -29 9 -5 -7 -6 -19 -3 -27 3 -7
1 -13 -5 -13 -18 0 -19 23 -3 42 9 11 27 17 43 16 22 -2 26 -6 23 -23z m-631
6 c8 -12 -3 -41 -15 -41 -5 0 -9 7 -9 15 0 8 6 15 13 15 8 0 7 4 -3 10 -9 6
-10 10 -3 10 6 0 14 -4 17 -9z m456 5 c0 -3 -4 -8 -10 -11 -5 -3 -10 -1 -10 4
0 6 5 11 10 11 6 0 10 -2 10 -4z m-620 -16 c0 -5 -5 -10 -11 -10 -5 0 -7 5 -4
10 3 6 8 10 11 10 2 0 4 -4 4 -10z m494 -5 c-4 -8 -8 -15 -10 -15 -2 0 -4 7
-4 15 0 8 4 15 10 15 5 0 7 -7 4 -15z m-366 -7 c-2 -6 -10 -14 -16 -16 -7 -2
-10 2 -6 12 7 18 28 22 22 4z m257 2 c3 -5 2 -10 -4 -10 -5 0 -13 5 -16 10 -3
6 -2 10 4 10 5 0 13 -4 16 -10z m382 3 c-3 -5 1 -14 9 -21 8 -7 14 -8 14 -2 0
5 5 10 11 10 6 0 9 -7 5 -15 -3 -8 -1 -15 4 -15 6 0 10 -4 10 -10 0 -15 -23
-7 -38 13 -13 17 -15 17 -39 -8 -28 -27 -53 -33 -53 -11 0 8 -7 17 -16 20 -12
4 -15 2 -10 -9 4 -12 2 -13 -13 -6 -10 6 -21 7 -25 4 -3 -3 -6 0 -6 8 0 10 11
15 35 16 19 1 35 -3 35 -9 0 -5 5 -6 12 -2 6 4 8 3 4 -4 -3 -6 -2 -13 4 -17 5
-3 10 0 10 8 0 8 10 17 22 20 18 5 19 8 8 21 -10 13 -10 16 4 16 10 0 15 -3
13 -7z m-639 -50 c-4 -22 -22 -20 -26 1 -2 10 3 16 13 16 10 0 15 -7 13 -17z
m520 -32 c3 -9 8 -9 17 -1 9 7 15 8 19 1 4 -6 13 -8 21 -5 21 8 58 -33 47 -53
-6 -11 -11 -12 -16 -4 -4 6 -2 11 5 11 15 0 2 15 -14 15 -7 1 -11 6 -9 13 3
17 -15 15 -21 -2 -3 -8 1 -17 9 -20 8 -3 14 -12 14 -21 0 -20 -5 -19 -34 8
-20 19 -23 26 -13 37 15 15 -28 -7 -56 -29 -20 -17 -35 -7 -19 12 7 8 9 17 5
20 -3 4 -1 7 5 7 7 0 12 5 12 11 0 6 -7 8 -16 5 -8 -3 -12 -2 -9 4 8 13 48 6
53 -9z m391 -11 c5 -16 7 -30 3 -30 -12 0 -33 40 -27 50 9 15 12 12 24 -20z
m-894 10 c-3 -5 -1 -10 6 -10 7 0 10 -2 7 -5 -8 -9 -38 6 -32 16 3 5 10 9 15
9 6 0 7 -4 4 -10z m437 -64 c3 -17 1 -23 -8 -19 -10 3 -12 18 -5 41 3 9 9 -2
13 -22z m78 15 c0 -5 -6 -14 -14 -20 -11 -9 -16 -9 -21 0 -4 6 -1 15 6 20 18
11 29 11 29 0z m-310 -16 c5 3 11 1 15 -5 3 -5 1 -10 -4 -10 -14 0 -14 -27 -1
-35 5 -3 17 -2 26 3 11 6 13 11 5 16 -6 4 -11 2 -11 -4 0 -6 -5 -8 -11 -4 -16
10 18 27 38 20 14 -6 13 -10 -7 -31 -39 -41 -69 -24 -69 40 1 17 3 24 6 17 2
-6 9 -10 13 -7z m705 5 c8 -13 -5 -13 -25 0 -13 8 -13 10 2 10 9 0 20 -4 23
-10z m-831 -21 c-3 -5 -10 -7 -15 -4 -5 4 -9 1 -9 -4 0 -6 -8 -11 -17 -11 -15
0 -13 4 7 19 24 19 46 19 34 0z m486 -19 c5 0 10 5 10 10 0 17 19 11 30 -10 9
-16 8 -19 -6 -13 -11 4 -15 2 -11 -4 12 -19 -47 -20 -67 -2 -10 10 -13 19 -7
23 5 4 14 -2 20 -11 5 -10 13 -15 17 -10 4 4 0 15 -9 25 -10 10 -14 22 -10 26
4 4 11 -2 15 -14 4 -11 12 -20 18 -20z m-191 3 c11 10 11 8 1 -11 -7 -14 -17
-21 -26 -18 -8 3 -14 1 -14 -4 0 -6 7 -10 15 -10 8 0 15 -4 15 -10 0 -12 -58
-6 -72 8 -8 8 -15 6 -27 -5 -12 -12 -13 -17 -3 -21 7 -2 17 -13 23 -24 10 -18
8 -19 -13 -13 -12 4 -26 12 -29 17 -10 16 2 47 24 63 24 17 41 20 32 6 -3 -5
-1 -12 5 -16 5 -3 10 1 10 9 0 9 7 16 16 16 9 0 12 5 8 13 -6 9 -5 9 7 0 12
-10 18 -10 28 0z m-642 -45 c-3 -8 -6 -5 -6 6 -1 11 2 17 5 13 3 -3 4 -12 1
-19z m1037 7 c11 -8 18 -17 15 -19 -2 -3 -15 4 -29 14 -14 11 -20 20 -15 19 6
0 19 -6 29 -14z m-599 -15 c-3 -6 1 -7 9 -4 9 3 16 1 16 -5 0 -6 -5 -11 -12
-11 -6 0 -9 -2 -6 -5 3 -3 18 -1 34 5 16 6 25 8 22 4 -4 -4 -3 -16 3 -26 9
-16 7 -24 -6 -37 -15 -15 -17 -15 -26 1 -25 44 -57 58 -67 30 -2 -7 2 -10 11
-6 8 3 17 -1 20 -9 4 -10 -1 -13 -20 -9 -20 4 -24 9 -20 28 2 13 0 24 -4 24
-9 0 -13 -15 -9 -40 1 -11 -2 -10 -12 4 -14 17 -15 17 -31 -8 -9 -14 -16 -33
-16 -43 1 -17 2 -17 6 0 7 25 22 11 16 -16 -4 -18 -3 -20 7 -7 10 13 11 13 7
-1 -3 -9 0 -22 6 -28 8 -8 7 -11 -6 -11 -9 0 -17 -4 -17 -10 0 -5 -8 -10 -17
-10 -17 1 -17 1 0 11 25 15 21 34 -15 64 -18 15 -25 24 -15 21 10 -3 15 -2 12
4 -7 11 34 60 51 60 6 0 17 7 24 15 14 17 35 21 25 5 -3 -5 -1 -10 4 -10 6 0
11 7 11 15 0 8 5 15 11 15 5 0 7 -4 4 -10z m325 -20 c0 -13 -11 -13 -30 0 -12
8 -11 10 8 10 12 0 22 -4 22 -10z m-166 -15 c-4 -11 -2 -13 9 -9 9 3 25 -4 37
-16 21 -21 19 -40 -3 -40 -7 0 -6 4 3 10 8 5 11 10 6 10 -5 0 -18 -7 -28 -17
-24 -22 -36 -8 -14 16 17 19 17 20 -2 18 -11 0 -19 -4 -18 -7 2 -3 0 -14 -5
-25 -6 -17 -8 -15 -8 12 -1 36 7 63 20 63 4 0 6 -7 3 -15z m51 -3 c-3 -3 -11
0 -18 7 -9 10 -8 11 6 5 10 -3 15 -9 12 -12z m195 8 c13 -9 13 -10 0 -10 -8 0
-22 5 -30 10 -13 9 -13 10 0 10 8 0 22 -5 30 -10z m-298 -44 c7 4 8 2 4 -4 -4
-7 -2 -12 4 -12 6 0 8 -5 5 -10 -3 -6 1 -17 9 -26 9 -8 16 -12 16 -8 0 4 3 5
6 2 3 -4 -3 -15 -13 -25 -18 -18 -18 -18 -35 2 -13 16 -19 18 -29 8 -19 -19
-24 -16 -25 17 -1 30 8 36 46 30 12 -1 13 1 3 11 -7 7 -13 18 -12 24 0 5 3 4
6 -3 2 -6 10 -9 15 -6z m-147 -15 c3 -5 1 -12 -5 -16 -6 -4 -8 -10 -5 -15 3
-5 1 -11 -5 -15 -5 -3 -10 3 -10 14 0 12 6 21 13 21 8 0 7 4 -3 10 -9 6 -10
10 -3 10 6 0 14 -4 18 -9z m70 -11 c3 -5 2 -10 -4 -10 -5 0 -13 5 -16 10 -3 6
-2 10 4 10 5 0 13 -4 16 -10z m225 -4 c0 -3 -4 -8 -10 -11 -5 -3 -10 -1 -10 4
0 6 5 11 10 11 6 0 10 -2 10 -4z m-726 -21 c-6 -16 -24 -21 -24 -7 0 11 11 22
21 22 5 0 6 -7 3 -15z m707 -16 c18 -35 -7 -51 -35 -23 -9 8 -16 11 -16 5 0
-6 -4 -11 -10 -11 -14 0 -13 27 2 36 6 4 19 -2 28 -14 10 -12 20 -19 23 -16 3
4 -6 17 -21 30 -26 22 -26 23 -4 17 12 -3 27 -14 33 -24z m-137 -25 c4 -10 1
-14 -6 -12 -15 5 -23 28 -10 28 5 0 13 -7 16 -16z m66 -18 c0 -11 -19 -15 -25
-6 -3 5 1 10 9 10 9 0 16 -2 16 -4z m-680 -42 c0 -2 -7 -4 -15 -4 -8 0 -15 4
-15 10 0 5 7 7 15 4 8 -4 15 -8 15 -10z m560 -14 c0 -5 -4 -10 -10 -10 -5 0
-10 5 -10 10 0 6 5 10 10 10 6 0 10 -4 10 -10z m-545 -10 c3 -5 -1 -10 -10
-10 -9 0 -13 5 -10 10 3 6 8 10 10 10 2 0 7 -4 10 -10z m352 -27 c0 -6 -5 -10
-10 -6 -5 3 -6 -3 -2 -16 4 -12 2 -21 -4 -21 -6 0 -11 6 -11 14 0 8 -3 21 -6
30 -4 10 0 14 13 13 11 0 20 -7 20 -14z"/>
<path d="M1526 1818 c3 -5 10 -6 15 -3 13 9 11 12 -6 12 -8 0 -12 -4 -9 -9z"/>
<path d="M1561 1825 c0 -5 6 -19 14 -29 8 -11 15 -15 15 -10 0 6 -7 19 -15 30
-8 10 -14 15 -14 9z"/>
<path d="M1098 2551 c-16 -15 -25 -31 -21 -34 10 -11 25 -8 18 3 -3 6 -2 10 4
10 5 0 13 -5 16 -11 5 -6 13 -2 22 11 13 19 13 24 2 35 -12 12 -18 9 -41 -14z
m42 0 c0 -12 -20 -25 -27 -18 -7 7 6 27 18 27 5 0 9 -4 9 -9z"/>
<path d="M1620 2570 c0 -5 7 -10 15 -10 8 0 15 5 15 10 0 6 -7 10 -15 10 -8 0
-15 -4 -15 -10z"/>
<path d="M1515 2560 c3 -5 1 -10 -5 -10 -6 0 -8 -4 -5 -10 10 -16 21 -11 22
10 1 11 -3 20 -8 20 -6 0 -7 -4 -4 -10z"/>
<path d="M1238 2547 c-27 -6 -36 -14 -35 -28 1 -10 5 -19 10 -19 5 0 7 7 3 15
-6 17 9 21 19 5 5 -8 11 -7 21 1 8 6 21 8 31 4 31 -13 51 -12 46 2 -4 9 -9 10
-18 3 -15 -12 -28 -1 -15 14 11 14 -10 15 -62 3z"/>
<path d="M1390 2540 c0 -5 5 -10 11 -10 5 0 7 5 4 10 -3 6 -8 10 -11 10 -2 0
-4 -4 -4 -10z"/>
<path d="M1664 2532 c1 -13 -6 -17 -26 -15 -33 2 -36 -7 -7 -25 14 -9 19 -10
14 -2 -5 9 -1 10 12 6 17 -5 21 -2 21 19 0 14 -4 27 -8 30 -4 3 -7 -3 -6 -13z"/>
<path d="M1892 2530 l-23 -19 28 3 c15 2 29 8 31 14 6 19 -13 20 -36 2z"/>
<path d="M1047 2511 c4 -17 0 -29 -18 -44 l-24 -19 27 16 c15 9 34 13 42 10
11 -4 16 0 16 12 0 16 -2 17 -10 4 -5 -8 -10 -10 -10 -4 0 5 -7 19 -15 30 -13
18 -14 18 -8 -5z"/>
<path d="M1156 2519 c2 -4 -4 -12 -13 -18 -17 -10 -14 -12 19 -15 6 -1 12 8
14 20 2 13 -2 21 -11 21 -8 0 -12 -4 -9 -8z"/>
<path d="M1826 2522 c-2 -4 4 -9 15 -9 11 -1 17 2 14 8 -7 11 -22 12 -29 1z"/>
<path d="M1370 2512 c0 -7 -3 -11 -7 -11 -23 4 -35 -5 -53 -41 -23 -45 -25
-47 -34 -24 -3 8 -2 13 3 10 5 -3 11 1 15 9 6 17 -10 30 -19 15 -5 -8 -13 -6
-24 4 -9 9 -28 14 -40 11 -29 -5 -40 -15 -18 -15 9 0 17 -5 17 -12 0 -6 -3 -9
-6 -5 -12 12 -33 -17 -22 -30 6 -7 6 -13 2 -13 -5 0 -15 9 -22 20 -7 12 -17
18 -22 15 -6 -3 -10 -1 -10 5 0 7 -7 9 -16 6 -15 -6 -15 -4 -3 11 13 16 12 17
-3 4 -10 -7 -18 -20 -18 -28 0 -7 -10 -18 -22 -24 -23 -9 -23 -9 -1 -5 15 3
20 0 16 -10 -3 -8 0 -14 6 -14 6 0 10 3 10 8 -3 17 2 32 9 32 10 0 9 -30 -2
-48 -4 -7 3 -22 18 -37 16 -16 21 -27 13 -32 -6 -3 -13 -1 -15 5 -5 16 -23 15
-19 0 1 -7 -3 -12 -10 -11 -7 2 -10 -3 -7 -11 3 -7 -3 -19 -12 -27 -16 -12
-17 -12 -11 4 3 9 2 17 -3 17 -18 0 -11 18 9 25 10 3 21 15 24 26 5 20 4 20
-12 4 -16 -14 -19 -14 -24 -1 -4 9 -1 15 5 13 6 -1 13 5 15 13 3 9 1 11 -4 5
-9 -12 -23 -13 -40 -2 -6 4 -15 2 -19 -4 -4 -8 -9 -7 -15 2 -6 10 -8 6 -7 -11
3 -21 -2 -25 -31 -30 -32 -5 -58 -30 -31 -30 6 0 8 5 5 10 -4 6 5 10 24 8 17
-1 31 -6 31 -11 0 -4 5 -5 11 -1 8 4 8 9 1 13 -7 4 -3 16 9 31 l21 25 -5 -27
c-2 -15 0 -32 4 -40 4 -7 3 -19 -4 -28 -11 -13 -10 -13 7 0 18 14 19 13 13 -2
-3 -10 -2 -18 3 -18 5 0 7 -8 3 -17 -6 -17 -5 -17 13 -1 10 9 24 17 29 18 6 1
9 5 8 10 -1 4 9 13 22 20 14 7 27 21 30 31 3 10 15 17 26 16 12 -1 17 -7 14
-15 -2 -7 -1 -10 4 -7 11 6 10 45 0 45 -4 0 -10 -6 -12 -12 -4 -9 -6 -10 -6
-1 -1 7 -11 10 -28 7 l-28 -5 24 17 c13 9 26 13 30 8 10 -14 50 -12 44 2 -5
14 12 27 42 32 20 3 20 3 0 -12 -11 -9 -15 -16 -8 -16 14 0 43 27 43 41 0 6
10 8 23 4 21 -6 21 -6 3 9 -11 9 -14 16 -7 16 7 0 9 5 6 10 -3 6 -1 10 5 10 6
0 8 5 5 10 -3 6 -1 10 4 10 6 0 11 -6 11 -12 0 -7 7 -2 16 10 9 13 13 26 10
29 -3 4 -6 1 -6 -5z m-110 -61 c0 -14 -37 -51 -43 -44 -4 3 -2 12 5 20 9 11 7
12 -8 7 -18 -5 -18 -5 -1 6 9 6 23 8 30 5 6 -4 4 0 -5 8 -24 19 -23 30 2 17
11 -6 20 -14 20 -19z m-114 -67 c-23 -22 -31 -16 -10 8 17 19 17 21 1 15 -15
-6 -16 -4 -6 15 l12 22 8 -23 c6 -15 5 -27 -5 -37z"/>
<path d="M1934 2513 c10 -11 36 -12 36 -2 0 5 -10 9 -22 9 -12 0 -18 -3 -14
-7z"/>
<path d="M1865 2475 c0 -14 5 -23 10 -21 6 1 9 12 7 22 -2 17 0 16 18 -5 22
-26 27 -16 6 12 -19 25 -41 21 -41 -8z"/>
<path d="M1955 2480 c-3 -5 2 -10 12 -11 13 0 9 -5 -12 -15 -29 -15 -29 -15
-3 -9 15 3 30 1 33 -5 3 -6 -5 -10 -19 -10 -14 0 -27 -3 -29 -7 -3 -5 14 -8
37 -8 l43 0 -20 32 c-22 39 -33 47 -42 33z"/>
<path d="M1160 2460 c0 -5 5 -10 11 -10 5 0 7 5 4 10 -3 6 -8 10 -11 10 -2 0
-4 -4 -4 -10z"/>
<path d="M1396 2455 c-3 -9 0 -15 9 -15 9 0 12 6 9 15 -4 8 -7 15 -9 15 -2 0
-5 -7 -9 -15z"/>
<path d="M1428 2463 c6 -2 10 -8 8 -12 -3 -4 -1 -13 5 -21 6 -10 9 -11 9 -2 0
6 8 12 18 12 11 0 8 5 -12 15 -15 8 -31 15 -35 14 -3 0 0 -3 7 -6z"/>
<path d="M1710 2462 c-18 -8 -20 -26 -4 -42 8 -8 11 -6 11 4 0 8 -5 12 -10 9
-6 -3 -7 -1 -3 5 4 7 17 8 36 2 28 -8 29 -7 20 11 -11 20 -24 23 -50 11z"/>
<path d="M1061 2444 c0 -11 3 -14 6 -6 3 7 2 16 -1 19 -3 4 -6 -2 -5 -13z"/>
<path d="M1509 2428 c9 -12 10 -18 2 -18 -6 0 -11 -4 -11 -9 0 -9 25 -9 35 0
3 3 -5 14 -17 25 -18 15 -20 16 -9 2z"/>
<path d="M1909 2408 c4 -12 20 -25 35 -29 15 -4 35 -14 44 -21 11 -9 14 -10 8
0 -10 17 5 15 33 -4 l23 -17 -17 27 c-22 33 -58 56 -48 30 4 -12 1 -15 -13
-12 -10 2 -18 9 -17 15 1 6 -6 9 -17 6 -14 -4 -20 0 -20 11 0 9 -4 16 -10 16
-5 0 -6 -9 -1 -22z"/>
<path d="M1015 2409 c-4 -6 -14 -8 -22 -5 -8 3 -11 1 -8 -4 9 -14 24 -12 41 5
9 8 11 15 5 15 -5 0 -13 -5 -16 -11z"/>
<path d="M1870 2416 c0 -2 7 -9 15 -16 9 -7 15 -8 15 -2 0 5 -7 12 -15 16 -8
3 -15 4 -15 2z"/>
<path d="M1306 2394 c-16 -15 -13 -39 3 -29 9 5 22 45 16 45 -2 0 -11 -7 -19
-16z"/>
<path d="M1940 2360 c8 -5 20 -10 25 -10 6 0 3 5 -5 10 -8 5 -19 10 -25 10 -5
0 -3 -5 5 -10z"/>
<path d="M1686 2348 c3 -4 0 -8 -7 -8 -7 0 -10 -3 -6 -6 3 -3 16 1 28 9 22 16
22 16 1 14 -11 0 -18 -5 -16 -9z"/>
<path d="M1937 2332 c3 -9 10 -22 14 -28 5 -6 6 -13 3 -17 -3 -3 4 -11 17 -17
19 -11 21 -10 16 4 -4 9 -2 16 3 16 6 0 10 -7 10 -15 0 -8 6 -16 13 -17 6 0
-8 -4 -33 -9 l-45 -7 45 3 c25 1 56 5 70 9 25 6 25 6 3 -5 -13 -7 -23 -15 -23
-18 0 -11 20 -36 20 -26 0 6 9 11 20 12 11 1 20 -4 20 -13 0 -8 6 -14 14 -14
8 0 17 -7 20 -16 4 -9 9 -15 11 -12 10 9 -7 38 -21 38 -8 0 -14 6 -14 13 0 7
-11 29 -25 49 -29 43 -32 56 -7 37 15 -13 16 -12 3 4 -20 25 -34 21 -27 -7 9
-35 -9 -41 -32 -11 -11 14 -25 25 -30 25 -6 0 -14 5 -18 12 -4 6 -3 8 4 4 6
-3 14 -1 18 6 4 7 4 10 0 6 -5 -4 -19 -3 -32 2 -19 8 -22 6 -17 -8z m135 -104
c-7 -7 -12 -8 -12 -2 0 6 3 14 7 17 3 4 9 5 12 2 2 -3 -1 -11 -7 -17z"/>
<path d="M1330 2328 c0 -9 5 -20 10 -23 13 -8 13 5 0 25 -8 13 -10 13 -10 -2z"/>
<path d="M2015 2330 c-3 -5 -1 -10 4 -10 6 0 11 5 11 10 0 6 -2 10 -4 10 -3 0
-8 -4 -11 -10z"/>
<path d="M1770 2316 c0 -2 7 -7 16 -10 8 -3 12 -2 9 4 -6 10 -25 14 -25 6z"/>
<path d="M1160 2295 c0 -8 2 -15 4 -15 2 0 6 7 10 15 3 8 1 15 -4 15 -6 0 -10
-7 -10 -15z"/>
<path d="M975 2290 c-4 -6 3 -10 14 -10 25 0 27 6 6 13 -8 4 -17 2 -20 -3z"/>
<path d="M925 2281 c-11 -5 -24 -6 -30 -3 -5 3 -4 -2 4 -12 8 -9 17 -13 20 -8
3 5 15 14 26 20 23 13 10 15 -20 3z"/>
<path d="M1150 2260 c0 -5 5 -10 10 -10 6 0 10 5 10 10 0 6 -4 10 -10 10 -5 0
-10 -4 -10 -10z"/>
<path d="M1183 2251 c0 -11 5 -18 9 -15 4 3 5 11 1 19 -7 21 -12 19 -10 -4z"/>
<path d="M1850 2260 c0 -5 7 -10 16 -10 8 0 12 5 9 10 -3 6 -10 10 -16 10 -5
0 -9 -4 -9 -10z"/>
<path d="M860 2245 c-7 -8 -9 -15 -6 -15 4 0 14 7 22 15 9 8 11 15 6 15 -5 0
-15 -7 -22 -15z"/>
<path d="M935 2250 c-9 -15 4 -30 20 -23 8 3 15 0 15 -6 0 -16 -46 -13 -60 4
-7 8 -18 15 -24 14 -7 0 -7 -2 -1 -5 14 -5 6 -74 -7 -74 -6 0 -8 12 -4 30 6
33 2 37 -18 18 -9 -9 -10 -17 -3 -29 7 -11 5 -25 -6 -48 -17 -35 -2 -39 17 -5
14 25 28 34 39 27 6 -3 8 5 5 19 -3 16 0 25 9 25 8 0 11 -8 8 -21 -5 -20 -4
-20 6 1 6 12 25 25 40 28 36 8 37 21 4 29 -14 4 -23 11 -20 16 3 6 2 10 -4 10
-5 0 -13 -4 -16 -10z"/>
<path d="M1005 2250 c3 -5 13 -10 21 -10 8 0 14 5 14 10 0 6 -9 10 -21 10 -11
0 -17 -4 -14 -10z"/>
<path d="M1015 2220 c-3 -6 1 -7 9 -4 18 7 21 14 7 14 -6 0 -13 -4 -16 -10z"/>
<path d="M1354 2212 c-15 -9 -15 -62 -1 -62 16 0 58 51 51 61 -6 11 -25 12
-22 2 4 -15 -13 -53 -23 -53 -6 0 -7 4 -4 10 6 10 16 50 12 50 -1 0 -7 -4 -13
-8z"/>
<path d="M2145 2200 c-3 -5 -2 -10 4 -10 5 0 13 5 16 10 3 6 2 10 -4 10 -5 0
-13 -4 -16 -10z"/>
<path d="M2060 2191 c0 -5 5 -13 10 -16 6 -3 10 -2 10 4 0 5 -4 13 -10 16 -5
3 -10 2 -10 -4z"/>
<path d="M1590 2180 c-8 -5 -11 -10 -6 -10 5 0 3 -7 -4 -15 -7 -8 -8 -15 -2
-15 13 0 35 27 30 39 -2 7 -8 7 -18 1z"/>
<path d="M2095 2170 c3 -5 8 -10 11 -10 2 0 4 5 4 10 0 6 -5 10 -11 10 -5 0
-7 -4 -4 -10z"/>
<path d="M2082 2139 c2 -15 -2 -24 -12 -24 -8 -1 -14 -7 -12 -14 1 -6 -4 -21
-12 -33 -15 -21 -15 -21 -22 6 -7 29 -24 36 -20 9 2 -10 -4 -23 -13 -30 -9 -6
-12 -15 -8 -19 4 -5 12 -2 16 5 5 7 11 9 14 4 4 -6 20 -10 37 -11 16 0 39 -4
51 -7 17 -6 20 -3 17 12 -2 13 -11 17 -31 15 -15 -2 -27 1 -27 6 0 5 8 9 18 9
37 0 55 3 49 9 -3 3 -2 16 3 29 6 17 5 27 -6 35 -7 7 -14 9 -14 5 0 -4 -7 -2
-15 5 -13 11 -15 9 -13 -11z m28 -47 c0 -4 -9 -8 -20 -9 -11 -1 -20 2 -20 8 0
5 9 9 20 9 11 0 20 -4 20 -8z"/>
<path d="M924 2137 c3 -10 6 -21 6 -23 0 -3 4 -2 10 1 6 3 7 -1 3 -10 -4 -11
-8 -13 -13 -5 -3 6 -14 8 -23 4 -9 -3 -17 -2 -17 4 0 6 5 12 12 14 7 3 4 7 -7
12 -11 4 -16 4 -12 0 9 -9 -22 -44 -39 -44 -14 0 -30 -38 -20 -48 4 -3 -4 -12
-16 -19 l-23 -12 23 -1 c22 0 44 33 36 55 -5 13 37 39 45 28 3 -4 20 -9 38
-10 23 -2 35 2 43 16 8 16 6 21 -13 27 -12 4 -26 12 -30 18 -6 7 -7 4 -3 -7z"/>
<path d="M2060 2135 c7 -9 15 -13 17 -11 7 7 -7 26 -19 26 -6 0 -6 -6 2 -15z"/>
<path d="M1675 2110 c-4 -6 -4 -10 -1 -10 2 0 11 -3 20 -6 9 -3 16 -2 16 4 0
14 -28 23 -35 12z"/>
<path d="M1352 2071 c2 -7 7 -12 11 -12 12 1 9 15 -3 20 -7 2 -11 -2 -8 -8z"/>
<path d="M1550 2064 c0 -15 28 -31 41 -23 11 7 10 9 -4 9 -10 0 -15 5 -12 10
3 6 -1 10 -9 10 -9 0 -16 -3 -16 -6z"/>
<path d="M1143 2013 c-7 -3 -13 -12 -13 -20 0 -11 -7 -14 -24 -9 -22 5 -24 3
-21 -21 1 -15 8 -29 14 -31 18 -6 13 -19 -10 -25 -17 -5 -20 -2 -16 14 3 10 1
22 -5 25 -17 11 -21 -5 -8 -35 11 -28 10 -32 -16 -55 -23 -20 -25 -25 -11 -26
9 0 17 -4 17 -10 0 -5 -7 -6 -17 -3 -10 4 -14 2 -10 -4 4 -6 1 -13 -5 -16 -7
-2 -10 -8 -6 -12 13 -13 58 13 52 29 -3 8 -1 17 5 21 6 3 11 17 11 30 0 12 7
25 15 29 8 3 15 1 15 -4 0 -6 -4 -10 -10 -10 -5 0 -10 -7 -10 -15 0 -28 16
-15 37 30 11 25 17 48 12 51 -5 3 -2 19 7 35 17 33 16 39 -3 32z m-19 -59 c9
-24 8 -25 -13 -12 -11 7 -17 16 -15 20 8 13 21 9 28 -8z m-54 -104 c0 -5 -4
-10 -10 -10 -5 0 -10 5 -10 10 0 6 5 10 10 10 6 0 10 -4 10 -10z"/>
<path d="M1978 2013 c6 -2 18 -2 25 0 6 3 1 5 -13 5 -14 0 -19 -2 -12 -5z"/>
<path d="M2026 2009 c3 -5 12 -9 21 -9 19 0 9 13 -12 16 -8 1 -13 -2 -9 -7z"/>
<path d="M846 2002 c-4 -7 -2 -12 4 -12 6 0 8 -4 5 -10 -3 -5 -2 -10 3 -10 6
0 13 7 16 16 3 8 2 13 -3 9 -5 -3 -11 0 -13 7 -3 9 -6 9 -12 0z"/>
<path d="M776 1983 c-6 -14 -5 -15 5 -6 7 7 10 15 7 18 -3 3 -9 -2 -12 -12z"/>
<path d="M803 1973 c-4 -10 -11 -21 -16 -24 -5 -4 -5 -9 2 -13 6 -4 11 -2 11
4 0 6 4 9 9 6 5 -3 15 1 22 10 10 12 10 15 -2 12 -8 -2 -13 3 -11 10 3 18 -8
15 -15 -5z"/>
<path d="M1970 1953 c0 -3 8 -15 18 -26 16 -19 16 -20 -5 -8 -30 16 -40 14
-46 -8 -3 -13 1 -21 15 -24 16 -5 17 -3 7 9 -6 8 -8 18 -4 22 4 4 10 1 12 -6
3 -7 11 -19 19 -26 20 -21 17 -43 -7 -49 -12 -3 -18 -10 -14 -16 3 -6 2 -11
-3 -11 -5 0 -14 11 -19 24 -10 20 -9 23 10 22 30 -1 33 17 4 20 -34 3 -54 -11
-39 -28 7 -9 8 -19 2 -28 -6 -8 -10 -12 -11 -7 -1 4 -3 12 -4 17 -1 6 -3 15
-4 21 0 6 -13 2 -28 -9 -16 -10 -40 -22 -54 -25 -31 -8 -43 -32 -28 -55 10
-16 10 -15 5 1 -3 9 -1 17 4 17 6 0 10 8 10 18 1 15 2 14 12 -3 6 -11 20 -30
30 -42 12 -12 17 -27 13 -34 -6 -8 -4 -10 4 -4 9 5 12 2 9 -11 -2 -11 -5 -17
-8 -15 -9 8 -50 -20 -50 -34 0 -14 -38 -41 -52 -37 -4 1 -7 -9 -6 -23 2 -24
23 -30 23 -7 0 7 3 12 8 12 4 0 7 -2 7 -5 0 -3 0 -12 0 -20 0 -8 -7 -15 -15
-15 -8 0 -12 -6 -9 -14 3 -8 12 -12 20 -9 8 3 11 9 8 14 -3 5 1 12 10 15 8 3
12 12 9 20 -3 9 1 14 12 14 9 0 14 -4 10 -9 -3 -5 4 -12 15 -16 22 -7 26 -20
10 -30 -5 -3 -10 1 -10 9 0 9 -4 16 -10 16 -13 0 -13 -13 1 -27 17 -17 3 -43
-22 -43 -12 0 -19 -5 -16 -12 2 -8 17 -12 35 -10 18 2 32 -1 32 -7 0 -6 7 -11
15 -11 22 0 18 15 -7 29 -13 6 -15 9 -5 7 10 -3 17 0 17 9 0 7 -7 15 -15 17
-10 2 -12 8 -5 17 7 13 11 13 25 1 14 -12 18 -12 25 1 6 9 5 16 -3 19 -15 6
-15 19 -2 41 14 22 45 31 62 18 11 -10 18 -9 31 4 11 12 12 17 4 17 -8 0 -10
5 -6 12 5 7 3 8 -5 4 -7 -5 -10 -14 -7 -22 4 -11 2 -12 -14 -1 -31 19 -24 37
14 37 19 0 38 5 41 10 10 15 35 12 35 -5 0 -22 17 -18 23 6 4 15 -1 23 -20 30
-14 5 -27 18 -30 29 -3 11 -11 20 -18 20 -7 0 -15 7 -19 15 -6 16 -5 16 32 20
12 1 25 5 29 9 13 12 -4 15 -35 7 -20 -6 -32 -6 -32 0 0 5 5 9 11 9 8 0 8 4 0
14 -10 12 -8 19 10 37 15 15 24 18 27 11 2 -7 10 -12 18 -12 8 0 14 -4 14 -10
0 -5 -7 -6 -17 -3 -12 5 -14 3 -8 -8 8 -12 6 -12 -9 0 -12 10 -20 11 -28 3 -7
-7 2 -14 32 -22 38 -10 44 -10 53 5 8 14 11 15 18 4 7 -12 9 -12 9 0 0 7 -10
22 -21 32 -12 10 -19 25 -16 33 4 10 1 13 -9 9 -8 -3 -13 -12 -10 -19 8 -20
-11 -17 -23 3 -9 17 -11 16 -30 -1 -12 -11 -21 -14 -21 -8 0 7 5 12 10 12 6 0
1 14 -12 30 -20 28 -38 39 -38 23z m34 -128 c-4 -8 -11 -12 -16 -9 -6 4 -5 10
3 15 19 12 19 11 13 -6z m-111 -8 c4 3 9 -2 13 -11 6 -15 7 -15 21 1 8 10 12
12 8 6 -4 -8 1 -13 13 -13 11 0 25 -7 32 -15 10 -12 9 -15 -4 -15 -10 0 -15 4
-12 8 3 5 -1 9 -9 9 -11 0 -11 -4 0 -21 20 -32 28 -66 16 -66 -6 0 -11 9 -11
21 0 26 -22 48 -46 46 -12 -1 -18 3 -16 12 3 12 0 12 -13 1 -8 -7 -19 -9 -23
-5 -4 4 -1 10 5 12 10 4 10 10 1 26 -10 19 -9 20 4 10 8 -7 18 -10 21 -6z
m133 -70 c16 6 19 -12 4 -22 -5 -3 -10 -12 -10 -18 0 -8 3 -7 9 2 5 8 14 10
21 6 14 -9 -11 -27 -43 -32 -14 -2 -16 2 -11 21 3 13 1 27 -6 31 -8 5 -7 11 2
22 12 15 13 15 16 0 2 -9 9 -14 18 -10z m-126 3 c0 -5 -4 -10 -10 -10 -5 0
-10 5 -10 10 0 6 5 10 10 10 6 0 10 -4 10 -10z m30 -11 c0 -5 6 -7 13 -4 6 3
2 -2 -10 -11 -13 -9 -23 -22 -23 -28 0 -6 4 -6 9 2 6 10 10 7 15 -13 4 -14 4
-30 1 -35 -4 -6 0 -10 7 -11 10 0 10 -2 -1 -6 -28 -11 -50 -40 -38 -52 7 -7 7
-11 1 -11 -6 0 -20 11 -32 25 -23 27 -48 33 -54 13 -3 -9 -6 -9 -12 1 -5 8 -1
14 13 18 16 4 20 11 16 24 -5 16 -1 18 29 17 20 -1 37 -7 40 -15 4 -10 1 -13
-12 -9 -9 3 -24 1 -32 -5 -13 -9 -13 -10 0 -6 8 2 24 -3 34 -12 11 -9 16 -11
13 -5 -4 7 0 17 8 24 12 10 13 16 4 26 -6 8 -17 14 -24 14 -17 0 -7 40 11 47
8 3 11 9 8 14 -3 5 0 9 5 9 6 0 11 -5 11 -11z m41 -57 c-7 -2 -18 1 -23 6 -8
8 -4 9 13 5 13 -4 18 -8 10 -11z"/>
<path d="M1300 1946 c0 -2 7 -6 15 -10 8 -3 15 -1 15 4 0 6 -7 10 -15 10 -8 0
-15 -2 -15 -4z"/>
<path d="M1915 1930 c-3 -5 -1 -10 4 -10 6 0 11 5 11 10 0 6 -2 10 -4 10 -3 0
-8 -4 -11 -10z"/>
<path d="M786 1904 c-8 -21 -6 -74 3 -98 7 -18 8 -18 14 -3 4 10 2 17 -4 17
-6 0 -1 9 12 20 13 10 18 19 12 20 -7 0 -13 -4 -13 -10 0 -5 -5 -10 -11 -10
-8 0 -9 13 -5 40 6 41 3 52 -8 24z"/>
<path d="M968 1903 c-15 -4 -27 -33 -14 -33 2 0 11 -3 19 -6 11 -4 15 1 13 20
0 14 -1 25 -1 25 0 -1 -8 -3 -17 -6z"/>
<path d="M2146 1892 c-16 -15 6 -58 24 -47 8 5 6 13 -7 27 -18 21 -18 21 5 9
12 -6 22 -8 22 -3 0 11 -36 22 -44 14z"/>
<path d="M1125 1870 c-3 -5 -3 -15 1 -22 4 -6 3 -8 -4 -4 -6 3 -18 -1 -27 -10
-20 -20 -12 -32 10 -14 12 10 15 10 15 -1 0 -11 3 -11 11 1 8 11 12 12 16 2 2
-6 8 -10 13 -7 4 3 6 -5 3 -17 -5 -22 -5 -22 9 -4 14 18 13 22 -11 44 -14 13
-25 28 -23 33 3 12 -5 11 -13 -1z"/>
<path d="M853 1862 c-6 -4 -16 -19 -22 -34 -8 -22 -7 -27 10 -31 10 -3 16 -1
13 4 -3 5 5 13 18 18 16 7 18 10 6 10 -9 1 -20 6 -24 13 -4 6 -3 8 3 5 5 -3
10 0 10 8 0 8 -1 15 -1 15 -1 0 -6 -4 -13 -8z"/>
<path d="M1740 1820 c-14 -38 0 -60 21 -33 8 10 9 14 2 10 -7 -4 -13 0 -16 10
-3 10 -6 16 -7 13z"/>
<path d="M2101 1811 c-10 -6 -9 -10 3 -14 8 -3 18 -2 21 3 8 13 -9 20 -24 11z"/>
<path d="M2147 1813 c-4 -3 -7 -16 -7 -27 0 -12 -4 -16 -8 -11 -4 6 -15 11
-26 13 -14 3 -17 -1 -13 -12 4 -10 1 -16 -9 -16 -10 0 -14 6 -11 14 4 10 -2
13 -19 12 l-25 -1 28 -24 c15 -13 22 -20 16 -17 -7 4 -13 3 -13 -2 0 -6 7 -12
15 -16 9 -3 15 0 15 8 0 7 7 19 15 26 18 15 21 -1 5 -31 -8 -15 -7 -19 4 -19
9 0 13 6 10 13 -4 11 6 13 44 9 38 -3 49 -1 49 11 0 8 -6 13 -14 10 -8 -3 -13
2 -13 16 0 14 5 19 15 15 11 -5 13 -2 9 11 -5 11 -10 13 -17 6 -8 -8 -16 -6
-27 4 -9 8 -20 12 -23 8z m29 -35 c1 -12 -3 -15 -14 -10 -15 5 -15 3 -4 -10
11 -14 10 -16 -6 -11 -17 4 -18 8 -8 29 12 26 28 27 32 2z"/>
<path d="M1139 1806 c-2 -3 -16 -7 -31 -10 -14 -2 -36 -14 -47 -25 l-21 -21
31 0 c23 0 32 -5 36 -21 5 -16 8 -18 15 -7 6 9 7 5 3 -12 -6 -20 -5 -23 5 -13
10 9 19 9 33 2 13 -8 22 -8 30 0 8 8 7 11 -3 12 -8 1 -21 2 -29 3 -8 0 -16 6
-18 13 -3 7 4 10 19 7 l23 -5 -22 10 c-13 6 -23 15 -23 21 0 5 -5 10 -11 10
-8 0 -7 -6 2 -17 12 -14 12 -16 -1 -11 -20 6 -26 38 -6 38 8 0 18 5 21 11 7
11 2 23 -6 15z m-44 -35 c-3 -6 -11 -11 -17 -11 -6 0 -6 6 2 15 14 17 26 13
15 -4z"/>
<path d="M1461 1793 c-1 -12 -6 -25 -13 -29 -7 -5 -8 -3 -3 6 5 8 3 11 -5 8
-21 -7 -35 -57 -20 -71 10 -9 11 -9 6 0 -3 6 -2 14 4 18 6 4 8 11 5 16 -4 5 3
9 14 9 25 0 30 9 20 40 -6 23 -7 23 -8 3z"/>
<path d="M877 1793 c-4 -3 -7 -11 -7 -17 0 -6 5 -5 12 2 6 6 9 14 7 17 -3 3
-9 2 -12 -2z"/>
<path d="M930 1789 c0 -5 5 -7 10 -4 6 3 10 8 10 11 0 2 -4 4 -10 4 -5 0 -10
-5 -10 -11z"/>
<path d="M1180 1792 c0 -4 9 -13 20 -20 19 -12 20 -11 8 8 -13 20 -28 27 -28
12z"/>
<path d="M810 1784 c0 -9 24 -29 39 -32 21 -4 7 20 -17 29 -12 5 -22 6 -22 3z"/>
<path d="M897 1776 c-3 -8 1 -17 9 -20 9 -4 14 1 14 14 0 23 -15 27 -23 6z"/>
<path d="M1810 1771 c0 -7 7 -19 15 -27 19 -20 19 -5 0 20 -9 11 -15 14 -15 7z"/>
<path d="M1000 1760 c0 -5 5 -10 10 -10 6 0 10 5 10 10 0 6 -4 10 -10 10 -5 0
-10 -4 -10 -10z"/>
<path d="M1180 1761 c0 -5 5 -13 10 -16 6 -3 10 -2 10 4 0 5 -4 13 -10 16 -5
3 -10 2 -10 -4z"/>
<path d="M1729 1741 c7 -5 11 -13 9 -17 -3 -5 2 -17 12 -27 15 -16 18 -16 23
-2 4 9 1 15 -9 15 -10 0 -14 6 -11 14 3 8 -1 17 -9 20 -23 9 -31 7 -15 -3z"/>
<path d="M1020 1729 c-12 -8 -9 -9 10 -4 l25 7 -23 -17 c-13 -9 -27 -27 -33
-39 -5 -11 -16 -31 -24 -43 -11 -14 -13 -23 -6 -28 6 -3 11 2 11 13 0 11 9 22
20 25 13 3 20 0 20 -10 0 -8 -4 -11 -10 -8 -6 3 -7 -1 -4 -9 8 -22 24 -20 24
2 0 17 29 52 43 52 3 0 5 -9 4 -20 -1 -22 -13 -27 -19 -8 -3 7 -7 5 -11 -6 -4
-10 -3 -15 3 -11 6 3 10 -4 10 -15 0 -13 8 -24 20 -27 23 -6 25 -14 8 -31 -13
-13 -5 -27 10 -18 6 3 9 25 7 49 -1 23 -1 36 2 30 3 -7 12 -13 21 -12 11 0 12
2 4 6 -6 2 -10 9 -6 14 3 5 0 9 -5 9 -22 0 -10 20 12 21 12 1 16 3 7 5 -15 4
-47 62 -42 77 1 4 -2 7 -8 7 -5 0 -10 -11 -10 -25 0 -14 -5 -25 -12 -25 -6 0
-19 -7 -29 -16 -9 -8 -20 -11 -23 -6 -3 5 5 15 18 22 30 15 42 50 18 50 -10 0
-24 -5 -32 -11z m77 -91 c-3 -8 -6 -5 -6 6 -1 11 2 17 5 13 3 -3 4 -12 1 -19z
m-7 -33 c0 -8 -4 -15 -10 -15 -5 0 -7 7 -4 15 4 8 8 15 10 15 2 0 4 -7 4 -15z"/>
<path d="M1450 1716 c0 -8 -12 -24 -26 -35 -23 -18 -24 -25 -3 -23 10 1 33
-47 26 -54 -4 -4 -15 4 -26 17 -11 13 -20 20 -21 16 0 -5 7 -15 15 -23 20 -20
19 -32 -2 -37 -16 -4 -16 -5 1 -6 12 -1 16 -6 12 -16 -6 -17 13 -65 26 -65 5
0 6 -5 2 -12 -4 -7 -3 -8 5 -4 8 6 10 0 6 -21 -6 -27 -5 -27 9 5 8 17 18 32
21 32 3 0 3 -5 0 -11 -4 -5 -2 -22 4 -37 9 -20 8 -40 -2 -79 -10 -37 -11 -53
-3 -56 6 -3 12 -18 13 -33 2 -27 1 -27 -7 -6 -13 31 -22 28 -14 -5 7 -26 6
-27 -10 -10 -9 9 -15 21 -12 25 10 17 15 112 5 107 -5 -4 -9 -28 -9 -55 0 -41
-4 -52 -27 -70 -21 -16 -36 -20 -63 -16 -19 3 -28 2 -20 -2 18 -8 20 -44 3
-49 -7 -3 -10 3 -6 15 3 12 -2 22 -13 26 -14 5 -15 4 -5 -8 9 -11 9 -14 -1
-13 -41 1 -50 -4 -45 -23 4 -15 0 -20 -13 -20 -11 0 -21 -4 -24 -9 -3 -5 -24
-7 -45 -4 -36 5 -39 4 -34 -15 5 -20 18 -23 40 -9 6 4 19 0 27 -9 15 -14 16
-14 16 2 0 15 2 16 13 5 10 -10 9 -15 -4 -24 -9 -7 -14 -18 -11 -25 2 -7 -4
-22 -14 -34 -11 -11 -19 -23 -19 -27 0 -3 -8 -5 -18 -4 -27 4 -11 -14 18 -19
13 -3 22 -1 19 3 -3 5 0 9 5 9 6 0 11 -6 11 -12 0 -9 4 -8 10 2 6 10 10 11 10
3 0 -7 5 -13 10 -13 20 0 9 21 -15 30 -14 5 -25 14 -25 19 0 18 55 20 91 2 39
-19 59 -17 59 5 0 8 5 14 12 14 6 0 8 3 4 7 -4 4 -16 -3 -27 -17 -11 -14 -18
-19 -17 -11 3 13 -15 19 -69 24 -28 2 -37 22 -19 39 12 11 12 16 -2 31 -17 19
-15 24 13 29 13 2 21 -4 23 -17 4 -17 2 -18 -14 -5 -11 7 -7 2 8 -13 15 -15
33 -27 40 -27 10 0 10 2 1 8 -6 4 -17 20 -23 36 -9 24 -8 27 5 22 11 -4 14 -2
9 6 -5 8 -2 9 9 5 10 -4 17 -2 17 5 0 6 10 3 22 -8 12 -10 18 -13 14 -6 -6 10
-3 13 10 11 23 -4 84 27 84 42 0 6 5 7 12 3 6 -4 8 -3 5 3 -4 6 -1 13 7 16 9
4 12 15 8 33 -3 17 -1 25 6 21 5 -4 13 0 16 9 4 10 2 13 -7 8 -9 -6 -9 -4 -2
7 13 18 13 63 0 66 -5 1 -8 -9 -7 -24 3 -16 0 -23 -7 -19 -15 9 -14 32 2 56 8
14 9 23 2 28 -15 11 -15 43 0 65 7 11 11 27 8 36 -4 11 -3 13 4 6 16 -16 26
-68 12 -59 -7 4 -9 3 -5 -4 3 -6 2 -13 -4 -17 -6 -4 -4 -18 6 -38 10 -17 18
-45 19 -62 1 -16 2 -47 3 -68 1 -23 7 -36 15 -35 6 2 11 -5 11 -14 -1 -10 3
-18 8 -18 6 0 7 -7 4 -16 -5 -13 -3 -14 6 -6 12 10 19 12 34 12 4 0 1 7 -7 16
-7 9 3 5 23 -8 20 -13 39 -31 41 -41 5 -17 6 -17 26 -1 30 26 48 25 80 -5 l29
-28 -36 -13 c-63 -22 -69 -23 -49 -7 16 14 15 15 -18 21 -20 4 -39 14 -42 21
-4 11 -10 12 -23 5 -13 -7 -21 -5 -30 5 -8 10 -18 11 -35 5 -15 -6 -25 -5 -27
1 -2 6 -24 12 -48 15 l-45 4 34 -15 c18 -8 36 -13 41 -10 4 2 16 -4 28 -15 21
-19 21 -19 27 0 4 11 11 18 16 14 6 -4 6 -11 -2 -20 -8 -10 -8 -14 0 -14 6 0
11 6 12 13 0 6 5 1 11 -13 19 -43 17 -50 -8 -50 -13 0 -24 -4 -24 -8 0 -5 -6
-9 -12 -10 -21 -1 -57 -10 -68 -17 -6 -3 -10 0 -10 9 0 8 -6 17 -12 19 -10 4
-9 8 2 17 13 9 12 10 -5 7 -11 -2 -19 -9 -17 -16 2 -8 -3 -11 -12 -8 -9 4 -18
2 -21 -4 -4 -5 -3 -9 2 -8 19 3 33 -2 33 -12 0 -6 -9 -8 -21 -4 -17 6 -20 3
-17 -17 2 -14 -2 -22 -9 -20 -7 1 -13 -2 -13 -8 0 -5 -7 -10 -16 -10 -8 0 -13
4 -9 9 3 6 -4 9 -16 8 l-21 -1 22 -18 c12 -10 17 -18 10 -18 -6 0 -18 7 -26
15 -21 21 -50 19 -75 -6 -13 -13 -27 -18 -41 -13 -14 4 -19 2 -16 -7 2 -7 16
-13 30 -14 15 0 29 -3 33 -7 4 -4 14 -4 23 -1 15 4 15 3 2 -6 -8 -6 -15 -18
-15 -28 -1 -11 -7 -16 -15 -14 -8 2 -23 4 -32 5 -10 0 -18 4 -18 8 0 4 -7 8
-15 8 -8 0 -15 7 -15 16 0 14 2 15 18 3 15 -13 16 -12 3 3 -10 14 -17 15 -33
7 -15 -8 -19 -8 -14 0 4 7 -2 12 -16 13 -13 1 -30 2 -39 3 -9 0 -24 9 -35 19
-18 18 -17 18 3 12 12 -4 24 -2 28 4 3 5 -1 10 -9 10 -14 0 -20 12 -17 33 0 4
-6 7 -14 7 -13 0 -14 -4 -5 -20 9 -16 8 -18 -5 -14 -8 3 -12 11 -9 16 4 6 1 9
-7 6 -8 -3 -13 -15 -11 -29 3 -23 3 -23 -11 -5 -8 10 -19 16 -25 13 -6 -5 -8
0 -5 13 3 11 10 20 15 20 5 0 6 -5 2 -11 -8 -13 48 21 58 36 5 6 8 5 8 -2 0
-7 8 -13 18 -12 10 0 12 3 5 6 -7 2 -13 12 -13 20 0 10 6 13 16 9 9 -3 25 -6
35 -6 11 0 18 -4 14 -9 -3 -6 5 -15 17 -21 22 -11 22 -10 4 4 -13 11 -15 16
-6 16 7 0 -3 16 -23 35 -35 34 -60 44 -71 26 -3 -5 2 -8 11 -7 9 0 18 -4 20
-10 3 -8 -9 -11 -32 -10 -25 1 -34 -2 -30 -11 2 -7 -1 -13 -8 -13 -9 0 -8 -3
1 -9 11 -6 9 -9 -6 -13 -14 -4 -19 -2 -15 7 5 15 -33 9 -43 -6 -3 -5 2 -6 10
-3 11 4 13 0 9 -15 -5 -21 -23 -29 -23 -11 0 6 -4 10 -9 10 -5 0 -4 -10 2 -23
7 -16 37 -33 96 -57 47 -18 106 -46 130 -62 25 -15 52 -28 62 -28 10 0 32 -16
51 -36 58 -62 94 -72 253 -67 28 1 79 1 115 0 36 -1 96 3 135 8 61 9 70 13 76
35 4 14 7 20 8 13 1 -6 13 -13 29 -15 16 -2 26 -8 24 -16 -1 -8 2 -11 8 -7 5
3 10 9 10 13 0 14 -57 42 -96 48 -22 3 -41 8 -43 10 -10 9 62 3 80 -7 16 -8
30 -6 63 10 23 12 51 21 62 21 10 0 41 7 68 15 26 8 52 12 56 10 5 -3 11 -1
14 4 12 19 -15 22 -62 8 -68 -22 -120 -29 -126 -18 -4 6 -18 6 -37 -1 -23 -8
-27 -13 -17 -19 7 -5 -2 -6 -24 -3 -46 8 -118 -9 -233 -54 -75 -29 -103 -35
-172 -36 -63 -1 -85 3 -95 14 -7 9 -22 22 -33 30 -20 15 -20 15 0 -10 l20 -24
-25 15 c-14 9 -32 28 -40 43 -24 42 0 74 90 118 41 20 74 42 72 48 -1 6 2 8 9
5 6 -4 29 0 52 8 23 9 80 25 125 37 46 11 114 34 150 50 37 15 75 31 85 34 17
5 17 7 3 22 -9 8 -28 14 -43 12 -20 -2 -35 4 -50 22 -13 14 -23 27 -23 30 0 3
-23 6 -50 7 -28 1 -48 -2 -46 -6 3 -4 -3 -7 -12 -7 -9 -1 -26 -4 -37 -8 -14
-6 -16 -5 -7 2 11 7 10 10 -3 16 -9 3 -25 6 -36 6 -10 0 -25 10 -33 23 -17 27
-31 207 -15 207 5 0 8 -4 5 -8 -2 -4 4 -8 14 -9 26 -2 33 12 15 27 -13 11 -14
10 -9 -6 6 -18 6 -18 -11 -2 -17 16 -12 44 6 33 5 -3 6 2 2 11 -5 14 -2 16 20
10 20 -5 29 -2 37 13 13 25 13 31 0 31 -5 0 -9 -3 -9 -7 4 -24 -2 -35 -13 -27
-27 19 -52 10 -60 -24 -5 -17 -11 -32 -14 -32 -4 0 -4 6 -1 14 3 7 2 17 -3 22
-11 12 13 80 28 77 7 -2 12 2 12 7 0 15 -16 12 -30 -6 -25 -29 -47 -35 -61
-17 -12 15 -12 16 4 10 19 -7 22 5 8 32 -9 15 -5 17 32 15 31 -2 37 0 22 6
-11 5 -34 9 -52 9 -26 1 -31 -3 -30 -19 1 -11 8 -20 17 -20 12 -1 11 -3 -3
-11 -10 -6 -22 -22 -28 -35 -5 -14 -13 -22 -19 -19 -5 3 -10 -1 -10 -9 0 -19
36 -40 45 -26 3 5 -1 10 -9 10 -20 0 -20 9 -1 34 15 20 15 20 15 0 0 -10 4
-15 8 -9 11 16 30 16 36 0 3 -8 -3 -17 -15 -20 -11 -4 -18 -9 -15 -12 7 -7
-14 -27 -37 -36 -13 -5 -20 0 -26 16 -16 40 -17 72 -3 70 7 -2 12 7 12 21 0
13 4 26 10 28 6 2 6 14 1 33 l-9 30 -1 -27 c-1 -35 -16 -37 -19 -3 -1 14 5 28
16 34 9 6 13 11 7 11 -5 0 -3 5 5 10 13 8 12 10 -2 10 -10 0 -18 -6 -18 -14z
m114 -282 c3 -8 2 -12 -4 -9 -6 3 -10 10 -10 16 0 14 7 11 14 -7z m-51 -104
c3 -11 1 -20 -4 -20 -5 0 -9 9 -9 20 0 11 2 20 4 20 2 0 6 -9 9 -20z m-53 -84
c0 -8 6 -17 13 -19 9 -4 8 -8 -3 -16 -23 -16 -27 -14 -27 19 0 17 4 30 9 30 4
0 8 -6 8 -14z m325 -16 c-3 -5 -1 -10 4 -10 6 0 11 -4 11 -9 0 -5 -9 -7 -20
-4 -16 4 -18 8 -9 19 13 16 23 19 14 4z m31 1 c-3 -4 8 -23 24 -41 17 -19 30
-28 30 -22 0 7 8 12 17 12 15 0 15 -2 -2 -14 -19 -14 -55 -11 -55 5 0 5 -8 9
-17 9 -12 0 -14 3 -6 8 8 5 9 13 3 22 -13 20 -12 30 1 30 5 0 8 -4 5 -9z
m-392 -17 c-11 -9 -13 -13 -6 -9 6 3 12 1 12 -4 0 -6 -7 -11 -15 -11 -8 0 -15
5 -15 11 0 5 -6 7 -12 3 -10 -6 -10 -5 -1 7 6 8 22 15 34 16 21 2 21 1 3 -13z
m308 1 c16 0 15 -12 -2 -23 -11 -7 -20 -8 -20 -3 0 5 -3 17 -7 27 -5 13 -3 15
8 8 8 -5 17 -9 21 -9z m-408 -24 c3 -5 -1 -11 -9 -15 -9 -3 -15 0 -15 9 0 16
16 20 24 6z m361 -41 c-5 -9 15 -15 38 -11 9 1 9 -3 1 -23 -9 -24 -39 -19 -52
9 -15 33 -15 35 4 35 8 0 12 -4 9 -10z m-321 -156 c12 -5 12 -9 3 -19 -9 -10
-14 -9 -24 4 -12 14 -12 14 -7 -2 5 -13 2 -16 -10 -11 -13 5 -14 9 -5 20 13
15 20 17 43 8z m480 -141 c4 -5 17 -8 29 -8 12 0 23 -7 25 -17 2 -13 -2 -15
-20 -11 -13 3 -29 10 -35 16 -9 6 -16 1 -23 -19 -7 -16 -14 -24 -18 -18 -7 11
-39 11 -49 0 -4 -3 -12 2 -20 12 -10 12 -12 13 -8 2 4 -11 -2 -16 -20 -18 -14
-1 -25 3 -25 8 0 5 7 6 17 3 11 -4 14 -3 9 5 -7 12 -3 14 32 15 9 1 21 7 25
14 5 8 12 11 18 8 5 -3 17 -1 26 4 22 13 27 13 37 4z"/>
<path d="M1787 1706 c4 -18 -1 -27 -17 -36 -17 -9 -19 -14 -9 -26 9 -11 15
-12 25 -3 8 6 14 16 14 21 0 5 10 18 23 29 16 14 17 17 5 13 -11 -4 -20 0 -24
10 -10 25 -22 19 -17 -8z m-7 -56 c0 -5 -2 -10 -4 -10 -3 0 -8 5 -11 10 -3 6
-1 10 4 10 6 0 11 -4 11 -10z"/>
<path d="M2141 1725 c-1 -6 5 -17 12 -24 10 -11 8 -13 -11 -8 -15 3 -20 2 -15
-6 4 -7 8 -16 8 -22 0 -5 5 -11 10 -12 6 -1 9 6 8 15 -1 10 0 11 3 5 7 -17 27
-17 22 -1 -6 16 19 41 32 33 5 -3 10 -1 10 4 0 15 -23 14 -38 -1 -9 -9 -12 -9
-12 1 0 7 -4 10 -9 7 -5 -4 -12 0 -14 6 -3 7 -6 8 -6 3z"/>
<path d="M1640 1710 c0 -5 5 -10 11 -10 5 0 7 5 4 10 -3 6 -8 10 -11 10 -2 0
-4 -4 -4 -10z"/>
<path d="M1713 1707 c4 -10 0 -20 -10 -25 -17 -10 -12 -42 6 -42 6 0 7 7 4 17
-5 12 -3 14 7 8 9 -6 11 -4 5 5 -4 7 -3 15 3 19 6 4 4 12 -6 21 -14 13 -15 12
-9 -3z"/>
<path d="M1560 1702 c0 -5 7 -15 15 -22 8 -7 15 -8 15 -2 0 5 -7 15 -15 22 -8
7 -15 8 -15 2z"/>
<path d="M1610 1685 c-7 -9 -8 -15 -2 -15 5 0 12 7 16 15 3 8 4 15 2 15 -2 0
-9 -7 -16 -15z"/>
<path d="M2200 1669 c0 -11 4 -18 10 -14 5 3 7 12 3 20 -7 21 -13 19 -13 -6z"/>
<path d="M1158 1673 c7 -3 16 -2 19 1 4 3 -2 6 -13 5 -11 0 -14 -3 -6 -6z"/>
<path d="M1230 1664 c0 -12 -3 -14 -13 -6 -10 8 -16 6 -26 -10 -8 -12 -16 -17
-20 -11 -4 7 -11 6 -19 -3 -12 -14 -5 -19 20 -15 4 0 5 -6 2 -14 -3 -8 -9 -14
-12 -13 -26 3 -42 -5 -42 -19 0 -10 4 -14 8 -8 4 6 14 11 24 13 12 2 15 -3 11
-18 -3 -11 -9 -18 -13 -15 -4 3 -10 -4 -13 -15 -4 -16 -2 -17 13 -7 10 6 21
20 24 30 3 13 10 18 20 14 9 -4 16 -2 16 3 0 6 -9 10 -20 10 -19 0 -19 1 -1
33 10 17 22 32 27 33 21 2 43 17 38 25 -9 15 -24 10 -24 -7z"/>
<path d="M1635 1670 c3 -5 11 -10 16 -10 6 0 7 5 4 10 -3 6 -11 10 -16 10 -6
0 -7 -4 -4 -10z"/>
<path d="M1350 1655 c0 -8 2 -15 4 -15 2 0 6 7 10 15 3 8 1 15 -4 15 -6 0 -10
-7 -10 -15z"/>
<path d="M1620 1652 c0 -5 5 -13 12 -20 9 -9 9 -12 0 -12 -7 0 -12 -7 -12 -16
0 -8 -4 -13 -8 -10 -4 2 -14 1 -22 -4 -11 -7 -9 -9 8 -7 13 1 28 9 33 19 9 17
11 17 34 2 17 -11 25 -13 25 -4 0 6 -9 14 -20 17 -11 3 -20 11 -20 18 0 7 -7
15 -15 19 -8 3 -15 2 -15 -2z"/>
<path d="M940 1636 c0 -9 5 -16 10 -16 6 0 10 4 10 9 0 6 -4 13 -10 16 -5 3
-10 -1 -10 -9z"/>
<path d="M2076 1635 c-10 -10 -16 -11 -25 -2 -8 8 -11 8 -11 0 0 -15 28 -43
44 -43 22 0 26 13 8 27 -13 11 -14 13 -2 12 26 -2 40 1 40 9 0 13 -39 11 -54
-3z"/>
<path d="M1730 1630 c-9 -6 -10 -10 -3 -10 6 0 15 5 18 10 8 12 4 12 -15 0z"/>
<path d="M1207 1615 c-4 -8 -2 -17 3 -20 6 -4 10 -4 10 -1 0 2 3 11 6 20 3 9
2 16 -4 16 -5 0 -12 -7 -15 -15z"/>
<path d="M1227 1589 c-3 -12 -1 -19 5 -17 13 5 20 38 8 38 -4 0 -10 -9 -13
-21z"/>
<path d="M1276 1583 c-7 -17 14 -74 24 -68 4 3 6 -5 3 -16 -4 -15 -2 -20 6
-18 7 3 12 8 12 12 -1 4 -1 17 -1 29 0 12 -3 18 -7 15 -6 -7 -32 21 -33 36 0
10 23 4 32 -8 4 -5 6 -1 6 10 -2 23 -34 29 -42 8z"/>
<path d="M1726 1585 c-3 -8 -1 -15 4 -15 6 0 10 7 10 15 0 8 -2 15 -4 15 -2 0
-6 -7 -10 -15z"/>
<path d="M1336 1574 c-4 -9 -4 -19 -1 -22 3 -3 5 1 5 9 0 11 2 11 10 -1 8 -13
10 -13 10 2 0 23 -17 31 -24 12z"/>
<path d="M1720 1549 c0 -5 -6 -7 -12 -3 -7 4 -10 4 -6 0 3 -4 -1 -16 -10 -25
-17 -18 -32 -18 -32 0 0 6 4 8 9 4 5 -3 12 -1 15 4 12 19 -12 20 -29 1 -15
-16 -16 -22 -5 -35 12 -14 15 -13 35 5 l23 21 21 -27 c11 -15 21 -24 21 -20 0
4 9 2 20 -4 12 -6 17 -17 14 -28 -5 -13 -4 -14 4 -4 5 8 13 14 18 15 5 1 7 7
5 12 -10 26 -5 50 11 50 9 0 20 4 24 8 18 18 -32 5 -52 -14 -24 -23 -44 -18
-43 9 0 14 2 14 8 -2 5 -12 10 -15 14 -9 4 6 0 16 -7 22 -10 8 -16 9 -21 1
-11 -18 -23 -11 -18 10 3 11 3 20 -1 20 -3 0 -6 -5 -6 -11z"/>
<path d="M1116 1535 c-9 -26 -7 -32 5 -12 6 10 9 21 6 23 -2 3 -7 -2 -11 -11z"/>
<path d="M1180 1542 c1 -18 19 -34 34 -29 10 4 16 1 16 -8 0 -8 -6 -15 -12
-16 -7 0 -22 -3 -33 -5 -11 -3 -26 -6 -32 -6 -7 -1 -13 -11 -13 -22 0 -17 2
-18 10 -6 5 8 10 11 10 5 0 -5 5 -2 11 8 9 16 11 16 26 1 15 -14 17 -14 25 1
6 10 16 14 30 9 16 -5 18 -3 12 7 -12 20 -14 39 -3 39 6 0 7 5 4 10 -4 6 -11
8 -16 5 -5 -4 -15 -3 -21 2 -18 11 -48 14 -48 5z"/>
<path d="M1050 1515 c0 -29 34 -36 44 -9 5 14 4 15 -8 5 -16 -13 -32 1 -21 19
3 6 1 10 -4 10 -6 0 -11 -11 -11 -25z"/>
<path d="M1145 1501 c-6 -11 9 -23 19 -14 9 9 7 23 -3 23 -6 0 -12 -4 -16 -9z"/>
<path d="M1275 1501 c-3 -5 -1 -12 5 -16 5 -3 10 1 10 9 0 18 -6 21 -15 7z"/>
<path d="M1105 1490 c3 -5 8 -10 11 -10 2 0 4 5 4 10 0 6 -5 10 -11 10 -5 0
-7 -4 -4 -10z"/>
<path d="M2945 1457 c-27 -10 -86 -37 -130 -58 -114 -54 -127 -58 -260 -85
-66 -13 -158 -32 -205 -43 -115 -26 -298 -22 -425 9 -94 23 -204 28 -249 10
-44 -16 -29 -20 57 -14 67 5 97 2 167 -16 71 -19 113 -23 250 -24 151 -1 177
2 315 32 204 44 235 54 382 118 118 51 164 77 152 87 -2 2 -26 -5 -54 -16z"/>
<path d="M1481 1438 c0 -10 -6 -18 -12 -18 -5 0 -7 -5 -3 -11 10 -16 27 5 21
27 -4 17 -5 17 -6 2z"/>
<path d="M2985 1350 c3 -5 8 -10 11 -10 2 0 4 5 4 10 0 6 -5 10 -11 10 -5 0
-7 -4 -4 -10z"/>
<path d="M1379 1291 c-21 -4 -45 -15 -54 -24 -9 -10 -20 -15 -25 -12 -4 3 -5
-5 -2 -17 5 -17 7 -19 10 -6 5 25 60 44 84 29 14 -8 18 -9 13 -1 -4 7 2 14 14
17 12 3 21 9 21 14 0 10 -8 10 -61 0z"/>
<path d="M1235 1241 c-45 -8 -76 -23 -94 -45 -8 -9 -17 -13 -22 -10 -5 3 -9 0
-9 -5 0 -6 -7 -11 -15 -11 -8 0 -15 -4 -15 -8 0 -7 -57 -46 -70 -47 -35 -5
-143 -75 -114 -75 22 0 163 79 200 113 12 10 30 17 39 15 10 -2 22 6 29 17 6
11 12 22 13 24 1 2 22 6 45 8 24 2 48 5 55 5 6 1 9 7 6 15 -3 7 -6 12 -7 12 0
-1 -19 -5 -41 -8z"/>
<path d="M2965 1240 c-3 -5 1 -10 9 -10 8 0 18 5 21 10 3 6 -1 10 -9 10 -8 0
-18 -4 -21 -10z"/>
<path d="M1520 1227 c0 -7 12 -14 26 -15 22 -2 24 0 10 13 -18 18 -36 19 -36
2z"/>
<path d="M2910 1230 c0 -5 -17 -10 -37 -10 -21 0 -45 -5 -53 -10 -13 -8 -13
-10 1 -10 33 0 129 23 129 31 0 5 -9 9 -20 9 -11 0 -20 -4 -20 -10z"/>
<path d="M2368 1203 c7 -3 16 -2 19 1 4 3 -2 6 -13 5 -11 0 -14 -3 -6 -6z"/>
<path d="M1236 1185 c-11 -8 -17 -17 -14 -20 2 -3 13 4 23 15 21 23 18 25 -9
5z"/>
<path d="M1660 1189 c0 -5 5 -7 10 -4 6 3 10 8 10 11 0 2 -4 4 -10 4 -5 0 -10
-5 -10 -11z"/>
<path d="M2685 1190 c4 -6 11 -8 16 -5 14 9 11 15 -7 15 -8 0 -12 -5 -9 -10z"/>
<path d="M2738 1193 c12 -2 32 -2 45 0 12 2 2 4 -23 4 -25 0 -35 -2 -22 -4z"/>
<path d="M2909 1181 c-42 -9 -83 -22 -91 -28 -8 -7 -19 -9 -23 -5 -5 4 -5 1
-1 -6 6 -11 12 -10 27 4 13 11 28 15 49 11 17 -4 30 -2 30 3 0 6 7 10 15 10 8
0 15 -5 15 -12 0 -6 8 -4 19 6 10 9 25 14 33 11 9 -4 15 0 15 10 0 8 -3 14 -6
14 -3 -1 -40 -9 -82 -18z"/>
<path d="M2603 1183 c15 -2 37 -2 50 0 12 2 0 4 -28 4 -27 0 -38 -2 -22 -4z"/>
<path d="M1777 1165 c6 -18 5 -18 -10 -6 -10 8 -20 12 -23 9 -2 -3 7 -13 20
-22 29 -19 42 -7 21 20 -15 18 -15 18 -8 -1z"/>
<path d="M1436 1155 c-9 -26 -7 -32 5 -12 6 10 9 21 6 23 -2 3 -7 -2 -11 -11z"/>
<path d="M1490 1161 c0 -10 19 -25 25 -20 1 2 -3 10 -11 17 -8 7 -14 8 -14 3z"/>
<path d="M1531 1144 c-1 -22 32 -68 42 -58 3 3 11 6 19 8 24 4 53 24 45 32 -5
5 -12 2 -17 -5 -10 -17 -40 -7 -40 13 0 7 -7 16 -15 20 -21 8 -19 -4 7 -31 12
-13 17 -23 11 -23 -12 0 -38 29 -46 50 -4 10 -6 9 -6 -6z"/>
<path d="M2661 1156 c10 -11 70 -16 64 -6 -3 5 -20 10 -37 10 -17 0 -29 -2
-27 -4z"/>
<path d="M1356 1131 c19 -18 49 -18 38 0 -3 5 -9 7 -14 4 -5 -3 -11 -1 -15 5
-3 5 -11 10 -17 10 -6 0 -3 -8 8 -19z"/>
<path d="M1450 1130 c-6 -11 -7 -20 -3 -20 4 0 1 -5 -7 -10 -13 -8 -13 -10 2
-10 9 0 20 5 23 10 3 6 1 10 -6 10 -7 0 -5 6 6 13 12 9 14 16 7 21 -6 3 -16
-3 -22 -14z"/>
<path d="M1410 1109 c0 -5 -4 -8 -9 -4 -5 3 -12 1 -16 -5 -3 -5 3 -10 14 -10
12 0 21 7 21 15 0 8 -2 15 -5 15 -3 0 -5 -5 -5 -11z"/>
<path d="M1330 1080 c0 -5 12 -10 28 -10 21 0 24 2 12 10 -20 13 -40 13 -40 0z"/>
<path d="M1156 1065 c4 -8 11 -15 16 -15 6 0 5 6 -2 15 -7 8 -14 15 -16 15 -2
0 -1 -7 2 -15z"/>
<path d="M1420 1068 c0 -9 -5 -18 -12 -20 -7 -3 -8 -7 -3 -10 16 -9 34 17 24
33 -7 11 -9 11 -9 -3z"/>
<path d="M2891 1047 c-13 -21 -12 -21 5 -5 10 10 16 20 13 22 -3 3 -11 -5 -18
-17z"/>
<path d="M1670 1054 c0 -5 9 -20 20 -34 18 -24 19 -24 14 -3 -6 22 -34 53 -34
37z"/>
<path d="M1776 1047 c3 -10 9 -15 12 -12 3 3 0 11 -7 18 -10 9 -11 8 -5 -6z"/>
<path d="M1130 1041 c0 -15 31 -22 48 -10 16 10 16 10 0 5 -10 -3 -20 -1 -23
4 -8 13 -25 13 -25 1z"/>
<path d="M1286 1033 c5 -5 12 -12 15 -16 3 -5 9 -2 12 7 5 12 0 16 -15 16 -12
0 -17 -3 -12 -7z"/>
<path d="M1610 1036 c0 -4 14 -34 30 -68 17 -33 30 -67 30 -76 0 -11 3 -13 10
-6 7 7 -1 33 -26 80 -37 71 -44 82 -44 70z"/>
<path d="M1810 1031 c0 -6 4 -13 10 -16 6 -3 7 1 4 9 -7 18 -14 21 -14 7z"/>
<path d="M855 1020 c-3 -6 1 -7 9 -4 18 7 21 14 7 14 -6 0 -13 -4 -16 -10z"/>
<path d="M893 1018 c-4 -7 -8 -16 -8 -20 0 -3 -9 -17 -20 -30 -11 -13 -21 -34
-23 -48 -2 -14 -9 -34 -16 -45 -12 -19 -11 -20 24 -20 22 0 46 7 57 18 11 9
26 17 34 17 8 0 5 6 -9 16 -12 8 -22 24 -22 35 0 22 -10 24 -30 7 -10 -10 -10
-7 1 11 9 13 22 25 30 27 8 1 27 9 43 18 27 13 28 16 11 22 -11 5 -20 3 -23
-4 -2 -7 -8 -12 -13 -12 -6 0 -7 5 -4 10 3 6 -1 10 -9 10 -8 0 -18 -6 -23 -12z
m-8 -109 c0 -7 -8 -15 -17 -17 -10 -2 -18 2 -18 8 0 6 5 8 12 4 8 -5 9 -2 5
10 -5 12 -3 16 5 14 7 -3 13 -11 13 -19z"/>
<path d="M1590 1011 c0 -10 7 -24 15 -31 13 -11 13 -8 4 19 -12 35 -19 40 -19
12z"/>
<path d="M1725 1020 c-5 -8 -4 -11 2 -7 14 9 26 -52 18 -90 -4 -23 -4 -24 4
-8 14 30 13 79 -2 100 -11 14 -16 15 -22 5z"/>
<path d="M2676 1013 c-6 -14 -5 -15 5 -6 7 7 10 15 7 18 -3 3 -9 -2 -12 -12z"/>
<path d="M727 1001 c-15 -9 -30 -26 -34 -39 -7 -29 12 -100 49 -178 15 -34 28
-67 28 -74 0 -20 24 -84 33 -91 5 -3 9 -10 9 -15 2 -39 102 -192 134 -205 15
-5 24 -17 24 -29 0 -12 11 -31 24 -44 19 -17 36 -22 75 -21 28 1 51 -3 51 -8
0 -4 5 -5 10 -2 22 14 7 22 -46 28 -72 7 -87 20 -82 70 4 37 -1 45 -54 100
-31 34 -60 59 -63 56 -5 -6 45 -79 84 -121 13 -16 20 -28 15 -28 -39 0 -184
234 -184 298 0 12 -12 46 -26 75 -15 28 -35 81 -46 117 l-18 65 21 18 c27 22
95 23 103 1 3 -8 10 -12 16 -9 15 9 12 25 -5 25 -8 0 -15 5 -15 12 0 6 -2 9
-6 6 -3 -3 -19 -3 -37 1 -22 5 -41 2 -60 -8z"/>
<path d="M1561 994 c0 -11 3 -14 6 -6 3 7 2 16 -1 19 -3 4 -6 -2 -5 -13z"/>
<path d="M1678 982 c19 -14 20 -20 10 -32 -11 -12 -11 -12 4 -1 21 16 14 37
-15 45 -22 5 -22 5 1 -12z"/>
<path d="M1822 980 c0 -14 2 -19 5 -12 2 6 2 18 0 25 -3 6 -5 1 -5 -13z"/>
<path d="M1480 980 c-12 -8 -11 -10 7 -10 29 0 71 -83 53 -105 -7 -8 -18 -15
-26 -15 -7 0 -16 -5 -19 -11 -4 -5 10 -3 31 6 57 24 65 40 35 72 -11 12 -17
24 -14 27 6 6 -34 46 -46 46 -3 0 -13 -5 -21 -10z"/>
<path d="M949 958 c-10 -35 5 -58 54 -82 12 -7 22 -19 22 -28 0 -18 53 -68 72
-68 6 0 13 -4 15 -10 3 -10 93 -61 213 -121 77 -38 129 -52 390 -110 55 -12
109 -27 120 -34 22 -13 45 -9 45 7 0 6 -7 8 -15 5 -8 -4 -17 -2 -20 3 -8 13
-90 34 -245 65 -74 15 -141 32 -149 39 -8 6 -17 10 -20 9 -14 -5 -62 13 -136
52 -75 38 -115 62 -207 123 -36 24 -50 45 -27 40 6 -2 14 3 17 11 3 8 0 11 -7
7 -6 -4 -11 -3 -11 3 0 6 -12 22 -27 38 -16 15 -27 31 -25 36 1 5 -2 6 -8 2
-5 -3 -10 -1 -10 4 0 9 -38 17 -41 9z m45 -43 c4 -13 2 -14 -14 -5 -23 13 -26
20 -6 20 8 0 16 -7 20 -15z"/>
<path d="M2020 950 c-8 -5 -12 -12 -9 -15 4 -3 12 1 19 10 14 17 11 19 -10 5z"/>
<path d="M2860 950 c0 -5 5 -10 10 -10 6 0 10 5 10 10 0 6 -4 10 -10 10 -5 0
-10 -4 -10 -10z"/>
<path d="M755 931 c-3 -5 -1 -12 5 -16 6 -4 8 -10 6 -14 -3 -4 -1 -13 5 -21 7
-13 9 -12 9 3 0 20 10 22 30 5 8 -7 6 -3 -4 9 -10 12 -15 27 -11 32 3 7 -2 11
-14 11 -11 0 -22 -4 -26 -9z"/>
<path d="M1270 935 c0 -2 10 -10 23 -16 20 -11 21 -11 8 4 -13 16 -31 23 -31
12z"/>
<path d="M1613 925 c0 -8 3 -13 5 -10 3 2 13 -5 23 -17 15 -16 19 -18 19 -5 0
16 -26 47 -39 47 -4 0 -8 -7 -8 -15z"/>
<path d="M2894 918 l-19 -23 23 19 c12 11 22 21 22 23 0 8 -8 2 -26 -19z"/>
<path d="M1390 910 c-9 -6 -10 -10 -3 -10 6 0 15 5 18 10 8 12 4 12 -15 0z"/>
<path d="M2750 891 c0 -6 4 -13 10 -16 6 -3 7 1 4 9 -7 18 -14 21 -14 7z"/>
<path d="M2961 884 c0 -11 3 -14 6 -6 3 7 2 16 -1 19 -3 4 -6 -2 -5 -13z"/>
<path d="M930 854 c0 -3 13 -17 30 -30 17 -15 36 -46 45 -72 14 -45 15 -45 13
-12 -2 40 -51 120 -73 120 -8 0 -15 -3 -15 -6z"/>
<path d="M1136 842 c-2 -4 2 -13 10 -19 7 -8 15 -9 19 -3 9 15 34 0 28 -18 -4
-14 -3 -15 5 -2 6 8 9 17 6 21 -7 11 -63 29 -68 21z"/>
<path d="M845 830 c-3 -5 -3 -15 0 -20 4 -6 3 -9 -2 -8 -4 2 -10 -1 -13 -7 -3
-5 10 -17 27 -25 18 -8 33 -22 33 -30 0 -12 2 -12 9 -2 6 10 10 10 21 -3 20
-25 -4 -44 -54 -42 l-42 2 9 -30 c20 -60 20 -61 25 -35 6 35 20 50 50 50 l25
0 -21 -23 c-32 -34 -29 -82 5 -99 14 -7 29 -20 33 -28 19 -41 27 -54 38 -58
19 -6 14 29 -5 44 -17 12 -17 13 -1 14 9 0 25 -13 34 -29 10 -17 22 -27 28
-24 5 4 7 -1 3 -11 -6 -14 -3 -16 16 -11 19 5 20 4 7 -7 -26 -22 -49 -73 -40
-87 9 -15 36 -20 128 -25 36 -2 57 1 50 5 -7 5 -22 9 -34 9 -70 0 -117 52 -80
88 15 15 16 13 16 -21 0 -20 5 -37 10 -37 6 0 10 5 10 11 0 7 12 10 30 7 17
-3 30 -1 30 4 0 4 -11 8 -24 8 -13 0 -29 7 -36 15 -7 8 -9 15 -4 15 4 0 -10
12 -33 28 -99 66 -173 134 -173 158 0 27 32 64 56 64 12 0 98 -64 134 -100 19
-19 187 -130 197 -130 4 0 -15 15 -42 33 -69 44 -115 79 -220 167 -49 42 -107
88 -127 103 -26 19 -38 36 -38 53 0 24 -23 34 -35 14z m225 -459 c0 -6 -4 -13
-10 -16 -5 -3 -10 1 -10 9 0 9 5 16 10 16 6 0 10 -4 10 -9z"/>
<path d="M782 798 c15 -44 15 -44 20 -4 3 29 1 36 -13 36 -16 0 -17 -4 -7 -32z"/>
<path d="M923 801 c-1 -11 5 -25 13 -32 10 -8 14 -8 14 0 0 6 -5 11 -11 11 -8
0 -9 4 0 13 6 8 8 17 4 20 -11 12 -19 7 -20 -12z"/>
<path d="M840 746 c0 -8 5 -18 10 -21 6 -3 10 1 10 9 0 8 -4 18 -10 21 -5 3
-10 -1 -10 -9z"/>
<path d="M1387 709 c8 -8 16 -8 30 0 16 9 14 10 -11 11 -22 0 -27 -3 -19 -11z"/>
<path d="M1436 705 c-9 -26 -7 -32 5 -12 6 10 9 21 6 23 -2 3 -7 -2 -11 -11z"/>
<path d="M1475 709 c-4 -6 -5 -12 -2 -15 2 -3 7 2 10 11 7 17 1 20 -8 4z"/>
<path d="M1495 690 c-3 -5 -1 -10 4 -10 6 0 11 5 11 10 0 6 -2 10 -4 10 -3 0
-8 -4 -11 -10z"/>
<path d="M2965 690 c-3 -5 3 -10 14 -10 12 0 21 5 21 10 0 6 -6 10 -14 10 -8
0 -18 -4 -21 -10z"/>
<path d="M1076 673 c-6 -14 -5 -15 5 -6 7 7 10 15 7 18 -3 3 -9 -2 -12 -12z"/>
<path d="M1529 677 c12 -15 11 -17 -10 -17 -19 0 -21 -2 -9 -10 10 -6 20 -4
31 6 8 8 18 13 20 12 2 -2 3 -1 1 2 -2 3 -7 5 -10 5 -4 0 -14 4 -22 10 -13 8
-13 7 -1 -8z"/>
<path d="M2855 679 c-16 -5 -65 -11 -109 -15 -43 -3 -88 -10 -100 -14 -23 -10
-11 -9 162 11 56 7 102 16 102 21 0 10 -15 9 -55 -3z"/>
<path d="M1121 668 c0 -9 4 -20 9 -23 6 -4 7 -12 4 -18 -4 -7 -3 -8 1 -4 12
10 16 39 5 32 -5 -3 -11 3 -13 12 -4 16 -5 16 -6 1z"/>
<path d="M1405 670 c-3 -5 -1 -10 4 -10 6 0 11 5 11 10 0 6 -2 10 -4 10 -3 0
-8 -4 -11 -10z"/>
<path d="M1595 670 c-3 -5 -1 -10 4 -10 6 0 11 5 11 10 0 6 -2 10 -4 10 -3 0
-8 -4 -11 -10z"/>
<path d="M1650 670 c-9 -6 -10 -10 -3 -10 6 0 15 5 18 10 8 12 4 12 -15 0z"/>
<path d="M1440 659 c0 -5 9 -9 19 -9 11 0 22 -6 24 -12 3 -7 6 -4 6 7 1 15 -6
20 -24 21 -14 1 -25 -2 -25 -7z"/>
<path d="M2021 656 c-9 -11 -9 -16 0 -22 7 -4 9 -3 5 4 -3 6 2 15 11 21 10 6
13 11 7 11 -6 0 -17 -6 -23 -14z"/>
<path d="M960 645 c-16 -19 -1 -19 24 0 16 12 17 15 4 15 -8 0 -21 -7 -28 -15z"/>
<path d="M1011 643 c0 -4 13 -18 30 -31 16 -13 27 -18 24 -10 -7 16 -55 52
-54 41z"/>
<path d="M1600 640 c0 -5 4 -10 9 -10 6 0 13 5 16 10 3 6 -1 10 -9 10 -9 0
-16 -4 -16 -10z"/>
<path d="M1950 640 c20 -13 33 -13 25 0 -3 6 -14 10 -23 10 -15 0 -15 -2 -2
-10z"/>
<path d="M2140 641 c0 -6 4 -13 10 -16 6 -3 7 1 4 9 -7 18 -14 21 -14 7z"/>
<path d="M1710 630 c0 -5 -7 -7 -15 -4 -8 4 -15 1 -15 -5 0 -6 9 -11 20 -11
11 0 20 7 20 15 0 8 -2 15 -5 15 -3 0 -5 -4 -5 -10z"/>
<path d="M2595 630 c-3 -6 1 -7 9 -4 18 7 21 14 7 14 -6 0 -13 -4 -16 -10z"/>
<path d="M2377 607 c-16 -12 -43 -34 -61 -49 -18 -15 -44 -30 -59 -33 -33 -9
-39 -17 -25 -35 8 -12 9 -11 4 4 -5 13 -2 17 8 13 8 -3 26 3 39 14 14 10 30
19 36 19 6 0 11 4 11 9 0 12 76 61 95 61 8 0 15 5 15 10 0 17 -34 11 -63 -13z"/>
<path d="M1745 610 c-3 -6 1 -7 9 -4 18 7 21 14 7 14 -6 0 -13 -4 -16 -10z"/>
<path d="M2253 600 c-11 -16 -10 -18 2 -14 8 4 15 12 15 20 0 19 -3 18 -17 -6z"/>
<path d="M1960 555 c-10 -12 -6 -14 22 -13 19 1 40 -2 46 -6 8 -5 10 -2 6 9
-4 9 -9 14 -11 11 -3 -3 -15 -1 -28 4 -17 6 -27 5 -35 -5z"/>
<path d="M1385 520 c-10 -11 -16 -22 -13 -25 3 -3 13 4 23 15 10 11 16 22 13
25 -3 3 -13 -4 -23 -15z"/>
<path d="M1062 508 c2 -6 10 -14 16 -16 7 -2 10 2 6 12 -7 18 -28 22 -22 4z"/>
<path d="M1976 507 c3 -10 9 -15 12 -12 3 3 0 11 -7 18 -10 9 -11 8 -5 -6z"/>
<path d="M2070 510 c-13 -8 -12 -10 3 -10 9 0 17 5 17 10 0 12 -1 12 -20 0z"/>
<path d="M1415 493 c-8 -23 -6 -26 8 -14 8 6 17 8 20 4 4 -3 7 0 7 9 0 19 -27
19 -35 1z"/>
<path d="M2000 496 c0 -8 5 -18 10 -21 6 -3 10 -1 10 5 0 7 6 10 13 7 8 -3 14
1 14 9 0 8 -10 14 -24 14 -13 0 -23 -6 -23 -14z"/>
<path d="M2191 494 c0 -11 3 -14 6 -6 3 7 2 16 -1 19 -3 4 -6 -2 -5 -13z"/>
<path d="M1500 474 c0 -8 9 -14 21 -14 11 0 19 5 17 12 -6 17 -38 19 -38 2z"/>
<path d="M2356 475 c-11 -8 -15 -15 -9 -15 6 0 16 7 23 15 16 19 11 19 -14 0z"/>
<path d="M1450 445 c0 -10 -5 -14 -12 -9 -9 5 -10 4 -3 -4 6 -5 34 -13 63 -15
45 -5 51 -3 36 7 -10 7 -25 11 -34 9 -9 -3 -24 3 -34 12 -15 15 -16 15 -16 0z"/>
<path d="M1686 448 c3 -5 10 -6 15 -3 13 9 11 12 -6 12 -8 0 -12 -4 -9 -9z"/>
<path d="M1320 446 c0 -2 7 -7 16 -10 8 -3 12 -2 9 4 -6 10 -25 14 -25 6z"/>
<path d="M2139 428 c-12 -22 -11 -22 7 -8 10 8 20 15 22 16 2 1 -1 5 -7 8 -5
4 -15 -4 -22 -16z"/>
<path d="M1140 430 c0 -5 5 -10 11 -10 5 0 7 5 4 10 -3 6 -8 10 -11 10 -2 0
-4 -4 -4 -10z"/>
<path d="M1996 421 c-4 -5 1 -8 9 -7 21 3 31 16 12 16 -9 0 -18 -4 -21 -9z"/>
<path d="M1720 403 c0 -5 4 -14 9 -21 6 -10 10 -9 14 7 3 14 0 21 -9 21 -8 0
-14 -3 -14 -7z"/>
<path d="M2110 373 c-24 -20 -44 -27 -83 -29 -31 -1 -55 3 -59 9 -5 8 -8 7 -8
-3 0 -21 37 -44 43 -27 3 7 6 5 6 -5 1 -13 9 -16 35 -13 19 1 41 8 48 14 7 6
27 23 43 36 17 14 24 25 17 25 -7 0 -10 5 -7 10 11 17 -2 11 -35 -17z"/>
<path d="M2150 325 c-40 -37 -68 -55 -85 -55 -14 0 -37 -7 -51 -16 -24 -16
-94 -16 -164 1 -33 8 -65 12 -141 20 -35 4 -65 10 -67 15 -2 4 -12 5 -24 2
-15 -4 -19 -2 -13 7 6 10 3 11 -12 2 -11 -5 -24 -7 -29 -3 -5 5 -27 5 -49 2
l-40 -5 55 -7 c30 -4 131 -18 224 -32 204 -31 236 -32 304 -6 28 11 52 17 52
13 0 -12 52 42 66 70 8 15 21 27 29 27 8 0 15 5 15 10 0 17 -8 12 -70 -45z"/>
<path d="M1315 340 c3 -5 16 -10 28 -9 21 0 21 1 2 9 -28 12 -37 12 -30 0z"/>
<path d="M1230 319 c-22 -6 -20 -7 13 -8 38 -1 47 3 25 11 -7 3 -24 1 -38 -3z"/>
<path d="M1315 310 c-3 -5 1 -10 10 -10 9 0 13 5 10 10 -3 6 -8 10 -10 10 -2
0 -7 -4 -10 -10z"/>
<path d="M1358 303 c6 -2 18 -2 25 0 6 3 1 5 -13 5 -14 0 -19 -2 -12 -5z"/>
<path d="M1430 300 l-25 -8 27 -1 c15 -1 30 4 33 9 7 11 0 11 -35 0z"/>
</g>
</svg>
