<?xml version="1.0" standalone="no"?>
<!DOCTYPE svg PUBLIC "-//W3C//DTD SVG 20010904//EN"
 "http://www.w3.org/TR/2001/REC-SVG-20010904/DTD/svg10.dtd">
<svg version="1.0" xmlns="http://www.w3.org/2000/svg"
 width="200.000000pt" height="200.000000pt" viewBox="0 0 200.000000 200.000000"
 preserveAspectRatio="xMidYMid meet">
<metadata>
Created by potrace 1.10, written by Peter Selinger 2001-2011
</metadata>
<g transform="translate(0.000000,200.000000) scale(0.100000,-0.100000)"
fill="#000000" stroke="none">
<path d="M1074 1483 c4 -7 4 -13 -1 -13 -4 0 -9 -11 -9 -25 -1 -14 2 -25 7
-25 5 0 9 6 9 14 0 8 6 16 13 19 8 3 7 10 -7 23 -10 11 -16 13 -12 7z"/>
<path d="M1147 1463 c5 -12 3 -14 -7 -8 -8 5 -11 3 -8 -5 5 -17 54 -24 63 -10
3 5 3 15 -1 22 -5 8 -10 6 -15 -8 -7 -18 -8 -18 -15 4 -3 12 -10 22 -15 22 -5
0 -5 -7 -2 -17z"/>
<path d="M1240 1466 c0 -16 -44 -47 -70 -49 -11 -1 -22 -7 -24 -14 -3 -7 -12
-10 -21 -7 -11 4 -13 14 -8 32 6 24 5 25 -8 12 -8 -9 -19 -25 -26 -37 -11 -20
-10 -21 12 -17 13 2 26 0 29 -5 4 -5 -9 -9 -26 -8 -25 2 -33 6 -32 19 1 10 -2
16 -6 13 -4 -3 -13 2 -20 10 -8 10 -17 12 -24 6 -6 -5 -24 -8 -40 -7 -21 3
-30 -2 -38 -20 -12 -25 -31 -34 -22 -10 3 8 1 17 -5 21 -6 3 -11 -1 -11 -10 0
-9 -5 -13 -11 -10 -5 4 -18 0 -28 -9 -17 -15 -19 -15 -24 -1 -6 15 -27 21 -27
8 0 -5 7 -17 15 -27 12 -16 18 -17 27 -8 17 17 33 15 18 -3 -7 -8 -10 -22 -6
-30 3 -8 1 -15 -4 -15 -6 0 -10 -5 -10 -10 0 -6 -12 -22 -27 -35 -23 -21 -26
-26 -13 -34 8 -6 19 -6 25 -2 5 5 22 11 38 15 15 3 27 11 27 17 0 8 -5 7 -15
-1 -10 -8 -15 -9 -15 -2 0 6 9 16 20 22 11 6 17 16 14 25 -7 16 11 21 21 5 8
-13 -22 -80 -37 -81 -7 -1 -20 -2 -28 -3 -8 0 -13 -8 -11 -16 7 -28 6 -35 -4
-40 -5 -3 -11 5 -13 18 -4 24 -22 31 -22 9 0 -8 -9 -22 -20 -32 -11 -10 -20
-13 -20 -7 0 6 4 12 9 14 5 2 12 15 16 29 5 20 2 28 -12 33 -22 9 -60 -31 -44
-47 14 -14 34 2 21 18 -8 9 -6 14 5 19 23 8 19 -27 -6 -50 -20 -18 -21 -18
-35 0 -7 10 -11 23 -7 28 3 6 -4 5 -14 -1 -15 -7 -19 -17 -16 -36 3 -15 1 -25
-6 -25 -6 0 -11 7 -11 15 0 8 -4 15 -10 15 -15 0 -12 -30 3 -32 6 0 17 -2 22
-3 6 -2 14 -3 19 -4 5 0 1 -11 -10 -23 -17 -19 -17 -21 -1 -15 22 8 22 -2 0
-19 -23 -17 -37 -18 -27 -2 5 7 9 21 9 30 2 16 -2 19 -21 17 -3 0 -12 8 -20
18 -12 16 -13 16 -14 1 0 -9 9 -19 20 -23 15 -5 17 -11 11 -28 -13 -36 -4 -47
29 -34 36 14 43 7 31 -26 -7 -17 -7 -28 -1 -32 6 -4 10 -16 10 -28 -1 -20 -2
-19 -16 7 -9 15 -14 37 -11 47 6 21 -3 25 -20 8 -8 -8 -15 -4 -26 12 -9 12
-14 26 -11 30 2 4 0 10 -5 13 -5 3 -11 -3 -14 -14 -3 -11 0 -20 6 -20 6 0 -3
-13 -21 -30 -36 -32 -46 -37 -40 -18 5 13 -21 48 -34 48 -5 0 -8 -7 -8 -15 0
-8 5 -15 11 -15 6 0 9 -6 6 -14 -4 -9 3 -16 16 -20 35 -9 47 -7 47 9 0 8 7 15
15 15 8 0 15 5 15 10 0 6 5 10 10 10 17 0 11 -18 -9 -25 -26 -8 -24 -58 2 -51
14 3 16 0 12 -15 -7 -21 5 -25 23 -7 7 7 12 8 12 2 0 -6 -3 -14 -7 -18 -5 -4
-8 -18 -8 -31 -1 -20 2 -22 26 -13 21 7 29 19 38 54 6 24 16 44 21 44 7 0 7
-6 0 -19 -14 -28 -12 -36 5 -21 8 7 15 23 15 36 0 12 4 25 9 28 4 3 7 16 6 30
-2 13 6 34 16 45 10 11 19 25 19 31 0 5 5 10 11 10 5 0 7 -5 3 -11 -3 -6 -1
-15 6 -19 16 -10 2 -33 -16 -26 -8 3 -15 0 -16 -7 -4 -34 -3 -43 7 -50 6 -5 3
-7 -7 -3 -18 5 -21 -1 -20 -39 0 -11 -5 -23 -12 -27 -8 -6 -7 -11 4 -18 10 -6
11 -13 5 -17 -6 -5 -18 -20 -27 -34 -12 -20 -14 -29 -5 -38 7 -7 8 -11 0 -11
-6 0 -16 7 -23 15 -10 12 -9 16 4 21 9 3 13 11 9 17 -3 5 2 16 12 23 10 8 16
17 12 20 -10 10 -38 -16 -49 -45 -6 -18 -11 -22 -17 -13 -4 7 -15 10 -24 6
-12 -4 -20 3 -30 28 -15 35 -47 69 -47 49 0 -21 4 -26 19 -23 13 3 13 1 2 -12
-9 -10 -9 -16 -3 -16 6 0 9 -7 6 -15 -4 -10 0 -15 11 -15 11 0 15 -5 11 -15
-3 -9 3 -19 17 -26 31 -17 44 -32 39 -47 -5 -17 -29 -15 -36 4 -3 8 -11 12
-17 8 -9 -5 -8 -10 3 -18 8 -6 17 -17 19 -24 3 -10 11 -8 28 7 28 25 35 26 28
6 -4 -8 -2 -17 4 -21 17 -10 20 1 10 29 -8 19 -6 28 5 38 8 6 18 9 21 5 4 -4
2 -10 -4 -14 -15 -10 -5 -54 11 -46 6 3 1 -3 -11 -14 -19 -17 -20 -21 -7 -26
8 -3 17 1 20 9 4 8 10 15 15 15 6 0 5 -8 -1 -19 -14 -27 -13 -34 5 -27 8 3 21
-2 30 -10 16 -16 60 -10 50 7 -9 14 5 11 21 -5 18 -18 19 -32 1 -17 -17 14
-27 4 -27 -26 0 -28 -10 -29 -43 -3 -22 18 -26 18 -31 3 -9 -23 0 -28 55 -28
42 0 48 -2 43 -17 -6 -19 4 -23 21 -10 14 10 19 102 6 102 -6 0 -11 8 -11 17
0 14 3 13 21 -5 15 -17 19 -30 14 -52 -8 -36 -5 -46 12 -42 7 2 13 -2 13 -8 0
-5 -9 -10 -20 -10 -11 0 -23 -6 -26 -14 -3 -8 -14 -14 -24 -13 -10 1 -17 4
-14 8 2 4 -2 12 -10 18 -11 9 -15 7 -19 -8 -3 -15 2 -21 22 -27 14 -4 33 -6
40 -5 13 2 13 0 2 -13 -11 -13 -11 -17 2 -22 27 -10 52 0 55 24 2 12 8 22 13
22 5 0 9 7 9 15 0 8 5 15 10 15 14 0 12 -22 -5 -44 -8 -11 -15 -26 -15 -33 0
-20 20 -16 20 5 0 9 7 25 14 35 8 10 12 27 9 37 -3 12 0 20 7 20 7 0 10 -7 7
-15 -10 -26 11 -26 36 -1 14 14 20 27 14 29 -11 3 -1 27 12 27 21 0 0 -45 -34
-76 -26 -23 -33 -34 -22 -34 9 0 21 9 27 20 6 12 21 20 36 20 21 0 24 4 22 26
-2 16 3 29 11 32 9 3 11 -1 7 -16 -14 -43 47 -35 78 10 10 14 16 17 16 8 0
-11 3 -11 12 -2 16 16 3 26 -19 17 -10 -5 -22 -7 -26 -6 -5 1 -6 -3 -3 -8 4
-5 2 -12 -3 -15 -14 -9 -21 20 -8 33 8 8 8 11 -2 11 -7 0 -3 9 10 19 23 19 23
21 7 37 -10 10 -21 14 -25 10 -5 -5 -2 -11 5 -13 14 -5 17 -23 3 -23 -15 0
-22 32 -10 46 13 16 29 18 29 4 0 -17 56 -70 74 -70 9 0 16 -5 16 -11 0 -6 -7
-9 -15 -5 -8 3 -15 1 -15 -3 0 -5 6 -11 14 -14 16 -6 36 11 36 30 0 7 9 13 19
13 26 0 34 15 16 30 -7 6 -11 19 -8 28 4 13 2 12 -10 -3 -25 -31 -21 2 4 37
18 24 27 29 50 24 35 -7 62 19 30 29 -12 3 -21 10 -21 15 0 14 31 28 50 23 20
-5 36 12 20 22 -5 3 -10 2 -10 -2 0 -5 -9 -9 -20 -9 -13 0 -19 5 -15 14 3 10
0 12 -10 8 -8 -3 -15 -1 -15 4 0 14 24 12 38 -2 9 -9 16 -7 33 8 12 10 23 18
26 16 2 -2 13 8 24 22 12 15 15 27 9 31 -5 3 -10 -1 -10 -10 0 -9 -5 -13 -10
-10 -6 4 -8 11 -5 16 4 5 2 9 -4 9 -15 0 -23 -18 -11 -25 5 -3 10 -11 10 -18
0 -8 -3 -8 -12 1 -13 13 -29 16 -27 5 3 -20 -2 -33 -12 -33 -8 0 -8 4 0 14 9
10 8 15 -4 20 -9 3 -15 0 -15 -9 0 -8 -4 -15 -8 -15 -4 0 -8 16 -8 35 0 20 5
35 12 35 6 0 11 -7 10 -16 0 -9 5 -19 13 -22 10 -3 12 0 8 11 -4 11 -2 14 9
10 7 -3 14 0 14 5 0 6 9 14 20 17 11 3 20 11 20 17 0 6 -6 6 -15 -2 -8 -7 -15
-8 -15 -2 0 5 9 16 21 24 l21 13 -22 38 c-12 21 -25 36 -28 33 -2 -3 3 -17 12
-30 18 -28 21 -51 7 -41 -6 3 -14 -2 -19 -11 -7 -12 -11 -13 -16 -5 -4 7 -2
18 4 26 15 18 -1 20 -18 3 -6 -6 -22 -13 -34 -15 -12 -2 -25 -8 -29 -14 -4 -7
-9 -4 -13 7 -8 21 -6 23 30 27 38 4 76 25 69 38 -4 5 -13 2 -22 -6 -9 -9 -22
-14 -29 -11 -8 3 -14 1 -14 -4 0 -6 -5 -10 -12 -10 -16 0 2 18 33 34 25 12 33
52 12 60 -7 3 -13 14 -13 25 0 14 -6 19 -20 18 -11 -1 -20 -5 -20 -9 0 -4 -5
-8 -11 -8 -6 0 -8 9 -4 20 4 13 2 20 -7 21 -7 0 -3 4 10 10 13 5 20 14 16 20
-5 8 -9 8 -14 -1 -5 -8 -10 -9 -14 -2 -3 6 0 13 6 15 10 4 9 8 -2 17 -12 8 -9
9 11 4 27 -6 48 9 29 21 -5 3 -10 1 -10 -6 0 -8 -4 -9 -13 0 -15 12 -37 -3
-37 -26 0 -7 -5 -13 -11 -13 -6 0 -8 7 -5 16 3 9 0 24 -7 34 -10 14 -14 15
-24 5 -9 -10 -9 -17 2 -31 14 -19 21 -43 8 -31 -3 4 -12 2 -19 -4 -15 -12 -37
-3 -29 12 4 5 1 9 -6 9 -7 0 -9 3 -6 7 4 3 2 12 -4 20 -15 17 -35 18 -22 1 5
-7 9 -22 8 -33 0 -11 3 -27 7 -36 6 -13 1 -16 -22 -17 -17 0 -30 4 -30 9 0 6
-8 8 -19 4 -13 -4 -20 0 -24 14 -6 25 3 35 17 17 13 -17 62 -33 52 -18 -3 6
-2 13 3 16 11 7 2 46 -11 46 -5 0 -8 -8 -6 -18 3 -18 -1 -22 -22 -22 -15 0 -7
23 13 38 9 7 17 18 17 25 0 8 -3 8 -11 0 -9 -9 -17 -6 -33 8 -17 17 -18 21 -6
29 8 5 18 6 22 4 5 -3 17 -2 29 1 19 7 20 7 2 21 -16 12 -16 13 -1 14 9 0 18
-6 21 -12 3 -10 7 -10 20 1 9 7 14 18 10 24 -4 7 0 8 12 3 15 -5 16 -4 5 9
-13 16 -31 20 -29 8 3 -17 -1 -33 -9 -33 -4 0 -8 14 -7 30 0 17 3 30 7 30 5 0
8 7 8 15 0 8 -4 15 -10 15 -5 0 -10 -6 -10 -14z m-10 -50 c0 -8 -9 -18 -21
-21 -17 -6 -18 -9 -8 -23 10 -13 9 -13 -7 1 -19 18 -19 18 6 37 30 24 30 24
30 6z m-174 -53 c-4 -4 -14 1 -22 11 -7 11 -17 16 -21 12 -5 -4 0 -13 9 -20
16 -12 16 -14 -3 -30 -12 -10 -24 -15 -27 -11 -4 3 0 10 8 15 12 8 13 13 3 30
-15 23 -17 33 -4 25 5 -3 13 0 17 6 4 7 13 4 27 -10 12 -11 17 -24 13 -28z
m-82 26 c-3 -6 -1 -14 5 -18 13 -8 4 -41 -11 -41 -5 0 -6 10 -2 22 6 20 5 21
-9 9 -9 -7 -15 -17 -12 -21 3 -4 -1 -10 -8 -13 -7 -3 -13 3 -14 14 -1 10 7 21
17 24 11 3 19 9 19 13 -2 15 1 22 12 22 5 0 7 -5 3 -11z m196 -14 c0 -8 -4
-15 -9 -15 -13 0 -22 16 -14 24 11 11 23 6 23 -9z m-264 -30 c0 -14 -6 -27
-12 -29 -10 -4 -11 11 -5 47 3 19 19 4 17 -18z m175 -42 c-14 -12 -30 -22 -34
-23 -5 0 -5 -4 -2 -10 3 -5 0 -7 -9 -4 -10 4 -17 -2 -22 -20 -8 -32 -23 -35
-17 -3 3 12 24 35 49 52 24 17 42 35 40 42 -3 6 -2 14 2 18 3 3 9 -2 13 -12 5
-12 -1 -25 -20 -40z m-11 41 c0 -3 -7 -12 -15 -20 -8 -9 -15 -12 -15 -8 0 4
-13 -8 -29 -27 -17 -18 -33 -30 -37 -26 -4 4 8 21 27 37 19 17 39 35 44 40 11
10 25 13 25 4z m79 -1 c-3 -21 2 -33 16 -33 24 0 17 -16 -22 -51 -21 -18 -37
-37 -35 -41 1 -4 -3 -8 -9 -8 -6 0 -9 7 -5 15 3 9 0 15 -8 15 -16 0 -14 -33 3
-54 11 -13 11 -16 0 -16 -9 -1 -5 -8 10 -20 25 -22 21 -34 -24 -72 -11 -10
-15 -18 -7 -18 17 0 15 -20 -3 -20 -8 0 -14 -5 -12 -11 1 -6 -4 -14 -10 -16
-7 -3 -13 2 -13 10 0 8 7 17 15 21 8 3 14 9 13 13 -2 13 20 60 32 68 12 7 4
25 -12 25 -5 0 -8 -7 -4 -15 3 -8 1 -15 -4 -15 -6 0 -10 7 -10 15 0 18 -5 18
-31 5 -10 -6 -19 -17 -19 -25 0 -8 -5 -15 -11 -15 -5 0 -7 -5 -4 -10 10 -16
35 8 28 26 -3 8 1 14 9 14 24 0 15 -52 -11 -62 -30 -11 -58 14 -36 32 7 6 11
18 8 26 -4 10 2 17 15 21 12 3 18 11 16 18 -6 15 -44 27 -44 14 0 -5 -5 -9
-11 -9 -6 0 -9 7 -6 15 4 8 2 17 -3 20 -5 3 -7 12 -3 20 3 8 0 15 -5 15 -6 0
-12 -8 -14 -17 -3 -17 -4 -17 -10 -1 -10 23 30 47 43 27 5 -8 6 -21 3 -30 -7
-25 24 -32 38 -9 15 24 28 26 28 5 0 -8 -4 -15 -10 -15 -5 0 -10 -5 -10 -10 0
-7 7 -7 20 0 11 6 20 16 19 23 -5 38 1 47 26 41 28 -7 65 18 65 43 0 16 -17
17 -23 1 -2 -7 -8 -10 -12 -5 -5 4 0 14 11 22 17 13 17 14 2 15 -25 0 -23 20
2 20 11 0 19 -3 19 -7z m-159 -27 c0 -3 -4 -8 -10 -11 -5 -3 -10 -1 -10 4 0 6
5 11 10 11 6 0 10 -2 10 -4z m-100 -26 c0 -6 -7 -13 -15 -16 -8 -4 -15 -12
-15 -20 0 -8 -4 -14 -10 -14 -14 0 -13 7 6 35 17 26 34 33 34 15z m70 -9 c0
-6 -4 -13 -10 -16 -5 -3 -10 1 -10 9 0 9 5 16 10 16 6 0 10 -4 10 -9z m130 -1
c0 -5 -5 -10 -11 -10 -5 0 -7 5 -4 10 3 6 8 10 11 10 2 0 4 -4 4 -10z m30 -4
c0 -3 -4 -8 -10 -11 -5 -3 -10 -1 -10 4 0 6 5 11 10 11 6 0 10 -2 10 -4z m30
-46 c0 -5 -7 -10 -16 -10 -8 0 -12 5 -9 10 3 6 10 10 16 10 5 0 9 -4 9 -10z
m212 -12 c0 -13 1 -30 2 -38 1 -19 33 -25 51 -10 10 8 15 9 15 2 0 -6 -9 -14
-20 -17 -13 -4 -20 -15 -20 -30 0 -24 -16 -42 -28 -30 -3 3 0 11 8 16 11 8 12
12 3 15 -7 3 -10 11 -7 19 3 7 1 16 -5 20 -6 3 -11 -1 -11 -10 0 -11 -7 -15
-25 -12 -38 5 -38 12 0 26 32 11 48 31 26 31 -6 0 -9 9 -8 20 2 27 17 25 19
-2z m-32 3 c0 -12 -20 -25 -27 -18 -7 7 6 27 18 27 5 0 9 -4 9 -9z m-420 -21
c0 -5 -4 -10 -9 -10 -5 0 -7 -8 -4 -19 3 -12 -2 -20 -16 -24 -18 -4 -20 -2
-14 21 8 34 43 60 43 32z m242 -15 c-4 -25 -13 -31 -25 -19 -8 8 10 44 22 44
5 0 6 -11 3 -25z m-212 -5 c-19 -12 -30 -12 -30 -1 0 10 31 20 40 14 2 -2 -2
-8 -10 -13z m180 10 c0 -5 -4 -10 -10 -10 -5 0 -10 5 -10 10 0 6 5 10 10 10 6
0 10 -4 10 -10z m75 1 c7 -12 -12 -24 -25 -16 -11 7 -4 25 10 25 5 0 11 -4 15
-9z m95 -1 c0 -5 -7 -10 -16 -10 -8 0 -12 5 -9 10 3 6 10 10 16 10 5 0 9 -4 9
-10z m-66 -15 c-4 -8 -1 -15 5 -15 6 0 12 8 12 18 1 15 2 16 6 0 2 -10 10 -15
19 -11 8 3 14 1 14 -5 0 -14 -54 -22 -61 -10 -4 6 -12 1 -19 -12 -10 -19 -9
-25 5 -39 16 -15 17 -14 10 8 -6 19 -4 23 8 18 8 -3 18 -2 23 3 5 5 14 -2 21
-16 6 -13 7 -24 3 -24 -5 0 -10 6 -12 12 -3 9 -9 8 -22 -5 -10 -9 -23 -17 -29
-17 -7 0 -4 -7 6 -14 24 -18 29 -76 10 -98 -18 -20 -33 -23 -33 -8 0 6 7 10
16 10 13 0 14 3 5 14 -8 9 -8 21 -2 39 7 17 7 28 1 32 -6 4 -10 -1 -10 -9 0
-9 -5 -16 -11 -16 -9 0 -7 16 8 56 2 6 -4 14 -13 18 -22 8 -31 -1 -16 -16 17
-17 15 -28 -4 -28 -10 0 -14 6 -10 15 3 8 1 15 -4 15 -18 0 -10 22 10 27 16 4
18 9 10 24 -9 15 -7 17 5 12 10 -3 22 3 31 16 18 24 26 27 18 6z m101 5 c-3
-5 -10 -10 -16 -10 -5 0 -9 5 -9 10 0 6 7 10 16 10 8 0 12 -4 9 -10z m-355
-20 c12 -7 12 -12 2 -22 -9 -9 -12 -8 -12 8 -1 21 -3 19 -45 -40 -12 -17 -15
-17 -29 -3 -18 18 -21 37 -6 37 6 0 10 -4 10 -8 0 -5 7 -9 15 -9 8 0 15 4 15
9 0 10 22 37 30 37 3 1 12 -4 20 -9z m150 0 c0 -5 -2 -10 -4 -10 -3 0 -8 5
-11 10 -3 6 -1 10 4 10 6 0 11 -4 11 -10z m-400 -16 c0 -11 6 -13 19 -9 19 6
19 5 5 -24 -15 -31 -31 -43 -21 -17 3 8 -1 22 -8 33 -17 22 -19 33 -5 33 6 0
10 -7 10 -16z m129 -3 c7 -5 10 -14 7 -20 -4 -6 -3 -11 2 -11 9 0 32 -43 32
-60 0 -24 -18 -6 -33 31 -11 27 -20 38 -28 33 -7 -4 -9 -3 -5 4 3 6 -2 15 -11
21 -17 10 -17 10 2 11 11 0 26 -4 34 -9z m306 -1 c3 -5 -1 -10 -9 -10 -9 0
-16 5 -16 10 0 6 4 10 9 10 6 0 13 -4 16 -10z m275 -10 c-24 -15 -37 -11 -16
5 11 8 22 12 25 9 3 -3 -1 -9 -9 -14z m-130 -5 c0 -8 -4 -15 -9 -15 -13 0 -22
16 -14 24 11 11 23 6 23 -9z m-505 -5 c-3 -5 -2 -10 4 -10 7 0 6 -10 0 -30 -6
-16 -16 -30 -21 -30 -6 0 -5 6 2 15 10 12 10 15 -4 15 -8 0 -18 -11 -22 -25
-7 -29 -20 -33 -26 -7 -3 12 2 24 14 31 10 6 16 16 13 21 -3 5 3 13 12 19 23
13 36 14 28 1z m535 0 c0 -5 -2 -10 -4 -10 -3 0 -8 5 -11 10 -3 6 -1 10 4 10
6 0 11 -4 11 -10z m30 0 c0 -5 -4 -10 -10 -10 -5 0 -10 5 -10 10 0 6 5 10 10
10 6 0 10 -4 10 -10z m90 -17 c0 -9 -3 -13 -7 -10 -3 4 -17 0 -31 -9 -13 -8
-26 -13 -30 -10 -7 8 30 36 40 30 5 -3 8 0 8 5 0 6 5 11 10 11 6 0 10 -7 10
-17z m-486 -15 c-1 -13 -3 -31 -3 -40 -2 -36 -17 -17 -17 22 0 24 4 40 11 40
6 0 11 -10 9 -22z m346 4 c0 -4 -5 -13 -11 -19 -8 -8 -3 -15 19 -27 29 -15 31
-15 37 5 10 29 25 10 18 -23 -3 -15 -14 -30 -24 -33 -10 -4 -26 -13 -34 -22
-19 -19 -33 -9 -16 11 8 10 9 16 1 21 -5 3 -10 -1 -10 -9 0 -20 -9 -20 -35 0
-20 16 -20 16 2 9 18 -5 22 -3 17 9 -3 9 -13 16 -21 16 -8 0 -11 5 -8 10 4 6
1 17 -5 25 -7 8 -10 15 -6 15 10 0 46 -34 46 -44 0 -13 32 -35 52 -36 11 0 15
5 12 15 -4 8 -14 15 -24 15 -25 0 -52 44 -37 59 13 13 27 15 27 3z m36 -8 c-3
-9 -6 -21 -6 -27 0 -8 -3 -8 -10 -1 -12 12 -3 44 12 44 6 0 7 -7 4 -16z m-234
-14 c-10 -12 -18 -16 -21 -9 -2 6 3 15 10 20 24 15 29 10 11 -11z m-184 -7 c1
-35 -19 -60 -48 -60 -20 0 -27 4 -23 14 4 10 14 12 30 8 21 -5 24 -2 23 17 -3
31 -1 38 8 38 5 0 9 -8 10 -17z m212 -6 c0 -7 -9 -18 -20 -25 -12 -7 -20 -8
-20 -2 0 5 5 10 10 10 6 0 10 7 10 15 0 8 5 15 10 15 6 0 10 -6 10 -13z m-128
-36 c3 -23 -1 -32 -19 -42 -13 -7 -35 -32 -48 -56 -14 -24 -30 -43 -36 -43 -6
0 -7 -4 -4 -10 3 -5 1 -10 -5 -10 -6 0 -10 -6 -9 -12 1 -7 1 -20 0 -28 -1 -12
-4 -11 -12 3 -8 14 -8 22 0 30 7 7 7 14 0 24 -9 10 -7 13 6 13 19 0 55 36 55
54 0 5 12 20 26 31 17 13 27 31 27 48 0 36 14 34 19 -2z m133 -6 c-11 -8 -25
-19 -32 -25 -15 -12 -23 -13 -23 -1 0 12 63 52 70 45 3 -3 -4 -12 -15 -19z
m-372 3 c-4 -7 -8 -17 -8 -23 0 -9 -8 -11 -35 -6 -5 0 -10 5 -10 11 0 5 7 7
15 4 8 -4 17 1 21 10 3 9 10 16 16 16 5 0 6 -6 1 -12z m72 -11 c0 -29 -34 -81
-34 -54 -1 9 4 17 10 17 6 0 10 10 9 23 -3 30 -1 37 8 37 4 0 8 -10 7 -23z
m139 8 c-3 -8 -14 -17 -25 -20 -10 -4 -19 -13 -19 -21 0 -8 -4 -14 -9 -14 -4
0 -8 10 -7 23 1 12 7 22 16 22 8 0 19 6 23 13 11 17 28 15 21 -3z m206 -21 c0
-8 -7 -14 -15 -14 -15 0 -21 21 -9 33 10 9 24 -2 24 -19z m254 0 c4 -10 1 -14
-6 -12 -15 5 -23 28 -10 28 5 0 13 -7 16 -16z m46 -16 c0 -5 -7 -8 -15 -8 -8
0 -15 2 -15 4 0 2 -3 12 -6 21 -6 15 -4 15 15 4 11 -8 21 -17 21 -21z m-820
14 c0 -10 -22 -32 -32 -32 -5 0 -3 9 4 20 13 20 28 27 28 12z m225 -2 c3 -5 2
-10 -3 -10 -6 0 -8 -9 -5 -20 7 -26 -3 -26 -17 0 -16 29 8 58 25 30z m179 -5
c-4 -8 -10 -15 -15 -15 -5 0 -9 7 -9 15 0 8 7 15 15 15 9 0 12 -6 9 -15z m76
5 c0 -6 -9 -20 -20 -32 -21 -22 -19 -41 2 -20 14 14 28 16 28 3 0 -5 -9 -13
-20 -16 -11 -4 -17 -11 -14 -17 4 -6 10 -6 16 0 11 11 48 4 48 -10 0 -5 -12
-7 -27 -6 -26 3 -28 0 -25 -27 4 -40 -17 -21 -23 21 -2 16 -7 39 -11 51 -4 16
-1 25 10 29 9 3 16 12 16 20 0 8 5 14 10 14 6 0 10 -5 10 -10z m229 -17 c-8
-10 -18 -21 -23 -24 -4 -4 -3 -16 4 -29 6 -12 9 -24 6 -28 -3 -3 -6 0 -6 8 0
10 -3 10 -15 0 -13 -11 -15 -7 -13 28 1 30 7 43 22 51 32 15 40 13 25 -6z m35
-20 c-1 -15 -5 -37 -8 -48 -2 -11 -5 -23 -5 -27 -1 -5 -8 -8 -17 -8 -13 0 -14
3 -5 14 10 11 10 20 1 36 -14 26 -6 37 15 20 9 -8 15 -8 15 -2 0 6 -4 13 -10
17 -5 3 -7 12 -4 20 9 23 21 9 18 -22z m-376 7 c3 -7 0 -10 -7 -6 -6 4 -11 2
-11 -4 0 -7 -6 -10 -14 -7 -7 3 -19 0 -25 -6 -8 -8 -11 -8 -11 0 0 13 41 43
54 39 6 -1 12 -8 14 -16z m214 -2 c-7 -7 -12 -8 -12 -2 0 14 12 26 19 19 2 -3
-1 -11 -7 -17z m-401 -21 c-8 -8 -11 -7 -11 4 0 20 13 34 18 19 3 -7 -1 -17
-7 -23z m229 7 c-12 -13 -11 -17 0 -24 8 -5 11 -12 7 -16 -4 -4 -14 1 -22 12
-19 25 -19 34 0 34 8 0 15 5 15 12 0 6 3 8 6 5 4 -4 1 -14 -6 -23z m100 11 c0
-8 5 -15 10 -15 6 0 10 -6 10 -14 0 -8 5 -16 12 -18 6 -2 9 -10 7 -17 -3 -8
-16 3 -32 28 -30 45 -32 51 -17 51 6 0 10 -7 10 -15z m-490 -5 c8 -5 11 -13 6
-17 -5 -4 -11 -2 -13 5 -3 6 -9 10 -14 6 -5 -3 -9 0 -9 5 0 13 10 14 30 1z
m588 -3 c-2 -6 7 -22 20 -35 23 -23 29 -42 12 -42 -5 0 -10 9 -10 20 0 11 -6
20 -14 20 -7 0 -19 7 -27 16 -10 13 -10 17 2 25 19 12 20 11 17 -4z m-363 -17
c-10 -11 -23 -20 -28 -20 -6 0 -2 9 8 20 10 11 23 20 28 20 6 0 2 -9 -8 -20z
m328 5 c8 -18 -11 -31 -25 -17 -11 11 -3 32 12 32 4 0 10 -7 13 -15z m72 5 c3
-5 1 -10 -4 -10 -6 0 -11 5 -11 10 0 6 2 10 4 10 3 0 8 -4 11 -10z m-275 -10
c0 -5 -5 -10 -11 -10 -5 0 -7 5 -4 10 3 6 8 10 11 10 2 0 4 -4 4 -10z m-210
-15 c0 -8 -4 -15 -9 -15 -13 0 -22 16 -14 24 11 11 23 6 23 -9z m32 -20 c-4
-34 -15 -45 -27 -26 -3 5 -1 12 5 16 6 4 7 11 4 17 -5 8 7 23 21 28 1 0 -1
-16 -3 -35z m138 20 c0 -9 -6 -12 -15 -9 -9 4 -15 0 -15 -9 0 -8 5 -17 12 -19
9 -3 9 -6 1 -11 -7 -5 -17 2 -24 14 -10 19 -9 25 7 36 23 17 34 17 34 -2z
m-290 -2 c-1 -18 -18 -35 -24 -24 -4 6 -4 16 -1 21 7 12 25 13 25 3z m545 -33
c-5 -8 -11 -8 -17 -2 -6 6 -7 16 -3 22 5 8 11 8 17 2 6 -6 7 -16 3 -22z m-225
12 c0 -4 -6 -14 -12 -21 -10 -11 -10 -14 0 -18 19 -7 14 -20 -9 -26 -12 -3
-18 -10 -14 -16 3 -6 0 -9 -8 -5 -8 3 -18 1 -22 -5 -8 -14 -25 -14 -25 0 0 5
15 16 33 24 26 11 33 19 32 37 -1 13 0 26 2 31 6 9 23 9 23 -1z m257 -6 c-3
-7 0 -19 6 -25 8 -8 8 -11 0 -11 -13 0 -25 28 -17 41 8 14 17 11 11 -5z m-481
-38 c-9 -5 -16 -16 -16 -23 0 -8 -4 -15 -10 -15 -15 0 -12 11 12 50 18 29 23
32 26 16 2 -11 -3 -23 -12 -28z m296 28 c8 -12 1 -26 -13 -26 -6 0 -7 5 -4 10
3 6 -1 10 -9 10 -9 0 -16 4 -16 8 0 12 34 11 42 -2z m-172 -44 c-11 -22 -24
-44 -30 -47 -15 -9 -12 8 6 33 8 12 12 22 8 22 -4 0 1 9 11 20 26 29 28 20 5
-28z m280 13 c0 -5 -4 -4 -9 4 -5 7 -14 10 -20 7 -6 -4 -9 -12 -6 -17 4 -5 0
-12 -9 -15 -8 -3 -13 -14 -11 -25 3 -16 0 -19 -15 -14 -12 4 -20 2 -20 -4 0
-6 7 -11 16 -11 9 0 14 -5 12 -12 -6 -17 -28 -22 -28 -6 0 7 -11 25 -25 40
-25 28 -32 48 -16 48 5 0 12 -11 15 -25 4 -14 11 -25 16 -25 14 0 12 24 -2 38
-7 7 -8 12 -2 12 6 0 15 -5 20 -10 6 -6 18 -8 28 -4 13 5 14 9 5 20 -9 11 -6
16 12 23 24 8 39 -1 39 -24z m150 25 c0 -5 -4 -10 -10 -10 -5 0 -10 5 -10 10
0 6 5 10 10 10 6 0 10 -4 10 -10z m-310 -10 c0 -5 -4 -10 -10 -10 -5 0 -10 5
-10 10 0 6 5 10 10 10 6 0 10 -4 10 -10z m190 -10 c0 -5 -4 -10 -10 -10 -5 0
-10 5 -10 10 0 6 5 10 10 10 6 0 10 -4 10 -10z m103 3 c4 -3 -1 -15 -10 -26
-17 -19 -17 -20 0 -14 16 6 23 -3 11 -16 -12 -12 -34 6 -34 27 0 31 17 46 33
29z m37 -3 c0 -5 -4 -10 -10 -10 -5 0 -10 5 -10 10 0 6 5 10 10 10 6 0 10 -4
10 -10z m28 -4 c-11 -8 -15 -20 -11 -34 3 -14 1 -22 -7 -22 -7 0 -10 7 -6 16
5 14 4 15 -9 4 -20 -17 -19 -4 3 25 9 14 24 24 32 24 12 0 12 -2 -2 -13z
m-575 -21 c-17 -23 -33 -32 -33 -18 0 10 32 43 42 43 5 0 1 -11 -9 -25z m147
15 c-20 -13 -33 -13 -25 0 3 6 14 10 23 10 15 0 15 -2 2 -10z m290 0 c0 -9
-31 -30 -44 -30 -3 0 2 9 11 20 19 21 33 26 33 10z m-210 -9 c0 -6 -4 -13 -10
-16 -5 -3 -10 1 -10 9 0 9 5 16 10 16 6 0 10 -4 10 -9z m234 -18 c-3 -12 -12
-19 -19 -17 -22 9 -25 -36 -4 -57 17 -17 18 -21 5 -34 -19 -20 -32 -19 -16 0
7 9 10 19 6 22 -4 4 -10 2 -15 -5 -5 -8 -12 -6 -24 8 -18 21 -9 28 11 8 9 -9
10 -3 7 24 -4 29 -1 37 20 48 14 7 25 18 25 23 0 6 2 8 5 6 2 -3 2 -14 -1 -26z
m-604 7 c0 -5 -4 -10 -10 -10 -5 0 -10 5 -10 10 0 6 5 10 10 10 6 0 10 -4 10
-10z m515 1 c3 -6 -4 -15 -15 -21 -20 -11 -21 -10 -10 9 12 23 16 25 25 12z
m-485 -10 c0 -12 -20 -25 -27 -18 -7 7 6 27 18 27 5 0 9 -4 9 -9z m137 -6 c0
-8 -6 -15 -14 -15 -7 0 -13 -5 -13 -11 0 -6 9 -8 23 -3 22 7 22 7 2 -15 l-19
-22 -8 21 c-8 21 5 60 21 60 4 0 8 -7 8 -15z m185 -4 c25 14 39 1 14 -13 -19
-11 -19 -11 -1 -24 12 -9 14 -14 6 -14 -16 0 -51 38 -50 54 0 6 3 6 6 -1 3
-10 10 -10 25 -2z m-238 -33 c-4 -12 -1 -24 7 -29 7 -4 10 -11 5 -16 -10 -10
-30 25 -31 53 -1 14 4 20 12 17 9 -3 11 -13 7 -25z m416 17 c0 -8 -4 -15 -10
-15 -5 0 -10 7 -10 15 0 8 5 15 10 15 6 0 10 -7 10 -15z m-230 -5 c0 -5 -4
-10 -10 -10 -5 0 -10 5 -10 10 0 6 5 10 10 10 6 0 10 -4 10 -10z m370 4 c0 -3
-7 -12 -15 -20 -8 -9 -15 -11 -15 -5 0 6 -12 8 -30 5 -19 -4 -30 -2 -30 4 0 7
15 10 35 8 19 -1 35 1 35 6 0 4 5 8 10 8 6 0 10 -3 10 -6z m-435 -14 c3 -5 1
-10 -4 -10 -6 0 -11 5 -11 10 0 6 2 10 4 10 3 0 8 -4 11 -10z m17 -35 c-18
-36 -32 -45 -32 -20 0 8 4 15 10 15 5 0 12 11 16 25 3 14 10 22 15 20 4 -3 1
-21 -9 -40z m65 7 c-14 -17 -22 0 -12 26 5 14 7 14 15 2 5 -9 4 -20 -3 -28z
m186 25 c3 -8 2 -19 -3 -26 -5 -10 -9 -8 -14 4 -3 9 -6 21 -6 26 0 14 17 11
23 -4z m-298 -17 c4 -6 12 -8 18 -4 7 3 5 0 -4 -8 -9 -7 -14 -19 -11 -27 3 -9
0 -11 -8 -6 -6 4 -10 16 -7 26 7 25 -5 24 -22 -2 -10 -18 -10 -23 0 -30 10 -6
10 -10 0 -23 -8 -9 -18 -16 -23 -16 -6 0 -5 7 2 15 7 9 10 19 6 23 -4 4 -13
-1 -20 -10 -7 -10 -16 -15 -19 -12 -7 7 62 84 74 84 5 0 11 -5 14 -10z m81
-25 c0 -14 -4 -25 -8 -25 -5 0 -8 -7 -8 -16 0 -8 -5 -12 -10 -9 -9 5 -5 47 7
68 9 16 21 6 19 -18z m134 16 c0 -5 7 -17 16 -26 9 -9 14 -19 10 -22 -6 -7
-46 35 -46 49 0 4 5 8 10 8 6 0 10 -4 10 -9z m210 -1 c0 -5 -7 -10 -15 -10 -8
0 -15 5 -15 10 0 6 7 10 15 10 8 0 15 -4 15 -10z m-290 -15 c0 -8 -4 -15 -10
-15 -5 0 -10 -8 -10 -17 0 -14 -2 -15 -12 -4 -10 11 -10 14 0 18 6 3 12 11 12
19 0 8 5 14 10 14 6 0 10 -7 10 -15z m50 4 c0 -6 -13 -24 -30 -41 -16 -16 -30
-25 -30 -19 0 5 8 17 18 27 9 10 18 21 18 26 3 16 4 18 14 18 6 0 10 -5 10
-11z m87 -9 c-1 -11 -5 -20 -9 -20 -11 0 -20 19 -13 30 11 17 24 11 22 -10z
m135 -28 c-7 -2 -12 -10 -12 -18 0 -8 -4 -14 -10 -14 -14 0 -13 7 7 37 11 17
19 21 22 12 2 -7 -1 -15 -7 -17z m-196 -6 c17 -17 19 -56 3 -56 -7 0 -9 9 -6
21 3 12 0 22 -9 26 -8 3 -14 9 -14 14 0 13 9 11 26 -5z m57 -13 c-4 -10 -2
-14 4 -10 5 4 10 -6 10 -23 0 -30 -14 -41 -21 -17 -15 48 -16 67 -2 67 10 0
13 -6 9 -17z m159 -5 c-7 -7 -12 -8 -12 -2 0 14 12 26 19 19 2 -3 -1 -11 -7
-17z m38 12 c0 -5 -2 -10 -4 -10 -3 0 -8 5 -11 10 -3 6 -1 10 4 10 6 0 11 -4
11 -10z m-375 -20 c-3 -11 -3 -20 2 -20 17 0 7 -80 -12 -102 -10 -13 -18 -24
-17 -25 6 -7 1 -23 -7 -23 -5 0 -8 11 -7 24 0 13 3 22 5 20 2 -2 11 5 19 17
12 18 12 22 -4 40 -16 17 -16 19 -1 19 19 0 23 26 6 32 -12 4 -1 38 13 38 5 0
6 -9 3 -20z m82 -5 c-4 -8 -2 -17 3 -20 12 -8 13 -25 1 -25 -5 0 -11 8 -15 18
-3 9 -9 23 -12 30 -3 7 1 12 11 12 11 0 15 -5 12 -15z m-30 -23 c8 -5 7 -13
-5 -27 -9 -11 -16 -18 -15 -16 2 2 -2 10 -8 17 -18 22 3 42 28 26z m-127 -22
c0 -5 -8 -10 -17 -10 -15 0 -16 2 -3 10 19 12 20 12 20 0z m160 -10 c12 -7 12
-12 2 -22 -9 -9 -12 -9 -12 4 0 9 -6 19 -12 21 -7 3 -8 6 -3 6 6 0 17 -4 25
-9z m115 -9 c3 -5 1 -12 -5 -16 -5 -3 -10 1 -10 9 0 18 6 21 15 7z"/>
<path d="M1044 1175 c-10 -8 -14 -15 -7 -15 19 0 43 11 43 21 0 13 -14 11 -36
-6z"/>
<path d="M770 1099 c0 -5 5 -7 10 -4 6 3 10 8 10 11 0 2 -4 4 -10 4 -5 0 -10
-5 -10 -11z"/>
<path d="M1270 1452 c0 -5 9 -12 21 -15 13 -3 19 -1 16 6 -5 15 -37 22 -37 9z"/>
<path d="M1386 1421 c-4 -5 -5 -15 -3 -23 2 -7 2 -10 0 -5 -3 4 -9 5 -13 2
-11 -7 -2 -35 11 -35 12 0 40 56 32 64 -9 9 -21 7 -27 -3z"/>
<path d="M1436 1383 c9 -38 15 -43 42 -36 22 5 22 6 5 25 -10 11 -26 24 -36
29 -16 9 -17 7 -11 -18z m34 -23 c0 -5 -2 -10 -4 -10 -3 0 -8 5 -11 10 -3 6
-1 10 4 10 6 0 11 -4 11 -10z"/>
<path d="M1290 1386 c0 -2 7 -9 15 -16 9 -7 15 -8 15 -2 0 5 -7 12 -15 16 -8
3 -15 4 -15 2z"/>
<path d="M1263 1362 c-13 -2 -23 -7 -23 -12 0 -4 -14 -7 -30 -6 -18 1 -29 -2
-27 -8 2 -6 12 -11 23 -11 10 0 32 -9 47 -19 27 -18 28 -18 42 0 8 10 15 23
15 27 0 16 -25 32 -47 29z m27 -22 c0 -5 -5 -10 -11 -10 -5 0 -7 5 -4 10 3 6
8 10 11 10 2 0 4 -4 4 -10z m-30 -10 c0 -5 -4 -10 -10 -10 -5 0 -10 5 -10 10
0 6 5 10 10 10 6 0 10 -4 10 -10z m30 -14 c0 -3 -4 -8 -10 -11 -5 -3 -10 -1
-10 4 0 6 5 11 10 11 6 0 10 -2 10 -4z"/>
<path d="M1351 1336 c-7 -8 -8 -17 -3 -20 6 -3 15 1 21 8 7 8 8 17 3 20 -6 3
-15 -1 -21 -8z"/>
<path d="M1505 1340 c-3 -5 11 -16 31 -25 46 -19 65 -19 40 0 -10 8 -22 12
-26 10 -5 -3 -10 2 -14 10 -6 17 -22 20 -31 5z"/>
<path d="M800 1319 c0 -6 7 -9 15 -5 8 3 15 2 15 -2 0 -13 -35 -39 -48 -34 -7
2 -12 -3 -12 -12 0 -9 -4 -16 -10 -16 -5 0 -10 7 -10 15 0 8 -4 15 -10 15 -5
0 -9 -11 -8 -25 2 -17 7 -24 16 -20 8 3 24 8 35 11 27 7 71 60 62 74 -8 14
-45 13 -45 -1z"/>
<path d="M1280 1272 c0 -5 7 -13 16 -16 10 -4 14 -1 12 6 -5 15 -28 23 -28 10z"/>
<path d="M1625 1261 c-9 -16 3 -31 20 -24 8 3 15 0 15 -6 0 -6 9 -11 20 -11
11 0 20 5 20 10 0 6 -8 10 -17 10 -9 0 -24 7 -34 16 -11 10 -19 12 -24 5z"/>
<path d="M635 1250 c-6 -9 1 -14 18 -11 15 2 6 -19 -13 -29 -22 -12 -18 -30 7
-30 9 0 13 6 9 15 -4 12 0 14 19 9 34 -8 32 10 -4 36 -18 12 -32 16 -36 10z"/>
<path d="M1474 1181 c4 -5 0 -11 -6 -14 -7 -2 -10 -8 -6 -12 10 -10 40 14 32
26 -3 5 -10 9 -15 9 -6 0 -8 -4 -5 -9z"/>
<path d="M1575 1151 c-3 -5 -1 -12 5 -16 12 -7 30 2 30 16 0 12 -27 12 -35 0z"/>
<path d="M1630 1130 c0 -5 5 -10 11 -10 5 0 7 5 4 10 -3 6 -8 10 -11 10 -2 0
-4 -4 -4 -10z"/>
<path d="M573 1075 c-10 -10 -9 -15 4 -19 22 -9 37 8 21 21 -9 8 -16 7 -25 -2z"/>
<path d="M1667 1071 c3 -12 11 -17 19 -14 21 8 17 33 -5 33 -14 0 -18 -5 -14
-19z"/>
<path d="M1631 1056 c-9 -10 -6 -17 13 -30 24 -15 56 -13 56 5 0 14 -20 11
-21 -3 0 -7 -5 -1 -11 15 -11 30 -20 34 -37 13z"/>
<path d="M1550 1022 c0 -12 19 -26 26 -19 2 2 -2 10 -11 17 -9 8 -15 8 -15 2z"/>
<path d="M1555 970 c-3 -5 -1 -10 4 -10 6 0 11 5 11 10 0 6 -2 10 -4 10 -3 0
-8 -4 -11 -10z"/>
<path d="M1602 968 c-19 -19 -14 -31 11 -26 13 2 29 -1 35 -9 7 -7 22 -13 34
-13 21 0 21 0 2 15 -10 8 -23 15 -28 15 -5 0 -17 7 -26 15 -13 11 -19 12 -28
3z"/>
<path d="M1531 881 c-11 -7 -9 -11 9 -21 16 -9 19 -14 10 -20 -9 -5 -9 -9 -1
-14 18 -12 30 2 27 32 -3 28 -22 38 -45 23z"/>
<path d="M1485 812 c-19 -13 -14 -29 8 -28 12 0 22 7 22 15 0 17 -16 24 -30
13z"/>
<path d="M1376 742 c-9 -15 10 -31 35 -28 32 3 51 15 44 27 -9 14 -27 11 -19
-3 6 -10 4 -10 -7 0 -15 14 -45 16 -53 4z m34 -12 c0 -5 -2 -10 -4 -10 -3 0
-8 5 -11 10 -3 6 -1 10 4 10 6 0 11 -4 11 -10z"/>
<path d="M1395 670 c-5 -8 2 -11 58 -26 21 -6 22 -6 2 8 -29 21 -54 28 -60 18z"/>
<path d="M1223 654 c-7 -7 -9 -15 -4 -18 5 -3 14 1 20 8 15 18 0 28 -16 10z"/>
<path d="M750 550 c14 -11 28 -20 33 -20 4 0 7 -5 7 -10 0 -22 35 -49 50 -40
8 5 12 10 10 12 -3 2 -26 20 -52 41 -25 20 -52 37 -60 37 -7 0 -2 -9 12 -20z"/>
<path d="M1278 562 c11 -7 10 -11 -3 -16 -10 -3 -24 -1 -31 5 -12 10 -14 7
-11 -12 2 -13 6 -23 8 -22 2 1 19 7 37 14 35 12 38 32 6 37 -14 2 -16 1 -6 -6z"/>
<path d="M1261 515 c0 -5 4 -17 9 -25 7 -12 12 -12 22 -2 9 9 9 15 -1 25 -11
10 -13 10 -7 0 4 -7 3 -13 -3 -13 -5 0 -12 6 -14 13 -3 6 -6 8 -6 2z"/>
<path d="M712 489 c2 -7 10 -15 17 -17 8 -3 12 1 9 9 -2 7 -10 15 -17 17 -8 3
-12 -1 -9 -9z"/>
<path d="M1146 485 c4 -8 10 -12 15 -9 14 8 10 24 -6 24 -9 0 -12 -6 -9 -15z"/>
<path d="M1192 488 c6 -18 28 -21 28 -4 0 9 -7 16 -16 16 -9 0 -14 -5 -12 -12z"/>
</g>
</svg>
